<svg class="thumb" width="537" height="300" viewBox="0,0,537,300" xmlns="http://www.w3.org/2000/svg" xmlns:inkscape="http://www.inkscape.org/namespaces/inkscape" xmlns:sodipodi="http://sodipodi.sourceforge.net/DTD/sodipodi-0.dtd" xmlns:xlink="http://www.w3.org/1999/xlink" xmlns:ns1="http://www.inkscape.org/namespaces/inkscape" xmlns:sketch="http://www.bohemiancoding.com/sketch/ns"><defs></defs><g><g transform="matrix(0.098,0,0,0.098,90.3381,186.89)"><svg class="thumb" width="187.0337218024264" height="186.77" viewBox="-5.131860901213205,-5,187.0337218024264,186.77"><defs><linearGradient x1="0" y1="0.5" x2="1" y2="0.5" id="linearGradientSkdiqwf9du0"><stop offset="0%" stop-color="#e78200"></stop><stop offset="100%" stop-color="#e78200"></stop></linearGradient></defs><g></g><g><circle fill="url('#linearGradientSkdiqwf9du0')" style="" cx="88.385" cy="88.385" r="88.385"></circle></g></svg></g><g transform="matrix(0.098,0,0,0.098,431.338,186.89)"><svg class="thumb" width="187.0337218024264" height="186.77" viewBox="-5.131860901213205,-5,187.0337218024264,186.77"><defs><linearGradient x1="0" y1="0.5" x2="1" y2="0.5" id="linearGradientSkdiqwf9du6"><stop offset="0%" stop-color="#e78200"></stop><stop offset="100%" stop-color="#e78200"></stop></linearGradient></defs><g></g><g><circle fill="url('#linearGradientSkdiqwf9du6')" style="" cx="88.385" cy="88.385" r="88.385"></circle></g></svg></g><g transform="matrix(0.9944,0,0,0.9944,90.9663,0.3382)"><svg width="348" height="360" style="overflow: visible;"><defs><linearGradient x1="0" y1="0.5" x2="1" y2="0.5" id="linearGradientSkdiqwf9dx3"><stop offset="0%" stop-color="#009cbf"></stop><stop offset="100%" stop-color="#009cbf"></stop></linearGradient></defs><g><path d="M-96.64999999999999 0.5Q-108.54999999999998 0.5 -117.35-3.85Q-126.14999999999999-8.2 -130.85-16.2Q-135.54999999999998-24.2 -135.54999999999998-34.8L-135.54999999999998-34.8Q-135.54999999999998-49.5 -130-60.9Q-124.44999999999999-72.3 -114.94999999999999-78.55Q-105.44999999999999-84.8 -93.85-84.8L-93.85-84.8Q-83.04999999999998-84.8 -77.44999999999999-79.25Q-71.85-73.7 -71.85-64.6L-71.85-64.6Q-71.85-58.5 -73.99999999999999-54.8Q-76.14999999999999-51.1 -80.14999999999999-51.1L-80.14999999999999-51.1Q-82.94999999999999-51.1 -84.54999999999998-52.4Q-86.14999999999999-53.7 -86.14999999999999-56.2L-86.14999999999999-56.2Q-86.14999999999999-57.1 -85.74999999999999-59.5L-85.74999999999999-59.5Q-85.14999999999999-62.5 -85.14999999999999-64.3L-85.14999999999999-64.3Q-85.14999999999999-73.4 -94.85-73.4L-94.85-73.4Q-101.44999999999999-73.4 -107.44999999999999-69.1Q-113.44999999999999-64.8 -117.14999999999999-56.45Q-120.85-48.1 -120.85-36.6L-120.85-36.6Q-120.85-24.6 -114.14999999999999-18.05Q-107.44999999999999-11.5 -94.35-11.5L-94.35-11.5Q-87.85-11.5 -81.19999999999999-13.15Q-74.54999999999998-14.8 -66.44999999999999-18.2L-66.44999999999999-18.2Q-64.94999999999999-18.8 -63.94999999999999-18.8L-63.94999999999999-18.8Q-62.349999999999994-18.8 -61.54999999999998-17.6Q-60.749999999999986-16.4 -60.749999999999986-14.5L-60.749999999999986-14.5Q-60.749999999999986-8.4 -67.35-5.5L-67.35-5.5Q-74.44999999999999-2.4 -82.1-0.95Q-89.74999999999999 0.5 -96.64999999999999 0.5L-96.64999999999999 0.5ZM-56.24999999999999 0.5Q-62.449999999999996 0.5 -66.14999999999999-4Q-69.85-8.5 -69.85-15.8L-69.85-15.8Q-69.85-23.8 -66.14999999999999-30.95Q-62.449999999999996-38.1 -56.3-42.45Q-50.14999999999999-46.8 -43.24999999999999-46.8L-43.24999999999999-46.8Q-41.05-46.8 -40.3-45.95Q-39.55-45.1 -39.05-42.9L-39.05-42.9Q-36.949999999999996-43.3 -34.64999999999999-43.3L-34.64999999999999-43.3Q-29.749999999999993-43.3 -29.749999999999993-39.8L-29.749999999999993-39.8Q-29.749999999999993-37.7 -31.249999999999993-29.8L-31.249999999999993-29.8Q-33.55-18.3 -33.55-13.8L-33.55-13.8Q-33.55-12.3 -32.8-11.4Q-32.05-10.5 -30.849999999999994-10.5L-30.849999999999994-10.5Q-28.949999999999996-10.5 -26.249999999999993-12.95Q-23.549999999999997-15.4 -18.949999999999996-20.9L-18.949999999999996-20.9Q-17.749999999999993-22.3 -16.249999999999993-22.3L-16.249999999999993-22.3Q-14.949999999999996-22.3 -14.199999999999996-21.1Q-13.449999999999996-19.9 -13.449999999999996-17.8L-13.449999999999996-17.8Q-13.449999999999996-13.8 -15.349999999999994-11.6L-15.349999999999994-11.6Q-19.449999999999996-6.5 -24.049999999999997-3Q-28.64999999999999 0.5 -32.949999999999996 0.5L-32.949999999999996 0.5Q-36.24999999999999 0.5 -38.99999999999999-1.75Q-41.74999999999999-4 -43.14999999999999-7.9L-43.14999999999999-7.9Q-48.349999999999994 0.5 -56.24999999999999 0.5L-56.24999999999999 0.5ZM-52.64999999999999-9.6Q-50.449999999999996-9.6 -48.449999999999996-12.2Q-46.449999999999996-14.8 -45.55-19.1L-45.55-19.1L-41.849999999999994-37.5Q-46.05-37.4 -49.599999999999994-34.35Q-53.14999999999999-31.3 -55.24999999999999-26.3Q-57.349999999999994-21.3 -57.349999999999994-15.7L-57.349999999999994-15.7Q-57.349999999999994-12.6 -56.099999999999994-11.1Q-54.849999999999994-9.6 -52.64999999999999-9.6L-52.64999999999999-9.6ZM-2.949999999999971 2.7Q-8.14999999999997 2.7 -10.89999999999997 0.3Q-13.64999999999997-2.1 -13.64999999999997-5.1L-13.64999999999997-5.1Q-13.64999999999997-7.7 -11.74999999999997-9.6Q-9.84999999999997-11.5 -6.14999999999997-11.5L-6.14999999999997-11.5Q-4.8499999999999694-11.5 -3.0999999999999694-11.25Q-1.3499999999999694-11 -0.44999999999997087-10.9L-0.44999999999997087-10.9Q-0.5499999999999687-13.5 -1.5999999999999694-15.8Q-2.64999999999997-18.1 -4.249999999999968-20.25Q-5.8499999999999694-22.4 -7.249999999999968-24L-7.249999999999968-24Q-10.34999999999997-18.1 -13.39999999999997-14.2Q-16.449999999999967-10.3 -20.04999999999997-6.8L-20.04999999999997-6.8Q-21.84999999999997-5 -23.84999999999997-5L-23.84999999999997-5Q-25.44999999999997-5-26.44999999999997-6.15Q-27.44999999999997-7.3-27.44999999999997-9L-27.44999999999997-9Q-27.44999999999997-11 -26.04999999999997-12.7L-26.04999999999997-12.7L-24.749999999999968-14.3Q-19.24999999999997-21.1 -16.449999999999967-25.5L-16.449999999999967-25.5Q-14.74999999999997-28.4 -12.449999999999969-33.25Q-10.14999999999997-38.1 -7.949999999999971-43.3L-7.949999999999971-43.3Q-6.049999999999969-47.7 -0.049999999999968736-47.7L-0.049999999999968736-47.7Q 2.750000000000032-47.7  3.85000000000003-47.2Q 4.950000000000031-46.7  4.950000000000031-45.6L 4.950000000000031-45.6Q 4.950000000000031-45  4.550000000000029-43.7Q 4.1500000000000306-42.4  3.4500000000000313-41.1L 3.4500000000000313-41.1Q 1.6500000000000306-37.5  1.6500000000000306-35L 1.6500000000000306-35Q 1.6500000000000306-33.5  2.7000000000000313-31.7Q 3.750000000000032-29.9  5.950000000000028-27.2L 5.950000000000028-27.2Q 9.15000000000003-23  10.80000000000003-20.05Q 12.450000000000028-17.1  12.450000000000028-13.6L 12.450000000000028-13.6Q 12.450000000000028-12.6  12.250000000000032-10.8L 12.250000000000032-10.8Q 17.15000000000003-12.7  23.750000000000032-20.9L 23.750000000000032-20.9Q 24.950000000000028-22.3  26.450000000000028-22.3L 26.450000000000028-22.3Q 27.750000000000032-22.3  28.500000000000032-21.1Q 29.250000000000032-19.9  29.250000000000032-17.8L 29.250000000000032-17.8Q 29.250000000000032-14  27.350000000000033-11.6L 27.350000000000033-11.6Q 22.350000000000033-5.4  17.80000000000003-3.15Q 13.250000000000032-0.9  6.550000000000029-0.7L 6.550000000000029-0.7Q 2.550000000000029 2.7 -2.949999999999971 2.7L-2.949999999999971 2.7ZM 33.45000000000004 0.5Q 27.250000000000036 0.5  23.550000000000036-4Q 19.850000000000037-8.5  19.850000000000037-15.8L 19.850000000000037-15.8Q 19.850000000000037-23.8  23.550000000000036-30.95Q 27.250000000000036-38.1  33.400000000000034-42.45Q 39.55000000000004-46.8  46.45000000000004-46.8L 46.45000000000004-46.8Q 48.650000000000034-46.8  49.400000000000034-45.95Q 50.150000000000034-45.1  50.650000000000034-42.9L 50.650000000000034-42.9Q 52.750000000000036-43.3  55.05000000000004-43.3L 55.05000000000004-43.3Q 59.95000000000004-43.3  59.95000000000004-39.8L 59.95000000000004-39.8Q 59.95000000000004-37.7  58.45000000000004-29.8L 58.45000000000004-29.8Q 56.150000000000034-18.3  56.150000000000034-13.8L 56.150000000000034-13.8Q 56.150000000000034-12.3  56.900000000000034-11.4Q 57.650000000000034-10.5  58.85000000000004-10.5L 58.85000000000004-10.5Q 60.750000000000036-10.5  63.45000000000004-12.95Q 66.15000000000003-15.4  70.75000000000003-20.9L 70.75000000000003-20.9Q 71.95000000000005-22.3  73.45000000000005-22.3L 73.45000000000005-22.3Q 74.75000000000003-22.3  75.50000000000003-21.1Q 76.25000000000003-19.9  76.25000000000003-17.8L 76.25000000000003-17.8Q 76.25000000000003-13.8  74.35000000000004-11.6L 74.35000000000004-11.6Q 70.25000000000003-6.5  65.65000000000003-3Q 61.05000000000004 0.5  56.750000000000036 0.5L 56.750000000000036 0.5Q 53.45000000000004 0.5  50.70000000000004-1.75Q 47.95000000000004-4  46.55000000000004-7.9L 46.55000000000004-7.9Q 41.35000000000004 0.5  33.45000000000004 0.5L 33.45000000000004 0.5ZM 37.05000000000004-9.6Q 39.250000000000036-9.6  41.250000000000036-12.2Q 43.250000000000036-14.8  44.150000000000034-19.1L 44.150000000000034-19.1L 47.85000000000004-37.5Q 43.650000000000034-37.4  40.10000000000004-34.35Q 36.55000000000004-31.3  34.45000000000004-26.3Q 32.35000000000004-21.3  32.35000000000004-15.7L 32.35000000000004-15.7Q 32.35000000000004-12.6  33.60000000000004-11.1Q 34.85000000000004-9.6  37.05000000000004-9.6L 37.05000000000004-9.6ZM 106.05000000000004-22.3Q 107.35000000000004-22.3  108.10000000000004-21.1Q 108.85000000000004-19.9  108.85000000000004-17.8L 108.85000000000004-17.8Q 108.85000000000004-13.8  106.95000000000005-11.6L 106.95000000000005-11.6Q 102.65000000000003-6.3  97.60000000000004-2.9Q 92.55000000000004 0.5  86.15000000000003 0.5L 86.15000000000003 0.5Q 77.35000000000004 0.5  73.10000000000004-7.5Q 68.85000000000004-15.5  68.85000000000004-28.2L 68.85000000000004-28.2Q 68.85000000000004-40.4  72.00000000000004-56Q 75.15000000000003-71.6  81.30000000000004-82.8Q 87.45000000000005-94  95.95000000000005-94L 95.95000000000005-94Q 100.75000000000003-94  103.50000000000003-89.55Q 106.25000000000003-85.1  106.25000000000003-76.8L 106.25000000000003-76.8Q 106.25000000000003-64.9  99.65000000000003-49.2Q 93.05000000000004-33.5  81.75000000000003-18.1L 81.75000000000003-18.1Q 82.45000000000005-14  84.05000000000004-12.25Q 85.65000000000003-10.5  88.25000000000003-10.5L 88.25000000000003-10.5Q 92.35000000000004-10.5  95.45000000000005-12.85Q 98.55000000000004-15.2  103.35000000000004-20.9L 103.35000000000004-20.9Q 104.55000000000004-22.3  106.05000000000004-22.3L 106.05000000000004-22.3ZM 93.75000000000003-84.1Q 91.45000000000005-84.1  88.55000000000004-75.8Q 85.65000000000003-67.5  83.45000000000005-55.2Q 81.25000000000003-42.9  81.05000000000004-31.6L 81.05000000000004-31.6Q 88.15000000000003-43.3  92.35000000000004-55.05Q 96.55000000000004-66.8  96.55000000000004-76.5L 96.55000000000004-76.5Q 96.55000000000004-84.1  93.75000000000003-84.1L 93.75000000000003-84.1ZM 112.05000000000004 0.5Q 105.85000000000004 0.5  102.15000000000003-4Q 98.45000000000003-8.5  98.45000000000003-15.8L 98.45000000000003-15.8Q 98.45000000000003-23.8  102.15000000000003-30.95Q 105.85000000000004-38.1  112.00000000000003-42.45Q 118.15000000000003-46.8  125.05000000000004-46.8L 125.05000000000004-46.8Q 127.25000000000003-46.8  128.00000000000003-45.95Q 128.75000000000003-45.1  129.25000000000003-42.9L 129.25000000000003-42.9Q 131.35000000000002-43.3  133.65000000000003-43.3L 133.65000000000003-43.3Q 138.55000000000004-43.3  138.55000000000004-39.8L 138.55000000000004-39.8Q 138.55000000000004-37.7  137.05000000000004-29.8L 137.05000000000004-29.8Q 134.75000000000003-18.3  134.75000000000003-13.8L 134.75000000000003-13.8Q 134.75000000000003-12.3  135.50000000000003-11.4Q 136.25000000000003-10.5  137.45000000000005-10.5L 137.45000000000005-10.5Q 139.35000000000002-10.5  142.05000000000004-12.95Q 144.75000000000003-15.4  149.35000000000002-20.9L 149.35000000000002-20.9Q 150.55000000000004-22.3  152.05000000000004-22.3L 152.05000000000004-22.3Q 153.35000000000002-22.3  154.10000000000002-21.1Q 154.85000000000002-19.9  154.85000000000002-17.8L 154.85000000000002-17.8Q 154.85000000000002-13.8  152.95000000000005-11.6L 152.95000000000005-11.6Q 148.85000000000002-6.5  144.25000000000003-3Q 139.65000000000003 0.5  135.35000000000002 0.5L 135.35000000000002 0.5Q 132.05000000000004 0.5  129.30000000000004-1.75Q 126.55000000000004-4  125.15000000000003-7.9L 125.15000000000003-7.9Q 119.95000000000003 0.5  112.05000000000004 0.5L 112.05000000000004 0.5ZM 115.65000000000003-9.6Q 117.85000000000002-9.6  119.85000000000002-12.2Q 121.85000000000002-14.8  122.75000000000003-19.1L 122.75000000000003-19.1L 126.45000000000003-37.5Q 122.25000000000003-37.4  118.70000000000003-34.35Q 115.15000000000003-31.3  113.05000000000004-26.3Q 110.95000000000003-21.3  110.95000000000003-15.7L 110.95000000000003-15.7Q 110.95000000000003-12.6  112.20000000000003-11.1Q 113.45000000000003-9.6  115.65000000000003-9.6L 115.65000000000003-9.6Z" data-textpath="Casala" data-text-anchor="middle" data-font-size="100" data-letterspacing="0" data-side="left" data-offset="0" data-dx="0" data-dy="225" data-xmlspace="preserve" data-href="" data-font="Pacifico" data-font-src="/Content/clientfonts/pacifico.woff" data-font-scale="contain" transform="translate(174,225)" data-x="174" data-y="0" fill="url('#linearGradientSkdiqwf9dx3')"></path></g></svg></g><g transform="matrix(0.3824,0,0,0.3824,155.8426,185.6449)"><svg width="618" height="360" style="overflow: visible;"><defs><linearGradient x1="0" y1="0.5" x2="1" y2="0.5" id="linearGradientSkdiqwf9dwu"><stop offset="0%" stop-color="#000000"></stop><stop offset="100%" stop-color="#000000"></stop></linearGradient></defs><g><path d="M-261.29999999999995 0L-269.59999999999997 0L-269.59999999999997-65.6L-249.09999999999997-65.6Q-244.09999999999997-65.6 -239.84999999999997-64.65Q-235.59999999999997-63.7 -232.54999999999995-61.5Q-229.49999999999997-59.3 -227.79999999999995-55.8Q-226.09999999999997-52.3 -226.09999999999997-47.2L-226.09999999999997-47.2Q-226.09999999999997-39.5 -230.09999999999997-34.9Q-234.09999999999997-30.3 -240.89999999999998-28.6L-240.89999999999998-28.6L-224.19999999999996 0L-233.59999999999997 0L-249.39999999999998-27.7L-261.29999999999995-27.7L-261.29999999999995 0ZM-261.29999999999995-58.9L-261.29999999999995-34.5L-250.29999999999995-34.5Q-242.59999999999997-34.5 -238.49999999999997-37.65Q-234.39999999999998-40.8 -234.39999999999998-47.2L-234.39999999999998-47.2Q-234.39999999999998-53.7 -238.49999999999997-56.3Q-242.59999999999997-58.9 -250.29999999999995-58.9L-250.29999999999995-58.9L-261.29999999999995-58.9ZM-173.89999999999992 0L-212.69999999999993 0L-212.69999999999993-65.6L-174.89999999999992-65.6L-174.89999999999992-58.6L-204.39999999999992-58.6L-204.39999999999992-38L-179.49999999999994-38L-179.49999999999994-30.9L-204.39999999999992-30.9L-204.39999999999992-7.1L-173.89999999999992-7.1L-173.89999999999992 0ZM-141.79999999999995 1.2L-141.79999999999995 1.2Q-148.69999999999993 1.2 -154.59999999999994-1.4Q-160.49999999999994-4 -164.79999999999995-8.5L-164.79999999999995-8.5L-159.79999999999995-14.3Q-156.29999999999995-10.6 -151.54999999999995-8.35Q-146.79999999999995-6.1 -141.69999999999993-6.1L-141.69999999999993-6.1Q-135.19999999999993-6.1 -131.59999999999994-9.05Q-127.99999999999994-12 -127.99999999999994-16.8L-127.99999999999994-16.8Q-127.99999999999994-19.3 -128.84999999999994-21.05Q-129.69999999999993-22.8 -131.14999999999995-24.05Q-132.59999999999994-25.3 -134.59999999999994-26.3Q-136.59999999999994-27.3 -138.89999999999995-28.4L-138.89999999999995-28.4L-148.29999999999995-32.5Q-150.59999999999994-33.5 -152.99999999999994-34.9Q-155.39999999999995-36.3 -157.29999999999995-38.3Q-159.19999999999993-40.3 -160.39999999999995-43.05Q-161.59999999999994-45.8 -161.59999999999994-49.4L-161.59999999999994-49.4Q-161.59999999999994-53.1 -160.04999999999995-56.3Q-158.49999999999994-59.5 -155.74999999999994-61.85Q-152.99999999999994-64.2 -149.24999999999994-65.5Q-145.49999999999994-66.8 -140.99999999999994-66.8L-140.99999999999994-66.8Q-135.09999999999994-66.8 -130.09999999999994-64.55Q-125.09999999999994-62.3 -121.59999999999994-58.7L-121.59999999999994-58.7L-126.09999999999994-53.3Q-129.09999999999994-56.2 -132.74999999999994-57.85Q-136.39999999999995-59.5 -140.99999999999994-59.5L-140.99999999999994-59.5Q-146.49999999999994-59.5 -149.84999999999994-56.95Q-153.19999999999993-54.4 -153.19999999999993-49.9L-153.19999999999993-49.9Q-153.19999999999993-47.5 -152.24999999999994-45.85Q-151.29999999999995-44.2 -149.69999999999993-42.95Q-148.09999999999994-41.7 -146.19999999999993-40.75Q-144.29999999999995-39.8 -142.29999999999995-39L-142.29999999999995-39L-132.99999999999994-35Q-130.19999999999993-33.8 -127.69999999999995-32.25Q-125.19999999999995-30.7 -123.39999999999995-28.65Q-121.59999999999994-26.6 -120.54999999999994-23.85Q-119.49999999999994-21.1 -119.49999999999994-17.5L-119.49999999999994-17.5Q-119.49999999999994-13.6 -121.04999999999994-10.2Q-122.59999999999994-6.8 -125.49999999999994-4.25Q-128.39999999999995-1.7 -132.49999999999994-0.25Q-136.59999999999994 1.2 -141.79999999999995 1.2ZM-86.59999999999994 0L-94.99999999999994 0L-94.99999999999994-58.6L-114.79999999999994-58.6L-114.79999999999994-65.6L-66.79999999999994-65.6L-66.79999999999994-58.6L-86.59999999999994-58.6L-86.59999999999994 0ZM-47.699999999999946-36.7L-47.699999999999946-36.7L-50.79999999999994-26.7L-31.099999999999945-26.7L-34.199999999999946-36.7Q-35.99999999999994-42.2 -37.599999999999945-47.65Q-39.199999999999946-53.1 -40.79999999999994-58.8L-40.79999999999994-58.8L-41.199999999999946-58.8Q-42.699999999999946-53.1 -44.29999999999994-47.65Q-45.89999999999994-42.2 -47.699999999999946-36.7ZM-59.199999999999946 0L-67.69999999999995 0L-45.49999999999994-65.6L-36.099999999999945-65.6L-13.899999999999942 0L-22.79999999999994 0L-28.999999999999943-20L-52.89999999999994-20L-59.199999999999946 0ZM 17.200000000000053 1.2L 17.200000000000053 1.2Q 12.200000000000056 1.2  7.850000000000055-0.25Q 3.500000000000057-1.7  0.3500000000000547-5.05Q-2.799999999999944-8.4 -4.599999999999945-13.8Q-6.399999999999945-19.2 -6.399999999999945-27.1L-6.399999999999945-27.1L-6.399999999999945-65.6L 1.9000000000000554-65.6L 1.9000000000000554-26.9Q 1.9000000000000554-21  3.1000000000000547-17Q 4.300000000000054-13  6.350000000000055-10.6Q 8.400000000000055-8.2  11.200000000000056-7.15Q 14.000000000000057-6.1  17.200000000000053-6.1L 17.200000000000053-6.1Q 20.500000000000057-6.1  23.300000000000054-7.15Q 26.10000000000006-8.2  28.200000000000053-10.6Q 30.300000000000054-13  31.500000000000057-17Q 32.70000000000005-21  32.70000000000005-26.9L 32.70000000000005-26.9L 32.70000000000005-65.6L 40.70000000000005-65.6L 40.70000000000005-27.1Q 40.70000000000005-19.2  38.900000000000055-13.8Q 37.10000000000006-8.4  33.95000000000005-5.05Q 30.800000000000054-1.7  26.500000000000057-0.25Q 22.200000000000053 1.2  17.200000000000053 1.2ZM 66.70000000000006 0L 58.40000000000006 0L 58.40000000000006-65.6L 78.90000000000006-65.6Q 83.90000000000006-65.6  88.15000000000006-64.65Q 92.40000000000006-63.7  95.45000000000006-61.5Q 98.50000000000006-59.3  100.20000000000006-55.8Q 101.90000000000006-52.3  101.90000000000006-47.2L 101.90000000000006-47.2Q 101.90000000000006-39.5  97.90000000000006-34.9Q 93.90000000000006-30.3  87.10000000000007-28.6L 87.10000000000007-28.6L 103.80000000000007 0L 94.40000000000006 0L 78.60000000000007-27.7L 66.70000000000006-27.7L 66.70000000000006 0ZM 66.70000000000006-58.9L 66.70000000000006-34.5L 77.70000000000006-34.5Q 85.40000000000006-34.5  89.50000000000006-37.65Q 93.60000000000007-40.8  93.60000000000007-47.2L 93.60000000000007-47.2Q 93.60000000000007-53.7  89.50000000000006-56.3Q 85.40000000000006-58.9  77.70000000000006-58.9L 77.70000000000006-58.9L 66.70000000000006-58.9ZM 126.20000000000007-36.7L 126.20000000000007-36.7L 123.10000000000008-26.7L 142.80000000000007-26.7L 139.70000000000007-36.7Q 137.9000000000001-42.2  136.30000000000007-47.65Q 134.70000000000007-53.1  133.10000000000008-58.8L 133.10000000000008-58.8L 132.70000000000007-58.8Q 131.20000000000007-53.1  129.60000000000008-47.65Q 128.00000000000009-42.2  126.20000000000007-36.7ZM 114.70000000000007 0L 106.20000000000007 0L 128.4000000000001-65.6L 137.80000000000007-65.6L 160.00000000000009 0L 151.10000000000008 0L 144.9000000000001-20L 121.00000000000007-20L 114.70000000000007 0ZM 177.2000000000001 0L 169.3000000000001 0L 169.3000000000001-65.6L 177.9000000000001-65.6L 201.60000000000008-24.4L 208.7000000000001-10.8L 209.10000000000008-10.8Q 208.8000000000001-15.8  208.4500000000001-21.15Q 208.10000000000008-26.5  208.10000000000008-31.7L 208.10000000000008-31.7L 208.10000000000008-65.6L 216.0000000000001-65.6L 216.0000000000001 0L 207.4000000000001 0L 183.6000000000001-41.3L 176.50000000000009-54.8L 176.1000000000001-54.8Q 176.50000000000009-49.8  176.8500000000001-44.65Q 177.2000000000001-39.5  177.2000000000001-34.3L 177.2000000000001-34.3L 177.2000000000001 0ZM 256.0000000000001 0L 247.60000000000008 0L 247.60000000000008-58.6L 227.8000000000001-58.6L 227.8000000000001-65.6L 275.80000000000007-65.6L 275.80000000000007-58.6L 256.0000000000001-58.6L 256.0000000000001 0Z" data-textpath="RESTAURANT" data-text-anchor="middle" data-font-size="100" data-letterspacing="0" data-side="left" data-offset="0" data-dx="0" data-dy="225" data-xmlspace="preserve" data-href="" data-font="Source Sans Pro" data-font-src="/Content/clientfonts/sourcesanspro.woff" data-font-scale="contain" transform="translate(309,225)" data-x="309" data-y="0" fill="url('#linearGradientSkdiqwf9dwu')"></path></g></svg></g></g></svg>