<svg class="thumb" width="351" height="219" viewBox="0,0,351,219" xmlns="http://www.w3.org/2000/svg" xmlns:inkscape="http://www.inkscape.org/namespaces/inkscape" xmlns:sodipodi="http://sodipodi.sourceforge.net/DTD/sodipodi-0.dtd" xmlns:xlink="http://www.w3.org/1999/xlink" xmlns:ns1="http://www.inkscape.org/namespaces/inkscape" xmlns:sketch="http://www.bohemiancoding.com/sketch/ns"><defs></defs><g><g transform="matrix(1.1827,0,0,1.1827,45.9138,0.0052)"><svg width="187.0337218024264" height="186.77" viewBox="-5.131860901213205,-5,187.0337218024264,186.77" class="thumb"><defs><linearGradient x1="0" y1="0.5" x2="1" y2="0.5" id="linearGradientSkdiqwf9d3qn"><stop offset="0%" stop-color="#ed4c5f"></stop><stop offset="100%" stop-color="#ed4c5f"></stop></linearGradient></defs><g><circle cx="88.385" cy="88.385" r="88.385" fill="url('#linearGradientSkdiqwf9d3qn')"></circle></g></svg></g><g transform="matrix(0.5,0,0,0.5,45.5,65.25)"><svg width="238.85714285714286" height="245" style="overflow: visible;"><defs><linearGradient x1="0" y1="0.5" x2="1" y2="0.5" id="linearGradientSkdiqwf9d3qv"><stop offset="0%" stop-color="#ffffff"></stop><stop offset="100%" stop-color="#ffffff"></stop></linearGradient></defs><g><path d="M-49.2-31.3L-49.2-31.3Q-56.7-17 -57.5-17L-57.5-17Q-58-17 -58-18.65Q-58-20.3 -57.4-21.5L-57.4-21.5Q-52.5-29.9 -50-37.5L-50-37.5Q-49.6-38.8 -49.1-39.25Q-48.6-39.7 -47.4-39.7L-47.4-39.7L-46.6-39.7L-37.8-39Q-37.2-40.5 -35.75-44.5Q-34.3-48.5 -33.5-50.6Q-32.7-52.7 -31.1-56.3Q-29.5-59.9 -28.200000000000003-62Q-26.9-64.1 -24.799999999999997-66.75Q-22.700000000000003-69.4 -20.6-70.8L-20.6-70.8Q-15.5-74.2 -9.600000000000001-74.2L-9.600000000000001-74.2Q 0.7999999999999972-74.2  0.7999999999999972-66.5L 0.7999999999999972-66.5Q 0.7999999999999972-63.6 -0.8500000000000014-61.3Q-2.5-59 -5.200000000000003-59L-5.200000000000003-59Q-6.5-59 -7.450000000000003-59.7Q-8.399999999999999-60.4 -8.399999999999999-61.35Q-8.399999999999999-62.3 -6.899999999999999-64.45Q-5.399999999999999-66.6 -5.399999999999999-68.15Q-5.399999999999999-69.7 -6.649999999999999-70.7Q-7.899999999999999-71.7 -9.600000000000001-71.7L-9.600000000000001-71.7Q-12.600000000000001-71.7 -15.600000000000001-68.5Q-18.6-65.3 -21.1-60.1L-21.1-60.1Q-25.5-51 -29-40.7L-29-40.7Q-29.1-40.2 -29.200000000000003-40L-29.200000000000003-40Q-29.5-39.2 -29.700000000000003-38.6L-29.700000000000003-38.6Q-13.899999999999999-38.6 -11.700000000000003-40L-11.700000000000003-40Q-13-36.8 -17.299999999999997-35.8Q-21.6-34.8 -31.1-34.6L-31.1-34.6L-34-26.2Q-40.2-8.4 -43.6-1.75Q-47 4.9 -50.05 9.7Q-53.1 14.5 -56.1 17.6L-56.1 17.6Q-62.9 24.8-70.2 24.8L-70.2 24.8Q-75.1 24.8-77.45 22.5Q-79.8 20.2-79.8 17.35Q-79.8 14.5-78.5 12.6Q-77.2 10.7-75.6 10.7Q-74 10.7-73.2 11.45Q-72.4 12.2-72.4 13.05Q-72.4 13.9-73.45 15.75Q-74.5 17.6-74.5 18.9Q-74.5 20.2-73.8 21.1Q-73.1 22-71.3 22Q-69.5 22-67.05 20.25Q-64.6 18.5 -62.3 15.2L-62.3 15.2Q-53.7 2.5 -39.6-34.5L-39.6-34.5L-42.4-34.5Q-47.5-34.5 -49.2-31.3ZM 3.6000000000000014-53.2L 3.6000000000000014-53.2L 3.1999999999999993-53.2Q 1.1999999999999993-53.2 -0.6500000000000021-51.5Q-2.5-49.8 -3.3000000000000007-48L-3.3000000000000007-48Q-5.900000000000002-49 -5.900000000000002-51.6Q-5.900000000000002-54.2 -3.5-56.85Q-1.1000000000000014-59.5  1.0999999999999979-59.5Q 3.299999999999997-59.5  4.399999999999999-58.5Q 5.5-57.5  5.5-55.95Q 5.5-54.4  3.6000000000000014-53.2ZM-10-40L-10-40L-5-39.9L-4-39.9Q-5.600000000000001-38.7 -8.25-33.4Q-10.900000000000002-28.1 -12.200000000000003-25.4Q-13.500000000000002-22.7 -15.150000000000002-18.1Q-16.8-13.5 -16.8-10.6Q-16.8-7.7 -14.900000000000002-7.7L-14.900000000000002-7.7Q-13.600000000000001-7.7 -11.25-9.45Q-8.900000000000002-11.2 -7.400000000000002-13.15Q-5.900000000000002-15.1 -4.050000000000001-18.1Q-2.200000000000003-21.1 -0.8500000000000014-23.3Q 0.5-25.5  0.6999999999999993-25.5L 0.6999999999999993-25.5Q 1.2999999999999972-25.5  1.2999999999999972-23.65Q 1.2999999999999972-21.8  0.29999999999999716-20.1L 0.29999999999999716-20.1Q-3.400000000000002-13.9 -6.450000000000003-9.75Q-9.5-5.6 -13.400000000000002-2.5Q-17.3 0.6 -20.5 0.6L-20.5 0.6Q-26.1 0.6 -26.1-7.2L-26.1-7.2Q-26.1-19.3 -17.8-34L-17.8-34Q-14.3-40 -10-40ZM 23.500000000000004-40.2L 23.500000000000004-40.2L 28.600000000000005-40.1L 29.600000000000005-40.1Q 28.100000000000005-39  25.350000000000005-33.6Q 22.600000000000005-28.2  21.250000000000004-25.45Q 19.900000000000006-22.7  18.250000000000004-18.05Q 16.600000000000005-13.4  16.600000000000005-10.5Q 16.600000000000005-7.6  18.600000000000005-7.6L 18.600000000000005-7.6Q 19.900000000000006-7.7  22.250000000000004-9.45Q 24.600000000000005-11.2  26.150000000000002-13.15Q 27.700000000000006-15.1  29.550000000000008-18.15Q 31.400000000000002-21.2  32.75-23.45Q 34.10000000000001-25.7  34.30000000000001-25.7L 34.30000000000001-25.7Q 35-25.7  35-23.85Q 35-22  34-20.3L 34-20.3Q 29.700000000000006-13.2  26.900000000000002-9.4Q 24.100000000000005-5.6  20.150000000000006-2.45Q 16.200000000000006 0.7  13.000000000000004 0.7L 13.000000000000004 0.7Q 7.300000000000004 0.7  7.300000000000004-7.7L 7.300000000000004-7.7Q 7.300000000000004-13.4  9.500000000000004-20.6Q 11.700000000000006-27.8  16.000000000000004-34.5L 16.000000000000004-34.5Q 12.500000000000004-31.7  9.000000000000005-31.7L 9.000000000000005-31.7Q 7.900000000000006-31.7  6.700000000000005-32.2L 6.700000000000005-32.2Q-0.399999999999995-18.2 -0.9499999999999948-18.2Q-1.4999999999999947-18.2 -1.4999999999999947-19.85Q-1.4999999999999947-21.5 -0.24999999999999467-24.45Q 1.0000000000000053-27.4  2.4500000000000046-30.1Q 3.9000000000000057-32.8  4.000000000000005-33.1L 4.000000000000005-33.1Q 0.4000000000000048-34.9  0.4000000000000048-38.9L 0.4000000000000048-38.9Q 0.4000000000000048-40.9  1.6500000000000057-42.5Q 2.9000000000000057-44.1  5.100000000000005-44.1Q 7.300000000000004-44.1  8.700000000000005-42.7L 8.700000000000005-42.7Q 8.500000000000005-42.1  8.500000000000005-40.9L 8.500000000000005-40.9Q 8.500000000000005-38.2  10.450000000000006-36.65Q 12.400000000000006-35.1  15.200000000000006-35.1L 15.200000000000006-35.1Q 16.000000000000004-35.1  16.400000000000006-35.2L 16.400000000000006-35.2Q 19.900000000000006-40.2  23.500000000000004-40.2ZM 70.3-26L 70.3-26Q 70.9-26  70.9-24.05Q 70.9-22.1  69.3-19.4Q 67.7-16.7  66.15-14.3Q 64.6-11.9  62-8.7Q 59.400000000000006-5.5  56.9-3.6L 56.9-3.6Q 50.599999999999994 1  44.25 1Q 37.9 1  34-2.25Q 30.099999999999998-5.5  30.099999999999998-12.2L 30.099999999999998-12.2Q 30.099999999999998-22.4  37.6-31.1Q 45.099999999999994-39.8  55.099999999999994-39.8L 55.099999999999994-39.8Q 59.599999999999994-39.8  62.3-37.45Q 65-35.1  65-31.8L 65-31.8Q 65-26.2  59.7-22.8Q 54.4-19.4  47.2-19.4L 47.2-19.4Q 43-19.4  41-20.5L 41-20.5Q 39.1-15.4  39.1-11.5L 39.1-11.5Q 39.1-3.1  46.2-3.1L 46.2-3.1Q 50.4-3.1  54.849999999999994-6.35Q 59.3-9.6  62.45-13.65Q 65.6-17.7  69.6-25.3L 69.6-25.3Q 70-26  70.3-26ZM 59.7-33.9L 59.7-33.9Q 59.7-36.8  56.9-36.8L 56.9-36.8Q 53-36.8  48.2-32Q 43.4-27.2  43.4-24.2L 43.4-24.2Q 43.4-22.2  47.2-22.2Q 51-22.2  55.15-25.9Q 59.3-29.6  59.7-33.9Z" data-textpath="fire" data-text-anchor="middle" data-font-size="100" data-letterspacing="0" data-side="left" data-offset="0" data-dx="0" data-dy="138.75" data-xmlspace="preserve" data-href="" data-font="Playball" data-font-src="/Content/clientfonts/playball.woff" data-font-scale="contain" transform="translate(209,138.75)" data-x="209" data-y="0" fill="url('#linearGradientSkdiqwf9d3qv')"></path></g></svg></g><g transform="matrix(0.2673,0,0,0.2673,115.7114,129.4079)"><svg width="0" height="246" style="overflow: visible;"><defs><linearGradient x1="0" y1="0.5" x2="1" y2="0.5" id="linearGradientSkdiqwf9d3r2"><stop offset="0%" stop-color="#ffffff"></stop><stop offset="100%" stop-color="#ffffff"></stop></linearGradient></defs><g><path d="" data-textpath="" data-text-anchor="middle" data-font-size="100" data-letterspacing="0" data-side="left" data-offset="0" data-dx="0" data-dy="139.5" data-xmlspace="preserve" data-href="" data-font="Fjalla One" data-font-src="/Content/clientfonts/fjallaone.woff" data-font-scale="contain" transform="translate(139.5,139.5)" data-x="139.5" data-y="0" fill="url('#linearGradientSkdiqwf9d3r2')"></path></g></svg></g><g transform="matrix(0.7133,0,0,0.7133,139.8803,25.8339)"><svg width="48.61953556232099" height="100.259" viewBox="25.68969715088069,-0.1299999999999999,48.61953556232099,100.259"><defs><linearGradient x1="0" y1="0.5" x2="1" y2="0.5" id="linearGradientSkdiqwf9d3r7"><stop offset="0%" stop-color="#ffffff"></stop><stop offset="100%" stop-color="#ffffff"></stop></linearGradient></defs><g><path d="M46.547,58.738c-4.128-4.331-11.578-7.743-11.771-17.221c-0.446,0.713-1.499,2.698-1.823,3.53   c-1.18,3.038-1.942,4.97-2.189,8.174c-0.286,3.715,0.227,6.195,2.004,9.602c1.649,3.162,4.247,5.8,6.711,8.482   c5.896,6.421,11.213,13.426,10.593,22.088c-0.033,0.465,0.008,1.322-0.319,1.736c0,0,29.919-14.245,15.744-44.29   C60.95,41.201,47.3,19.572,51.553,4.87c-2.179,1.428-3.599,3.265-4.487,4.34c-3.241,3.922-5.891,8.294-7.715,12.912   c-2.116,5.355-2.975,11.152-1.662,17.047c1.219,5.471,4.188,10.625,6.921,15.78C45.276,56.205,45.92,57.47,46.547,58.738" fill="url('#linearGradientSkdiqwf9d3r7')"></path></g></svg></g></g></svg>