<svg class="thumb" width="530" height="437" viewBox="0,0,530,437" xmlns="http://www.w3.org/2000/svg" xmlns:inkscape="http://www.inkscape.org/namespaces/inkscape" xmlns:sodipodi="http://sodipodi.sourceforge.net/DTD/sodipodi-0.dtd" xmlns:xlink="http://www.w3.org/1999/xlink" xmlns:ns1="http://www.inkscape.org/namespaces/inkscape" xmlns:sketch="http://www.bohemiancoding.com/sketch/ns"><defs></defs><g><g transform="matrix(2.3511,0,0,2.3511,46.5753,0.0808)"><svg width="187.0337218024264" height="186.77" viewBox="-5.131860901213205,-5,187.0337218024264,186.77" class="thumb"><defs><linearGradient x1="0" y1="0.5" x2="1" y2="0.5" id="linearGradientSkdiqwf9d17l"><stop offset="0%" stop-color="#81f0a3"></stop><stop offset="100%" stop-color="#81f0a3"></stop></linearGradient></defs><g><circle cx="88.385" cy="88.385" r="88.385" fill="url('#linearGradientSkdiqwf9d17l')"></circle></g></svg></g><g transform="matrix(2.2442,0,0,2.2442,57.076,9.9951)"><svg width="187.0337218024264" height="186.77" viewBox="-5.131860901213205,-5,187.0337218024264,186.77" class="thumb"><defs><linearGradient x1="0" y1="0.5" x2="1" y2="0.5" id="linearGradientSkdiqwf9d17r"><stop offset="0%" stop-color="#363636"></stop><stop offset="100%" stop-color="#363636"></stop></linearGradient></defs><g><circle cx="88.385" cy="88.385" r="88.385" fill="url('#linearGradientSkdiqwf9d17r')"></circle></g></svg></g><g transform="matrix(0.5101,0,0,0.5101,166.4944,224.732)"><svg width="386" height="360" style="overflow: visible;"><defs><linearGradient x1="0" y1="0.5" x2="1" y2="0.5" id="linearGradientSkdiqwf9d1jf"><stop offset="0%" stop-color="#b677d4"></stop><stop offset="100%" stop-color="#b677d4"></stop></linearGradient></defs><g><path d="M-115.55000000000001-25.6L-115.55000000000001-25.6Q-114.95000000000002-25.6 -114.95000000000002-23.7Q-114.95000000000002-21.8 -116.60000000000002-19Q-118.25000000000001-16.2 -119.20000000000002-14.75Q-120.15000000000002-13.3 -122.45000000000002-10.1Q-124.75000000000001-6.9 -126.45000000000002-5.5Q-128.15-4.1 -130.75000000000003-2.2L-130.75000000000003-2.2Q-135.15 1 -142.20000000000002 1Q-149.25000000000003 1 -152.4-2.55Q-155.55-6.1 -155.55-11.8L-155.55-11.8Q-155.55-22.3 -148.10000000000002-31.05Q-140.65-39.8 -130.55-39.8L-130.55-39.8Q-126.05000000000001-39.8 -123.35000000000002-37.45Q-120.65000000000002-35.1 -120.65000000000002-31.85Q-120.65000000000002-28.6 -122.45000000000002-26.2Q-124.25000000000001-23.8 -126.55000000000001-23.8L-126.55000000000001-23.8Q-131.05-23.8 -131.05-27.5L-131.05-27.5Q-131.05-28.7 -128.55-29.8L-128.55-29.8Q-127.55000000000001-30.2 -126.75000000000001-31.3Q-125.95000000000002-32.4 -125.95000000000002-34.2L-125.95000000000002-34.2Q-125.95000000000002-36.8 -128.75000000000003-36.8L-128.75000000000003-36.8Q-134.75000000000003-36.8 -140.65-28.1Q-146.55-19.4 -146.55-11.25Q-146.55-3.1 -139.45000000000002-3.1L-139.45000000000002-3.1Q-129.55-3.1 -120.15000000000002-18.4L-120.15000000000002-18.4Q-118.25000000000001-21.4 -117.00000000000001-23.5Q-115.75000000000001-25.6 -115.55000000000001-25.6ZM-81.55000000000001-40.3L-81.55000000000001-40.3L-76.75000000000003-40.2Q-75.25000000000003-40.2 -74.85000000000002-40.3L-74.85000000000002-40.3Q-77.65000000000002-38.4 -82.90000000000002-27.05Q-88.15000000000002-15.7 -88.15000000000002-10.7L-88.15000000000002-10.7Q-88.15000000000002-7.7 -86.15000000000002-7.7L-86.15000000000002-7.7Q-84.85000000000002-7.7 -82.60000000000002-9.4Q-80.35000000000002-11.1 -78.75000000000003-13.15Q-77.15000000000002-15.2 -75.30000000000001-18.2Q-73.45000000000002-21.2 -72.10000000000002-23.4Q-70.75000000000003-25.6 -70.55000000000001-25.6L-70.55000000000001-25.6Q-69.95000000000002-25.6 -69.95000000000002-23.7Q-69.95000000000002-21.8 -71.05000000000001-20.1L-71.05000000000001-20.1Q-83.45000000000002 0.6 -91.75000000000003 0.6L-91.75000000000003 0.6Q-97.35000000000002 0.6 -97.35000000000002-7.7L-97.35000000000002-7.7Q-97.35000000000002-10.3 -96.95000000000002-12.7L-96.95000000000002-12.7Q-106.35000000000002 0.6 -114.85000000000002 0.6L-114.85000000000002 0.6Q-117.35000000000002 0.6 -118.90000000000002-1.5Q-120.45000000000002-3.6 -120.45000000000002-7.7Q-120.45000000000002-11.8 -117.55000000000003-21.25Q-114.65000000000002-30.7 -110.45000000000002-36.8L-110.45000000000002-36.8Q-109.45000000000002-38.3 -108.30000000000003-38.65Q-107.15000000000002-39 -103.95000000000002-39L-103.95000000000002-39L-99.15000000000002-39Q-101.65000000000002-35.6 -104.55000000000001-29.8L-104.55000000000001-29.8Q-111.15000000000002-16.1 -111.15000000000002-9.7L-111.15000000000002-9.7Q-111.15000000000002-5.9 -108.40000000000002-5.9Q-105.65000000000002-5.9 -101.85000000000002-11.2Q-98.05000000000001-16.5 -93.70000000000002-24.95Q-89.35000000000002-33.4 -88.65000000000002-34.5L-88.65000000000002-34.5Q-84.95000000000002-40.3 -81.55000000000001-40.3ZM-30.950000000000017-21.4L-30.950000000000017-21.4Q-36.95000000000002-10.4 -43.95000000000002-4.3Q-50.95000000000002 1.8 -60.55000000000001 1.8Q-70.15000000000002 1.8 -71.35000000000001-3.1L-71.35000000000001-3.1L-76.95000000000002 14.4Q-78.95000000000002 20.3-80.00000000000001 22.05Q-81.05000000000001 23.8-82.35000000000001 24.3Q-83.65000000000002 24.8-85.65000000000002 24.8L-85.65000000000002 24.8L-90.45000000000002 24.8Q-87.85000000000001 21-79.95000000000002-1.45Q-72.05000000000001-23.9 -69.50000000000001-30.1Q-66.95000000000002-36.3 -65.75000000000001-37.6L-65.75000000000001-37.6Q-63.350000000000016-40 -57.45000000000002-40L-57.45000000000002-40L-54.45000000000002-40Q-57.350000000000016-38 -62.350000000000016-28L-62.350000000000016-28Q-53.05000000000001-40.4 -45.95000000000002-40.4L-45.95000000000002-40.4Q-39.250000000000014-40.4 -39.250000000000014-31.2L-39.250000000000014-31.2Q-39.250000000000014-23.6 -44.05000000000001-15.6Q-48.850000000000016-7.6 -55.350000000000016-3.2L-55.350000000000016-3.2L-54.55000000000001-3.2Q-50.45000000000002-3.2 -46.20000000000002-6.5Q-41.95000000000002-9.8 -38.850000000000016-13.8L-38.850000000000016-13.8Q-37.15000000000001-16 -34.05000000000001-21.25Q-30.950000000000017-26.5 -30.750000000000014-26.5L-30.750000000000014-26.5Q-29.950000000000017-26.5 -29.950000000000017-24.8Q-29.950000000000017-23.1 -30.950000000000017-21.4ZM-50.45000000000002-31.9L-50.45000000000002-31.9Q-50.750000000000014-32 -51.350000000000016-32L-51.350000000000016-32Q-53.45000000000002-32 -55.95000000000002-30L-55.95000000000002-30Q-60.05000000000001-26.8 -64.65000000000002-19.4Q-69.25000000000001-12 -69.25000000000001-7.3Q-69.25000000000001-2.6 -66.35000000000001-2.6L-66.35000000000001-2.6Q-61.15000000000001-2.6 -55.05000000000001-12.9Q-48.95000000000002-23.2 -48.95000000000002-29L-48.95000000000002-29Q-48.95000000000002-31.5 -50.45000000000002-31.9ZM 4.54999999999999-25.6L 4.54999999999999-25.6Q 5.1499999999999915-25.6  5.1499999999999915-23.7Q 5.1499999999999915-21.8  3.499999999999993-19Q 1.8499999999999943-16.2  0.8999999999999915-14.75Q-0.05000000000001137-13.3 -2.3500000000000085-10.1Q-4.650000000000006-6.9 -6.3500000000000085-5.5Q-8.050000000000008-4.1 -10.65000000000001-2.2L-10.65000000000001-2.2Q-15.050000000000008 1 -22.10000000000001 1Q-29.15000000000001 1 -32.30000000000001-2.55Q-35.45000000000001-6.1 -35.45000000000001-11.8L-35.45000000000001-11.8Q-35.45000000000001-22.3 -28.000000000000007-31.05Q-20.550000000000008-39.8 -10.45000000000001-39.8L-10.45000000000001-39.8Q-5.95000000000001-39.8 -3.250000000000007-37.45Q-0.5500000000000114-35.1 -0.5500000000000114-31.85Q-0.5500000000000114-28.6 -2.3500000000000085-26.2Q-4.150000000000006-23.8 -6.45000000000001-23.8L-6.45000000000001-23.8Q-10.95000000000001-23.8 -10.95000000000001-27.5L-10.95000000000001-27.5Q-10.95000000000001-28.7 -8.45000000000001-29.8L-8.45000000000001-29.8Q-7.45000000000001-30.2 -6.650000000000006-31.3Q-5.8500000000000085-32.4 -5.8500000000000085-34.2L-5.8500000000000085-34.2Q-5.8500000000000085-36.8 -8.65000000000001-36.8L-8.65000000000001-36.8Q-14.65000000000001-36.8 -20.550000000000008-28.1Q-26.45000000000001-19.4 -26.45000000000001-11.25Q-26.45000000000001-3.1 -19.35000000000001-3.1L-19.35000000000001-3.1Q-9.45000000000001-3.1 -0.05000000000001137-18.4L-0.05000000000001137-18.4Q 1.8499999999999943-21.4  3.0999999999999943-23.5Q 4.349999999999994-25.6  4.54999999999999-25.6ZM 41.45-40L 41.45-40L 46.45-39.9L 47.45-39.9Q 44.150000000000006-37.2  39.349999999999994-26.25Q 34.55-15.3  34.55-10.3L 34.55-10.3Q 34.55-7.7  36.349999999999994-7.7L 36.349999999999994-7.7Q 42.150000000000006-7.7  51.150000000000006-24.8L 51.150000000000006-24.8Q 51.55-25.5  51.849999999999994-25.5L 51.849999999999994-25.5Q 52.45-25.5  52.45-23.65Q 52.45-21.8  51.45-20.1L 51.45-20.1Q 39.150000000000006 0.6  30.849999999999998 0.6L 30.849999999999998 0.6Q 25.45 0.6  25.45-7.7L 25.45-7.7Q 25.45-13.9  27.55-19.9L 27.55-19.9Q 16.15 0.3  6.449999999999999 0.3L 6.449999999999999 0.3Q-0.2500000000000009 0.3 -0.2500000000000009-8.9L-0.2500000000000009-8.9Q-0.2500000000000009-15.9  2.799999999999999-23.1Q 5.85-30.3  11.549999999999999-35.35Q 17.25-40.4  24.05-40.4L 24.05-40.4Q 27.25-40.4  30.05-38.95Q 32.849999999999994-37.5  33.75-34.3L 33.75-34.3Q 34.849999999999994-36.6  37.150000000000006-38.3Q 39.45-40  41.45-40ZM 33.150000000000006-33.4L 33.150000000000006-33.4Q 32.150000000000006-36.6  28.45-36.6L 28.45-36.6Q 21.849999999999998-36.6  15.649999999999999-27.45Q 9.45-18.3  9.45-11.1L 9.45-11.1Q 9.45-8  11.85-8L 11.85-8Q 14.45-8  17.95-11.25Q 21.45-14.5  24.25-18.9L 24.25-18.9Q 30.45-28.7  33.150000000000006-33.4ZM 92.44999999999999-19.9L 92.44999999999999-19.9Q 88.94999999999999-14  85.35-9.2L 85.35-9.2Q 77.64999999999998 0.8  70.14999999999998 0.8L 70.14999999999998 0.8Q 66.04999999999998 0.8  63.999999999999986-3.3Q 61.94999999999999-7.4  61.94999999999999-12.4L 61.94999999999999-12.4Q 61.94999999999999-22.4  64.94999999999999-22.4L 64.94999999999999-22.4Q 69.64999999999998-22.4  73.64999999999998-24.55Q 77.64999999999998-26.7  77.64999999999998-30.2L 77.64999999999998-30.2Q 77.64999999999998-33  74.44999999999999-33L 74.44999999999999-33Q 67.54999999999998-33  59.149999999999984-18L 59.149999999999984-18Q 58.34999999999999-16.5  55.79999999999998-11.05Q 53.249999999999986-5.6  51.29999999999998-2.8Q 49.34999999999999 0  47.44999999999999 0L 47.44999999999999 0L 41.34999999999999 0Q 44.44999999999999-5.8  50.499999999999986-23.45Q 56.54999999999998-41.1  59.44999999999999-47.1L 59.44999999999999-47.1Q 59.54999999999998-47.3  60.69999999999999-49.7Q 61.84999999999999-52.1  62.29999999999998-53Q 62.749999999999986-53.9  64.04999999999998-56.4Q 65.35-58.9  66.14999999999998-60.1Q 66.94999999999999-61.3  68.35-63.55Q 69.74999999999999-65.8  70.85-67Q 71.94999999999999-68.2  73.44999999999999-69.85Q 74.94999999999999-71.5  76.24999999999999-72.3L 76.24999999999999-72.3Q 79.64999999999998-74.3  82.44999999999999-74.3L 82.44999999999999-74.3Q 87.94999999999999-74.3  87.94999999999999-69.3L 87.94999999999999-69.3Q 87.94999999999999-62.3  79.49999999999999-50.75Q 71.04999999999998-39.2  60.44999999999999-28.9L 60.44999999999999-28.9L 58.649999999999984-23.9Q 63.44999999999999-30.1  69.54999999999998-34.75Q 75.64999999999998-39.4  80.74999999999999-39.4L 80.74999999999999-39.4Q 83.64999999999998-39.4  85.29999999999998-38Q 86.94999999999999-36.6  86.94999999999999-34.2L 86.94999999999999-34.2Q 86.94999999999999-28.7  82.1-25.35Q 77.24999999999999-22  70.94999999999999-21L 70.94999999999999-21Q 71.85-10.6  73.85-8.3L 73.85-8.3Q 74.85-7.2  76.35-7.2Q 77.85-7.2  80.44999999999999-9Q 83.04999999999998-10.8  84.69999999999999-12.95Q 86.35-15.1  88.19999999999999-18.1Q 90.04999999999998-21.1  91.39999999999998-23.3Q 92.74999999999999-25.5  92.94999999999999-25.5L 92.94999999999999-25.5Q 93.54999999999998-25.5  93.54999999999998-23.55Q 93.54999999999998-21.6  92.44999999999999-19.9ZM 82.64999999999998-71.7L 82.64999999999998-71.7Q 77.04999999999998-71.7  63.04999999999998-35.7L 63.04999999999998-35.7Q 75.85-50.7  81.04999999999998-61L 81.04999999999998-61Q 84.04999999999998-66.4  84.04999999999998-69.9L 84.04999999999998-69.9Q 84.04999999999998-71.7  82.64999999999998-71.7ZM 128.94999999999996-26L 128.94999999999996-26Q 129.54999999999995-26  129.54999999999995-24.05Q 129.54999999999995-22.1  127.94999999999996-19.4Q 126.34999999999997-16.7  124.79999999999997-14.3Q 123.24999999999997-11.9  120.64999999999996-8.7Q 118.04999999999997-5.5  115.54999999999997-3.6L 115.54999999999997-3.6Q 109.24999999999997 1  102.89999999999996 1Q 96.54999999999997 1  92.64999999999996-2.25Q 88.74999999999997-5.5  88.74999999999997-12.2L 88.74999999999997-12.2Q 88.74999999999997-22.4  96.24999999999997-31.1Q 103.74999999999997-39.8  113.74999999999997-39.8L 113.74999999999997-39.8Q 118.24999999999997-39.8  120.94999999999996-37.45Q 123.64999999999996-35.1  123.64999999999996-31.8L 123.64999999999996-31.8Q 123.64999999999996-26.2  118.34999999999997-22.8Q 113.04999999999997-19.4  105.84999999999997-19.4L 105.84999999999997-19.4Q 101.64999999999996-19.4  99.64999999999996-20.5L 99.64999999999996-20.5Q 97.74999999999997-15.4  97.74999999999997-11.5L 97.74999999999997-11.5Q 97.74999999999997-3.1  104.84999999999997-3.1L 104.84999999999997-3.1Q 109.04999999999997-3.1  113.49999999999997-6.35Q 117.94999999999996-9.6  121.09999999999997-13.65Q 124.24999999999997-17.7  128.24999999999997-25.3L 128.24999999999997-25.3Q 128.64999999999998-26  128.94999999999996-26ZM 118.34999999999997-33.9L 118.34999999999997-33.9Q 118.34999999999997-36.8  115.54999999999997-36.8L 115.54999999999997-36.8Q 111.64999999999996-36.8  106.84999999999997-32Q 102.04999999999997-27.2  102.04999999999997-24.2L 102.04999999999997-24.2Q 102.04999999999997-22.2  105.84999999999997-22.2Q 109.64999999999996-22.2  113.79999999999997-25.9Q 117.94999999999996-29.6  118.34999999999997-33.9ZM 166.24999999999997-20.3L 166.24999999999997-20.3Q 158.74999999999997-7.8  152.64999999999998-2.9Q 146.54999999999998 2  136.84999999999997 2L 136.84999999999997 2Q 131.24999999999997 2  127.44999999999997-0.15Q 123.64999999999998-2.3  123.64999999999998-6.5L 123.64999999999998-6.5Q 123.64999999999998-8.9  125.04999999999998-10.9Q 126.44999999999997-12.9  128.89999999999998-12.9Q 131.34999999999997-12.9  132.04999999999998-11.1L 132.04999999999998-11.1Q 130.14999999999998-9.2  130.14999999999998-6.7L 130.14999999999998-6.7Q 130.14999999999998-1.7  135.74999999999997-1.7L 135.74999999999997-1.7Q 139.04999999999998-1.7  141.49999999999997-4Q 143.95-6.3  143.95-9.05Q 143.95-11.8  142.74999999999997-13.9Q 141.54999999999998-16  139.84999999999997-17.6Q 138.14999999999998-19.2  136.45-20.8L 136.45-20.8Q 132.34999999999997-24.7  132.34999999999997-29.75Q 132.34999999999997-34.8  136.2-38.25Q 140.04999999999998-41.7  146.74999999999997-41.7L 146.74999999999997-41.7Q 150.95-41.7  153.84999999999997-40.2Q 156.74999999999997-38.7  156.74999999999997-35.55Q 156.74999999999997-32.4  154.84999999999997-30.1Q 152.95-27.8  149.7-27.8Q 146.45-27.8  146.45-30.8L 146.45-30.8Q 146.45-31.5  148.74999999999997-32.9Q 151.04999999999998-34.3  151.04999999999998-35.8Q 151.04999999999998-37.3  149.79999999999998-38.05Q 148.54999999999998-38.8  146.24999999999997-38.8Q 143.95-38.8  141.79999999999998-37.2Q 139.64999999999998-35.6  139.64999999999998-33Q 139.64999999999998-30.4  141.84999999999997-28.1Q 144.04999999999998-25.8  146.64999999999998-24.2Q 149.24999999999997-22.6  151.45-19.75Q 153.64999999999998-16.9  153.64999999999998-13.75Q 153.64999999999998-10.6  152.2-8.1Q 150.74999999999997-5.6  148.74999999999997-4.1L 148.74999999999997-4.1Q 154.34999999999997-6.5  160.64999999999998-16.1L 160.64999999999998-16.1Q 161.24999999999997-16.9  162.74999999999997-19.4L 162.74999999999997-19.4Q 166.24999999999997-25.7  166.64999999999998-25.7L 166.64999999999998-25.7Q 167.24999999999997-25.7  167.24999999999997-23.85Q 167.24999999999997-22  166.24999999999997-20.3Z" data-textpath="cupcakes" data-text-anchor="middle" data-font-size="100" data-letterspacing="0" data-side="left" data-offset="0" data-dx="0" data-dy="225" data-xmlspace="preserve" data-href="" data-font="Playball" data-font-src="/Content/clientfonts/playball.woff" data-font-scale="contain" transform="translate(193,225)" data-x="193" data-y="0" fill="url('#linearGradientSkdiqwf9d1jf')"></path></g></svg></g><g transform="matrix(1.9634,0,0,1.9634,227.6074,56.3085)"><svg width="53.22407501042022" height="63.98050614670408" viewBox="29.35765882266726,0.6194938532959213,53.22407501042022,63.98050614670408"><defs><linearGradient x1="0" y1="0.5" x2="1" y2="0.5" id="linearGradientSkdiqwf9d181"><stop offset="0%" stop-color="#81f0a3"></stop><stop offset="100%" stop-color="#81f0a3"></stop></linearGradient></defs><g><path d="M58.9,59.6c-0.3,0-0.6-0.1-0.8-0.3c-18.5-12.9-28.5-34-21.5-45.3c3-4.8,6.6-6.8,11.5-8.3c0.5-0.2,1,0,1.4,0.3     c0.4,0.4,0.5,0.9,0.4,1.4c-0.2,0.9-5.7,21.4,19.9,32c4.7,1.9,6.6,5,7.3,7.1c1,3,0.4,6.4-1.4,9.4c-0.4,0.7-1.3,0.9-2,0.5     c-0.7-0.4-0.9-1.3-0.5-2c1.4-2.3,1.8-4.9,1.1-7c-0.7-2.3-2.7-4.2-5.6-5.4c-22.6-9.3-22.8-26.4-22-32.8c-3.2,1.3-5.6,3-7.7,6.3     c-6.2,9.9,3.7,29.7,20.7,41.5c0.6,0.4,0.8,1.3,0.4,2C59.8,59.4,59.3,59.6,58.9,59.6z" fill="url('#linearGradientSkdiqwf9d181')"></path></g></svg></g><g transform="matrix(1.8996,0,0,1.8996,204.604,73.6918)"><svg width="27.358978059651527" height="53.744101171684335" viewBox="17.391021940348473,8.855898828315668,27.358978059651527,53.744101171684335"><defs><linearGradient x1="0" y1="0.5" x2="1" y2="0.5" id="linearGradientSkdiqwf9d187"><stop offset="0%" stop-color="#81f0a3"></stop><stop offset="100%" stop-color="#81f0a3"></stop></linearGradient></defs><g><path d="M38.3,57.6c-0.4,0-0.7-0.1-1-0.4c-0.8-0.8-19.6-19.7-13.8-32.1c4.1-9,13.2-11.1,13.6-11.2c0.8-0.2,1.5,0.3,1.7,1.1     c0.2,0.8-0.3,1.5-1.1,1.7l0,0c-0.1,0-8.1,1.9-11.7,9.6C21.2,36.9,39.2,55,39.3,55.2c0.6,0.6,0.6,1.5,0,2     C39.1,57.5,38.7,57.6,38.3,57.6z" fill="url('#linearGradientSkdiqwf9d187')"></path></g></svg></g><g transform="matrix(1.9634,0,0,1.9634,190.3039,99.5028)"><svg width="19.849610787625274" height="35.079160302689644" viewBox="9.929549515064373,23.02083969731036,19.849610787625274,35.079160302689644"><defs><linearGradient x1="0" y1="0.5" x2="1" y2="0.5" id="linearGradientSkdiqwf9d18d"><stop offset="0%" stop-color="#81f0a3"></stop><stop offset="100%" stop-color="#81f0a3"></stop></linearGradient></defs><g><path d="M19.6,53.1c-0.4,0-0.8-0.1-1-0.4c-2.9-3.1-4.3-8.6-3.4-13.8c0.8-4.8,3.5-8.6,7.5-10.7c0.7-0.4,1.5-0.1,1.9,0.6     c0.4,0.7,0.1,1.6-0.6,1.9c-3.2,1.6-5.3,4.7-6,8.6c-0.7,4.2,0.4,8.9,2.7,11.4c0.5,0.6,0.5,1.5-0.1,2C20.3,53,20,53.1,19.6,53.1z" fill="url('#linearGradientSkdiqwf9d18d')"></path></g></svg></g><g transform="matrix(1.9634,0,0,1.9634,252.1499,57.2904)"><svg width="48.06441982744924" height="56.9151015307185" viewBox="41.89357777227643,1.1848984692814986,48.06441982744924,56.9151015307185"><defs><linearGradient x1="0" y1="0.5" x2="1" y2="0.5" id="linearGradientSkdiqwf9d18j"><stop offset="0%" stop-color="#81f0a3"></stop><stop offset="100%" stop-color="#81f0a3"></stop></linearGradient></defs><g><path d="M80.7,53.1c-0.3,0-0.6-0.1-0.9-0.3c-0.6-0.5-0.7-1.4-0.3-2c2.2-2.9,2.9-5.7,2.1-8.4c-1.7-5.9-10-11.7-24.5-17.2     c-12.7-4.8-10-17.8-9.9-17.9c0.2-0.8,0.9-1.2,1.7-1.1c0.8,0.2,1.2,0.9,1.1,1.7l0,0c-0.1,0.4-2.2,10.8,8.2,14.7     c15.7,5.9,24.2,12.1,26.3,19c1.1,3.6,0.2,7.3-2.5,10.9C81.5,53,81.1,53.1,80.7,53.1z" fill="url('#linearGradientSkdiqwf9d18j')"></path></g></svg></g><g transform="matrix(1.9634,0,0,1.9634,253.1317,58.2723)"><svg width="41.39927933203595" height="37.112679274127885" viewBox="42.08732072587211,1.987320725872113,41.39927933203595,37.112679274127885"><defs><linearGradient x1="0" y1="0.5" x2="1" y2="0.5" id="linearGradientSkdiqwf9d18p"><stop offset="0%" stop-color="#81f0a3"></stop><stop offset="100%" stop-color="#81f0a3"></stop></linearGradient></defs><g><path d="M76.4,34.1c-0.3,0-0.6-0.1-0.9-0.3c-0.6-0.5-0.7-1.4-0.3-2c0.7-0.8,0.4-1.9,0.1-2.7c-1.2-3.2-6.4-7.4-14.8-9     C48.7,17.9,47.1,8.9,47.1,8.6c-0.1-0.8,0.4-1.5,1.2-1.6c0.8-0.1,1.5,0.4,1.6,1.2c0.1,0.3,1.4,7.4,11.2,9.2     c9.5,1.8,15.4,6.7,16.9,10.7c0.8,2,0.6,4-0.5,5.4C77.3,33.9,76.8,34.1,76.4,34.1z" fill="url('#linearGradientSkdiqwf9d18p')"></path></g></svg></g><g transform="matrix(1.9634,0,0,1.9634,240.3693,160.3681)"><svg width="14.722232591721493" height="39.612679274127906" viewBox="35.58732072587212,54.0873207258721,14.722232591721493,39.612679274127906"><defs><linearGradient x1="0" y1="0.5" x2="1" y2="0.5" id="linearGradientSkdiqwf9d18v"><stop offset="0%" stop-color="#b677d4"></stop><stop offset="100%" stop-color="#b677d4"></stop></linearGradient></defs><g><path d="M43.9,88.7c-0.8,0-1.4-0.6-1.4-1.4c-0.2-9.9-0.8-18.6-1.9-26.6c-0.1-0.8,0.4-1.5,1.2-1.6c0.8-0.1,1.5,0.4,1.6,1.2     c1,8,1.7,16.8,1.9,26.9C45.4,88,44.7,88.6,43.9,88.7C43.9,88.7,43.9,88.7,43.9,88.7z" fill="url('#linearGradientSkdiqwf9d18v')"></path></g></svg></g><g transform="matrix(1.9634,0,0,1.9634,210.9186,153.4964)"><svg width="18.051483716701107" height="40.35148371670112" viewBox="20.648516283298896,50.64851628329888,18.051483716701107,40.35148371670112"><defs><linearGradient x1="0" y1="0.5" x2="1" y2="0.5" id="linearGradientSkdiqwf9d191"><stop offset="0%" stop-color="#b677d4"></stop><stop offset="100%" stop-color="#b677d4"></stop></linearGradient></defs><g><path d="M32.2,86c-0.8,0-1.4-0.6-1.4-1.4c-0.1-10.3-2.5-19.1-5.1-27.1c-0.2-0.7,0.2-1.5,0.9-1.8c0.7-0.2,1.5,0.2,1.8,0.9     c2.7,8.2,5.1,17.2,5.3,27.9C33.6,85.3,33,85.9,32.2,86C32.2,86,32.2,86,32.2,86z" fill="url('#linearGradientSkdiqwf9d191')"></path></g></svg></g><g transform="matrix(1.9634,0,0,1.9634,270.802,161.3494)"><svg width="13.34912571903621" height="40.1109038524102" viewBox="50.96177813337398,54.189096147589794,13.34912571903621,40.1109038524102"><defs><linearGradient x1="0" y1="0.5" x2="1" y2="0.5" id="linearGradientSkdiqwf9d197"><stop offset="0%" stop-color="#b677d4"></stop><stop offset="100%" stop-color="#b677d4"></stop></linearGradient></defs><g><path d="M57.8,89.3c-0.7,0-1.4-0.6-1.4-1.3c-0.6-9.4-0.6-18.7,0.1-27.5c0.1-0.8,0.7-1.4,1.5-1.3c0.8,0.1,1.4,0.7,1.3,1.5     c-0.6,8.7-0.7,17.9-0.1,27.1C59.3,88.5,58.7,89.2,57.8,89.3C57.9,89.3,57.9,89.3,57.8,89.3z" fill="url('#linearGradientSkdiqwf9d197')"></path></g></svg></g><g transform="matrix(1.8603,0,0,1.8603,292.815,155.679)"><svg width="17.899682374385122" height="40.988817662354236" viewBox="61.489135287969106,50.61118233764576,17.899682374385122,40.988817662354236"><defs><linearGradient x1="0" y1="0.5" x2="1" y2="0.5" id="linearGradientSkdiqwf9d19d"><stop offset="0%" stop-color="#b677d4"></stop><stop offset="100%" stop-color="#b677d4"></stop></linearGradient></defs><g><path d="M67.9,86.6C67.9,86.6,67.9,86.6,67.9,86.6c-0.9,0-1.5-0.7-1.4-1.5c0.6-10.6,2.1-19.1,5.1-28.5c0.2-0.7,1-1.2,1.8-0.9     c0.7,0.2,1.2,1,0.9,1.8c-2.9,9.1-4.4,17.5-5,27.8C69.3,86,68.7,86.6,67.9,86.6z" fill="url('#linearGradientSkdiqwf9d19d')"></path></g></svg></g><g transform="matrix(1.9634,0,0,1.9634,188.3401,144.6612)"><svg width="81.4787753826796" height="49.50000000000001" viewBox="9.260612308660184,45.29999999999999,81.4787753826796,49.50000000000001"><defs><linearGradient x1="0" y1="0.5" x2="1" y2="0.5" id="linearGradientSkdiqwf9d19j"><stop offset="0%" stop-color="#ffffff"></stop><stop offset="100%" stop-color="#ffffff"></stop></linearGradient></defs><g><path d="M50.1,89.8H50c-13.2,0-22-3.6-25.5-10.4c-0.1-0.1-0.1-0.3-0.1-0.4c-1.7-10.5-4.2-17.2-9.9-26.4c-0.3-0.4-0.3-0.9-0.1-1.4     c0.2-0.4,0.6-0.7,1.1-0.8c0.5-0.1,1-0.1,1.5-0.1c3.9,0,7.9,1.8,10.3,4.7c1.5-1,3.3-1.6,5.2-1.7c3.8-0.2,7.4,1.6,9.7,4.6     c2-2.3,4.8-3.6,7.8-3.6s5.9,1.3,7.8,3.6c2.2-3,5.8-4.8,9.7-4.6c1.9,0.1,3.7,0.7,5.2,1.7c2.4-2.9,6.3-4.7,10.3-4.7     c0.5,0,1,0,1.5,0.1c0.5,0.1,0.9,0.4,1.1,0.8c0.2,0.4,0.2,0.9-0.1,1.4c-5.7,9.2-8.2,15.8-9.9,26.4c0,0.1-0.1,0.2-0.1,0.4     C72.3,86.2,63.8,89.8,50.1,89.8z M27.1,78.2c3.8,7.1,14.5,8.7,22.9,8.7h0.1c12.3,0,19.9-2.9,22.7-8.6c1.6-10,4-16.6,8.9-25.1     c-3.1,0.4-6.1,2.1-7.6,4.6c-0.2,0.4-0.6,0.6-1,0.7c-0.4,0.1-0.9-0.1-1.2-0.4c-1.2-1.2-2.8-1.9-4.6-2c-3.4-0.2-6.7,1.9-8.1,5     c-0.2,0.5-0.7,0.8-1.2,0.8c-0.6,0-1-0.3-1.3-0.7c-1.4-2.5-3.9-4.1-6.7-4.1s-5.3,1.5-6.7,4.1C43,61.7,42.5,62,42,61.9     c-0.5,0-1-0.3-1.2-0.8c-1.4-3.1-4.7-5.2-8.1-5c-1.8,0.1-3.4,0.8-4.6,2c-0.3,0.3-0.7,0.5-1.2,0.4c-0.4-0.1-0.8-0.3-1-0.7     c-1.5-2.5-4.5-4.2-7.6-4.6C23.1,61.6,25.5,68.3,27.1,78.2z" fill="url('#linearGradientSkdiqwf9d19j')"></path></g></svg></g><g transform="matrix(0.4619,0,0,0.4619,99.2469,189.7118)"><svg width="726" height="360" style="overflow: visible;"><defs><linearGradient x1="0" y1="0.5" x2="1" y2="0.5" id="linearGradientSkdiqwf9d19r"><stop offset="0%" stop-color="#ffffff"></stop><stop offset="100%" stop-color="#ffffff"></stop></linearGradient></defs><g><path d="M-310.6000000000001-20.1Q-310.6000000000001-14 -309.6000000000001-10.35Q-308.6000000000001-6.7 -306.1000000000001-3.4L-306.1000000000001-3.4L-304.8000000000001-1.6L-306.1000000000001 0L-328.0000000000001 0L-329.2000000000001-3.4L-326.9000000000001-4Q-323.1000000000001-5 -321.8000000000001-6.9Q-320.5000000000001-8.8 -320.5000000000001-13.3L-320.5000000000001-13.3L-320.5000000000001-62.7Q-320.5000000000001-64 -321.0000000000001-64.55Q-321.5000000000001-65.1 -322.7000000000001-65.1L-322.7000000000001-65.1L-328.5000000000001-65.1L-329.7000000000001-68.8Q-325.4000000000001-70.5 -318.3500000000001-71.85Q-311.3000000000001-73.2 -304.8000000000001-73.2L-304.8000000000001-73.2Q-290.0000000000001-73.2 -282.8000000000001-66.55Q-275.6000000000001-59.9 -275.6000000000001-49.4L-275.6000000000001-49.4Q-275.6000000000001-42.9 -278.2000000000001-37.65Q-280.8000000000001-32.4 -286.2000000000001-29.25Q-291.6000000000001-26.1 -299.6000000000001-26.1L-299.6000000000001-26.1Q-303.3000000000001-26.1 -305.8500000000001-27Q-308.4000000000001-27.9 -308.4000000000001-29.6L-308.4000000000001-29.6Q-308.4000000000001-30.6 -308.0000000000001-31.3Q-307.6000000000001-32 -306.8000000000001-32L-306.8000000000001-32Q-306.4000000000001-32 -305.1500000000001-31.65Q-303.9000000000001-31.3 -301.9000000000001-31.3L-301.9000000000001-31.3Q-294.4000000000001-31.3 -290.2000000000001-36.1Q-286.0000000000001-40.9 -286.0000000000001-49.1L-286.0000000000001-49.1Q-286.0000000000001-57.2 -290.4500000000001-62.4Q-294.9000000000001-67.6 -303.0000000000001-67.6L-303.0000000000001-67.6Q-310.6000000000001-67.6 -310.6000000000001-63L-310.6000000000001-63L-310.6000000000001-20.1ZM-184.00000000000006-2.6Q-188.10000000000005 1.4 -193.20000000000005 1.4L-193.20000000000005 1.4Q-198.10000000000005 1.4 -201.10000000000005-1.4Q-204.10000000000005-4.2 -207.00000000000006-10.3L-207.00000000000006-10.3L-214.60000000000005-26.4Q-215.50000000000006-28.4 -216.85000000000005-29.3Q-218.20000000000005-30.2 -221.40000000000006-31.4L-221.40000000000006-31.4Q-223.30000000000004-32.1 -223.30000000000004-33.7L-223.30000000000004-33.7Q-223.30000000000004-34.7 -222.90000000000006-35.4Q-222.50000000000006-36.1 -221.70000000000005-36.1L-221.70000000000005-36.1Q-221.30000000000004-36.1 -220.05000000000004-35.75Q-218.80000000000004-35.4 -216.80000000000004-35.4L-216.80000000000004-35.4Q-209.30000000000007-35.4 -205.10000000000005-39.65Q-200.90000000000003-43.9 -200.90000000000003-51L-200.90000000000003-51Q-200.90000000000003-58.3 -205.35000000000005-62.95Q-209.80000000000007-67.6 -217.90000000000006-67.6L-217.90000000000006-67.6Q-225.50000000000006-67.6 -225.50000000000006-63L-225.50000000000006-63L-225.50000000000006-20.1Q-225.50000000000006-14.1 -224.50000000000006-10.45Q-223.50000000000006-6.8 -221.00000000000006-3.4L-221.00000000000006-3.4L-219.70000000000005-1.6L-221.00000000000006 0L-242.90000000000006 0L-244.10000000000005-3.4L-241.80000000000004-4Q-238.00000000000006-5 -236.70000000000005-6.9Q-235.40000000000006-8.8 -235.40000000000006-13.3L-235.40000000000006-13.3L-235.40000000000006-62.7Q-235.40000000000006-64 -235.90000000000006-64.55Q-236.40000000000006-65.1 -237.60000000000005-65.1L-237.60000000000005-65.1L-243.40000000000006-65.1L-244.60000000000005-68.8Q-240.30000000000004-70.5 -233.25000000000006-71.85Q-226.20000000000005-73.2 -219.70000000000005-73.2L-219.70000000000005-73.2Q-204.90000000000003-73.2 -197.70000000000005-67.1Q-190.50000000000006-61 -190.50000000000006-51.3L-190.50000000000006-51.3Q-190.50000000000006-43.9 -194.60000000000005-38.4Q-198.70000000000005-32.9 -206.70000000000005-31L-206.70000000000005-31Q-204.50000000000006-29.5 -202.70000000000005-26.1L-202.70000000000005-26.1L-193.40000000000003-7.2Q-191.80000000000007-4.1 -189.60000000000005-4.1L-189.60000000000005-4.1Q-187.70000000000005-4.1 -185.70000000000005-5.5L-185.70000000000005-5.5L-184.00000000000006-2.6ZM-149.40000000000006 0L-150.60000000000005-3.4L-148.30000000000004-4Q-144.50000000000006-5.1 -143.20000000000005-6.9Q-141.90000000000006-8.7 -141.90000000000006-13.3L-141.90000000000006-13.3L-141.90000000000006-58.5Q-141.90000000000006-63.1 -143.20000000000005-64.9Q-144.50000000000006-66.7 -148.30000000000004-67.8L-148.30000000000004-67.8L-150.60000000000005-68.4L-149.40000000000006-71.8L-127.50000000000006-71.8L-126.20000000000005-70.2L-127.50000000000006-68.4Q-130.00000000000006-65.1 -131.00000000000006-61.4Q-132.00000000000006-57.7 -132.00000000000006-51.7L-132.00000000000006-51.7L-132.00000000000006-12.6Q-132.00000000000006-8.3 -130.80000000000004-6.6Q-129.60000000000005-4.9 -125.90000000000005-3.8L-125.90000000000005-3.8L-123.80000000000005-3.2L-124.90000000000005 0L-149.40000000000006 0ZM-72.70000000000005-56.5L-72.70000000000005-20.1Q-72.70000000000005-14.1 -71.70000000000005-10.4Q-70.70000000000005-6.7 -68.20000000000005-3.4L-68.20000000000005-3.4L-66.90000000000003-1.6L-68.20000000000005 0L-87.20000000000005 0L-88.40000000000003-3.4L-86.10000000000004-4Q-82.30000000000004-5.1 -81.00000000000004-6.9Q-79.70000000000005-8.7 -79.70000000000005-13.3L-79.70000000000005-13.3L-79.70000000000005-58.5Q-79.70000000000005-63.1 -81.00000000000004-64.9Q-82.30000000000004-66.7 -86.10000000000004-67.8L-86.10000000000004-67.8L-88.40000000000003-68.4L-87.20000000000005-71.8L-71.10000000000004-71.8L-32.90000000000004-15.1L-32.90000000000004-58.5Q-32.90000000000004-63.1 -34.20000000000004-64.9Q-35.50000000000004-66.7 -39.30000000000004-67.8L-39.30000000000004-67.8L-41.60000000000004-68.4L-40.40000000000004-71.8L-21.400000000000034-71.8L-20.100000000000037-70.2L-21.400000000000034-68.4Q-23.900000000000034-65.1 -24.900000000000034-61.4Q-25.900000000000034-57.7 -25.900000000000034-51.7L-25.900000000000034-51.7L-25.900000000000034-8.8Q-25.900000000000034-6.9 -25.600000000000037-5.7Q-25.30000000000004-4.5 -24.500000000000043-3.4L-24.500000000000043-3.4L-23.200000000000045-1.6L-24.500000000000043 0L-34.60000000000004 0L-72.70000000000005-56.5ZM 49.399999999999935-73.2Q 55.899999999999935-73.2  61.04999999999994-71.35Q 66.19999999999993-69.5  69.04999999999994-66.15Q 71.89999999999993-62.8  71.89999999999993-58.5L 71.89999999999993-58.5Q 71.89999999999993-53.4  68.84999999999994-50.1Q 65.79999999999994-46.8  61.19999999999994-46.8L 61.19999999999994-46.8Q 59.09999999999994-46.8  59.09999999999994-48L 59.09999999999994-48Q 59.09999999999994-48.3  59.94999999999994-49.7Q 60.79999999999994-51.1  61.44999999999994-52.85Q 62.09999999999994-54.6  62.09999999999994-57.1L 62.09999999999994-57.1Q 62.09999999999994-61.8  58.59999999999994-64.7Q 55.09999999999994-67.6  49.399999999999935-67.6L 49.399999999999935-67.6Q 41.999999999999936-67.6  37.29999999999994-63Q 32.59999999999994-58.4  30.499999999999936-51.2Q 28.399999999999938-44  28.399999999999938-35.8L 28.399999999999938-35.8Q 28.399999999999938-27.4  31.049999999999937-20.5Q 33.69999999999994-13.6  38.59999999999994-9.55Q 43.499999999999936-5.5  49.999999999999936-5.5L 49.999999999999936-5.5Q 56.399999999999935-5.5  61.09999999999994-7.85Q 65.79999999999994-10.2  68.79999999999994-14.5L 68.79999999999994-14.5Q 69.09999999999994-14.9  69.49999999999994-14.9L 69.49999999999994-14.9Q 70.39999999999993-14.9  71.54999999999994-13.95Q 72.69999999999993-13  72.69999999999993-12.1L 72.69999999999993-12.1Q 72.69999999999993-11.8  72.39999999999993-11.3L 72.39999999999993-11.3Q 63.79999999999994 1.4  49.09999999999994 1.4L 49.09999999999994 1.4Q 38.69999999999994 1.4  31.499999999999936-3.5Q 24.299999999999937-8.4  20.69999999999994-16.85Q 17.099999999999937-25.3  17.099999999999937-35.8L 17.099999999999937-35.8Q 17.099999999999937-46.4  20.69999999999994-54.85Q 24.299999999999937-63.3  31.549999999999937-68.25Q 38.79999999999994-73.2  49.399999999999935-73.2L 49.399999999999935-73.2ZM 125.39999999999998-33.6L 125.39999999999998-13.3Q 125.39999999999998-10.1  125.89999999999998-8.5Q 126.39999999999998-6.9  127.74999999999999-6.3Q 129.1-5.7  131.79999999999998-5.7L 131.79999999999998-5.7L 142.59999999999997-5.7Q 146.2-5.7  148.2-6.45Q 150.2-7.2  151.34999999999997-9.05Q 152.5-10.9  153.5-14.6L 153.5-14.6L 154.09999999999997-16.9L 157.5-15.7L 157.5 1.4L 155.5 2.5L 154.7 1.4Q 153.59999999999997 0  150.5 0L 150.5 0L 108.39999999999998 0L 107.29999999999998-3.2L 109.39999999999998-3.8Q 113.09999999999998-4.9  114.29999999999998-6.6Q 115.49999999999999-8.3  115.49999999999999-12.6L 115.49999999999999-12.6L 115.49999999999999-51.7Q 115.49999999999999-57.7  114.49999999999999-61.4Q 113.49999999999999-65.1  110.99999999999999-68.4L 110.99999999999999-68.4L 109.69999999999999-70.2L 110.99999999999999-71.8L 141.59999999999997-71.8Q 150.2-71.8  153-73.9L 153-73.9L 154.79999999999998-75.2L 156.39999999999998-73.9L 156.39999999999998-56.1L 153-54.9L 152.39999999999998-57.2Q 151.39999999999998-60.9  150.25-62.75Q 149.09999999999997-64.6  147.09999999999997-65.35Q 145.09999999999997-66.1  141.5-66.1L 141.5-66.1L 131.79999999999998-66.1Q 129.1-66.1  127.74999999999999-65.5Q 126.39999999999998-64.9  125.89999999999998-63.3Q 125.39999999999998-61.7  125.39999999999998-58.5L 125.39999999999998-58.5L 125.39999999999998-39.3L 138.09999999999997-39.3Q 140.5-39.3  142.34999999999997-40.35Q 144.2-41.4  146-43.9L 146-43.9L 146.79999999999998-45L 148.79999999999998-43.9L 148.79999999999998-26.8L 145.39999999999998-25.6L 144.79999999999998-27.9Q 143.89999999999998-31.3  141.64999999999998-32.45Q 139.39999999999998-33.6  133.89999999999998-33.6L 133.89999999999998-33.6L 125.39999999999998-33.6ZM 220.50000000000003-4.2Q 226.30000000000004-4.2  229.85000000000002-7.2Q 233.40000000000003-10.2  233.40000000000003-15.5L 233.40000000000003-15.5Q 233.40000000000003-19.8  231.20000000000005-22.8Q 229.00000000000006-25.8  225.75000000000006-27.7Q 222.50000000000003-29.6  216.90000000000003-32.1L 216.90000000000003-32.1Q 210.50000000000003-35  206.65000000000003-37.4Q 202.80000000000004-39.8  200.10000000000005-43.8Q 197.40000000000003-47.8  197.40000000000003-53.8L 197.40000000000003-53.8Q 197.40000000000003-58.9  199.85000000000005-63.35Q 202.30000000000004-67.8  207.20000000000005-70.5Q 212.10000000000005-73.2  219.20000000000005-73.2L 219.20000000000005-73.2Q 225.70000000000005-73.2  230.85000000000002-71.35Q 236.00000000000006-69.5  238.85000000000002-66.15Q 241.70000000000005-62.8  241.70000000000005-58.5L 241.70000000000005-58.5Q 241.70000000000005-53.4  238.65000000000003-50.1Q 235.60000000000002-46.8  231.00000000000006-46.8L 231.00000000000006-46.8Q 228.90000000000003-46.8  228.90000000000003-48L 228.90000000000003-48Q 228.90000000000003-48.3  229.75000000000006-49.7Q 230.60000000000002-51.1  231.25000000000006-52.85Q 231.90000000000003-54.6  231.90000000000003-57.1L 231.90000000000003-57.1Q 231.90000000000003-61.8  228.40000000000003-64.7Q 224.90000000000003-67.6  219.20000000000005-67.6L 219.20000000000005-67.6Q 213.30000000000004-67.6  210.10000000000005-64.25Q 206.90000000000003-60.9  206.90000000000003-56.1L 206.90000000000003-56.1Q 206.90000000000003-52.4  209.00000000000003-49.7Q 211.10000000000005-47  214.20000000000005-45.2Q 217.30000000000004-43.4  222.80000000000004-40.9L 222.80000000000004-40.9Q 229.40000000000003-38  233.55000000000004-35.45Q 237.70000000000005-32.9  240.60000000000002-28.65Q 243.50000000000006-24.4  243.50000000000006-18.1L 243.50000000000006-18.1Q 243.50000000000006-9.2  237.55000000000004-3.9Q 231.60000000000002 1.4  220.50000000000003 1.4L 220.50000000000003 1.4Q 213.30000000000004 1.4  207.70000000000005-0.65Q 202.10000000000005-2.7  198.95000000000005-6.35Q 195.80000000000004-10  195.80000000000004-14.7L 195.80000000000004-14.7Q 195.80000000000004-19.8  199.05000000000004-23.1Q 202.30000000000004-26.4  207.20000000000005-26.4L 207.20000000000005-26.4Q 208.30000000000004-26.4  208.80000000000004-26.05Q 209.30000000000004-25.7  209.30000000000004-25.2L 209.30000000000004-25.2Q 209.30000000000004-24.9  208.40000000000003-23.55Q 207.50000000000003-22.2  206.80000000000004-20.4Q 206.10000000000005-18.6  206.10000000000005-16.1L 206.10000000000005-16.1Q 206.10000000000005-10.8  210.10000000000005-7.5Q 214.10000000000005-4.2  220.50000000000003-4.2L 220.50000000000003-4.2ZM 305.20000000000005-4.2Q 311.00000000000006-4.2  314.55000000000007-7.2Q 318.1000000000001-10.2  318.1000000000001-15.5L 318.1000000000001-15.5Q 318.1000000000001-19.8  315.90000000000003-22.8Q 313.70000000000005-25.8  310.45000000000005-27.7Q 307.20000000000005-29.6  301.6000000000001-32.1L 301.6000000000001-32.1Q 295.20000000000005-35  291.3500000000001-37.4Q 287.50000000000006-39.8  284.80000000000007-43.8Q 282.1000000000001-47.8  282.1000000000001-53.8L 282.1000000000001-53.8Q 282.1000000000001-58.9  284.55000000000007-63.35Q 287.00000000000006-67.8  291.90000000000003-70.5Q 296.80000000000007-73.2  303.90000000000003-73.2L 303.90000000000003-73.2Q 310.40000000000003-73.2  315.55000000000007-71.35Q 320.70000000000005-69.5  323.55000000000007-66.15Q 326.40000000000003-62.8  326.40000000000003-58.5L 326.40000000000003-58.5Q 326.40000000000003-53.4  323.3500000000001-50.1Q 320.30000000000007-46.8  315.70000000000005-46.8L 315.70000000000005-46.8Q 313.6000000000001-46.8  313.6000000000001-48L 313.6000000000001-48Q 313.6000000000001-48.3  314.45000000000005-49.7Q 315.30000000000007-51.1  315.95000000000005-52.85Q 316.6000000000001-54.6  316.6000000000001-57.1L 316.6000000000001-57.1Q 316.6000000000001-61.8  313.1000000000001-64.7Q 309.6000000000001-67.6  303.90000000000003-67.6L 303.90000000000003-67.6Q 298.00000000000006-67.6  294.80000000000007-64.25Q 291.6000000000001-60.9  291.6000000000001-56.1L 291.6000000000001-56.1Q 291.6000000000001-52.4  293.70000000000005-49.7Q 295.80000000000007-47  298.90000000000003-45.2Q 302.00000000000006-43.4  307.50000000000006-40.9L 307.50000000000006-40.9Q 314.1000000000001-38  318.25000000000006-35.45Q 322.40000000000003-32.9  325.30000000000007-28.65Q 328.20000000000005-24.4  328.20000000000005-18.1L 328.20000000000005-18.1Q 328.20000000000005-9.2  322.25000000000006-3.9Q 316.30000000000007 1.4  305.20000000000005 1.4L 305.20000000000005 1.4Q 298.00000000000006 1.4  292.40000000000003-0.65Q 286.80000000000007-2.7  283.65000000000003-6.35Q 280.50000000000006-10  280.50000000000006-14.7L 280.50000000000006-14.7Q 280.50000000000006-19.8  283.75000000000006-23.1Q 287.00000000000006-26.4  291.90000000000003-26.4L 291.90000000000003-26.4Q 293.00000000000006-26.4  293.50000000000006-26.05Q 294.00000000000006-25.7  294.00000000000006-25.2L 294.00000000000006-25.2Q 294.00000000000006-24.9  293.1000000000001-23.55Q 292.20000000000005-22.2  291.50000000000006-20.4Q 290.80000000000007-18.6  290.80000000000007-16.1L 290.80000000000007-16.1Q 290.80000000000007-10.8  294.80000000000007-7.5Q 298.80000000000007-4.2  305.20000000000005-4.2L 305.20000000000005-4.2Z" data-textpath="P R I N C E S S" data-text-anchor="middle" data-font-size="100" data-letterspacing="0" data-side="left" data-offset="0" data-dx="0" data-dy="225" data-xmlspace="preserve" data-href="" data-font="Gabriela" data-font-src="/Content/clientfonts/gabriela.woff" data-font-scale="contain" transform="translate(363,225)" data-x="363" data-y="0" fill="url('#linearGradientSkdiqwf9d19r')"></path></g></svg></g></g></svg>