<svg class="thumb" width="534" height="312" viewBox="0,0,534,312" xmlns="http://www.w3.org/2000/svg" xmlns:inkscape="http://www.inkscape.org/namespaces/inkscape" xmlns:sodipodi="http://sodipodi.sourceforge.net/DTD/sodipodi-0.dtd" xmlns:xlink="http://www.w3.org/1999/xlink" xmlns:ns1="http://www.inkscape.org/namespaces/inkscape" xmlns:sketch="http://www.bohemiancoding.com/sketch/ns"><defs></defs><g><g transform="matrix(1.3908,-0.2203,0.0706,0.4456,121.3041,137.5861)"><svg width="186.769" height="186.769" viewBox="-5.013000000000005,-5,186.769,186.769"><defs><linearGradient x1="0" y1="0.5" x2="1" y2="0.5" id="linearGradientSkdh461g58c"><stop offset="0%" stop-color="#cf1717"></stop><stop offset="100%" stop-color="#cf1717"></stop></linearGradient></defs><g><rect x="-0.013" y="0" width="176.769" height="176.769" fill="url('#linearGradientSkdh461g58c')"></rect></g></svg></g><g transform="matrix(4.5999,0,0,4.5999,104.0063,4.4023)"><svg width="67" height="67" viewBox="6.5,6.5,67,67"><defs><linearGradient x1="0" y1="0.5" x2="1" y2="0.5" id="linearGradientSkdh461g58i"><stop offset="0%" stop-color="#cf1717"></stop><stop offset="100%" stop-color="#cf1717"></stop></linearGradient></defs><g><path d="M40,68.5c-15.7,0-28.5-12.8-28.5-28.5S24.3,11.5,40,11.5S68.5,24.3,68.5,40S55.7,68.5,40,68.5z M40,13.5   c-14.6,0-26.5,11.9-26.5,26.5S25.4,66.5,40,66.5S66.5,54.6,66.5,40S54.6,13.5,40,13.5z" fill="url('#linearGradientSkdh461g58i')"></path></g></svg></g><g transform="matrix(0.912,-0.1444,0.1444,0.912,83.5631,124.9395)"><svg width="339" height="184" style="overflow: visible;"><defs><linearGradient x1="0" y1="0.5" x2="1" y2="0.5" id="linearGradientSkdh461g5lq"><stop offset="0%" stop-color="#5e0e00"></stop><stop offset="100%" stop-color="#5e0e00"></stop></linearGradient></defs><g><path d="M-92.971875-39.31L-92.971875-39.31Q-80.861875-33.64 -80.861875-22.95L-80.861875-22.95Q-80.861875-13.38 -88.381875-7.08L-88.381875-7.08Q-98.391875 1.32 -115.671875 1.32L-115.671875 1.32Q-128.511875 1.32 -139.451875-3.56L-139.451875-3.56Q-150.141875-8.35 -155.761875-16.89L-155.761875-16.89Q-159.811875-23.1 -159.811875-27.05L-159.811875-27.05Q-159.811875-28.56 -155.911875-29.64L-155.911875-29.64Q-151.951875-24.07 -141.84187500000002-20.12L-141.84187500000002-20.12Q-138.771875-24.22 -133.541875-31.79Q-128.321875-39.36 -125.391875-43.58Q-122.46187499999999-47.8 -119.531875-51.71L-119.531875-51.71Q-113.041875-60.35 -108.251875-64.79L-108.251875-64.79Q-106.791875-66.26 -103.811875-64.89L-103.811875-64.89Q-103.031875-64.55 -102.541875-64.11L-102.541875-64.11Q-106.591875-60.01 -113.471875-47.8L-113.471875-47.8Q-108.981875-46.73 -105.611875-46.73Q-102.241875-46.73 -98.921875-47.49Q-95.601875-48.24 -92.871875-49.71L-92.871875-49.71Q-86.571875-52.98 -86.571875-57.76L-86.571875-57.76Q-86.571875-67.09 -100.781875-70.61L-100.781875-70.61Q-106.351875-72.02 -111.891875-72.02Q-117.43187499999999-72.02 -122.311875-71.26Q-127.201875-70.51 -131.00187499999998-68.9L-131.00187499999998-68.9Q-139.401875-65.33 -139.401875-58.79L-139.401875-58.79Q-139.401875-53.27 -135.301875-49.51L-135.301875-49.51Q-139.741875-44.78 -142.381875-44.78L-142.381875-44.78Q-145.411875-44.78 -148.041875-48.05L-148.041875-48.05Q-150.731875-51.42 -150.731875-55.42Q-150.731875-59.42 -149.051875-62.45Q-147.361875-65.48 -144.481875-67.85Q-141.601875-70.21 -137.821875-71.97Q-134.031875-73.73 -129.781875-74.9L-129.781875-74.9Q-121.531875-77.2 -114.94187500000001-77.2Q-108.351875-77.2 -103.93187499999999-76.64Q-99.511875-76.07 -95.511875-74.9Q-91.501875-73.73 -88.081875-71.97Q-84.671875-70.21 -82.131875-67.82L-82.131875-67.82Q-76.801875-62.74 -76.801875-55.66L-76.801875-55.66Q-76.801875-50 -81.541875-45.51L-81.541875-45.51Q-85.791875-41.36 -92.971875-39.31ZM-130.561875-16.85L-130.561875-16.85Q-124.851875-15.72 -121.341875-15.72Q-117.821875-15.72 -115.38187500000001-15.89Q-112.94187500000001-16.06 -110.081875-16.85Q-107.221875-17.63 -105.171875-19.04L-105.171875-19.04Q-100.68187499999999-22.07 -100.68187499999999-27.34L-100.68187499999999-27.34Q-100.68187499999999-32.47 -105.91187500000001-35.74L-105.91187500000001-35.74Q-110.69187500000001-38.72 -118.261875-39.01L-118.261875-39.01Q-119.871875-35.99 -121.481875-32.96Q-123.091875-29.93 -124.66187500000001-27.05L-124.66187500000001-27.05Q-127.981875-21 -130.561875-16.85ZM-30.122578124999997-21.34L-30.122578124999997-21.34Q-30.122578124999997-15.48 -25.972578125-15.48L-25.972578125-15.48Q-22.362578125-15.48 -17.922578125-18.75L-17.922578125-18.75Q-13.962578125-21.73 -10.982578125000003-26.17L-10.982578125000003-26.17Q-8.792578125000006-26.32 -8.792578125000006-24.37L-8.792578125000006-24.37Q-8.792578125000006-22.71 -10.812578125000002-19.29Q-12.842578125000003-15.87 -14.742578125000001-13.38Q-16.652578124999998-10.89 -18.992578125-8.5Q-21.342578125000003-6.1 -23.972578125-4.2L-23.972578125-4.2Q-29.882578125000002 0 -35.502578125 0L-35.502578125 0Q-43.992578125 0 -46.822578125-6.05L-46.822578125-6.05Q-52.192578125-2.05 -58.152578125000005-0.54L-58.152578125000005-0.54Q-60.202578125 0 -62.722578125 0Q-65.232578125 0 -67.702578125-0.9Q-70.162578125-1.81 -71.922578125-3.52L-71.922578125-3.52Q-75.532578125-7.03 -75.532578125-13.18L-75.532578125-13.18Q-75.532578125-20.07 -70.852578125-27.64L-70.852578125-27.64Q-66.942578125-33.94 -60.892578125-38.77L-60.892578125-38.77Q-55.322578125-43.16 -51.902578125000005-43.16L-51.902578125000005-43.16Q-50.052578125-43.16 -47.702578125-40.23L-47.702578125-40.23Q-52.492578125-36.87 -55.952578125-31.64L-55.952578125-31.64Q-59.812578125-25.83 -59.812578125-21.14L-59.812578125-21.14Q-59.812578125-15.48 -55.082578125-15.48L-55.082578125-15.48Q-50.392578125-15.48 -47.702578125-17.09L-47.702578125-17.09Q-45.802578125-24.71 -39.162578125-32.81L-39.162578125-32.81Q-32.572578125-40.87 -27.102578125-42.92L-27.102578125-42.92Q-25.342578125000003-43.55 -22.312578125-41.26L-22.312578125-41.26Q-21.582578124999998-40.72 -21.192578124999997-40.33L-21.192578124999997-40.33Q-25.342578125000003-36.77 -27.932578125-30.66L-27.932578125-30.66Q-30.122578124999997-25.49 -30.122578124999997-21.34ZM 6.1981250000000045-29.3L 6.1981250000000045-29.3Q 0.3381250000000051-29.59 -3.7618749999999963-30.52L-3.7618749999999963-30.52Q-8.791874999999996-21.78 -13.621874999999996-14.94L-13.621874999999996-14.94Q-14.261874999999996-13.92 -16.501875-14.4L-16.501875-14.4Q-20.511874999999996-15.28-21.091874999999995-16.46L-21.091874999999995-16.46Q-12.401874999999997-22.56 -8.881874999999997-32.13L-8.881874999999997-32.13Q-14.011874999999996-34.47 -14.011874999999996-38.77L-14.011874999999996-38.77Q-14.011874999999996-41.41 -10.541874999999996-45.51L-10.541874999999996-45.51Q-7.271874999999996-49.51 -5.711874999999996-49.51L-5.711874999999996-49.51Q-0.931874999999998-49.51  1.558125000000004-47.07L 1.558125000000004-47.07Q 2.5381250000000044-46.14  2.5381250000000044-44.6Q 2.5381250000000044-43.07  0.8781250000000043-39.45L 0.8781250000000043-39.45Q 8.398125000000004-35.79  19.828125000000004-35.16L 19.828125000000004-35.16Q 19.478125000000002-31.79  16.988125-29.69L 16.988125-29.69Q 16.308125-29.05  15.628125-29.05L 15.628125-29.05Q 12.158125000000002-25.93  10.738125000000004-22.27L 10.738125000000004-22.27Q 10.298125000000002-21.09  10.298125000000002-20.02L 10.298125000000002-20.02Q 10.298125000000002-15.48  15.718125000000004-15.48L 15.718125000000004-15.48Q 19.388125000000006-15.48  23.828125000000004-18.75L 23.828125000000004-18.75Q 27.788125000000004-21.73  30.758125000000003-26.17L 30.758125000000003-26.17Q 32.95812500000001-26.32  32.95812500000001-24.37L 32.95812500000001-24.37Q 32.95812500000001-22.71  30.928125000000005-19.29Q 28.908125000000002-15.87  26.998125000000005-13.38Q 25.098125000000007-10.89  22.758125000000003-8.5Q 20.408125000000002-6.1  17.778125000000006-4.2L 17.778125000000006-4.2Q 11.868125000000003 0  6.1981250000000045 0L 6.1981250000000045 0Q-3.4218749999999964 0 -6.691874999999996-5.96L-6.691874999999996-5.96Q-7.811874999999997-7.96 -7.811874999999997-10.62Q-7.811874999999997-13.28 -6.711874999999996-15.87Q-5.611874999999996-18.46 -3.7118749999999956-20.9L-3.7118749999999956-20.9Q 0.19812500000000455-25.98  6.1981250000000045-29.3ZM 69.236171875-42.29L 69.236171875-42.29Q 71.33617187499999-44.68  74.076171875-44.68L 74.076171875-44.68Q 75.686171875-44.68  76.80617187499999-43.75L 76.80617187499999-43.75Q 71.976171875-36.04  66.84617187500001-20.8L 66.84617187500001-20.8Q 65.426171875-16.6  64.016171875-12.4L 64.016171875-12.4Q 72.506171875-13.57  80.416171875-21.29L 80.416171875-21.29Q 82.766171875-23.63  84.426171875-26.17L 84.426171875-26.17Q 86.616171875-26.32  86.616171875-24.37L 86.616171875-24.37Q 86.616171875-23.58  85.446171875-20.8Q 84.276171875-18.02  81.466171875-14.4Q 78.666171875-10.79  75.196171875-8.01L 75.196171875-8.01Q 68.356171875-2.59  59.866171875-0.73L 59.866171875-0.73Q 55.276171875 11.08  49.856171875 17.09L 49.856171875 17.09Q 43.266171875 24.41  34.086171875 24.41L 34.086171875 24.41Q 27.536171875 24.41  22.606171875 20.65L 22.606171875 20.65Q 17.336171874999998 16.6 17.336171874999998 10.74L 17.336171874999998 10.74Q 17.336171874999998 8.3 19.676171875 5.86L 19.676171875 5.86Q 22.066171875 3.37  24.706171875 2.78L 24.706171875 2.78Q 26.806171875 5.47  33.446171875 7.18L 33.446171875 7.18Q 35.156171875 7.62  36.746171875 7.62Q 38.326171875 7.62  40.206171874999995 6.47Q 42.086171875000005 5.32  43.946171875000005 3.32L 43.946171875000005 3.32Q 47.366171875-0.44  51.176171875-7.32L 51.176171875-7.32Q 44.136171875 0  35.646171875 0L 35.646171875 0Q 30.466171875 0  27.096171875-3.66L 27.096171875-3.66Q 23.686171875-7.37  23.686171875-13.18L 23.686171875-13.18Q 23.686171875-20.65  29.536171875-27.69L 29.536171875-27.69Q 35.206171875-34.52  44.386171875-38.82L 44.386171875-38.82Q 53.906171875-43.26  64.06617187500001-43.26L 64.06617187500001-43.26Q 67.526171875-43.26  69.236171875-42.29ZM 39.406171875-21.14L 39.406171875-21.14Q 39.406171875-15.48  44.136171875-15.48L 44.136171875-15.48Q 50.876171875-15.48  61.866171875-30.96L 61.866171875-30.96Q 63.526171875-33.25  64.986171875-35.4L 64.986171875-35.4Q 65.576171875-36.47  66.84617187500001-38.77L 66.84617187500001-38.77Q 54.686171875-38.48  46.926171875-33.11L 46.926171875-33.11Q 39.406171875-27.98  39.406171875-21.14ZM 96.72828124999997-19.19L 96.72828124999997-19.19Q 99.55828124999996-14.11  109.56828124999997-14.11L 109.56828124999997-14.11Q 115.81828124999997-14.11  121.35828124999998-17.16Q 126.90828124999997-20.21  130.85828124999998-26.17L 130.85828124999998-26.17Q 133.05828124999996-26.32  133.05828124999996-24.37L 133.05828124999996-24.37Q 133.05828124999996-22.17  130.44828124999998-18.04Q 127.82828124999997-13.92  125.55828124999996-11.38Q 123.28828124999997-8.84  120.48828124999997-6.67Q 117.67828124999997-4.49  114.44828124999998-2.93L 114.44828124999998-2.93Q 107.46828124999998 0.49  99.75828124999997 0.49L 99.75828124999997 0.49Q 84.22828124999997 0.49  79.58828124999997-8.11L 79.58828124999997-8.11Q 77.92828124999997-11.23  77.92828124999997-15.26Q 77.92828124999997-19.29  79.31828124999997-22.66Q 80.70828124999997-26.03  83.15828124999997-29.08Q 85.59828124999997-32.13  88.96828124999998-34.72Q 92.33828124999997-37.3  96.28828124999997-39.16L 96.28828124999997-39.16Q 104.68828124999997-43.21  113.42828124999997-43.21L 113.42828124999997-43.21Q 119.72828124999998-43.21  122.06828124999997-39.26L 122.06828124999997-39.26Q 122.89828124999997-37.89  122.89828124999997-35.62Q 122.89828124999997-33.35  121.74828124999996-31.15Q 120.60828124999998-28.96  118.64828124999997-27.17Q 116.69828124999998-25.39  114.10828124999998-24.05Q 111.52828124999996-22.71  108.59828124999997-21.73L 108.59828124999997-21.73Q 103.41828124999998-19.97  96.72828124999997-19.19ZM 96.04828124999997-23.73L 96.04828124999997-23.73Q 102.29828124999997-24.46  106.78828124999997-27.2L 106.78828124999997-27.2Q 111.52828124999996-30.13  111.52828124999996-34.06Q 111.52828124999996-37.99  107.90828124999997-37.99L 107.90828124999997-37.99Q 103.21828124999998-37.99  99.75828124999997-33.5L 99.75828124999997-33.5Q 96.43828124999997-29.2  96.04828124999997-23.73ZM 148.04382812499998-29.3L 148.04382812499998-29.3Q 142.18382812499996-29.59  138.08382812499997-30.52L 138.08382812499997-30.52Q 133.05382812499997-21.78  128.22382812499998-14.94L 128.22382812499998-14.94Q 127.58382812499997-13.92  125.34382812499997-14.4L 125.34382812499997-14.4Q 121.33382812499997-15.28 120.75382812499997-16.46L 120.75382812499997-16.46Q 129.44382812499998-22.56  132.96382812499996-32.13L 132.96382812499996-32.13Q 127.83382812499997-34.47  127.83382812499997-38.77L 127.83382812499997-38.77Q 127.83382812499997-41.41  131.30382812499997-45.51L 131.30382812499997-45.51Q 134.57382812499998-49.51  136.13382812499998-49.51L 136.13382812499998-49.51Q 140.91382812499998-49.51  143.40382812499996-47.07L 143.40382812499996-47.07Q 144.38382812499998-46.14  144.38382812499998-44.6Q 144.38382812499998-43.07  142.72382812499998-39.45L 142.72382812499998-39.45Q 150.24382812499996-35.79  161.67382812499997-35.16L 161.67382812499997-35.16Q 161.32382812499998-31.79  158.83382812499997-29.69L 158.83382812499997-29.69Q 158.15382812499996-29.05  157.47382812499995-29.05L 157.47382812499995-29.05Q 154.00382812499998-25.93  152.58382812499997-22.27L 152.58382812499997-22.27Q 152.14382812499997-21.09  152.14382812499997-20.02L 152.14382812499997-20.02Q 152.14382812499997-15.48  157.563828125-15.48L 157.563828125-15.48Q 161.23382812499997-15.48  165.67382812499997-18.75L 165.67382812499997-18.75Q 169.63382812499998-21.73  172.60382812499998-26.17L 172.60382812499998-26.17Q 174.80382812499997-26.32  174.80382812499997-24.37L 174.80382812499997-24.37Q 174.80382812499997-22.71  172.77382812499997-19.29Q 170.75382812499998-15.87  168.84382812499996-13.38Q 166.94382812499998-10.89  164.60382812499998-8.5Q 162.25382812499998-6.1  159.623828125-4.2L 159.623828125-4.2Q 153.71382812499996 0  148.04382812499998 0L 148.04382812499998 0Q 138.42382812499997 0  135.15382812499996-5.96L 135.15382812499996-5.96Q 134.03382812499996-7.96  134.03382812499996-10.62Q 134.03382812499996-13.28  135.13382812499998-15.87Q 136.23382812499997-18.46  138.13382812499998-20.9L 138.13382812499998-20.9Q 142.04382812499998-25.98  148.04382812499998-29.3Z" data-textpath="Burger" data-text-anchor="middle" data-font-size="100" data-letterspacing="0" data-side="left" data-offset="0" data-dx="0" data-dy="93" data-xmlspace="preserve" data-href="" data-font="Molle" data-font-src="/Content/clientfonts/molle.woff" data-font-scale="contain" transform="translate(169.5,93)" data-x="169.5" data-y="0" fill="url('#linearGradientSkdh461g5lq')"></path></g></svg></g><g transform="matrix(0.4315,0,0,0.4315,215.7599,0.3716)"><svg width="187.0337218024264" height="186.77" viewBox="-5.131860901213205,-5,187.0337218024264,186.77"><defs><linearGradient x1="0" y1="0.5" x2="1" y2="0.5" id="linearGradientSkdh461g58s"><stop offset="0%" stop-color="#ffffff"></stop><stop offset="100%" stop-color="#ffffff"></stop></linearGradient></defs><g><circle cx="88.385" cy="88.385" r="88.385" fill="url('#linearGradientSkdh461g58s')"></circle></g></svg></g><g transform="matrix(0.6963,0,0,0.6963,251.2297,30.1634)"><svg width="14.57216000000001" height="14.065280000000001" viewBox="43.209599999999995,42.23366,14.57216000000001,14.065280000000001"><defs><linearGradient x1="0" y1="0.5" x2="1" y2="0.5" id="linearGradientSkdh461g58y"><stop offset="0%" stop-color="#000000"></stop><stop offset="100%" stop-color="#000000"></stop></linearGradient></defs><g><rect x="48.6" y="48" transform="matrix(0.886 -0.4636 0.4636 0.886 -17.1028 28.9983)" width="3.8" height="2.6" fill="url('#linearGradientSkdh461g58y')"></rect></g></svg></g><g transform="matrix(0.6963,0,0,0.6963,222.3318,0.5691)"><svg width="97.90000000000002" height="61.60000000000001" viewBox="1.0999999999999996,0,97.90000000000002,61.60000000000001"><defs><linearGradient x1="0" y1="0.5" x2="1" y2="0.5" id="linearGradientSkdh461g594"><stop offset="0%" stop-color="#cfa365"></stop><stop offset="100%" stop-color="#cfa365"></stop></linearGradient></defs><g><path d="M80.4,11.7C73.2,7.2,63.3,5,50,5s-23.2,2.2-30.4,6.7C10.5,17.5,6.1,26.9,6.1,40.3c0,1.2,0.4,2.3,1.1,3.4     c0.1,0.1,0.1,0.1,0.2,0.2C11.1,49,22.2,53,33.3,55.1c0.1,0,0.2,0,0.2,0c0.4,0.1,0.8,0.2,1.2,0.2c0.2,0,0.5,0.1,0.7,0.1     c0.1,0,0.2,0,0.3,0.1c3.2,0.5,6.3,0.9,9.2,1.1c0.1,0,0.1,0,0.2,0c0.2,0,0.5,0,0.7,0c0.3,0,0.6,0,0.9,0c0.2,0,0.3,0,0.5,0     c0.3,0,0.7,0,1,0c0.1,0,0.1,0,0.2,0c0.4,0,0.8,0,1.1,0l0.4,0l0.5,0c0.4,0,0.8,0,1.2,0c0.1,0,0.1,0,0.2,0c0.4,0,0.7,0,1.1,0     c0.1,0,0.3,0,0.4,0c0.3,0,0.6,0,0.9-0.1c0.2,0,0.4,0,0.6,0c0.2,0,0.4,0,0.6,0c0.4,0,0.7-0.1,1.1-0.1c0,0,0.1,0,0.1,0     c0.5,0,1-0.1,1.5-0.2c0.1,0,0.2,0,0.3,0c0.4,0,0.8-0.1,1.3-0.1c0.2,0,0.4-0.1,0.6-0.1c0.2,0,0.4-0.1,0.7-0.1     c0.4-0.1,0.9-0.1,1.3-0.2c0,0,0.1,0,0.1,0c12.9-2,27.4-6.6,30.8-12.8c0,0,0.1-0.1,0.1-0.1c0.4-0.8,0.7-1.7,0.7-2.6     C93.9,26.9,89.5,17.5,80.4,11.7z M13.5,42.1l-1.1-2.4l2.6-1.2l1.1,2.4L13.5,42.1z M16.6,23.8l-1.2-2.3l1.4-0.7l1.2,2.3L16.6,23.8     z M24,12.9l1.8,1.9l-3.1,3l-1.8-1.9L24,12.9z M25.3,40.5l-2.3-1.3c0.5-0.9,1.2-1.8,2-2.5l1.9,1.9C26.3,39.1,25.8,39.8,25.3,40.5z      M24.3,30.2l-1.9-1.8l3.6-3.8l1.9,1.8L24.3,30.2z M28.8,48.3l-0.5-2.6c0.6-0.1,1.2-0.4,1.7-0.8l1.7,2     C30.9,47.7,29.9,48.1,28.8,48.3z M34.9,36.5l-1-2.4l3.3-1.4l1,2.4L34.9,36.5z M39.3,11.9l-1.7-2l2.3-1.9l1.7,2L39.3,11.9z      M43.1,23.5l-1-2.4c1.3-0.5,2.5-1.2,3.7-2l1.5,2.2C45.9,22.1,44.6,22.9,43.1,23.5z M49.1,36.5l-1-2.4l3.7-1.5l1,2.4L49.1,36.5z      M57,22.5l-1.4-2.2c1.2-0.8,2.5-1.3,3.9-1.4l0.3,2.6C58.8,21.6,57.8,21.9,57,22.5z M62.3,46.2l-2.2-1.4l2.3-3.5l2.2,1.4     L62.3,46.2z M65.9,35l-1.6-1.9l2-1.7l1.6,1.9L65.9,35z M66.7,24.6l-1.1-2.4l1.9-0.9l1.1,2.4L66.7,24.6z M73.9,42.1l-3.1,3.5     l-2-1.7l3.1-3.5c0.2-0.2,0.5-0.5,0.9-0.8L74,42c0,0,0.1,0,0.1,0C74,42,73.9,42.1,73.9,42.1z M74.2,14.6l-1.5-2.2l1.6-1.1l1.5,2.2     L74.2,14.6z M80.8,46.5l-2-1.8l1.4-1.6l2,1.8L80.8,46.5z M80.4,30.7l-1.2-2.4l4.4-2.2l1.2,2.4L80.4,30.7z M87.6,34.6l1.9,1.9     c-0.7,0.7-1.5,1.5-2.3,2.1l-1.7-2C86.2,35.9,86.9,35.3,87.6,34.6z" fill="url('#linearGradientSkdh461g594')"></path></g></svg></g><g transform="matrix(0.6963,0,0,0.6963,221.6348,32.6005)"><svg width="97.73123764778713" height="39.199999999999996" viewBox="1.1000000000000325,45.799999999999734,97.73123764778713,39.199999999999996"><defs><linearGradient x1="0" y1="0.5" x2="1" y2="0.5" id="linearGradientSkdh461g59a"><stop offset="0%" stop-color="#33210a"></stop><stop offset="100%" stop-color="#33210a"></stop></linearGradient></defs><g><path d="M6.8,58.7C6.8,58.7,6.8,58.8,6.8,58.7c0,0.1,0,0.1,0.1,0.2c0,0,0,0.1,0,0.1c0,0,0,0.1,0.1,0.1c0,0,0,0.1,0,0.1     c0,0,0,0.1,0.1,0.1c0,0,0,0.1,0.1,0.1c0,0,0,0.1,0.1,0.1c0,0,0,0.1,0.1,0.1c0,0.1,0.1,0.1,0.1,0.2c0,0,0,0.1,0.1,0.1     c0,0.1,0.1,0.1,0.1,0.2c0,0,0,0.1,0.1,0.1c0,0.1,0.1,0.1,0.1,0.2c0,0,0,0.1,0.1,0.1c0,0.1,0.1,0.1,0.1,0.2c0,0,0,0.1,0.1,0.1     C7.9,61,8,61,8,61.1c0,0,0.1,0.1,0.1,0.1c0,0.1,0.1,0.1,0.1,0.2c0,0,0.1,0.1,0.1,0.1c0,0.1,0.1,0.1,0.1,0.2c0,0,0.1,0.1,0.1,0.1     c0,0.1,0.1,0.2,0.1,0.2c0,0,0.1,0.1,0.1,0.1c0.1,0.1,0.1,0.2,0.2,0.3c0,0,0.1,0.1,0.1,0.1C9,62.8,9.1,62.9,9.2,63     c0,0,0.1,0.1,0.1,0.1c0.1,0.1,0.1,0.2,0.2,0.3c0,0,0.1,0.1,0.1,0.1c0.1,0.1,0.1,0.2,0.2,0.3c0,0,0.1,0.1,0.1,0.1     C9.9,64,10,64.1,10,64.2c0,0,0.1,0.1,0.1,0.1c0.1,0.1,0.2,0.2,0.2,0.3c0,0,0.1,0.1,0.1,0.1c0.1,0.1,0.2,0.2,0.2,0.3     c0,0,0.1,0.1,0.1,0.1c0.1,0.1,0.2,0.2,0.3,0.3c0,0,0.1,0.1,0.1,0.1c0.1,0.1,0.2,0.2,0.3,0.3c0,0,0.1,0.1,0.1,0.1     c0.1,0.1,0.2,0.2,0.3,0.3c0,0,0.1,0.1,0.1,0.1c0.1,0.1,0.2,0.2,0.3,0.3c0,0,0.1,0.1,0.1,0.1c0.1,0.1,0.2,0.2,0.3,0.3     c0,0,0.1,0.1,0.1,0.1c0.1,0.1,0.2,0.2,0.3,0.3c0,0,0.1,0.1,0.1,0.1c0.1,0.1,0.2,0.2,0.4,0.4c0,0,0.1,0.1,0.1,0.1     c0.1,0.1,0.2,0.2,0.4,0.4c0,0,0.1,0.1,0.1,0.1c0.1,0.1,0.3,0.2,0.4,0.4c0,0,0.1,0.1,0.1,0.1c0.1,0.1,0.3,0.2,0.4,0.4     c0,0,0.1,0.1,0.1,0.1c0.1,0.1,0.3,0.2,0.4,0.4c0,0,0.1,0.1,0.1,0.1c0.1,0.1,0.3,0.2,0.4,0.4c0.1,0,0.1,0.1,0.2,0.1     c0.1,0.1,0.3,0.2,0.5,0.4c0.1,0,0.1,0.1,0.2,0.1c0.2,0.1,0.3,0.2,0.5,0.4c0.1,0,0.1,0.1,0.2,0.1c0.2,0.1,0.3,0.2,0.5,0.3     c0.1,0,0.1,0.1,0.2,0.1c0.2,0.1,0.3,0.2,0.5,0.3c0.1,0,0.1,0.1,0.2,0.1c0.2,0.1,0.3,0.2,0.5,0.3c0.1,0,0.1,0.1,0.2,0.1     c0.2,0.1,0.4,0.2,0.5,0.3c0.1,0,0.1,0.1,0.2,0.1c0.2,0.1,0.4,0.2,0.5,0.3c0.1,0,0.1,0.1,0.2,0.1c0.2,0.1,0.4,0.2,0.6,0.3     c0.1,0,0.1,0.1,0.2,0.1c0.2,0.1,0.4,0.2,0.6,0.3c0.1,0,0.2,0.1,0.2,0.1c0.2,0.1,0.4,0.2,0.6,0.3c0.1,0,0.2,0.1,0.2,0.1     c0.2,0.1,0.4,0.2,0.6,0.3c0.1,0,0.2,0.1,0.3,0.1c0.2,0.1,0.4,0.2,0.6,0.3c0.1,0,0.2,0.1,0.3,0.1c0.2,0.1,0.4,0.2,0.6,0.3     c0.1,0,0.2,0.1,0.3,0.1c0.2,0.1,0.4,0.2,0.6,0.3c0.1,0,0.2,0.1,0.3,0.1c0.2,0.1,0.4,0.2,0.6,0.2c0.1,0,0.2,0.1,0.3,0.1     c0.2,0.1,0.4,0.2,0.7,0.2c0.1,0,0.2,0.1,0.3,0.1c0.2,0.1,0.4,0.2,0.7,0.2c0.1,0,0.2,0.1,0.4,0.1c0.2,0.1,0.4,0.1,0.7,0.2     c0.1,0,0.2,0.1,0.4,0.1c0.2,0.1,0.5,0.1,0.7,0.2c0.1,0,0.3,0.1,0.4,0.1c0.2,0.1,0.5,0.1,0.7,0.2c0.1,0,0.3,0.1,0.4,0.1     c0.2,0.1,0.5,0.1,0.7,0.2c0.1,0,0.3,0.1,0.4,0.1c0.2,0.1,0.5,0.1,0.7,0.2c0.2,0,0.3,0.1,0.5,0.1c0.2,0,0.5,0.1,0.7,0.1     c0.2,0,0.3,0.1,0.5,0.1c0.2,0,0.5,0.1,0.7,0.1c0.2,0,0.4,0.1,0.5,0.1c0.2,0,0.5,0.1,0.7,0.1c0.2,0,0.4,0.1,0.6,0.1     c0.2,0,0.5,0.1,0.7,0.1c0.2,0,0.4,0,0.6,0.1c0.2,0,0.5,0.1,0.7,0.1c0.2,0,0.4,0,0.6,0.1c0.2,0,0.5,0,0.7,0.1c0.2,0,0.5,0,0.7,0.1     c0.2,0,0.4,0,0.7,0.1c0.2,0,0.5,0,0.7,0c0.2,0,0.4,0,0.7,0c0.3,0,0.5,0,0.8,0c0.2,0,0.4,0,0.6,0c0.3,0,0.6,0,1,0     c0.2,0,0.3,0,0.5,0c0.5,0,1,0,1.5,0c0.5,0,1,0,1.5,0c0.1,0,0.2,0,0.3,0c0.4,0,0.8,0,1.2,0c0.1,0,0.1,0,0.2,0c0.4,0,0.9,0,1.3-0.1     c0,0,0,0,0,0c27.2-1.5,36.4-16.9,38.5-21.5c0.9-3,1-5.8,0.9-7.6c-5.3,3.7-15.2,8.7-17.6,10c-4.6,2.4-20,10-25.7,10.3     c-0.1,0-0.1,0-0.2,0c0,0-0.1,0-0.1,0c0,0,0,0-0.1,0c0,0,0,0,0,0c0,0,0,0,0,0c-0.2,0-0.3,0-0.5,0c0,0,0,0,0,0     c-0.4,0-0.8-0.1-1.2-0.2c0,0-0.1,0-0.1,0c-0.2,0-0.3-0.1-0.5-0.1c-6.7-1.4-19.6-7.5-23.8-9.6c-2.1-1-9.6-4.7-15.1-8     c-1-0.6-2-1.2-2.8-1.7C6.1,54,6.2,56.2,6.8,58.7z" fill="url('#linearGradientSkdh461g59a')"></path></g></svg></g><g transform="matrix(0.6963,0,0,0.6963,221.2874,40.6083)"><svg width="100" height="42.5" viewBox="0,57.5,100,42.5"><defs><linearGradient x1="0" y1="0.5" x2="1" y2="0.5" id="linearGradientSkdh461g59g"><stop offset="0%" stop-color="#cfa365"></stop><stop offset="100%" stop-color="#cfa365"></stop></linearGradient></defs><g><path d="M55.2,83.4c0,0-0.1,0-0.1,0c-0.8,0-1.6,0.1-2.4,0.1c-0.1,0-0.2,0-0.2,0c-0.8,0-1.6,0-2.5,0c-0.8,0-1.6,0-2.4,0     c-0.1,0-0.3,0-0.4,0c-0.7,0-1.5-0.1-2.2-0.1c-0.1,0-0.3,0-0.4,0c-0.7,0-1.5-0.1-2.2-0.2c-0.1,0-0.1,0-0.2,0     c-0.7-0.1-1.3-0.1-2-0.2c-0.1,0-0.2,0-0.3,0c-0.7-0.1-1.3-0.2-2-0.3c-0.1,0-0.3,0-0.4-0.1c-0.6-0.1-1.3-0.2-1.9-0.3     c-0.1,0-0.2,0-0.3-0.1c-0.6-0.1-1.2-0.2-1.7-0.4c-0.1,0-0.2,0-0.2-0.1c-0.6-0.1-1.2-0.3-1.7-0.4c-0.1,0-0.2-0.1-0.4-0.1     c-0.6-0.2-1.1-0.3-1.6-0.5c-0.1,0-0.2-0.1-0.3-0.1c-0.5-0.2-1-0.3-1.5-0.5c0,0-0.1,0-0.1,0c-0.5-0.2-1-0.4-1.5-0.6     c-0.1,0-0.2-0.1-0.3-0.1c-0.5-0.2-0.9-0.4-1.4-0.6c-0.1,0-0.2-0.1-0.3-0.1c-0.5-0.2-0.9-0.4-1.4-0.6c0,0-0.1,0-0.1-0.1     c-0.4-0.2-0.8-0.4-1.2-0.6c-0.1,0-0.2-0.1-0.3-0.1c-0.4-0.2-0.8-0.4-1.2-0.7c-0.1-0.1-0.2-0.1-0.3-0.2c-0.4-0.2-0.8-0.5-1.1-0.7     c-0.1,0-0.1-0.1-0.2-0.1c-0.3-0.2-0.7-0.4-1-0.7c-0.1,0-0.1-0.1-0.2-0.1c-0.3-0.2-0.7-0.5-1-0.7c-0.1-0.1-0.2-0.1-0.3-0.2     c-0.3-0.2-0.6-0.5-0.9-0.7c-0.1-0.1-0.1-0.1-0.2-0.2c-0.3-0.2-0.6-0.5-0.8-0.7c0,0-0.1-0.1-0.1-0.1c-0.3-0.2-0.6-0.5-0.8-0.7     c-0.1-0.1-0.1-0.1-0.2-0.2c-0.3-0.2-0.5-0.5-0.8-0.7c-0.1-0.1-0.1-0.1-0.2-0.2c-0.2-0.2-0.5-0.5-0.7-0.7c0,0-0.1-0.1-0.1-0.1     c-0.2-0.2-0.5-0.5-0.7-0.7c-0.1-0.1-0.1-0.1-0.2-0.2c-0.2-0.2-0.4-0.5-0.6-0.7c-0.1-0.1-0.1-0.1-0.2-0.2C9.2,67.4,9,67.2,8.8,67     c0,0-0.1-0.1-0.1-0.1c-0.2-0.2-0.3-0.4-0.5-0.7c0,0-0.1-0.1-0.1-0.1c-0.2-0.2-0.3-0.4-0.5-0.7c0-0.1-0.1-0.1-0.1-0.2     c-0.2-0.2-0.3-0.4-0.5-0.6c0,0,0-0.1-0.1-0.1c-0.1-0.2-0.3-0.4-0.4-0.6c0,0,0-0.1-0.1-0.1c-0.1-0.2-0.3-0.4-0.4-0.6     c0,0-0.1-0.1-0.1-0.1c-0.1-0.2-0.2-0.4-0.3-0.6c0,0,0,0,0,0C5.4,63.9,5,65.9,5,68.3C5,74.6,8.2,95,50,95s45-20.4,45-26.7     c0-2.4-0.4-4.4-0.7-5.8C90.6,69,80.2,81.8,55.2,83.4z M11.7,78.8l-1.6-2.1l0.7-0.5l1.6,2.1L11.7,78.8z M15.9,82.1l-0.7-1l2.2-1.5     l0.7,1L15.9,82.1z M25.3,85.2l-2.1-1.6l0.5-0.7l2.1,1.6L25.3,85.2z M27.4,90.1l-1.3-2.3c0.9-0.5,1.9-1,2.9-1.3l0.8,2.5     C29,89.3,28.2,89.7,27.4,90.1z M36.9,89.1l-0.6-2.6l2.3-0.5l0.6,2.6L36.9,89.1z M51.6,88.2H47v-2.6h4.6V88.2z M59.6,92.7     c-1.2,0-2.4-0.4-3.4-0.8c-0.8-0.3-1.6-0.6-2.2-0.7l0.2-2.6c1.1,0.1,2.1,0.5,3,0.8c1,0.4,1.9,0.7,2.7,0.6l0.3,2.6     C60,92.7,59.8,92.7,59.6,92.7z M66.3,88.2L65,85.9c1-0.6,2-1.3,2.8-2.1l1.9,1.8C68.7,86.7,67.5,87.5,66.3,88.2z M74.1,89.5     l-1-2.4c0.3-0.1,0.5-0.3,0.6-0.5l2.2,1.4C75.5,88.6,74.9,89.2,74.1,89.5z M81.8,85.7l-1.4-2.2l0.9-0.5l1.4,2.2L81.8,85.7z      M86.3,79.6l-1-2.4c0.3-0.1,0.5-0.3,0.6-0.5l2.2,1.4C87.7,78.8,87.1,79.3,86.3,79.6z" fill="url('#linearGradientSkdh461g59g')"></path></g></svg></g><g transform="matrix(0.6963,0,0,0.6963,221.2874,29.1188)"><svg width="100.01166738838533" height="33.9" viewBox="0.03673469387755102,40.50000000000001,100.01166738838533,33.9"><defs><linearGradient x1="0" y1="0.5" x2="1" y2="0.5" id="linearGradientSkdh461g59m"><stop offset="0%" stop-color="#e8ba00"></stop><stop offset="100%" stop-color="#e8ba00"></stop></linearGradient></defs><g><path d="M25.7,60.1c11.7,5.7,21.3,9.3,24.5,9.3c0.5,0,1.2-0.1,2-0.3c1.7-0.4,4.1-1.2,6.9-2.4c0.1-0.1,0.3-0.1,0.4-0.2    c0.1,0,0.1-0.1,0.2-0.1c11.8-4.8,29.7-14.3,34.5-18.3c0.1-0.1,0.2-0.1,0.3-0.2c0.2-0.2,0.4-0.3,0.4-0.5c0.3-0.8,0.1-1.5-0.2-1.9    c-4.1,5.5-14.3,9.2-24.4,11.4c-6.8,1.5-13.7,2.3-18.8,2.4c-0.3,0-0.7,0-1,0h-0.4h-0.5c-0.3,0-0.6,0-0.9,0c-0.1,0-0.2,0-0.3,0    c-0.3,0-0.5,0-0.8,0c-0.2,0-0.4,0-0.6,0c0,0-0.1,0-0.1,0c-7.8-0.4-19.4-2.2-28.7-5.7c-0.3-0.1-0.7-0.3-1-0.4    c-0.1,0-0.1-0.1-0.2-0.1C12.1,51.3,8,49,5.7,46.1c-0.5,0.5-0.9,1.2-0.5,2.4C6,49.6,13.5,54.2,25.7,60.1z" fill="url('#linearGradientSkdh461g59m')"></path></g></svg></g><g transform="matrix(0.4191,0,0,0.4191,208.2152,198.3241)"><svg width="250" height="204" style="overflow: visible;"><defs><linearGradient x1="0" y1="0.5" x2="1" y2="0.5" id="linearGradientSkdh461g5k2"><stop offset="0%" stop-color="#5e0000"></stop><stop offset="100%" stop-color="#5e0000"></stop></linearGradient></defs><g><path d="M-102-10.2L-102-10.2L-102-25.5Q-102-27.3 -102.55000000000001-27.85Q-103.1-28.4 -104.9-28.4L-104.9-28.4L-112.3-28.4Q-121.4-28.4 -121.4-37.3L-121.4-37.3L-121.4-53.8Q-121.4-62.6 -112.10000000000001-62.6L-112.10000000000001-62.6L-102.30000000000001-62.6Q-93-62.6 -93-53.8L-93-53.8L-93-44.6L-102.1-44.6L-102.1-52.4Q-102.1-54.2 -102.7-54.75Q-103.30000000000001-55.3 -105.1-55.3L-105.1-55.3L-109.3-55.3Q-111.10000000000001-55.3 -111.7-54.75Q-112.3-54.2 -112.3-52.4L-112.3-52.4L-112.3-38.5Q-112.3-36.7 -111.7-36.15Q-111.10000000000001-35.6 -109.3-35.6L-109.3-35.6L-102-35.6Q-92.80000000000001-35.6 -92.80000000000001-26.8L-92.80000000000001-26.8L-92.80000000000001-8.8Q-92.80000000000001 0 -102.2 0L-102.2 0L-111.9 0Q-121.2 0 -121.2-8.8L-121.2-8.8L-121.2-18L-112.10000000000001-18L-112.10000000000001-10.2Q-112.10000000000001-8.4 -111.5-7.85Q-110.9-7.3 -109.1-7.3L-109.1-7.3L-104.9-7.3Q-103.1-7.3 -102.55000000000001-7.85Q-102-8.4 -102-10.2ZM-47.10000000000001-34.8L-47.10000000000001-62.6L-38.10000000000001-62.6L-38.10000000000001 0L-47.10000000000001 0L-47.10000000000001-27.5L-60.400000000000006-27.5L-60.400000000000006 0L-69.4 0L-69.4-62.6L-60.400000000000006-62.6L-60.400000000000006-34.8L-47.10000000000001-34.8ZM 18.900000000000006 0L 9.800000000000008 0L 7.300000000000008-14.5L-5.8999999999999915-14.5L-8.199999999999992 0L-17.199999999999992 0L-6.099999999999991-62.6L 7.000000000000007-62.6L 18.900000000000006 0ZM 0.40000000000000924-54.8L-4.799999999999992-21.8L 6.1000000000000085-21.8L 0.40000000000000924-54.8ZM 68.60000000000002-53.8L 68.60000000000002-43L 59.40000000000002-43L 59.40000000000002-52.6Q 59.40000000000002-54.4  58.85000000000002-54.95Q 58.300000000000026-55.5  56.50000000000002-55.5L 56.50000000000002-55.5L 51.40000000000002-55.5Q 49.60000000000002-55.5  49.00000000000002-54.95Q 48.40000000000002-54.4  48.40000000000002-52.6L 48.40000000000002-52.6L 48.40000000000002-9.9Q 48.40000000000002-8.1  49.00000000000002-7.55Q 49.60000000000002-7  51.40000000000002-7L 51.40000000000002-7L 56.50000000000002-7Q 58.300000000000026-7  58.85000000000002-7.55Q 59.40000000000002-8.1  59.40000000000002-9.9L 59.40000000000002-9.9L 59.40000000000002-19.4L 68.60000000000002-19.4L 68.60000000000002-8.8Q 68.60000000000002 0.1  59.200000000000024 0.1L 59.200000000000024 0.1L 48.60000000000002 0.1Q 39.300000000000026 0.1  39.300000000000026-8.8L 39.300000000000026-8.8L 39.300000000000026-53.8Q 39.300000000000026-62.6  48.60000000000002-62.6L 48.60000000000002-62.6L 59.200000000000024-62.6Q 68.60000000000002-62.6  68.60000000000002-53.8L 68.60000000000002-53.8ZM 114.50000000000003-62.6L 124.20000000000002-62.6L 111.00000000000003-31.2L 124.10000000000002 0L 114.30000000000003 0L 101.60000000000002-31.2L 114.50000000000003-62.6ZM 101.00000000000003 0L 92.00000000000003 0L 92.00000000000003-62.6L 101.00000000000003-62.6L 101.00000000000003 0Z" data-textpath="S H A C K" data-text-anchor="middle" data-font-size="100" data-letterspacing="0" data-side="left" data-offset="0" data-dx="0" data-dy="108" data-xmlspace="preserve" data-href="" data-font="Teko" data-font-src="/Content/clientfonts/teko.woff" data-font-scale="contain" transform="translate(125,108)" data-x="125" data-y="0" fill="url('#linearGradientSkdh461g5k2')"></path></g></svg></g><g transform="matrix(0.3851,0,0,0.3851,229.3619,61.9966)"><svg width="135" height="204" style="overflow: visible;"><defs><linearGradient x1="0" y1="0.5" x2="1" y2="0.5" id="linearGradientSkdh461g5k5"><stop offset="0%" stop-color="#5e0000"></stop><stop offset="100%" stop-color="#5e0000"></stop></linearGradient></defs><g><path d="M-67.5-62.6L-37.5-62.6L-37.5-55.3L-48-55.3L-48 0L-57 0L-57-55.3L-67.5-55.3L-67.5-62.6ZM 4.9999999999999964-34.8L 4.9999999999999964-62.6L 13.999999999999996-62.6L 13.999999999999996 0L 4.9999999999999964 0L 4.9999999999999964-27.5L-8.300000000000004-27.5L-8.300000000000004 0L-17.300000000000004 0L-17.300000000000004-62.6L-8.300000000000004-62.6L-8.300000000000004-34.8L 4.9999999999999964-34.8ZM 47.999999999999986-28.7L 47.999999999999986-7.3L 66.1-7.3L 66.1 0L 38.89999999999999 0L 38.89999999999999-62.6L 65.39999999999999-62.6L 65.39999999999999-55.3L 47.999999999999986-55.3L 47.999999999999986-36L 62.39999999999999-36L 62.39999999999999-28.7L 47.999999999999986-28.7Z" data-textpath="T H E" data-text-anchor="middle" data-font-size="100" data-letterspacing="0" data-side="left" data-offset="0" data-dx="0" data-dy="108" data-xmlspace="preserve" data-href="" data-font="Teko" data-font-src="/Content/clientfonts/teko.woff" data-font-scale="contain" transform="translate(67.5,108)" data-x="67.5" data-y="0" fill="url('#linearGradientSkdh461g5k5')"></path></g></svg></g></g></svg>