<svg class="thumb" width="679" height="485" viewBox="0,0,679,485" xmlns="http://www.w3.org/2000/svg" xmlns:inkscape="http://www.inkscape.org/namespaces/inkscape" xmlns:sodipodi="http://sodipodi.sourceforge.net/DTD/sodipodi-0.dtd" xmlns:xlink="http://www.w3.org/1999/xlink" xmlns:ns1="http://www.inkscape.org/namespaces/inkscape" xmlns:sketch="http://www.bohemiancoding.com/sketch/ns"><defs></defs><g><g transform="matrix(0.2618,0,0,0.2133,325.6992,45.3767)"><svg width="507.4629023226391" height="500.937" viewBox="-3.731004296546757,-5,507.4629023226391,500.937"><defs><linearGradient x1="0" y1="0.5" x2="1" y2="0.5" id="linearGradientSkdh461g56k"><stop offset="0%" stop-color="#4c96d7"></stop><stop offset="100%" stop-color="#4c96d7"></stop></linearGradient></defs><g></g><g><path d="M497.584,0H250.439h-0.88H2.417c0,0-32.407,331.275,247.142,490.43v0.507c0.148-0.086,0.292-0.17,0.44-0.254 c0.148,0.084,0.294,0.168,0.44,0.254v-0.507C529.99,331.274,497.584,0,497.584,0z" stroke="none" fill="url('#linearGradientSkdh461g56k')" style=""></path></g></svg></g><g transform="matrix(1.3599,0,0,1.3599,187.039,0.534)"><svg width="187.0337218024264" height="186.77" viewBox="-5.131860901213205,-5,187.0337218024264,186.77"><defs><linearGradient x1="0" y1="0.5" x2="1" y2="0.5" id="linearGradientSkdh461g56q"><stop offset="0%" stop-color="#4c96d7"></stop><stop offset="100%" stop-color="#4c96d7"></stop></linearGradient></defs><g><circle cx="88.385" cy="88.385" r="88.385" stroke="none" fill="url('#linearGradientSkdh461g56q')" style=""></circle></g></svg></g><g transform="matrix(2.5965,0,0,2.5965,203.621,44.2224)"><svg width="98.898" height="69.9990269991762" viewBox="0.5499999999999972,15,98.898,69.9990269991762"><defs><linearGradient x1="0" y1="0.5" x2="1" y2="0.5" id="linearGradientSkdh461g56w"><stop offset="0%" stop-color="#090e47"></stop><stop offset="100%" stop-color="#090e47"></stop></linearGradient></defs><g><path fill-rule="evenodd" clip-rule="evenodd" d="M80.559,20.046c-0.336,7.612,0.071,13.931-8.551,28.599  c2.58-8.803,3.378-18.29,0.823-28.62C72.831,20.025,80.442,20.047,80.559,20.046L80.559,20.046z M64.338,56.151  c-7.381,1.549-9.419,0.378-16.077-3.196c-6.153-4.236-7.436-8.435-13.324-15.083c-6.727-8.426-21.465-6.592-29.387-1.545  c2.519,0.247,10.809,5.328,11.262,18.227c2.16,14.836,14.439,23.91,23.937,25.132c14.238,1.526,23.868-2.094,27.624-20.546  c12.848-4.18,25.706-29.41,26.075-39.114l-7.367-0.023c0.187,7.684-7.404,27.73-17.976,34.322  C71.589,42.155,67.329,25.164,64.353,20l-8.244,0.019C63.354,28.243,66.233,43.905,64.338,56.151L64.338,56.151z M23.029,36.919  c-2.221,0.004-4.018,1.807-4.014,4.028c0.004,2.221,1.807,4.018,4.028,4.014s4.018-1.807,4.014-4.028  C27.053,38.713,25.25,36.916,23.029,36.919z M22.992,39.053c-1.061,0.002-1.919,0.863-1.917,1.924  c0.002,1.061,0.863,1.919,1.924,1.917s1.919-0.863,1.917-1.924C24.914,39.91,24.053,39.052,22.992,39.053z" stroke="none" fill="url('#linearGradientSkdh461g56w')" style=""></path></g></svg></g><g transform="matrix(1.1761,0,0,1.1761,106.8004,255.995)"><svg width="312" height="185" style="overflow: visible;"><defs><linearGradient x1="0" y1="0.5" x2="1" y2="0.5" id="linearGradientSkdh461g5jq"><stop offset="0%" stop-color="#28303d"></stop><stop offset="100%" stop-color="#28303d"></stop></linearGradient></defs><g><path d="M-117.3562109375 0L-117.3562109375-58.45L-123.1662109375-58.45L-123.1662109375-67.24L-117.3562109375-67.24L-117.3562109375-72.07Q-117.3562109375-77.54 -116.2362109375-80.98Q-115.1162109375-84.42 -113.1362109375-86.35Q-111.15621093749999-88.28 -108.4962109375-88.96Q-105.8362109375-89.65 -102.7562109375-89.65L-102.7562109375-89.65Q-101.8762109375-89.65 -100.7862109375-89.55Q-99.6862109375-89.45 -98.5862109375-89.23Q-97.4862109375-89.01 -96.4362109375-88.72Q-95.3862109375-88.43 -94.5562109375-87.99L-94.5562109375-87.99L-94.5562109375-79.3Q-96.6062109375-79.83 -99.1462109375-79.83L-99.1462109375-79.83Q-100.3662109375-79.83 -101.4662109375-79.44Q-102.5662109375-79.05 -103.3962109375-78.15Q-104.2262109375-77.25 -104.7162109375-75.76Q-105.1962109375-74.27 -105.1962109375-72.07L-105.1962109375-72.07L-105.1962109375-67.24L-95.8762109375-67.24L-95.8762109375-58.45L-105.1962109375-58.45L-105.1962109375 0L-117.3562109375 0ZM-88.7480859375 0L-88.7480859375-88.82L-76.3880859375-88.82L-76.3880859375 0L-88.7480859375 0ZM-46.5586328125 0.73L-46.5586328125 0.73Q-48.7086328125 0.73 -50.9286328125 0.39Q-53.1486328125 0.05 -55.2286328125-1.03Q-57.2986328125-2.1 -59.1286328125-4.1Q-60.9586328125-6.1 -62.328632812500004-9.38Q-63.6986328125-12.65 -64.4786328125-17.43Q-65.2586328125-22.22 -65.2586328125-28.86L-65.2586328125-28.86L-65.2586328125-39.4Q-65.2586328125-45.95 -64.4486328125-50.61Q-63.6486328125-55.27 -62.2586328125-58.45Q-60.868632812499996-61.62 -59.0086328125-63.5Q-57.1486328125-65.38 -55.078632812500004-66.38Q-52.9986328125-67.38 -50.8086328125-67.7Q-48.608632812500005-68.02 -46.5086328125-68.02L-46.5086328125-68.02Q-44.5086328125-68.02 -42.358632812500005-67.72Q-40.2086328125-67.43 -38.1586328125-66.48Q-36.1086328125-65.53 -34.2786328125-63.65Q-32.4486328125-61.77 -31.0586328125-58.59Q-29.658632812500002-55.42 -28.858632812499998-50.71Q-28.048632812500003-46 -28.048632812500003-39.4L-28.048632812500003-39.4L-28.048632812500003-28.86Q-28.048632812500003-22.31 -28.8786328125-17.58Q-29.7086328125-12.84 -31.1286328125-9.57Q-32.5486328125-6.3 -34.3986328125-4.27Q-36.2586328125-2.25 -38.3086328125-1.12Q-40.358632812500005 0 -42.478632812499995 0.37Q-44.608632812500005 0.73 -46.5586328125 0.73ZM-46.4586328125-8.79L-46.4586328125-8.79Q-44.7986328125-8.79 -43.6486328125-9.64Q-42.5086328125-10.5 -41.7986328125-12.45Q-41.088632812499995-14.4 -40.7686328125-17.6Q-40.4586328125-20.8 -40.4586328125-25.54L-40.4586328125-25.54L-40.4586328125-42.09Q-40.4586328125-46.83 -40.7686328125-50.05Q-41.088632812499995-53.27 -41.7986328125-55.25Q-42.5086328125-57.23 -43.6486328125-58.11Q-44.7986328125-58.98 -46.4586328125-58.98L-46.4586328125-58.98Q-48.218632812500005-58.98 -49.4186328125-58.11Q-50.608632812500005-57.23 -51.3886328125-55.25Q-52.1686328125-53.27 -52.5186328125-50.05Q-52.858632812500005-46.83 -52.858632812500005-42.09L-52.858632812500005-42.09L-52.858632812500005-25.54Q-52.858632812500005-20.8 -52.5186328125-17.6Q-52.1686328125-14.4 -51.3886328125-12.45Q-50.608632812500005-10.5 -49.4186328125-9.64Q-48.218632812500005-8.79 -46.4586328125-8.79ZM-10.6719140625 0L-21.7519140625-67.24L-9.9819140625-67.24L-5.151914062500001-30.81L-3.9819140624999996-17.19L-3.591914062499999-17.19L-2.1219140625-30.81L 4.318085937500001-67.24L 14.7180859375-67.24L 21.3580859375-30.81L 23.168085937500003-17.19L 23.558085937500003-17.19L 24.3880859375-30.81L 28.6380859375-67.24L 40.1580859375-67.24L 29.268085937499997 0L 17.8980859375 0L 10.918085937500003-37.4L 9.348085937500002-47.71L 8.958085937500002-47.71L 7.548085937500002-37.4L 1.1980859375000001 0L-10.6719140625 0ZM 64.43011718750002 0.73L 64.43011718750002 0.73Q 60.080117187500015 0.73  56.74011718750001-0.88Q 53.39011718750001-2.49  51.10011718750002-5.91Q 48.800117187500014-9.33  47.63011718750001-14.67Q 46.46011718750002-20.02  46.46011718750002-27.54L 46.46011718750002-27.54L 46.46011718750002-40.23Q 46.46011718750002-46.63  47.41011718750001-51.2Q 48.360117187500016-55.76  49.900117187500015-58.86Q 51.440117187500014-61.96  53.470117187500016-63.77Q 55.49011718750001-65.58  57.64011718750001-66.53Q 59.790117187500016-67.48  61.91011718750001-67.75Q 64.04011718750002-68.02  65.84011718750001-68.02L 65.84011718750001-68.02Q 69.16011718750002-68.02  72.24011718750002-67.02Q 75.32011718750002-66.02  77.66011718750002-63.6Q 80.00011718750002-61.18  81.40011718750002-57.13Q 82.79011718750002-53.08  82.79011718750002-47.02L 82.79011718750002-47.02Q 82.79011718750002-44.97  82.67011718750001-42.87Q 82.54011718750002-40.77  82.35011718750002-38.75Q 82.15011718750002-36.72  81.84011718750001-34.81Q 81.5201171875-32.91  81.18011718750002-31.3L 81.18011718750002-31.3L 58.86011718750001-31.3L 58.86011718750001-24.46Q 58.86011718750001-20.07  59.20011718750001-17.07Q 59.550117187500014-14.06  60.35011718750002-12.23Q 61.16011718750001-10.4  62.550117187500014-9.59Q 63.940117187500014-8.79  66.04011718750002-8.79L 66.04011718750002-8.79Q 67.16011718750002-8.79  68.24011718750002-9.25Q 69.31011718750001-9.72  70.12011718750001-10.79Q 70.92011718750001-11.87  71.41011718750002-13.65Q 71.90011718750002-15.43  71.90011718750002-18.07L 71.90011718750002-18.07L 71.90011718750002-20.17L 82.20011718750001-20.17L 82.20011718750001-17.58Q 82.20011718750001-8.01  77.64011718750001-3.64Q 73.07011718750002 0.73  64.43011718750002 0.73ZM 58.86011718750001-39.6L 71.26011718750001-39.6Q 71.31011718750001-40.14  71.36011718750001-41.04Q 71.41011718750002-41.94  71.44011718750002-42.92Q 71.46011718750002-43.9  71.46011718750002-44.85Q 71.46011718750002-45.8  71.46011718750002-46.48L 71.46011718750002-46.48Q 71.46011718750002-53.13  69.90011718750002-56.05Q 68.33011718750001-58.98  65.26011718750001-58.98L 65.26011718750001-58.98Q 63.650117187500015-58.98  62.43011718750002-58.23Q 61.21011718750002-57.47  60.42011718750001-55.69Q 59.64011718750001-53.91  59.25011718750001-50.98Q 58.86011718750001-48.05  58.86011718750001-43.7L 58.86011718750001-43.7L 58.86011718750001-39.6ZM 93.2396484375 0L 93.2396484375-67.24L 102.2696484375-67.24L 103.34964843750001-60.4Q 105.3996484375-64.21  108.0596484375-66.11Q 110.7196484375-68.02  113.4996484375-68.02L 113.4996484375-68.02Q 118.8196484375-68.02  121.3596484375-64.75Q 123.89964843749999-61.47  123.89964843749999-54.93L 123.89964843749999-54.93Q 123.89964843749999-54.1  123.7796484375-52.95Q 123.65964843750001-51.81  123.4396484375-50.56Q 123.2196484375-49.32  122.89964843749999-48.07Q 122.5796484375-46.83  122.2396484375-45.8L 122.2396484375-45.8L 113.6496484375-45.8L 113.6496484375-52.05Q 113.6496484375-54.1  113.3796484375-55.42Q 113.1096484375-56.74  112.6696484375-57.54Q 112.2296484375-58.35  111.6496484375-58.67Q 111.0596484375-58.98  110.3796484375-58.98L 110.3796484375-58.98Q 108.9096484375-58.98  107.6696484375-58.03Q 106.4196484375-57.08  105.5896484375-55.37L 105.5896484375-55.37L 105.5896484375 0L 93.2396484375 0Z" data-textpath="flower" data-text-anchor="middle" data-font-size="100" data-letterspacing="0" data-side="left" data-offset="0" data-dx="0" data-dy="93.75" data-xmlspace="preserve" data-href="" data-font="Fjalla One" data-font-src="/Content/clientfonts/fjallaone.woff" data-font-scale="contain" transform="translate(182,93.75)" data-x="182" data-y="0" fill="url('#linearGradientSkdh461g5jq')"></path></g></svg></g><g transform="matrix(0.8643,0,0,0.8643,228.797,377.8471)"><svg width="0" height="185" style="overflow: visible;"><defs><linearGradient x1="0" y1="0.5" x2="1" y2="0.5" id="linearGradientSkdh461g5jt"><stop offset="0%" stop-color="#28303d"></stop><stop offset="100%" stop-color="#28303d"></stop></linearGradient></defs><g><path d="" data-textpath="" data-text-anchor="middle" data-font-size="100" data-letterspacing="0" data-side="left" data-offset="0" data-dx="0" data-dy="93.75" data-xmlspace="preserve" data-href="" data-font="Fjalla One" data-font-src="/Content/clientfonts/fjallaone.woff" data-font-scale="contain" transform="translate(106.5,93.75)" data-x="106.5" data-y="0" fill="url('#linearGradientSkdh461g5jt')"></path></g></svg></g></g></svg>