<svg class="thumb" width="669" height="568" viewBox="0,0,669,568" xmlns="http://www.w3.org/2000/svg" xmlns:inkscape="http://www.inkscape.org/namespaces/inkscape" xmlns:sodipodi="http://sodipodi.sourceforge.net/DTD/sodipodi-0.dtd" xmlns:xlink="http://www.w3.org/1999/xlink" xmlns:ns1="http://www.inkscape.org/namespaces/inkscape" xmlns:sketch="http://www.bohemiancoding.com/sketch/ns"><defs></defs><g><g transform="matrix(0.9163,0,0,0.9163,129.7222,0.3908)"><svg class="thumb" width="447.486" height="510.48800000000006" viewBox="33.806,-5,447.486,510.48800000000006"><defs><linearGradient x1="0" y1="0.5" x2="1" y2="0.5" id="linearGradientSkdiqwf9d2c1"><stop offset="0%" stop-color="#aba104"></stop><stop offset="100%" stop-color="#aba104"></stop></linearGradient></defs><g></g><g><path fill="url('#linearGradientSkdiqwf9d2c1')" style="" d="M476.292,92.929L257.549,0L38.806,92.929c3.606,94.263,33.959,295.742,218.355,407.083v0.476
	c0.13-0.081,0.257-0.162,0.388-0.239c0.131,0.077,0.258,0.158,0.389,0.239v-0.476C442.332,388.671,472.686,187.196,476.292,92.929
	L476.292,92.929z"></path></g></svg></g><g transform="matrix(0.8374,0,0,0.8374,146.8603,19.9678)"><svg class="thumb" width="447.486" height="510.48800000000006" viewBox="33.806,-5,447.486,510.48800000000006"><defs><linearGradient x1="0" y1="0.5" x2="1" y2="0.5" id="linearGradientSkdiqwf9d2c7"><stop offset="0%" stop-color="#083b66"></stop><stop offset="100%" stop-color="#083b66"></stop></linearGradient></defs><g></g><g><path fill="url('#linearGradientSkdiqwf9d2c7')" style="" d="M476.292,92.929L257.549,0L38.806,92.929c3.606,94.263,33.959,295.742,218.355,407.083v0.476
	c0.13-0.081,0.257-0.162,0.388-0.239c0.131,0.077,0.258,0.158,0.389,0.239v-0.476C442.332,388.671,472.686,187.196,476.292,92.929
	L476.292,92.929z"></path></g></svg></g><g transform="matrix(1.7976,0,0,1.0753,166.8373,231.8602)"><svg class="thumb" width="186.742" height="17.218999999999994" viewBox="-5,79.525,186.742,17.218999999999994"><defs><linearGradient x1="0" y1="0.5" x2="1" y2="0.5" id="linearGradientSkdiqwf9d2cd"><stop offset="0%" stop-color="#aba104"></stop><stop offset="100%" stop-color="#aba104"></stop></linearGradient></defs><g><rect fill="url('#linearGradientSkdiqwf9d2cd')" style="" y="84.525" width="176.742" height="7.219"></rect></g></svg></g><g transform="matrix(0,2.4077,-1.0753,0,344.1548,6.082)"><svg class="thumb" width="186.742" height="17.218999999999994" viewBox="-5,79.525,186.742,17.218999999999994"><defs><linearGradient x1="0" y1="0.5" x2="1" y2="0.5" id="linearGradientSkdiqwf9d2cj"><stop offset="0%" stop-color="#aba104"></stop><stop offset="100%" stop-color="#aba104"></stop></linearGradient></defs><g><rect fill="url('#linearGradientSkdiqwf9d2cj')" style="" y="84.525" width="176.742" height="7.219"></rect></g></svg></g><g transform="matrix(1.2088,0,0,1.2088,359.7009,106.8718)"><svg viewBox="3.233788335757385,8.7931119984847,94.11221166424262,82.41695779921469" width="94.11221166424262" height="82.41695779921469"><defs><linearGradient x1="0" y1="0.5" x2="1" y2="0.5" id="linearGradientSkdiqwf9d2cp"><stop offset="0%" stop-color="#aba104"></stop><stop offset="100%" stop-color="#aba104"></stop></linearGradient></defs><g><path fill="url('#linearGradientSkdiqwf9d2cp')" style="" fill-rule="evenodd" clip-rule="evenodd" d="M18.186,53.879c1.958,2.131,4.162,4.018,6.543,5.728  c-0.331-4.78,0.651-8.58,2.726-11.18c1.942-2.433,5.237-3.455,7.089-5.999c-1.976,0.089-3.17,0.017-4.362-1.635  c-2.184,1.378-4.565-0.823-7.089-0.818c0.537-3.229,0.293-4.572,0.545-7.361c3.244,1.118,6.207,2.517,10.36,2.726  c0.079-0.723-1.457-2.172-2.181-2.999c-5.346,2.079-9.255-3.394-8.725-9.816c1.907-1.26,4.23-0.666,4.362,1.909  c4.4,0.128,8.549,0.004,8.998-3.817c1.69-1.191,4.334-0.703,5.181,1.09c0.489,0.035,0.575-0.334,1.091-0.273  c0.61-0.117,0.111-1.343,0.273-1.908c2.339-0.341,3.178,0.82,4.089,1.908c0.989-0.374,0.93-1.796,1.363-2.727  c1.74,0.805,3.327,1.763,4.634,3c1.207-0.338,2.031-1.059,3.272-1.362c0,0.908,0,1.817,0,2.726c1.754-2.864,4.163-5.157,7.636-5.726  c11.436-1.873,17.055,7.376,23.721,10.906c0.837-0.252,0.474-1.707,1.09-2.181c1.054,0.054,2.01,0.01,2.728-0.273  c0.195,1.076,0.339,2.208,0.816,3c-3.377,5.896-9.112,0.053-11.996-2.454c0.02,1.162,0.457,1.907,0.273,3.272  c-1.351-1.105-2.457-2.453-3.819-3.544c-1.18,1.093-1.785,2.758-4.09,2.727c1.341-2.207,1.517-5.454-1.361-5.999  c0.135,2.772-0.501,4.771-3.001,4.908c0.527-3.616-0.727-5.452-3.544-5.727c-0.41,0.77-0.48,1.882-0.546,3  c-0.439-1.518-3.099-2.104-4.905-1.364c-1.495,1.163-0.59,4.022,0.815,4.635c1.49-1.721,3.47-1.57,6.544-1.363  c-1.845,0.356-5.384,3.212-2.454,4.908c0.942-0.24,0.471-1.893,1.908-1.636c0.653,0.44,0.916,1.268,1.092,2.181  c7.127,1.803,19.246-2.959,21.813,3.544c1.451,3.681-0.754,7.511-3,9.27c1.927,2.912,3.605,4.748,3.545,8.179  c-0.133,7.278-7.903,16.323-0.545,21.54c0.487,3.217-2.083,3.371-3,5.181c-0.126,2.672,1.166,3.926,1.908,5.726  c-0.645,0.627-2.447,0.099-3.544,0.273c0-0.363,0-0.728,0-1.091c-0.372,1.265-2.079,1.192-3.816,1.091c0-0.363,0-0.728,0-1.091  c0.02,1.16-3.215,1.182-3.547,0.272c-0.471,1.278-5.531,1.322-5.998,0c-0.35,0.582-3.463,1.758-3.543,0  c-2.237,1.908-3.669-0.342-6.544,0.545c0.923-2.803,4.51-2.942,7.633-3.545c-0.067-2.533,0.919-5.003,0.546-6.816  c-0.815-3.964-6.792-5.527-5.724-11.45c-7.875-0.241-11.245,4.025-17.179,5.726c-0.943,1.421-2.208,2.519-2.181,4.907  c0.995,0.822,2.396,1.239,3.545,1.909c-1.188,1.901-2.605,3.575-5.726,3.544c-0.579,2.051,0.558,4.315-0.545,5.999  c-1.74,0.286-2.606-0.304-3.544-0.818c-0.393,0.061-0.096,0.813-0.546,0.818c-3.824,0.11-5.589-0.472-8.725-0.546  c-0.787-1.521,0.801-3.01,1.636-3.817c1.761-0.146,4.133,0.316,5.454-0.272c1.79-2.181,1.927-6.463,0.544-8.724  c-1.378-2.257-4.544-2.147-5.998-3.818c-2,0.937-3.618,2.673-6.271,2.181c-0.931-1.976-2.586-3.23-5.453-3.271  c-0.479-1.521-0.391-3.609-1.09-4.908c-0.615,0.202-0.107,1.528-0.273,2.181c-0.637,0-1.273,0-1.908,0  c0.98,1.933-0.672,2.986-0.546,4.908c0.081,0.556,0.738,0.534,0.819,1.09c1.135-0.319,1.905-1.001,2.999-1.362  c1.739,2.52-2.896,3.143-1.637,5.18c-1.024,0.521-2.711,0.38-2.181,2.454c-0.727,0-1.454,0-2.181,0  c-0.14-2.495-1.284-3.987-3.544-4.362c-0.004-1.187-0.09-2.453,0.272-3.271c0.732,0.358,1.449,0.732,2.181,1.091  c1.806-1.785-0.761-3.194,0.273-5.453c-0.117-0.61-1.344-0.111-1.908-0.273c-0.211-1.301,0.426-1.754,0.272-2.999  c0.546,0,1.092,0,1.636,0c-0.722-2.456-0.7-5.707-0.544-7.635c-2.892-0.818-4.644-6.812,0-7.088  c-0.22-13.852-1.063-28.328,7.361-33.537c0.316-0.044,0.484,0.061,0.544,0.272c-1.937,9.697-1.677,21.589-1.635,33.265  C19.146,48.76,20.521,51.959,18.186,53.879z M11.914,30.704c-0.391,6.296-0.286,15.05,0.818,18.541  c-0.32,0.588-0.565,1.251-0.818,1.908c0.943,0.419,2.486,0.24,3.817,0.272c0.825-0.96-0.754-1.264-0.544-2.454  c0.413-0.586,1.185-0.814,1.09-1.908c-0.312-10.854,0.444-22.095,1.091-31.083C14.233,19.158,12.333,23.974,11.914,30.704z   M25.819,60.696c1.027,4.771,5.151,7.997,9.27,9.815c0.348-2.651-0.706-6.704,0.546-8.452c1.348,2.022-0.289,5.683,0.271,8.726  c2.333,2.158,3.521,10.475-0.545,11.724c-2.265,0.695-5.019-1.06-5.998,1.636c2.452,1.123,5.98,1.254,8.724,0  c0.484,0.617,1.923,1.699,2.999,0.818c-0.562-1.478-0.362-4.538,0.274-5.726c2.165-0.289,4.225-0.683,4.907-2.454  c-1.125-0.601-2.474-0.979-3.271-1.909c-0.029-3.43,2.429-4.429,2.454-7.088c3.295-1.432,2.692-6.762,3.816-10.36  c1.717,4.133-1.355,9.018-2.454,11.178c5.845-2.293,10.5-6.156,17.449-5.999c4.431,0.102,6.854,3.618,10.09,6.271  c2.983,2.447,5.842,4.364,8.18,5.998c0,2.091,0,4.181,0,6.272c-2.087,1.185-5.94,2.055-6.544,3.816  c1.269-1.146,3.531,0.855,4.636-1.092c0.828,1.851,2.889,0.746,4.089,0c0.561,0.439,0.527,1.474,1.636,1.364  c0.16-1.255-1.652-2.887-1.092-5.454c0.305-1.406,3.252-1.851,3-4.089c-0.08-0.723-1.647-1.639-2.181-2.454  c-3.919-5.99,3.176-15.038,2.454-21.54c-0.319-2.867-2.826-4.858-3.817-6.815c1.705-1.242,3.438-2.659,3.817-4.636  c2.212-11.54-14.337-4.811-22.086-7.089c-0.097-0.813-0.157-1.66-0.816-1.909c-0.157,0.479,0.328,1.602-0.272,1.636  c-1.45-0.361-2.481-0.353-3.001-1.364c-0.809-1.579,0.964-3.061,0.272-3.816c-1.233-0.237-0.637,1.361-1.635,1.363  c-5.792-0.3-2.996-9.554,2.455-6.271c0.045-0.771-0.235-1.871,0.545-1.909c3.711,0.016,5.175,2.276,5.726,5.453  c0.985-2.015,0.533-5.465,1.361-7.635c-9.857-3.711-18.585,6.249-11.451,13.088c-1.077,0.479-1.698,3.18-0.271,3.817  c-0.026-1.207,0.954-1.407,1.907-1.636c4.817,5.054,24.048-3.043,25.63,3.544c0.287,1.2-0.167,3.38-0.818,4.363  c-3.67,5.54-21.435,0.954-29.992,2.726c-0.767,0.347,1.312,1.562,0.546,1.909c-1,0-2.001,0-3,0c-0.193,1.205,0.823,2.613,0,3.544  c-1.515-0.667-2.866-1.497-4.362-2.181c-0.966,1.124-2.25,1.931-3.544,2.727c0.048-1.412-0.559-2.168-0.818-3.272  c-1.464,0.263-1.203,2.25-2.453,2.727c-0.106-0.985-0.363-1.819-0.819-2.454c-0.701,1.299-1.738,2.26-2.726,3.271  c-0.169-0.739,0.345-2.163-0.273-2.453c-0.655,0.716-1.8,2.371-2.455,2.182c-0.344-1.019-0.351-2.375-1.09-2.999  c-0.495,0.25-2.125,0.758-2.454,0.272c0.199-0.992,1.106-2.7,0.818-3.272C28.573,47.71,24.176,53.061,25.819,60.696z M71.354,21.979  c1.905,0.721,4.28,2.15,2.999,5.18c1.447-0.098,1.057-2.033,1.636-2.999c1.343,0.84,1.993,2.369,3.544,2.999  c0.159-0.728-0.807-1.703,0-2.18c4.023,1.093,7.072,8.67,11.725,4.089c-0.386-0.705-0.024-2.159-1.092-2.181  c-1.343,0.111-0.876,2.03-1.635,2.727c-6.365-2.997-10.042-8.682-17.177-10.907C71.354,19.798,71.354,20.889,71.354,21.979z   M44.36,29.068c-2.117-0.428-3.716-1.374-5.999-1.636c-0.166,0.652,0.343,1.978-0.273,2.181c-1.248-0.296-2.748-0.342-3.544-1.091  c0.709-0.563,0.782-1.763,1.363-2.454c2.651-0.375,4.576,1.418,6.271,1.09c-0.375-0.281-1.616-1.081-1.09-1.363  c2.049,0.496,3.389,1.701,6.272,1.363c-0.06-1.03-0.857-1.323-1.091-2.18c2.179-0.548,5.403-0.049,5.998-2.182  c-0.461-1.54-2.009-1.991-3.272-2.727c0.072,1.618-1.057,2.033-2.181,2.454c-0.798-0.747-1.073-2.016-2.726-1.908  c0,0.544,0,1.09,0,1.635c-1.188,0.085-2.23,0.315-3.272,0.546c-0.094-1.918-2.419-2.245-3.818-1.364  c-0.586,4.139-5.444,4.006-10.087,4.091c-0.182-1.091-0.676-1.869-1.091-2.727c-0.945-0.219-1.048,0.406-1.908,0.272  c-0.349,5.485,3.401,10.976,8.179,7.907c1.333,1.758,2.622,3.558,4.089,5.181c-1.697-0.071,0.271,1.919,0,2.999  c-1.726,0-3.453,0-5.18,0c0-0.727,0-1.454,0-2.181c-2.466,0.002-4.245-1.163-6.544-0.545c0.09,1.091-0.485,1.514-0.273,2.727  c2.286,0.305,4.45,2.053,6.271,0.545c0.646,0.717,1.083,1.644,2.181,1.909c1.327-0.597,3.556-0.913,4.091,0.545  c0.553-0.628,0.978-1.384,1.635-1.909c0.24,0.76,0.34,1.659,0.819,2.181c0.802-0.379,0.927-1.436,2.181-1.363  c0.312,0.96,0.599,1.945,1.363,2.454c0.476-0.797,0.805-1.739,1.636-2.181c0.411,1.044,1.129,1.779,1.908,2.454  c0.019-1.071,0.132-2.049,0.545-2.726c0.814,0.004,0.928,0.709,1.636,0.819c0.292-0.255,0.085-1.006,0.818-0.819  c1.432,0.75,2.221,2.143,4.635,1.909c-0.075-3.105-2.065-4.296-4.089-5.453c-0.031,0.697-0.5,0.955-0.819,1.363  c-0.518-0.571-0.743-1.438-1.908-1.363c-0.813,2.94-2.731,4.866-4.362,1.636c-0.394,0.424-0.364,1.272-0.818,1.637  c-0.982-0.778-3.256-2.753-2.181-3.818c1.048,0.315,0.575,2.152,1.908,2.181c0.558-0.351,0.287-1.53,1.091-1.636  c0.762,0.782,1.21,1.881,2.181,2.454c-0.203-0.839,0.749-0.524,0.546-1.364c-0.337-0.791-2.218-1.061-1.364-2.181  c1.017,0.165,1.11,1.254,2.181,1.364c0.096-0.813,0.157-1.66,0.818-1.909c0.715,0.376,0.938,1.242,1.908,1.363  c0.32-0.408,0.339-1.115,0.819-1.363c1.323,1.402,2.9,2.551,4.362,3.817c0.19-1.372-0.461-1.9-0.273-3.272  c-1.718-0.736-3.031-1.875-3.544-3.816c-0.166,0.651,0.343,1.978-0.273,2.181c-1.11-0.527-1.392-1.88-2.726-2.181  c-0.442,0.558-0.213,1.786-0.818,2.181c-0.408-0.41-0.488-1.148-1.09-1.364c-0.03,0.697-0.5,0.955-0.819,1.364  c-0.111-0.343-0.352-0.558-0.818-0.546c-0.037,0.508-0.179,0.912-0.545,1.091c-0.58-0.42-1.016-0.984-1.636-1.363  c-0.402,0.688-1.054,1.127-1.908,1.363c-0.685-0.746-3.119-1.98-1.364-2.726c-0.086,1.085,1.261,0.738,1.364,1.635  c0.995-0.186,1.33-1.034,2.181-1.363c0.188,0.539,0.727,0.727,1.363,0.818c0.493-1.726,1.688-0.053,2.454-1.909  c-0.014,0.469,0.21,0.699,0.545,0.818c0.438-0.472,0.132-1.686,0.818-1.909c0.739,0.806,1.261,1.829,2.454,2.182  c0.283-1.626,0.082-3.736,0.818-4.908c1.009,2.989,0.819,7.177,4.362,7.634c-0.548-4.444,1.107-7.241-1.091-10.633  c0.763-0.964,1.889-1.565,1.908-3.272c-3.406,0.411-2.749,4.884-7.634,3.818c0.065,1.116,0.926,1.437,1.09,2.454  c-2.069-0.056-4.487,0.177-5.18,0C44.191,28.004,44.878,29.042,44.36,29.068z M54.721,25.524c2.475,3.226-0.082,6.833,1.09,10.905  c-0.483,0.062-1.364-0.274-1.09,0.545c0.416,1.288,0.988,3.396-0.272,4.09c0.405,0.413,0.439,1.196,0.546,1.909  c1.659,1.316,3.675,0.651,5.998,0.545c8.021-0.364,18.904,1.086,23.721-1.363c0.821-1.524,1.904-3.532,0.819-5.454  c-7.121-2.849-18.083,2.332-25.086-1.635c-0.643,0.447-0.307,1.875-0.818,2.454c-1.742-1.092-2.873-3.916-1.363-5.999  c-1.731-1.595-2.519-5.403-2.181-8.179C55.756,24.194,54.907,24.528,54.721,25.524z M35.907,28.25  c0.632-0.086,1.047,0.044,1.363,0.273c0-0.454,0-0.909,0-1.364c-0.363,0-0.727,0-1.091,0C36.2,27.635,36.12,28.008,35.907,28.25z   M31.272,35.885c-2.611,0.218-5.276-2.317-6.816-1.363C26.195,35.33,29.338,36.18,31.272,35.885z M32.09,38.338  c0.918-0.172,2.533,0.351,2.999-0.272c-0.404-0.413-0.438-1.196-0.545-1.909c-0.829,0.171-2.349-0.349-2.727,0.272  C32.427,36.547,31.927,37.774,32.09,38.338z M36.453,43.791c-0.273-0.363-0.449-0.822-0.817-1.09  c-0.381,1.352-2.016,2.886-1.364,4.363c0.17-0.648,1.679,0.042,1.908-0.545c0.174,0.917,0.194,1.987,0.818,2.454  c0.794-1.023,1.704-1.932,2.728-2.727c0.167,0.652-0.342,1.979,0.273,2.181c0.753-0.792,1.295-1.793,2.18-2.454  c0.412,0.497,0.29,1.528,0.819,1.909c0.711-0.834,0.979-2.111,1.908-2.727c0.6,1.308,0.855,2.963,1.908,3.817  c0.747-0.89,1.848-1.424,2.727-2.182c0.979,0.748,2.231,1.224,3.272,1.909c0.173-0.918-0.352-2.533,0.271-3c0.729,0,1.453,0,2.181,0  c0.002-0.909-0.886-0.931-0.816-1.909c-2.459,0.907-3.365-0.86-5.181-1.363c-0.55,1.178-0.993,0.44-1.908,0  c-0.248,1.116-0.27,2.457-0.818,3.272c-0.834-0.892-1.373-2.081-2.454-2.727c-0.671,0.783-0.97,1.938-1.91,2.455  c-0.264-1.189-0.944-1.964-1.362-3c-1.089,0.274-1.565,1.162-2.454,1.636c0.026-0.844-0.123-1.512-0.544-1.908  C37.33,42.668,37.079,43.418,36.453,43.791z M9.187,51.698c0.522,0.659,1.68,0.684,1.91,1.636c3.638,1.339,9.069-0.229,7.361-3.544  c-0.21-0.406-1.372-1.352-2.181-0.817c-0.277,1.275,1.093,0.906,0.818,2.181c-0.934,1.955-6.048,1.273-6.817-0.273  c0.572-0.518,1.438-0.742,1.363-1.908C10.128,47.458,8.685,49.515,9.187,51.698z M11.914,55.244c1.191-0.357,2.463,0.604,2.999,0  c-1.083-0.279-1.404-1.322-2.999-1.092C11.914,54.517,11.914,54.88,11.914,55.244z M17.368,62.06  c2.25-0.069,1.008,3.354,1.908,4.636c2.587,0.502,4.121,2.059,5.726,3.544c1.792-0.388,3.333-1.028,4.362-2.181  c-1.566-1.162-2.395-3.058-3.545-4.635c-1.443-4.194-6.21-6.515-8.725-8.726C18.325,56.365,18.311,59.681,17.368,62.06z   M11.641,56.88c0.883,0.661,2.729,0.361,3.545,1.089C15.907,55.887,12.238,55.898,11.641,56.88z M11.914,59.332  c1.48-0.206,2.208,0.337,3.545,0.274c-0.276-1.362-2.016-1.258-3.545-1.365C11.914,58.606,11.914,58.969,11.914,59.332z   M12.459,60.423c-0.06,0.517,0.308,0.602,0.273,1.093c0.829-0.172,2.348,0.348,2.728-0.273  C14.611,60.728,13.623,59.83,12.459,60.423z M10.823,63.696c0.037,0.78,1.871-0.237,1.909,0.543  c0.083,1.267-0.002,2.361-0.544,3.001c2.182,0.973-0.009,5.853-2.183,4.09c0.843,1.976,3.298,2.338,3.272,5.181  c1.038,0.218,0.348-1.289,0.545-1.909c0.565-0.162,1.791,0.337,1.909-0.272c-0.542-0.275-1.165-0.471-1.364-1.091  c1.643-0.084,2.428-1.026,3.272-1.908c-1.04-0.041-1.313,0.686-2.18,0.818c-0.438-1.02-1.697-1.213-1.91-2.454  c0.707-2.249,1.082-2.958,0.546-5.455c0.636,0,1.271,0,1.908,0c0-0.635,0-1.27,0-1.908C13.538,62.047,12.139,62.829,10.823,63.696z   M69.99,75.147c0.439,2.071-0.082,5.572-1.092,7.907c-1.212,0.969-4.099,0.262-5.182,1.362c3.657,0.903,6.452-0.316,10.363,0.818  c-0.126-2.147-0.787-3.758-0.819-5.998c0.563-1.709,2.322-2.223,3.001-3.818c-0.457-0.725-2.516,0.152-3.001-0.545  c-0.589-1.971-0.141-3.758,0.819-4.907c-3.1-2.263-4.824-5.901-9.817-6.271C63.212,69.114,69.157,71.231,69.99,75.147z   M74.353,74.329c0.918,0.172,2.532-0.352,2.998,0.272c-0.229,0.68-0.357,1.46-0.273,2.454c-3.023-0.453-3.108,4.502-1.908,7.089  c1.559-1.805,4.1-2.626,6.545-3.544c0-1.818,0-3.636,0-5.453c-2.571-1.156-4.363-3.091-6.817-4.362  C74.065,71.235,73.729,73.293,74.353,74.329z"></path></g></svg></g><g transform="matrix(1,0,0,1,222.515,116)"><svg viewBox="13.524000000000001,8.004999999999999,41.045,78.05" width="41.045" height="78.05"><defs><linearGradient x1="0" y1="0.5" x2="1" y2="0.5" id="linearGradientSkdiqwf9d2cv"><stop offset="0%" stop-color="#aba104"></stop><stop offset="100%" stop-color="#aba104"></stop></linearGradient></defs><g><path fill="url('#linearGradientSkdiqwf9d2cv')" style="" d="M49.569,22.967c-9.975-5.691-20.677-9.125-31.045-9.962v58.351c10.367,0.814,21.05,4.154,31.045,9.699V22.967z"></path></g></svg></g><g transform="matrix(1,0,0,1,254.515,116)"><svg viewBox="46.399,8.005,41.045,78.049" width="41.045" height="78.049"><defs><linearGradient x1="0" y1="0.5" x2="1" y2="0.5" id="linearGradientSkdiqwf9d2d1"><stop offset="0%" stop-color="#aba104"></stop><stop offset="100%" stop-color="#aba104"></stop></linearGradient></defs><g><path fill="url('#linearGradientSkdiqwf9d2d1')" style="" d="M82.444,13.005c-10.368,0.838-21.071,4.271-31.045,9.962v58.087c9.993-5.545,20.679-8.885,31.045-9.699V13.005z"></path></g></svg></g><g transform="matrix(1,0,0,1,217.015,122)"><svg viewBox="8.455000000000002,14.468204555014115,84.057,74.81939253714846" width="84.057" height="74.81939253714846"><defs><linearGradient x1="0" y1="0.5" x2="1" y2="0.5" id="linearGradientSkdiqwf9d2d7"><stop offset="0%" stop-color="#aba104"></stop><stop offset="100%" stop-color="#aba104"></stop></linearGradient></defs><g><path fill="url('#linearGradientSkdiqwf9d2d7')" style="" d="M49.229,84.073c0.814,0.278,1.671,0.29,2.485,0.012c11.657-5.043,23.865-7.313,35.798-6.79V19.524   c-1.074-0.048-2.155-0.059-3.24-0.055v53.594l-0.852,0.056c-10.672,0.697-21.732,4.177-32.021,10.048   c-0.594,0.203-1.237,0.203-1.83,0c-10.29-5.871-21.349-9.351-32.021-10.048l-0.854-0.056V19.469   c-1.084-0.004-2.166,0.006-3.239,0.055v57.771C25.387,76.771,37.569,79.03,49.229,84.073z"></path></g></svg></g><g transform="matrix(1,0,0,1,212.015,128)"><svg viewBox="3.3869999999999987,20.673999999999992,94.192,72.441" width="94.192" height="72.441"><defs><linearGradient x1="0" y1="0.5" x2="1" y2="0.5" id="linearGradientSkdiqwf9d2dd"><stop offset="0%" stop-color="#aba104"></stop><stop offset="100%" stop-color="#aba104"></stop></linearGradient></defs><g><path fill="url('#linearGradientSkdiqwf9d2dd')" style="" d="M92.579,26.009c-1.07-0.149-2.157-0.228-3.237-0.335v53.55l-0.968-0.056c-12.195-0.699-25.06,1.777-36.975,7.065   l-0.916,0.381l-0.915-0.381c-11.917-5.288-24.781-7.765-36.976-7.065l-0.967,0.056v-53.55c-1.081,0.108-2.168,0.187-3.238,0.335   v58.707c0.594,0.307,1.044,0.748,1.044,0.748c12.951-1.75,26.393-1.536,39.18,2.651c0.588-0.058,1.212-0.095,1.873-0.095   c0.661,0,1.285,0.037,1.872,0.095c12.785-4.188,26.229-4.401,39.179-2.651c0,0,0.474-0.462,1.044-0.748V26.009z"></path></g></svg></g><g transform="matrix(1,0,0,1,225.015,285)"><svg viewBox="8.434999999999999,30.674999999999997,68.92399999999999,42.17400000000001" width="68.92399999999999" height="42.17400000000001"><defs><linearGradient x1="0" y1="0.5" x2="1" y2="0.5" id="linearGradientSkdiqwf9d2dj"><stop offset="0%" stop-color="#aba104"></stop><stop offset="100%" stop-color="#aba104"></stop></linearGradient></defs><g><path style="" fill="url('#linearGradientSkdiqwf9d2dj')" d="M41.631,57.403c-0.025,0.001-0.049,0.001-0.075,0.001c-0.347,0-0.683-0.131-0.937-0.369l-22.721-21.36  l-4.463,12.92c0.084,0.234,0.868,1.781,7.473,5.17c4.96,2.545,11.619,5.304,18.75,7.768c11.108,3.837,21.515,6.315,26.512,6.316l0,0  c1.51,0,1.994-0.238,2.104-0.307l4.085-11.821L41.631,57.403z"></path></g></svg></g><g transform="matrix(1,0,0,1,215.015,266.5)"><svg viewBox="-1.572,12.335999999999999,100.75800000000001,47.30500000000001" width="100.75800000000001" height="47.30500000000001"><defs><linearGradient x1="0" y1="0.5" x2="1" y2="0.5" id="linearGradientSkdiqwf9d2dp"><stop offset="0%" stop-color="#aba104"></stop><stop offset="100%" stop-color="#aba104"></stop></linearGradient></defs><g><path style="" fill="url('#linearGradientSkdiqwf9d2dp')" d="M77.038,49.548c-2.437-6.87-21.338-11.134-28.415-12.197c-0.748-0.112-1.262-0.809-1.149-1.556  c0.112-0.747,0.804-1.263,1.557-1.149c0.271,0.041,6.744,1.026,13.729,3.161c9.687,2.96,15.357,6.603,16.855,10.828  c0.541,1.522,0.891,2.801,1.114,3.891l13.457-0.736L54.899,17.336L3.428,18.318l38.639,36.323l35.904-1.965  C77.769,51.801,77.474,50.773,77.038,49.548z"></path></g></svg></g><g transform="matrix(1,0,0,1,284.015,302.5)"><svg viewBox="67.02933862676682,47.524,34.542428658872154,49.98300000000002" width="34.542428658872154" height="49.98300000000002"><defs><linearGradient x1="0" y1="0.5" x2="1" y2="0.5" id="linearGradientSkdiqwf9d2dv"><stop offset="0%" stop-color="#aba104"></stop><stop offset="100%" stop-color="#aba104"></stop></linearGradient></defs><g><path style="" fill="url('#linearGradientSkdiqwf9d2dv')" d="M96.455,64.848c-0.806-2.78-5.336-2.922-6.235-2.922l-0.148,0.009c-2.179,0.238-3.955-0.229-5.436-1.427  c-3.288-2.662-3.876-7.931-3.882-7.984l-2.775,0.152c0.024,0.265,0.745,6.554,4.922,9.948c2.032,1.649,4.518,2.338,7.388,2.038  c1.742,0.019,3.421,0.538,3.54,0.948c0.002,0.013,0.191,1.3-4.579,4.662c-0.963-0.327-2.174-0.071-3.101,0.764  c-0.635,0.572-1.017,1.305-1.121,2.028c-1.687,0.902-9.243,5.564-12.971,18.267c-0.106,0.361,0.102,0.743,0.464,0.849  c0.063,0.019,0.129,0.028,0.192,0.028c0.295,0,0.567-0.194,0.655-0.491c3.035-10.341,8.806-15.158,11.327-16.842  c-2.627,2.314-11.042,10.496-6.799,16.963c0.133,0.2,0.35,0.309,0.573,0.309c0.128,0,0.26-0.036,0.375-0.112  c0.317-0.207,0.403-0.63,0.196-0.947c-3.585-5.461,4.095-12.981,6.533-15.158c-2.155,2.354-6.271,7.477-5.859,11.867  c0.177,1.902,1.172,3.451,2.948,4.601c0.112,0.075,0.243,0.109,0.371,0.109c0.223,0,0.443-0.11,0.573-0.312  c0.206-0.316,0.115-0.74-0.203-0.946c-1.426-0.923-2.188-2.093-2.328-3.578c-0.437-4.649,5.354-10.701,6.502-11.854  c0.711-0.046,1.453-0.341,2.068-0.896c0.739-0.666,1.124-1.549,1.141-2.383C95.301,69.37,97.065,66.953,96.455,64.848z"></path></g></svg></g><g transform="matrix(0.8113,0,0,0.8113,351.6116,152.3082)"><svg width="107" height="360" style="overflow: visible;"><defs><linearGradient x1="0" y1="0.5" x2="1" y2="0.5" id="linearGradientSkdiqwf9d2e3"><stop offset="0%" stop-color="#aba104"></stop><stop offset="100%" stop-color="#aba104"></stop></linearGradient></defs><g><path d="M-20.3-7.6L-20.3-7.6L-20.3-18.2L-16.300000000000004-18.2L-16.300000000000004-9.2Q-13.500000000000002-6.7 -9.500000000000002-4.95Q-5.5000000000000036-3.2 -3.552713678800501e-15-3.2L-3.552713678800501e-15-3.2Q 3.299999999999997-3.2  6.449999999999999-4.25Q 9.599999999999998-5.3  11.999999999999996-7.25Q 14.399999999999995-9.2  15.849999999999998-12Q 17.3-14.8  17.3-18.4L 17.3-18.4Q 17.3-22.8  15.8-25.6Q 14.3-28.4  11.899999999999995-30.2Q 9.499999999999996-32  6.399999999999999-33.1Q 3.299999999999997-34.2  0.04999999999999716-35.15Q-3.200000000000003-36.1 -6.350000000000001-37.2Q-9.500000000000002-38.3 -12.050000000000002-40.1Q-14.600000000000001-41.9 -16.200000000000003-44.65Q-17.800000000000004-47.4 -18-51.7L-18-51.7Q-18.200000000000003-55 -17.200000000000003-58.35Q-16.200000000000003-61.7 -14.000000000000002-64.35Q-11.800000000000002-67 -8.300000000000002-68.7Q-4.800000000000001-70.4  0.1999999999999993-70.4L 0.1999999999999993-70.4Q 1.8999999999999986-70.4  3.8999999999999986-70.2Q 5.899999999999999-70  7.9999999999999964-69.5Q 10.099999999999998-69  12.2-68Q 14.3-67  16.2-65.4L 16.2-65.4L 16.2-54.6L 12.2-54.6L 12.2-63.4Q 10.3-64.6  7.2499999999999964-65.5Q 4.199999999999999-66.4  0.09999999999999787-66.4L 0.09999999999999787-66.4Q-3.400000000000002-66.4 -6.0000000000000036-65.25Q-8.600000000000001-64.1 -10.350000000000001-62.15Q-12.100000000000001-60.2 -12.950000000000003-57.65Q-13.800000000000002-55.1 -13.800000000000002-52.4L-13.800000000000002-52.4Q-13.800000000000002-48.8 -12.300000000000002-46.5Q-10.800000000000002-44.2 -8.350000000000001-42.7Q-5.900000000000002-41.2 -2.7500000000000036-40.2Q 0.3999999999999986-39.2  3.6999999999999993-38.2Q 6.9999999999999964-37.2  10.149999999999995-35.85Q 13.3-34.5  15.8-32.35Q 18.3-30.2  19.849999999999998-26.9Q 21.399999999999995-23.6  21.499999999999996-18.6L 21.499999999999996-18.6Q 21.499999999999996-14.2  19.849999999999998-10.6Q 18.2-7  15.349999999999998-4.45Q 12.499999999999996-1.9  8.599999999999998-0.55Q 4.699999999999999 0.8  0.3999999999999986 0.8L 0.3999999999999986 0.8Q-3.5000000000000036 0.8 -6.800000000000001 0Q-10.100000000000001-0.8 -12.750000000000002-2.05Q-15.400000000000002-3.3 -17.300000000000004-4.8Q-19.200000000000003-6.3 -20.3-7.6Z" data-textpath="S" data-text-anchor="middle" data-font-size="100" data-letterspacing="0" data-side="left" data-offset="0" data-dx="0" data-dy="225" data-xmlspace="preserve" data-href="" data-font="Josefin Slab" data-font-src="/Content/clientfonts/josefinslab.woff" data-font-scale="contain" transform="translate(53.5,225)" data-x="53.5" data-y="0" fill="url('#linearGradientSkdiqwf9d2e3')"></path></g></svg></g><g transform="matrix(0.5,0,0,0.5,73.265,419)"><svg width="1047" height="360" style="overflow: visible;"><defs><linearGradient x1="0" y1="0.5" x2="1" y2="0.5" id="linearGradientSkdiqwf9d2mn"><stop offset="0%" stop-color="#083b66"></stop><stop offset="100%" stop-color="#083b66"></stop></linearGradient></defs><g><path d="M-442.483515625-19.82L-442.483515625-19.82Q-442.483515625-10.16 -449.433515625-4.59Q-456.393515625 0.98 -468.803515625 0.98L-468.803515625 0.98Q-480.223515625 0.98 -489.013515625-3.32L-489.013515625-3.32L-489.013515625-17.38Q-481.783515625-14.16 -476.783515625-12.84Q-471.773515625-11.52 -467.623515625-11.52L-467.623515625-11.52Q-462.643515625-11.52 -459.983515625-13.43Q-457.323515625-15.33 -457.323515625-19.09L-457.323515625-19.09Q-457.323515625-21.19 -458.493515625-22.83Q-459.663515625-24.46 -461.933515625-25.98Q-464.213515625-27.49 -471.193515625-30.81L-471.193515625-30.81Q-477.733515625-33.89 -481.003515625-36.72Q-484.273515625-39.55 -486.233515625-43.31Q-488.183515625-47.07 -488.183515625-52.1L-488.183515625-52.1Q-488.183515625-61.57 -481.763515625-66.99Q-475.343515625-72.41 -464.013515625-72.41L-464.013515625-72.41Q-458.44351562500003-72.41 -453.393515625-71.09Q-448.343515625-69.78 -442.823515625-67.38L-442.823515625-67.38L-447.703515625-55.62Q-453.413515625-57.96 -457.153515625-58.89Q-460.893515625-59.81 -464.503515625-59.81L-464.503515625-59.81Q-468.803515625-59.81 -471.093515625-57.81Q-473.393515625-55.81 -473.393515625-52.59L-473.393515625-52.59Q-473.393515625-50.59 -472.463515625-49.1Q-471.533515625-47.61 -469.503515625-46.22Q-467.483515625-44.82 -459.913515625-41.21L-459.913515625-41.21Q-449.903515625-36.43 -446.19351562500003-31.62Q-442.483515625-26.81 -442.483515625-19.82ZM-407.71539062500005-10.89L-407.71539062500005-10.89Q-403.8053906250001-10.89 -398.33539062500006-12.6L-398.33539062500006-12.6L-398.33539062500006-1.51Q-403.90539062500005 0.98 -412.01539062500007 0.98L-412.01539062500007 0.98Q-420.9453906250001 0.98 -425.02539062500006-3.54Q-429.10539062500004-8.06 -429.10539062500004-17.09L-429.10539062500004-17.09L-429.10539062500004-43.41L-436.23539062500004-43.41L-436.23539062500004-49.71L-428.02539062500006-54.69L-423.73539062500004-66.21L-414.20539062500006-66.21L-414.20539062500006-54.59L-398.92539062500003-54.59L-398.92539062500003-43.41L-414.20539062500006-43.41L-414.20539062500006-17.09Q-414.20539062500006-13.92 -412.42539062500003-12.4Q-410.64539062500006-10.89 -407.71539062500005-10.89ZM-389.4071875-6.98L-389.4071875-6.98Q-389.4071875-11.08 -387.2071875-13.18Q-385.0071875-15.28 -380.8071875-15.28L-380.8071875-15.28Q-376.7571875-15.28 -374.5371875-13.13Q-372.3171875-10.99 -372.3171875-6.98L-372.3171875-6.98Q-372.3171875-3.13 -374.5571875-0.9Q-376.8071875 1.32 -380.8071875 1.32L-380.8071875 1.32Q-384.9071875 1.32 -387.1571875-0.85Q-389.4071875-3.03 -389.4071875-6.98ZM-339.115 21L-339.115 21Q-344.235 21-348.045 19.92L-348.045 19.92L-348.045 7.32Q-344.145 8.3-340.915 8.3L-340.915 8.3Q-335.935 8.3 -333.785 5.2Q-331.645 2.1 -331.645-4.49L-331.645-4.49L-331.645-71.39L-316.505-71.39L-316.505-4.59Q-316.505 7.91 -322.215 14.45Q-327.925 21 -339.115 21ZM-287.83953125000005-27.39L-287.83953125000005-27.39Q-287.83953125000005-19.29 -285.1795312500001-15.14Q-282.51953125000006-10.99 -276.50953125000007-10.99L-276.50953125000007-10.99Q-270.5595312500001-10.99 -267.9395312500001-15.11Q-265.32953125000006-19.24 -265.32953125000006-27.39L-265.32953125000006-27.39Q-265.32953125000006-35.5 -267.96953125000005-39.55Q-270.60953125000003-43.6 -276.60953125000003-43.6L-276.60953125000003-43.6Q-282.56953125000007-43.6 -285.20953125000005-39.58Q-287.83953125000005-35.55 -287.83953125000005-27.39ZM-250.09953125000004-27.39L-250.09953125000004-27.39Q-250.09953125000004-14.06 -257.12953125000007-6.54Q-264.15953125000004 0.98 -276.70953125000005 0.98L-276.70953125000005 0.98Q-284.56953125000007 0.98 -290.57953125000006-2.47Q-296.57953125000006-5.91 -299.8095312500001-12.35Q-303.02953125000005-18.8 -303.02953125000005-27.39L-303.02953125000005-27.39Q-303.02953125000005-40.77 -296.04953125000003-48.19Q-289.0595312500001-55.62 -276.41953125000003-55.62L-276.41953125000003-55.62Q-268.5595312500001-55.62 -262.5495312500001-52.2Q-256.53953125000004-48.78 -253.31953125000007-42.38Q-250.09953125000004-35.99 -250.09953125000004-27.39ZM-187.40546874999995-35.6L-187.40546874999995 0L-202.29546874999997 0L-202.29546874999997-31.88Q-202.29546874999997-43.7 -211.08546874999996-43.7L-211.08546874999996-43.7Q-217.33546874999996-43.7 -220.11546874999996-39.45Q-222.89546874999996-35.21 -222.89546874999996-25.68L-222.89546874999996-25.68L-222.89546874999996 0L-237.79546874999997 0L-237.79546874999997-75.98L-222.89546874999996-75.98L-222.89546874999996-60.5Q-222.89546874999996-58.69 -223.24546875-52L-223.24546875-52L-223.58546874999996-47.61L-222.80546874999996-47.61Q-217.82546874999997-55.62 -206.98546874999997-55.62L-206.98546874999997-55.62Q-197.36546874999996-55.62 -192.38546874999997-50.44Q-187.40546874999995-45.26 -187.40546874999995-35.6L-187.40546874999995-35.6ZM-121.6828125-35.6L-121.6828125 0L-136.5728125 0L-136.5728125-31.88Q-136.5728125-37.79 -138.6728125-40.75Q-140.7728125-43.7 -145.3628125-43.7L-145.3628125-43.7Q-151.6128125-43.7 -154.3928125-39.53Q-157.1728125-35.35 -157.1728125-25.68L-157.1728125-25.68L-157.1728125 0L-172.0728125 0L-172.0728125-54.59L-160.6928125-54.59L-158.6928125-47.61L-157.8628125-47.61Q-155.3728125-51.56 -151.0028125-53.59Q-146.6328125-55.62 -141.0628125-55.62L-141.0628125-55.62Q-131.5428125-55.62 -126.61281249999999-50.46Q-121.6828125-45.31 -121.6828125-35.6L-121.6828125-35.6ZM-20.703593749999968-71.39L-20.703593749999968 0L-35.79359374999997 0L-35.79359374999997-30.81L-64.06359374999997-30.81L-64.06359374999997 0L-79.20359374999997 0L-79.20359374999997-71.39L-64.06359374999997-71.39L-64.06359374999997-43.41L-35.79359374999997-43.41L-35.79359374999997-71.39L-20.703593749999968-71.39ZM-4.489921875-68.7L-4.489921875-68.7Q-4.489921875-75.98  3.6100781249999994-75.98L 3.6100781249999994-75.98Q 11.720078125-75.98  11.720078125-68.7L 11.720078125-68.7Q 11.720078125-65.23  9.690078125-63.31Q 7.670078125-61.38  3.6100781249999994-61.38L 3.6100781249999994-61.38Q-4.489921875-61.38 -4.489921875-68.7ZM 11.040078125-54.59L 11.040078125 0L-3.8599218750000004 0L-3.8599218750000004-54.59L 11.040078125-54.59ZM 55.12765625000002-54.59L 74.16765625000002-54.59L 74.16765625000002-47.02L 65.62765625000003-44.82Q 67.96765625000002-41.16  67.96765625000002-36.62L 67.96765625000002-36.62Q 67.96765625000002-27.83  61.83765625000002-22.92Q 55.71765625000002-18.02  44.82765625000002-18.02L 44.82765625000002-18.02L 42.13765625000002-18.16L 39.93765625000002-18.41Q 37.647656250000026-16.65  37.647656250000026-14.5L 37.647656250000026-14.5Q 37.647656250000026-11.28  45.84765625000002-11.28L 45.84765625000002-11.28L 55.12765625000002-11.28Q 64.10765625000002-11.28  68.82765625000002-7.42Q 73.53765625000003-3.56  73.53765625000003 3.91L 73.53765625000003 3.91Q 73.53765625000003 13.48  65.54765625000002 18.75Q 57.56765625000002 24.02  42.62765625000002 24.02L 42.62765625000002 24.02Q 31.197656250000023 24.02  25.16765625000002 20.04Q 19.13765625000002 16.06  19.13765625000002 8.89L 19.13765625000002 8.89Q 19.13765625000002 3.96  22.217656250000022 0.63Q 25.29765625000002-2.69  31.24765625000002-4.1L 31.24765625000002-4.1Q 28.95765625000002-5.08  27.24765625000002-7.3Q 25.537656250000023-9.52  25.537656250000023-12.01L 25.537656250000023-12.01Q 25.537656250000023-15.14  27.34765625000002-17.21Q 29.147656250000022-19.29  32.56765625000002-21.29L 32.56765625000002-21.29Q 28.267656250000023-23.14  25.75765625000002-27.25Q 23.237656250000022-31.35  23.237656250000022-36.91L 23.237656250000022-36.91Q 23.237656250000022-45.85  29.057656250000022-50.73Q 34.867656250000024-55.62  45.65765625000002-55.62L 45.65765625000002-55.62Q 47.94765625000002-55.62  51.09765625000002-55.2Q 54.24765625000002-54.79  55.12765625000002-54.59L 55.12765625000002-54.59ZM 32.02765625000002 7.71L 32.02765625000002 7.71Q 32.02765625000002 10.79  34.98765625000002 12.55Q 37.93765625000002 14.31  43.257656250000025 14.31L 43.257656250000025 14.31Q 51.26765625000002 14.31  55.80765625000002 12.11Q 60.34765625000002 9.91  60.34765625000002 6.1L 60.34765625000002 6.1Q 60.34765625000002 3.03  57.66765625000002 1.86Q 54.977656250000024 0.68  49.367656250000024 0.68L 49.367656250000024 0.68L 41.647656250000026 0.68Q 37.54765625000002 0.68  34.78765625000002 2.61Q 32.02765625000002 4.54  32.02765625000002 7.71ZM 37.44765625000002-36.72L 37.44765625000002-36.72Q 37.44765625000002-32.28  39.477656250000024-29.69Q 41.507656250000025-27.1  45.65765625000002-27.1L 45.65765625000002-27.1Q 49.85765625000002-27.1  51.80765625000002-29.69Q 53.75765625000002-32.28  53.75765625000002-36.72L 53.75765625000002-36.72Q 53.75765625000002-46.58  45.65765625000002-46.58L 45.65765625000002-46.58Q 37.44765625000002-46.58  37.44765625000002-36.72ZM 133.54179687500007-35.6L 133.54179687500007 0L 118.65179687500007 0L 118.65179687500007-31.88Q 118.65179687500007-43.7  109.86179687500007-43.7L 109.86179687500007-43.7Q 103.61179687500007-43.7  100.83179687500007-39.45Q 98.05179687500006-35.21  98.05179687500006-25.68L 98.05179687500006-25.68L 98.05179687500006 0L 83.15179687500007 0L 83.15179687500007-75.98L 98.05179687500006-75.98L 98.05179687500006-60.5Q 98.05179687500006-58.69  97.70179687500007-52L 97.70179687500007-52L 97.36179687500007-47.61L 98.14179687500007-47.61Q 103.12179687500007-55.62  113.96179687500006-55.62L 113.96179687500006-55.62Q 123.58179687500007-55.62  128.56179687500008-50.44Q 133.54179687500007-45.26  133.54179687500007-35.6L 133.54179687500007-35.6ZM 218.1610156250001-19.82L 218.1610156250001-19.82Q 218.1610156250001-10.16  211.21101562500007-4.59Q 204.2510156250001 0.98  191.8410156250001 0.98L 191.8410156250001 0.98Q 180.42101562500008 0.98  171.6310156250001-3.32L 171.6310156250001-3.32L 171.6310156250001-17.38Q 178.86101562500008-14.16  183.86101562500008-12.84Q 188.8710156250001-11.52  193.02101562500008-11.52L 193.02101562500008-11.52Q 198.0010156250001-11.52  200.6610156250001-13.43Q 203.3210156250001-15.33  203.3210156250001-19.09L 203.3210156250001-19.09Q 203.3210156250001-21.19  202.15101562500007-22.83Q 200.98101562500008-24.46  198.71101562500007-25.98Q 196.4310156250001-27.49  189.45101562500008-30.81L 189.45101562500008-30.81Q 182.9110156250001-33.89  179.64101562500008-36.72Q 176.3710156250001-39.55  174.4110156250001-43.31Q 172.46101562500007-47.07  172.46101562500007-52.1L 172.46101562500007-52.1Q 172.46101562500007-61.57  178.8810156250001-66.99Q 185.30101562500008-72.41  196.6310156250001-72.41L 196.6310156250001-72.41Q 202.20101562500008-72.41  207.2510156250001-71.09Q 212.30101562500008-69.78  217.8210156250001-67.38L 217.8210156250001-67.38L 212.9410156250001-55.62Q 207.23101562500008-57.96  203.4910156250001-58.89Q 199.7510156250001-59.81  196.14101562500008-59.81L 196.14101562500008-59.81Q 191.8410156250001-59.81  189.55101562500008-57.81Q 187.2510156250001-55.81  187.2510156250001-52.59L 187.2510156250001-52.59Q 187.2510156250001-50.59  188.1810156250001-49.1Q 189.11101562500008-47.61  191.14101562500008-46.22Q 193.1610156250001-44.82  200.73101562500008-41.21L 200.73101562500008-41.21Q 210.7410156250001-36.43  214.45101562500008-31.62Q 218.1610156250001-26.81  218.1610156250001-19.82ZM 252.099140625 0.98L 252.099140625 0.98Q 226.609140625 0.98  226.609140625-27L 226.609140625-27Q 226.609140625-40.92  233.549140625-48.27Q 240.479140625-55.62  253.419140625-55.62L 253.419140625-55.62Q 262.889140625-55.62  270.409140625-51.9L 270.409140625-51.9L 266.019140625-40.38Q 262.499140625-41.8  259.469140625-42.7Q 256.449140625-43.6  253.419140625-43.6L 253.419140625-43.6Q 241.799140625-43.6  241.799140625-27.1L 241.799140625-27.1Q 241.799140625-11.08  253.419140625-11.08L 253.419140625-11.08Q 257.719140625-11.08  261.379140625-12.23Q 265.039140625-13.38  268.699140625-15.82L 268.699140625-15.82L 268.699140625-3.08Q 265.089140625-0.78  261.399140625 0.1Q 257.719140625 0.98  252.099140625 0.98ZM 331.73515625-35.6L 331.73515625 0L 316.84515625 0L 316.84515625-31.88Q 316.84515625-43.7  308.05515625-43.7L 308.05515625-43.7Q 301.80515625-43.7  299.02515625-39.45Q 296.24515625-35.21  296.24515625-25.68L 296.24515625-25.68L 296.24515625 0L 281.34515625 0L 281.34515625-75.98L 296.24515625-75.98L 296.24515625-60.5Q 296.24515625-58.69  295.89515625-52L 295.89515625-52L 295.55515625-47.61L 296.33515625-47.61Q 301.31515625-55.62  312.15515625-55.62L 312.15515625-55.62Q 321.77515625-55.62  326.75515625-50.44Q 331.73515625-45.26  331.73515625-35.6L 331.73515625-35.6ZM 358.93781249999995-27.39L 358.93781249999995-27.39Q 358.93781249999995-19.29  361.5978124999999-15.14Q 364.25781249999994-10.99  370.26781249999993-10.99L 370.26781249999993-10.99Q 376.2178124999999-10.99  378.8378124999999-15.11Q 381.44781249999994-19.24  381.44781249999994-27.39L 381.44781249999994-27.39Q 381.44781249999994-35.5  378.80781249999995-39.55Q 376.16781249999997-43.6  370.16781249999997-43.6L 370.16781249999997-43.6Q 364.20781249999993-43.6  361.56781249999995-39.58Q 358.93781249999995-35.55  358.93781249999995-27.39ZM 396.67781249999996-27.39L 396.67781249999996-27.39Q 396.67781249999996-14.06  389.64781249999993-6.54Q 382.61781249999996 0.98  370.06781249999995 0.98L 370.06781249999995 0.98Q 362.20781249999993 0.98  356.19781249999994-2.47Q 350.19781249999994-5.91  346.9678124999999-12.35Q 343.74781249999995-18.8  343.74781249999995-27.39L 343.74781249999995-27.39Q 343.74781249999995-40.77  350.72781249999997-48.19Q 357.7178124999999-55.62  370.35781249999997-55.62L 370.35781249999997-55.62Q 378.2178124999999-55.62  384.2278124999999-52.2Q 390.23781249999996-48.78  393.45781249999993-42.38Q 396.67781249999996-35.99  396.67781249999996-27.39ZM 420.8518749999999-27.39L 420.8518749999999-27.39Q 420.8518749999999-19.29  423.51187499999986-15.14Q 426.1718749999999-10.99  432.1818749999999-10.99L 432.1818749999999-10.99Q 438.13187499999987-10.99  440.75187499999987-15.11Q 443.3618749999999-19.24  443.3618749999999-27.39L 443.3618749999999-27.39Q 443.3618749999999-35.5  440.7218749999999-39.55Q 438.08187499999985-43.6  432.0818749999999-43.6L 432.0818749999999-43.6Q 426.1218749999999-43.6  423.4818749999999-39.58Q 420.8518749999999-35.55  420.8518749999999-27.39ZM 458.5918749999999-27.39L 458.5918749999999-27.39Q 458.5918749999999-14.06  451.5618749999999-6.54Q 444.5318749999999 0.98  431.9818749999999 0.98L 431.9818749999999 0.98Q 424.1218749999999 0.98  418.1118749999999-2.47Q 412.1118749999999-5.91  408.88187499999987-12.35Q 405.6618749999999-18.8  405.6618749999999-27.39L 405.6618749999999-27.39Q 405.6618749999999-40.77  412.6418749999999-48.19Q 419.63187499999987-55.62  432.2718749999999-55.62L 432.2718749999999-55.62Q 440.13187499999987-55.62  446.1418749999999-52.2Q 452.1518749999999-48.78  455.3718749999999-42.38Q 458.5918749999999-35.99  458.5918749999999-27.39ZM 485.79593749999987-75.98L 485.79593749999987 0L 470.8959374999999 0L 470.8959374999999-75.98L 485.79593749999987-75.98Z" data-textpath="St. John High School" data-text-anchor="middle" data-font-size="100" data-letterspacing="0" data-side="left" data-offset="0" data-dx="0" data-dy="225" data-xmlspace="preserve" data-href="" data-font="Open Sans" data-font-src="/Content/clientfonts/opensans-bold.woff" data-font-scale="contain" transform="translate(523.5,225)" data-x="523.5" data-y="0" fill="url('#linearGradientSkdiqwf9d2mn')"></path></g></svg></g></g></svg>