<svg class="thumb" width="497" height="386" viewBox="0,0,497,386" xmlns="http://www.w3.org/2000/svg" xmlns:inkscape="http://www.inkscape.org/namespaces/inkscape" xmlns:sodipodi="http://sodipodi.sourceforge.net/DTD/sodipodi-0.dtd" xmlns:xlink="http://www.w3.org/1999/xlink" xmlns:ns1="http://www.inkscape.org/namespaces/inkscape" xmlns:sketch="http://www.bohemiancoding.com/sketch/ns"><defs></defs><g><g transform="matrix(3.195,0,0,3.195,85.5864,0.0495)"><svg width="90" height="100" viewBox="5,0,90,100"><defs><linearGradient x1="0" y1="0.5" x2="1" y2="0.5" id="linearGradientSkdiqwf9d3ll"><stop offset="0%" stop-color="#03081a"></stop><stop offset="100%" stop-color="#03081a"></stop></linearGradient></defs><g><path d="M50,5c-25,10-30,5-30,5L10,40l10,25l30,30l0,0l0,0l30-30l10-25L80,10C80,10,75,15,50,5z" stroke="none" fill="url('#linearGradientSkdiqwf9d3ll')" style=""></path></g></svg></g><g transform="matrix(2.4323,0,0,2.4323,138.1486,44.2633)"><svg width="75.5767756074178" height="95.01019905897103" viewBox="12.212013412629268,2.4948009410289833,75.5767756074178,95.01019905897103"><defs><linearGradient x1="0" y1="0.5" x2="1" y2="0.5" id="linearGradientSkdiqwf9d3lr"><stop offset="0%" stop-color="#eb3434"></stop><stop offset="100%" stop-color="#eb3434"></stop></linearGradient></defs><g><path d="M82.756,56.938c0.034-0.082,0.038-0.167,0.028-0.25c-0.001-0.01,0.005-0.019,0.004-0.029l-3.823-21.771l2.162-26.853  c0.016-0.198-0.087-0.387-0.262-0.481c-0.175-0.093-0.389-0.076-0.546,0.048L61.954,22.078H38.046L19.682,7.602  c-0.156-0.123-0.371-0.141-0.546-0.048c-0.175,0.094-0.278,0.283-0.262,0.481l2.162,26.853l-3.823,21.771  c-0.002,0.01,0.005,0.019,0.004,0.029c-0.01,0.083-0.007,0.168,0.028,0.25c0.001,0.002,0.003,0.002,0.003,0.004  c0.022,0.052,0.069,0.088,0.108,0.13c0.028,0.03,0.046,0.07,0.08,0.092c0.001,0.001,0.002,0.003,0.003,0.004l15.993,10.069  l6.047,19.003c0.004,0.013,0.018,0.021,0.023,0.033c0.022,0.055,0.059,0.098,0.099,0.142c0.019,0.021,0.026,0.051,0.048,0.069  l7.667,5.917c0.088,0.067,0.195,0.104,0.306,0.104h4.755c0.11,0,0.218-0.037,0.306-0.104l7.667-5.917  c0.023-0.018,0.029-0.048,0.048-0.069c0.041-0.044,0.077-0.087,0.099-0.142c0.005-0.013,0.019-0.02,0.023-0.033l6.047-19.003  l15.993-10.069c0.001-0.001,0.002-0.003,0.003-0.004c0.034-0.022,0.052-0.062,0.08-0.092c0.039-0.042,0.086-0.078,0.108-0.13  C82.753,56.94,82.755,56.939,82.756,56.938z M66.284,66.234l-7.545-10.788l-0.008-0.128l9.397-3.948l13.085,5.465L66.284,66.234z   M54.412,89.804L50.5,87.823v-1.318h1.877c0.093,0,0.185-0.026,0.264-0.075l3.371-2.092l3.137,1.811L54.412,89.804z M40.852,86.149  l3.137-1.811l3.371,2.092c0.079,0.049,0.17,0.075,0.264,0.075H49.5v1.318l-3.912,1.981L40.852,86.149z M18.787,56.835l13.085-5.465  l9.397,3.948l-0.008,0.128l-7.545,10.788L18.787,56.835z M67.75,50.445l-9.668,4.062l-1.461-2.089l1.823-5.215l13.208-5.676  L67.75,50.445z M43.439,54.078l0.058,29.389l-2.988,1.725l1.734-29.404L43.439,54.078z M41.614,45.131l7.845,3.663l-3.821,30.889  l-1.145,2.109l-0.058-29.298c0-0.017-0.007-0.033-0.008-0.049c-0.002-0.024-0.006-0.046-0.012-0.069  c-0.004-0.015-0.003-0.031-0.008-0.046l-1.98-5.665c-0.046-0.132-0.146-0.239-0.275-0.294l-7.462-3.207L41.614,45.131z M50,52.567  l3.312,26.772h-6.624L50,52.567z M58.386,45.131l6.922-1.967l-7.461,3.207c-0.129,0.055-0.229,0.162-0.275,0.294l-1.98,5.665  c-0.005,0.015-0.004,0.031-0.008,0.046c-0.006,0.023-0.009,0.045-0.012,0.069c-0.002,0.017-0.008,0.033-0.008,0.049l-0.058,29.298  l-1.145-2.109l-3.821-30.889L58.386,45.131z M52.973,80.339L50,85.066l-2.973-4.727H52.973z M46.154,80.828l2.941,4.677h-1.33  l-3.103-1.926L46.154,80.828z M53.846,80.828l1.492,2.751l-3.103,1.926h-1.33L53.846,80.828z M56.561,54.078l1.196,1.71  l1.734,29.404l-2.988-1.725L56.561,54.078z M72.359,40.121l-13.517,3.841l3.634-20.493l15.216,11.489L72.359,40.121z M57.764,44.318  L50,47.943l-7.764-3.625l-3.767-21.24h23.062L57.764,44.318z M41.157,43.962L27.64,40.121l-5.333-5.163l15.216-11.489L41.157,43.962  z M41.556,47.203l1.823,5.215l-1.461,2.089l-9.668-4.062l-3.902-8.918L41.556,47.203z M41.149,57.352L39.615,83.37l-5.211-16.375  L41.149,57.352z M58.851,57.352l6.745,9.643L60.385,83.37L58.851,57.352z M81.644,55.931L68.79,50.563l4.246-9.704l5.096-4.932  L81.644,55.931z M78.035,33.964L62.946,22.57L80.037,9.097L78.035,33.964z M19.963,9.097L37.054,22.57l-15.09,11.394L19.963,9.097z   M21.869,35.926l5.096,4.933l4.246,9.703l-12.855,5.369L21.869,35.926z M52.207,91.505h-4.414l-1.327-1.024L50,88.691l3.534,1.79  L52.207,91.505z" stroke="none" fill="url('#linearGradientSkdiqwf9d3lr')" style=""></path></g></svg></g><g transform="matrix(0.6262,0,0,0.6262,56.9804,310.1216)"><svg width="551" height="181" style="overflow: visible;"><defs><linearGradient x1="0" y1="0.5" x2="1" y2="0.5" id="linearGradientSkdiqwf9d3lz"><stop offset="0%" stop-color="#03081a"></stop><stop offset="100%" stop-color="#03081a"></stop></linearGradient></defs><g><path d="M-244.5 1.2Q-252.8 1.2 -260.55-1.05Q-268.3-3.3 -273-6.9L-273-6.9L-267.5-19.1Q-263-15.8 -256.8-13.8Q-250.60000000000002-11.8 -244.4-11.8L-244.4-11.8Q-237.5-11.8 -234.20000000000002-13.85Q-230.9-15.9 -230.9-19.3L-230.9-19.3Q-230.9-21.8 -232.85000000000002-23.45Q-234.8-25.1 -237.85000000000002-26.1Q-240.9-27.1 -246.10000000000002-28.3L-246.10000000000002-28.3Q-254.10000000000002-30.2 -259.2-32.1Q-264.3-34 -267.95-38.2Q-271.6-42.4 -271.6-49.4L-271.6-49.4Q-271.6-55.5 -268.3-60.45Q-265-65.4 -258.35-68.3Q-251.70000000000002-71.2 -242.10000000000002-71.2L-242.10000000000002-71.2Q-235.4-71.2 -229-69.6Q-222.60000000000002-68 -217.8-65L-217.8-65L-222.8-52.7Q-232.5-58.2 -242.20000000000002-58.2L-242.20000000000002-58.2Q-249-58.2 -252.25-56Q-255.5-53.8 -255.5-50.2L-255.5-50.2Q-255.5-46.6 -251.75-44.85Q-248-43.1 -240.3-41.4L-240.3-41.4Q-232.3-39.5 -227.20000000000002-37.6Q-222.10000000000002-35.7 -218.45000000000002-31.6Q-214.8-27.5 -214.8-20.5L-214.8-20.5Q-214.8-14.5 -218.15-9.55Q-221.5-4.6 -228.20000000000002-1.7Q-234.9 1.2 -244.5 1.2L-244.5 1.2ZM-182.6-13L-144.5-13L-144.5 0L-198.7 0L-198.7-70L-145.8-70L-145.8-57L-182.6-57L-182.6-41.8L-150.1-41.8L-150.1-29.2L-182.6-29.2L-182.6-13ZM-93.30000000000003 1.2Q-104.00000000000003 1.2 -112.65000000000002-3.45Q-121.30000000000003-8.1 -126.25000000000003-16.35Q-131.20000000000002-24.6 -131.20000000000002-35L-131.20000000000002-35Q-131.20000000000002-45.4 -126.25000000000003-53.65Q-121.30000000000003-61.9 -112.65000000000002-66.55Q-104.00000000000003-71.2 -93.20000000000002-71.2L-93.20000000000002-71.2Q-84.10000000000002-71.2 -76.75000000000003-68Q-69.40000000000002-64.8 -64.40000000000002-58.8L-64.40000000000002-58.8L-74.80000000000003-49.2Q-81.90000000000002-57.4 -92.40000000000002-57.4L-92.40000000000002-57.4Q-98.90000000000002-57.4 -104.00000000000003-54.55Q-109.10000000000002-51.7 -111.95000000000002-46.6Q-114.80000000000003-41.5 -114.80000000000003-35L-114.80000000000003-35Q-114.80000000000003-28.5 -111.95000000000002-23.4Q-109.10000000000002-18.3 -104.00000000000003-15.45Q-98.90000000000002-12.6 -92.40000000000002-12.6L-92.40000000000002-12.6Q-81.90000000000002-12.6 -74.80000000000003-20.9L-74.80000000000003-20.9L-64.40000000000002-11.3Q-69.40000000000002-5.2 -76.80000000000003-2Q-84.20000000000002 1.2 -93.30000000000003 1.2L-93.30000000000003 1.2ZM-18.000000000000036 1.2Q-33.000000000000036 1.2 -41.35000000000004-7.1Q-49.70000000000003-15.4 -49.70000000000003-30.8L-49.70000000000003-30.8L-49.70000000000003-70L-33.500000000000036-70L-33.500000000000036-31.4Q-33.500000000000036-12.6 -17.900000000000034-12.6L-17.900000000000034-12.6Q-10.300000000000033-12.6 -6.300000000000033-17.15Q-2.3000000000000327-21.7 -2.3000000000000327-31.4L-2.3000000000000327-31.4L-2.3000000000000327-70L 13.69999999999996-70L 13.69999999999996-30.8Q 13.69999999999996-15.4  5.349999999999966-7.1Q-3.0000000000000355 1.2 -18.000000000000036 1.2L-18.000000000000036 1.2ZM 96.69999999999996 0L 79.29999999999995 0L 65.79999999999995-19.5L 64.99999999999996-19.5L 50.899999999999956-19.5L 50.899999999999956 0L 34.69999999999996 0L 34.69999999999996-70L 64.99999999999996-70Q 74.29999999999995-70  81.14999999999995-66.9Q 87.99999999999996-63.8  91.69999999999996-58.1Q 95.39999999999995-52.4  95.39999999999995-44.6L 95.39999999999995-44.6Q 95.39999999999995-36.8  91.64999999999995-31.15Q 87.89999999999995-25.5  80.99999999999996-22.5L 80.99999999999996-22.5L 96.69999999999996 0ZM 78.99999999999996-44.6Q 78.99999999999996-50.5  75.19999999999996-53.65Q 71.39999999999995-56.8  64.09999999999997-56.8L 64.09999999999997-56.8L 50.899999999999956-56.8L 50.899999999999956-32.4L 64.09999999999997-32.4Q 71.39999999999995-32.4  75.19999999999996-35.6Q 78.99999999999996-38.8  78.99999999999996-44.6L 78.99999999999996-44.6ZM 113.19999999999996 0L 113.19999999999996-70L 129.39999999999998-70L 129.39999999999998 0L 113.19999999999996 0ZM 165.49999999999994 0L 165.49999999999994-56.8L 143.09999999999994-56.8L 143.09999999999994-70L 204.09999999999994-70L 204.09999999999994-56.8L 181.69999999999993-56.8L 181.69999999999993 0L 165.49999999999994 0ZM 277.29999999999995-70L 250.09999999999997-24.8L 250.09999999999997 0L 233.89999999999995 0L 233.89999999999995-25L 206.79999999999995-70L 223.99999999999997-70L 242.69999999999996-38.9L 261.4-70L 277.29999999999995-70Z" data-textpath="SECURITY" data-text-anchor="middle" data-font-size="100" data-letterspacing="5" data-side="left" data-offset="0" data-dx="0" data-dy="90.75" data-xmlspace="preserve" data-href="" data-font="Montserrat" data-font-src="/Content/clientfonts/montserrat-bold.woff" data-font-scale="contain" transform="translate(275.5,90.75)" data-x="275.5" data-y="0" fill="url('#linearGradientSkdiqwf9d3lz')"></path></g></svg></g></g></svg>