<svg class="thumb" width="393" height="189" viewBox="0,0,393,189" xmlns="http://www.w3.org/2000/svg" xmlns:inkscape="http://www.inkscape.org/namespaces/inkscape" xmlns:sodipodi="http://sodipodi.sourceforge.net/DTD/sodipodi-0.dtd" xmlns:xlink="http://www.w3.org/1999/xlink" xmlns:ns1="http://www.inkscape.org/namespaces/inkscape" xmlns:sketch="http://www.bohemiancoding.com/sketch/ns"><defs></defs><g><g transform="matrix(0.2875,0,0,0.4097,195.3775,40.3826)"><svg width="185.988" height="162.359" viewBox="-4.609,3,185.988,162.359" class="thumb"><defs><linearGradient x1="0" y1="0.5" x2="1" y2="0.5" id="linearGradientSkdh461g53e"><stop offset="0%" stop-color="#4c96d7"></stop><stop offset="100%" stop-color="#4c96d7"></stop></linearGradient></defs><g><polygon points="88.385,8 0.391,160.359 176.379,160.359 " fill="url('#linearGradientSkdh461g53e')"></polygon></g></svg></g><g transform="matrix(0.0813,0,0,0.2086,211.2535,73.8909)"><svg width="185.988" height="162.359" viewBox="-4.609,3,185.988,162.359" class="thumb"><defs><linearGradient x1="0" y1="0.5" x2="1" y2="0.5" id="linearGradientSkdh461g53k"><stop offset="0%" stop-color="#cf1717"></stop><stop offset="100%" stop-color="#cf1717"></stop></linearGradient></defs><g><polygon points="88.385,8 0.391,160.359 176.379,160.359 " fill="url('#linearGradientSkdh461g53k')"></polygon></g></svg></g><g transform="matrix(0.2493,0,0,0.341,133.3502,38.8767)"><svg width="185.988" height="162.359" viewBox="-4.609,3,185.988,162.359" class="thumb"><defs><linearGradient x1="0" y1="0.5" x2="1" y2="0.5" id="linearGradientSkdh461g53q"><stop offset="0%" stop-color="#168200"></stop><stop offset="100%" stop-color="#168200"></stop></linearGradient></defs><g><polygon points="88.385,8 0.391,160.359 176.379,160.359 " fill="url('#linearGradientSkdh461g53q')"></polygon></g></svg></g><g transform="matrix(0.105,0,0,0.105,266.0174,18.0701)"><svg width="187.0337218024264" height="186.77" viewBox="-5.131860901213205,-5,187.0337218024264,186.77" class="thumb"><defs><linearGradient x1="0" y1="0.5" x2="1" y2="0.5" id="linearGradientSkdh461g53w"><stop offset="0%" stop-color="#f7e031"></stop><stop offset="100%" stop-color="#f7e031"></stop></linearGradient></defs><g><circle cx="88.385" cy="88.385" r="88.385" fill="url('#linearGradientSkdh461g53w')"></circle></g></svg></g><g transform="matrix(0.5,0,0,0.5,45.25,116)"><svg width="303.5" height="208" style="overflow: visible;"><defs><linearGradient x1="0" y1="0.5" x2="1" y2="0.5" id="linearGradientSkdh461g5jn"><stop offset="0%" stop-color="#000000"></stop><stop offset="100%" stop-color="#000000"></stop></linearGradient></defs><g><path d="M-93.79953125-71.68L-94.03953125-62.89Q-94.47953125000001-62.99 -94.91953125-63.04Q-95.35953125-63.09 -95.79953125-63.09L-95.79953125-63.09Q-97.30953124999999-63.09 -98.48953125-62.55Q-99.65953125-62.01 -100.53953125-61.16Q-101.41953125-60.3 -102.02953125-59.2Q-102.63953125-58.11 -103.02953125-56.98L-103.02953125-56.98Q-103.99953125-54.3 -104.19953125-50.88L-104.19953125-50.88Q-104.24953125-50.73 -104.24953125-50.59L-104.24953125-50.59Q-104.29953125-50.39 -104.29953125-49.9L-104.29953125-49.9L-94.52953125-50.1L-94.52953125-42.48L-104.53953125-42.48Q-104.68953125-36.67 -104.80953124999999-26.32Q-104.92953125-15.97 -104.92953125-0.39L-104.92953125-0.39L-111.22953125000001-0.2Q-111.61953125-15.63 -111.71953125-25.98Q-111.81953125-36.33 -111.81953125-42.48L-111.81953125-42.48L-119.52953125-42.48L-119.52953125-49.61L-111.81953125-49.71L-111.81953125-52.49Q-111.81953125-58.15 -110.20953125-61.87Q-108.58953125-65.58 -106.02953125-67.75Q-103.46953125-69.92 -100.23953125-70.8Q-97.01953125-71.68 -93.79953125-71.68L-93.79953125-71.68ZM-88.62296875000001-69.48L-80.86296875000002-68.9L-81.83296875000002-0.29L-87.64296875000001-0.29L-88.62296875000001-69.48ZM-29.7334375-29.1L-29.7334375-29.1Q-29.7334375-22.07 -31.3734375-16.5Q-33.0034375-10.94 -35.8134375-7.06Q-38.6234375-3.17 -42.4334375-1.1Q-46.2434375 0.98 -50.533437500000005 0.98L-50.533437500000005 0.98Q-54.8834375 0.98 -58.6934375-1.17Q-62.503437500000004-3.32 -65.3334375-7.28Q-68.1634375-11.23 -69.8034375-16.77Q-71.4334375-22.31 -71.4334375-29.1L-71.4334375-29.1Q-71.4334375-34.91 -69.9934375-39.72Q-68.5534375-44.53 -65.8434375-48Q-63.1334375-51.46 -59.253437500000004-53.39Q-55.3734375-55.32 -50.533437500000005-55.32L-50.533437500000005-55.32Q-45.1634375-55.32 -41.2634375-53.39Q-37.3534375-51.46 -34.7934375-48Q-32.2234375-44.53 -30.9834375-39.72Q-29.7334375-34.91 -29.7334375-29.1ZM-37.3034375-29L-37.3034375-29Q-37.3034375-33.4 -38.0834375-37.01Q-38.8634375-40.63 -40.5034375-43.24Q-42.143437500000005-45.85 -44.6334375-47.27Q-47.1234375-48.68 -50.533437500000005-48.68L-50.533437500000005-48.68Q-53.6134375-48.68 -56.0834375-47.27Q-58.543437499999996-45.85 -60.253437500000004-43.24Q-61.9634375-40.63 -62.8934375-37.01Q-63.8134375-33.4 -63.8134375-29L-63.8134375-29Q-63.8134375-23.88 -62.7734375-19.73Q-61.7234375-15.58 -59.9334375-12.6Q-58.1534375-9.62 -55.7334375-8.01Q-53.3234375-6.4 -50.533437500000005-6.4L-50.533437500000005-6.4Q-47.8034375-6.4 -45.3834375-7.96Q-42.9734375-9.52 -41.1834375-12.45Q-39.4034375-15.38 -38.3534375-19.56Q-37.3034375-23.73 -37.3034375-29ZM 26.71039062499999-30.52L 26.71039062499999-30.52Q 26.71039062499999-26.86  26.44039062499999-23.1Q 26.170390624999992-19.34  25.590390624999987-15.82Q 25.00039062499999-12.3  24.020390624999987-9.23Q 23.050390624999988-6.15  21.630390624999986-3.83Q 20.21039062499999-1.51  18.26039062499999-0.2Q 16.310390624999986 1.12  13.820390624999991 1.12L 13.820390624999991 1.12Q 11.030390624999992 1.12  8.980390624999988-0.63Q 6.9303906249999905-2.39  5.520390624999987-5.08Q 4.100390624999989-7.76  3.2203906249999896-11.01Q 2.3403906249999906-14.26  1.9003906249999893-17.29L 1.9003906249999893-17.29Q 1.2703906249999903-13.92  0.2903906249999899-10.62Q-0.679609375000009-7.32 -2.04960937500001-4.71Q-3.419609375000011-2.1 -5.219609375000012-0.49Q-7.02960937500001 1.12 -9.27960937500001 1.12L-9.27960937500001 1.12Q-13.42960937500001 1.12 -16.05960937500001-1.61Q-18.69960937500001-4.35 -20.18960937500001-8.96Q-21.679609375000013-13.57 -22.23960937500001-19.63Q-22.79960937500001-25.68 -22.79960937500001-32.32L-22.79960937500001-32.32Q-22.79960937500001-34.23 -22.749609375000013-36.6Q-22.70960937500001-38.96 -22.609609375000012-41.43Q-22.50960937500001-43.9 -22.38960937500001-46.26Q-22.26960937500001-48.63 -22.11960937500001-50.49L-22.11960937500001-50.49L-12.399609375000011-50.88Q-12.83960937500001-47.61 -13.25960937500001-43.87Q-13.669609375000011-40.14 -13.96960937500001-36.28Q-14.25960937500001-32.42 -14.42960937500001-28.66Q-14.59960937500001-24.9 -14.59960937500001-21.58L-14.59960937500001-21.58Q-14.59960937500001-20.95 -14.479609375000011-19.53Q-14.35960937500001-18.12 -14.08960937500001-16.33Q-13.819609375000011-14.55 -13.42960937500001-12.67Q-13.03960937500001-10.79 -12.479609375000011-9.2Q-11.909609375000011-7.62 -11.17960937500001-6.62Q-10.449609375000012-5.62 -9.519609375000012-5.62L-9.519609375000012-5.62Q-8.49960937500001-5.62 -7.589609375000009-7.13Q-6.6896093750000105-8.64 -5.909609375000009-11.18Q-5.129609375000012-13.72 -4.469609375000012-17.02Q-3.8096093750000115-20.31 -3.2696093750000124-23.83Q-2.7296093750000097-27.34 -2.29960937500001-30.86Q-1.8596093750000122-34.38 -1.5596093750000115-37.38Q-1.2696093750000124-40.38 -1.0996093750000107-42.58Q-0.929609375000009-44.78 -0.8796093750000118-45.7L-0.8796093750000118-45.7L 6.880390624999986-46.09Q 6.79039062499999-44.78  6.740390624999993-42.97Q 6.6903906249999885-41.16  6.660390624999987-39.28Q 6.640390624999991-37.4  6.620390624999988-35.62Q 6.590390624999987-33.84  6.590390624999987-32.52L 6.590390624999987-32.52Q 6.590390624999987-31.49  6.740390624999993-29.17Q 6.880390624999986-26.86  7.1803906249999905-24Q 7.47039062499999-21.14  8.010390624999989-18.07Q 8.54039062499999-14.99  9.280390624999992-12.48Q 10.010390624999989-9.96  11.030390624999992-8.33Q 12.060390624999986-6.69  13.380390624999986-6.69L 13.380390624999986-6.69Q 14.260390624999989-6.88  14.990390624999993-8.11Q 15.72039062499999-9.33  16.26039062499999-11.08Q 16.800390624999988-12.84  17.19039062499999-14.92Q 17.58039062499999-16.99  17.82039062499999-18.87Q 18.07039062499999-20.75  18.19039062499999-22.22Q 18.310390624999986-23.68  18.310390624999986-24.22L 18.310390624999986-24.22Q 18.310390624999986-27.34  18.160390624999987-30.91Q 18.020390624999987-34.47  17.770390624999987-38.13Q 17.530390624999992-41.8  17.19039062499999-45.36Q 16.850390624999992-48.93  16.50039062499999-52L 16.50039062499999-52L 25.490390624999993-52.59Q 25.780390624999992-50.24  26.00039062499999-47.39Q 26.22039062499999-44.53  26.370390624999988-41.58Q 26.51039062499999-38.62  26.61039062499999-35.77Q 26.71039062499999-32.91  26.71039062499999-30.52ZM 76.61585937499999-28.71L 41.115859374999985-28.71Q 41.015859374999984-28.17  41.06585937499999-27.66Q 41.115859374999985-27.15  41.115859374999985-26.61L 41.115859374999985-26.61Q 41.115859374999985-21.73  42.085859374999984-18.38Q 43.06585937499999-15.04  44.55585937499998-12.84Q 46.045859374999985-10.64  47.825859374999986-9.47Q 49.60585937499999-8.3  51.17585937499999-7.74Q 52.73585937499999-7.18  53.85585937499999-7.08Q 54.975859374999985-6.98  55.225859374999985-6.98L 55.225859374999985-6.98Q 55.17585937499999-6.98  55.905859374999984-7.06Q 56.63585937499998-7.13  57.835859374999984-7.45Q 59.03585937499999-7.76  60.545859374999985-8.45Q 62.05585937499998-9.13  63.545859374999985-10.38Q 65.03585937499999-11.62  66.355859375-13.5Q 67.67585937499999-15.38  68.50585937499999-18.12L 68.50585937499999-18.12L 74.51585937499999-16.41Q 73.77585937499998-13.38  72.55585937499998-11.04Q 71.33585937499998-8.69  69.84585937499999-6.93Q 68.355859375-5.18  66.67585937499999-3.93Q 64.98585937499999-2.69  63.37585937499998-1.9L 63.37585937499998-1.9Q 59.56585937499999 0.05  55.225859374999985 0.39L 55.225859374999985 0.39Q 50.92585937499999 0.39  47.63585937499998-0.9Q 44.335859374999984-2.2  41.94585937499998-4.39Q 39.545859374999985-6.59  37.935859374999986-9.42Q 36.325859374999986-12.26  35.37585937499998-15.36Q 34.42585937499999-18.46  34.005859374999986-21.56Q 33.59585937499999-24.66  33.59585937499999-27.39L 33.59585937499999-27.39Q 33.59585937499999-29.93  33.88585937499999-32.96Q 34.17585937499999-35.99  35.005859374999986-39.06Q 35.835859374999984-42.14  37.35585937499999-45.02Q 38.865859374999985-47.9  41.30585937499998-50.15Q 43.74585937499999-52.39  47.24585937499998-53.74Q 50.73585937499999-55.08  55.51585937499999-55.08L 55.51585937499999-55.08Q 56.34585937499999-55.08  58.225859374999985-54.91Q 60.10585937499999-54.74  62.45585937499999-53.93Q 64.79585937499999-53.13  67.28585937499999-51.49Q 69.77585937499998-49.85  71.84585937499999-46.92Q 73.92585937499999-43.99  75.26585937499999-39.55Q 76.61585937499999-35.11  76.61585937499999-28.71L 76.61585937499999-28.71ZM 55.225859374999985-47.61L 55.225859374999985-47.61Q 51.85585937499999-47.36  49.02585937499998-46L 49.02585937499998-46Q 47.80585937499998-45.41  46.60585937499999-44.51Q 45.405859374999984-43.6  44.38585937499999-42.31Q 43.35585937499999-41.02  42.575859374999986-39.26Q 41.795859374999985-37.5  41.505859374999986-35.21L 41.505859374999986-35.21L 68.30585937499998-35.21Q 68.01585937499999-38.09  66.74585937499998-40.38Q 65.47585937499998-42.68  63.645859374999986-44.29Q 61.81585937499999-45.9  59.59585937499999-46.75Q 57.37585937499999-47.61  55.225859374999985-47.61ZM 108.30265624999997-52.59L 108.30265624999997-52.59Q 111.13265624999997-52.59  113.06265624999997-51.42Q 114.99265624999998-50.24  116.18265624999998-48.29Q 117.38265624999997-46.34  117.89265624999997-43.77Q 118.41265624999997-41.21  118.41265624999997-38.48L 118.41265624999997-38.48Q 118.41265624999997-35.79  118.11265624999997-32.01Q 117.82265624999997-28.22  116.84265624999998-24.32L 116.84265624999998-24.32L 110.84265624999998-25.2Q 111.42265624999997-28.66  111.62265624999998-31.57Q 111.81265624999997-34.47  111.81265624999997-36.62L 111.81265624999997-36.62Q 111.81265624999997-41.85  110.72265624999997-43.97Q 109.62265624999998-46.09  107.32265624999997-46.09L 107.32265624999997-46.09Q 105.32265624999997-46.09  102.98265624999998-44.24Q 100.63265624999997-42.38  98.39265624999997-38.62Q 96.14265624999997-34.86  94.28265624999997-29.15Q 92.43265624999998-23.44  91.40265624999998-15.72L 91.40265624999998-15.72L 91.40265624999998 1.51L 84.03265624999997 1.12Q 83.98265624999998-13.09  83.76265624999998-23.17Q 83.54265624999996-33.25  83.35265624999997-39.65L 83.35265624999997-39.65Q 83.05265624999997-47.17  82.71265624999997-52L 82.71265624999997-52L 91.40265624999998-52.59L 91.40265624999998-36.62Q 92.38265624999997-39.26  93.92265624999997-42.07Q 95.46265624999997-44.87  97.58265624999997-47.22Q 99.70265624999998-49.56  102.37265624999998-51.07Q 105.03265624999997-52.59  108.30265624999997-52.59Z" data-textpath="flower" data-text-anchor="middle" data-font-size="100" data-letterspacing="0" data-side="left" data-offset="0" data-dx="0" data-dy="111" data-xmlspace="preserve" data-href="" data-font="Englebert" data-font-src="/Content/clientfonts/englebert.woff" data-font-scale="contain" transform="translate(303.5,111)" data-x="303.5" data-y="0" fill="url('#linearGradientSkdh461g5jn')"></path></g></svg></g><g transform="matrix(1,0,0,1,178.5,31.5)"><svg width="77.95400000000001" height="81.54538501819027" viewBox="10.139999999999997,13.09761498180973,77.95400000000001,81.54538501819027"><defs><linearGradient x1="0" y1="0.5" x2="1" y2="0.5" id="linearGradientSkdh461g546"><stop offset="0%" stop-color="#000000"></stop><stop offset="100%" stop-color="#000000"></stop></linearGradient></defs><g><path d="M81.44,86.337h-6.885L51.302,25.878l2.044-5.557c0.313-0.856-0.128-1.807-0.986-2.122      c-0.851-0.313-1.809,0.125-2.122,0.981l-0.82,2.23l-0.988-2.31c-0.359-0.837-1.333-1.228-2.17-0.869      c-0.841,0.359-1.231,1.331-0.872,2.17l2.363,5.524l-23.233,60.41h-7.724c-0.915,0-1.654,0.74-1.654,1.654      s0.739,1.654,1.654,1.654h8.862h12.092h27.648h8.022h8.022c0.915,0,1.654-0.74,1.654-1.654S82.355,86.337,81.44,86.337z       M40.865,86.337l8.671-22.548l8.671,22.548H40.865z M28.062,86.337l1.947-5.061h2.927c0.684,0,1.239-0.554,1.239-1.238      c0-0.687-0.556-1.24-1.239-1.24h-1.974l0.642-1.675h4.064c0.685,0,1.239-0.557,1.239-1.242c0-0.684-0.555-1.238-1.239-1.238      H32.56l15.821-41.136v26.836L38.38,86.337h-0.633H28.062z M65.396,86.337h-4.703L50.691,60.343V33.507l20.319,52.83H65.396z" fill="url('#linearGradientSkdh461g546')"></path></g></svg></g><g transform="matrix(0.5072,0,0,0.5072,273.3401,0.7556)"><svg width="15.939" height="32.768" viewBox="41.031,-5,15.939,32.768"><defs><linearGradient x1="0" y1="0.5" x2="1" y2="0.5" id="linearGradientSkdh461g54c"><stop offset="0%" stop-color="#000000"></stop><stop offset="100%" stop-color="#000000"></stop></linearGradient></defs><g><path fill="url('#linearGradientSkdh461g54c')" d="M49.001,22.768c-1.641,0-2.97-1.329-2.97-2.97V2.97c0-1.64,1.329-2.97,2.97-2.97  c1.64,0,2.969,1.33,2.969,2.97v16.829C51.97,21.439,50.641,22.768,49.001,22.768z"></path></g></svg></g><g transform="matrix(0.5072,0,0,0.5072,273.3401,38.795)"><svg width="15.939" height="32.766999999999996" viewBox="41.031,70.233,15.939,32.766999999999996"><defs><linearGradient x1="0" y1="0.5" x2="1" y2="0.5" id="linearGradientSkdh461g54i"><stop offset="0%" stop-color="#000000"></stop><stop offset="100%" stop-color="#000000"></stop></linearGradient></defs><g><path fill="url('#linearGradientSkdh461g54i')" d="M49.001,98c-1.641,0-2.97-1.329-2.97-2.97V78.203c0-1.64,1.329-2.97,2.97-2.97c1.64,0,2.969,1.33,2.969,2.97  v16.828C51.97,96.671,50.641,98,49.001,98z"></path></g></svg></g><g transform="matrix(0.5072,0,0,0.5072,287.7949,23.8329)"><svg width="32.769000000000005" height="15.939" viewBox="70.233,41.029,32.769000000000005,15.939"><defs><linearGradient x1="0" y1="0.5" x2="1" y2="0.5" id="linearGradientSkdh461g54o"><stop offset="0%" stop-color="#000000"></stop><stop offset="100%" stop-color="#000000"></stop></linearGradient></defs><g><path fill="url('#linearGradientSkdh461g54o')" d="M95.032,51.968H78.203c-1.64,0-2.97-1.328-2.97-2.969c0-1.64,1.33-2.97,2.97-2.97h16.829  c1.64,0,2.97,1.33,2.97,2.97C98.001,50.64,96.671,51.968,95.032,51.968z"></path></g></svg></g><g transform="matrix(0.5072,0,0,0.5072,249.7559,23.8329)"><svg width="32.768" height="15.938000000000002" viewBox="-5,41.03,32.768,15.938000000000002"><defs><linearGradient x1="0" y1="0.5" x2="1" y2="0.5" id="linearGradientSkdh461g54u"><stop offset="0%" stop-color="#000000"></stop><stop offset="100%" stop-color="#000000"></stop></linearGradient></defs><g><path fill="url('#linearGradientSkdh461g54u')" d="M19.798,51.968H2.969C1.329,51.968,0,50.64,0,49c0-1.64,1.329-2.97,2.969-2.97h16.829  c1.64,0,2.97,1.33,2.97,2.97C22.768,50.64,21.438,51.968,19.798,51.968z"></path></g></svg></g><g transform="matrix(0.5072,0,0,0.5072,283.4839,34.4839)"><svg width="27.839" height="27.837000000000018" viewBox="61.68000000000001,61.68199999999999,27.839,27.837000000000018"><defs><linearGradient x1="0" y1="0.5" x2="1" y2="0.5" id="linearGradientSkdh461g550"><stop offset="0%" stop-color="#000000"></stop><stop offset="100%" stop-color="#000000"></stop></linearGradient></defs><g><path fill="url('#linearGradientSkdh461g550')" d="M81.549,84.519c-0.76,0-1.52-0.29-2.1-0.87L67.55,71.75c-1.16-1.16-1.16-3.039,0-4.198  c1.159-1.16,3.039-1.16,4.199,0L83.649,79.45c1.16,1.16,1.16,3.04,0,4.199C83.07,84.229,82.309,84.519,81.549,84.519z"></path></g></svg></g><g transform="matrix(0.5072,0,0,0.5072,256.6029,7.6027)"><svg width="27.839999999999996" height="27.838" viewBox="8.484,8.482999999999999,27.839999999999996,27.838"><defs><linearGradient x1="0" y1="0.5" x2="1" y2="0.5" id="linearGradientSkdh461g556"><stop offset="0%" stop-color="#000000"></stop><stop offset="100%" stop-color="#000000"></stop></linearGradient></defs><g><path fill="url('#linearGradientSkdh461g556')" d="M28.353,31.321c-0.759,0-1.519-0.29-2.099-0.87l-11.9-11.899c-1.16-1.159-1.16-3.039,0-4.199  c1.16-1.16,3.04-1.16,4.2,0l11.9,11.899c1.16,1.159,1.16,3.04,0,4.2C29.873,31.031,29.113,31.321,28.353,31.321z"></path></g></svg></g><g transform="matrix(0.5072,0,0,0.5072,256.6029,34.4839)"><svg width="27.838" height="27.838000000000008" viewBox="8.484,61.68299999999999,27.838,27.838000000000008"><defs><linearGradient x1="0" y1="0.5" x2="1" y2="0.5" id="linearGradientSkdh461g55c"><stop offset="0%" stop-color="#000000"></stop><stop offset="100%" stop-color="#000000"></stop></linearGradient></defs><g><path fill="url('#linearGradientSkdh461g55c')" d="M16.454,84.521c-0.76,0-1.52-0.29-2.1-0.87c-1.16-1.159-1.16-3.039,0-4.199l11.899-11.899  c1.16-1.16,3.039-1.16,4.199,0c1.16,1.159,1.16,3.038,0,4.198l-11.899,11.9C17.975,84.231,17.214,84.521,16.454,84.521z"></path></g></svg></g><g transform="matrix(0.5072,0,0,0.5072,283.4839,7.6027)"><svg width="27.83799999999998" height="27.84075" viewBox="61.682000000000016,8.483250000000002,27.83799999999998,27.84075"><defs><linearGradient x1="0" y1="0.5" x2="1" y2="0.5" id="linearGradientSkdh461g55i"><stop offset="0%" stop-color="#000000"></stop><stop offset="100%" stop-color="#000000"></stop></linearGradient></defs><g><path fill="url('#linearGradientSkdh461g55i')" d="M69.652,31.324c-0.76,0-1.521-0.29-2.1-0.87c-1.16-1.159-1.16-3.041,0-4.2l11.899-11.9  c1.16-1.161,3.04-1.161,4.199,0c1.16,1.159,1.16,3.04,0,4.199l-11.899,11.9C71.171,31.034,70.412,31.324,69.652,31.324z"></path></g></svg></g><g transform="matrix(0.5072,0,0,0.5072,264.9714,15.9714)"><svg width="48.72200000000001" height="48.723" viewBox="24.64,24.639,48.72200000000001,48.723"><defs><linearGradient x1="0" y1="0.5" x2="1" y2="0.5" id="linearGradientSkdh461g55o"><stop offset="0%" stop-color="#000000"></stop><stop offset="100%" stop-color="#000000"></stop></linearGradient></defs><g><path fill="url('#linearGradientSkdh461g55o')" d="M49.001,68.362C38.326,68.362,29.64,59.676,29.64,49c0-10.675,8.686-19.361,19.361-19.361  c10.676,0,19.361,8.686,19.361,19.361C68.362,59.676,59.677,68.362,49.001,68.362z M49.001,35.579  c-7.401,0-13.422,6.02-13.422,13.421c0,7.4,6.021,13.422,13.422,13.422c7.401,0,13.421-6.021,13.421-13.422  C62.422,41.599,56.402,35.579,49.001,35.579z"></path></g></svg></g><g transform="matrix(1,0,0,1,124.5,33.5)"><svg width="59.15283980224124" height="63.583999999999996" viewBox="20.67386584009288,12.381000000000007,59.15283980224124,63.583999999999996"><defs><linearGradient x1="0" y1="0.5" x2="1" y2="0.5" id="linearGradientSkdh461g55u"><stop offset="0%" stop-color="#000000"></stop><stop offset="100%" stop-color="#000000"></stop></linearGradient></defs><g><path d="M73.138,70.965H27.361c-0.576,0-1.112-0.294-1.422-0.779s-0.351-1.096-0.108-1.618l23.282-50.209    c0.276-0.596,0.874-0.978,1.531-0.978c0.003,0,0.007,0,0.011,0c0.661,0.004,1.259,0.394,1.529,0.998l22.495,50.209    c0.234,0.522,0.188,1.127-0.124,1.607C74.244,70.675,73.71,70.965,73.138,70.965z M30.003,67.59h40.53L50.617,23.137L30.003,67.59    z" fill="url('#linearGradientSkdh461g55u')"></path></g></svg></g><g transform="matrix(1,0,0,1,147.5,54.5)"><svg width="13.132000000000005" height="57.799" viewBox="43.717999999999996,33.242,13.132000000000005,57.799"><defs><linearGradient x1="0" y1="0.5" x2="1" y2="0.5" id="linearGradientSkdh461g560"><stop offset="0%" stop-color="#000000"></stop><stop offset="100%" stop-color="#000000"></stop></linearGradient></defs><g><path d="M50.284,86.041c-0.865,0-1.566-0.701-1.566-1.566V39.808c0-0.865,0.701-1.566,1.566-1.566s1.566,0.701,1.566,1.566v44.667    C51.85,85.339,51.148,86.041,50.284,86.041z" fill="url('#linearGradientSkdh461g560')"></path></g></svg></g><g transform="matrix(1,0,0,1,138,55)"><svg width="32.46949367626229" height="38.273128068200556" viewBox="34.13124288696357,34.33087193179944,32.46949367626229,38.273128068200556"><defs><linearGradient x1="0" y1="0.5" x2="1" y2="0.5" id="linearGradientSkdh461g566"><stop offset="0%" stop-color="#000000"></stop><stop offset="100%" stop-color="#000000"></stop></linearGradient></defs><g><path d="M50.272,67.604c-0.5,0-0.996-0.222-1.329-0.646c-0.575-0.733-0.447-1.794,0.286-2.369l9.643-7.566    c0.732-0.575,1.793-0.447,2.369,0.286c0.575,0.733,0.447,1.794-0.286,2.369l-9.643,7.566    C51.004,67.486,50.637,67.604,50.272,67.604z M49.786,63.206c-0.43,0-0.86-0.164-1.19-0.491L39.629,53.8    c-0.661-0.657-0.664-1.726-0.007-2.387c0.658-0.661,1.725-0.664,2.387-0.007l8.967,8.915c0.661,0.657,0.664,1.726,0.007,2.387    C50.653,63.04,50.22,63.206,49.786,63.206z M50.271,56.988c-0.434,0-0.867-0.166-1.196-0.498    c-0.657-0.661-0.654-1.729,0.006-2.386l8.286-8.241c0.661-0.658,1.73-0.654,2.386,0.006c0.657,0.661,0.654,1.729-0.006,2.386    l-8.286,8.241C51.132,56.825,50.702,56.988,50.271,56.988z M49.899,51.012c-0.565,0-1.118-0.284-1.438-0.801l-5.129-8.306    c-0.49-0.793-0.244-1.833,0.549-2.322c0.792-0.49,1.833-0.244,2.323,0.549l5.129,8.306c0.49,0.793,0.244,1.833-0.549,2.322    C50.508,50.931,50.202,51.012,49.899,51.012z" fill="url('#linearGradientSkdh461g566')"></path></g></svg></g><g transform="matrix(0,1,-2.8162,0,277.262,99.5)"><svg width="13.132000000000005" height="57.799" viewBox="43.717999999999996,33.242,13.132000000000005,57.799"><defs><linearGradient x1="0" y1="0.5" x2="1" y2="0.5" id="linearGradientSkdh461g56c"><stop offset="0%" stop-color="#000000"></stop><stop offset="100%" stop-color="#000000"></stop></linearGradient></defs><g><path d="M50.284,86.041c-0.865,0-1.566-0.701-1.566-1.566V39.808c0-0.865,0.701-1.566,1.566-1.566s1.566,0.701,1.566,1.566v44.667    C51.85,85.339,51.148,86.041,50.284,86.041z" fill="url('#linearGradientSkdh461g56c')"></path></g></svg></g></g></svg>