<svg id="svg" version="1.1" xmlns="http://www.w3.org/2000/svg" xmlns:xlink="http://www.w3.org/1999/xlink" width="400" height="225" viewBox="0, 0, 400,225"><g id="svgg"><path id="path0" d="M164.917 60.940 C 159.331 62.081,155.051 65.118,150.568 71.121 C 150.036 71.834,149.556 72.454,149.502 72.500 C 149.167 72.786,146.571 76.953,145.122 79.531 C 141.260 86.404,138.525 92.667,135.673 101.167 C 134.558 104.489,134.238 105.518,133.182 109.167 C 132.904 110.129,132.491 111.554,132.264 112.333 C 131.771 114.028,130.842 117.517,130.666 118.333 C 130.596 118.654,130.050 120.867,129.451 123.250 C 126.841 133.632,124.251 146.006,122.753 155.250 C 121.804 161.106,121.660 162.085,121.099 166.500 C 120.407 171.950,120.418 171.845,119.998 176.891 C 119.377 184.340,119.699 185.854,122.289 187.681 C 124.707 189.387,136.259 189.381,138.742 187.672 C 140.951 186.152,141.458 184.701,141.915 178.583 C 142.660 168.635,143.811 157.460,145.496 143.833 C 145.671 142.412,145.931 140.313,146.073 139.167 C 146.215 138.021,146.407 136.558,146.500 135.917 C 146.593 135.275,146.969 132.575,147.335 129.917 C 147.700 127.258,148.074 124.633,148.166 124.083 C 148.257 123.533,148.553 121.733,148.823 120.083 C 149.425 116.411,149.753 114.583,150.065 113.167 C 150.197 112.571,150.500 111.195,150.739 110.110 C 154.969 90.933,160.380 77.531,164.620 75.728 C 169.141 73.806,174.098 84.264,179.403 106.917 C 181.327 115.133,182.572 123.561,183.586 135.250 C 183.950 139.446,184.123 141.744,184.250 144.083 C 184.300 145.000,184.375 146.200,184.418 146.750 C 184.460 147.300,184.535 148.688,184.584 149.833 C 184.633 150.979,184.710 152.292,184.755 152.750 C 184.881 154.034,185.320 164.801,185.490 170.750 C 185.694 177.910,186.109 179.146,188.833 180.695 C 191.392 182.150,203.903 181.988,205.266 180.482 C 205.423 180.309,205.614 180.167,205.690 180.167 C 205.976 180.167,207.038 178.886,207.419 178.083 C 208.147 176.548,208.255 174.854,208.423 162.333 C 208.591 149.747,208.982 140.841,209.668 133.917 C 209.759 133.000,209.910 131.425,210.005 130.417 C 210.259 127.695,210.876 122.548,211.264 119.917 C 213.643 103.769,219.239 84.640,223.325 78.690 C 226.832 73.581,229.798 74.658,233.585 82.417 C 235.023 85.363,237.200 91.119,238.185 94.579 C 238.368 95.223,238.702 96.388,238.928 97.167 C 240.076 101.135,242.331 110.363,242.940 113.583 C 243.079 114.317,243.300 115.479,243.431 116.167 C 243.991 119.097,245.168 126.743,245.997 132.833 C 246.190 134.254,246.417 135.904,246.500 136.500 C 246.583 137.096,246.771 138.521,246.917 139.667 C 247.063 140.813,247.251 142.237,247.335 142.833 C 247.419 143.429,247.675 145.529,247.905 147.500 C 248.134 149.471,248.472 152.358,248.655 153.917 C 249.294 159.366,250.615 172.953,250.915 177.167 C 251.399 183.956,251.536 184.649,252.728 186.312 C 254.219 188.394,255.549 188.750,261.833 188.750 L 266.917 188.750 268.060 188.267 C 269.578 187.625,270.805 186.435,271.343 185.083 C 272.268 182.761,271.633 170.963,269.921 158.667 C 269.685 156.971,269.384 154.796,269.253 153.833 C 268.591 149.002,267.204 140.741,266.399 136.833 C 266.257 136.146,265.919 134.496,265.647 133.167 C 260.824 109.587,254.990 92.156,247.482 78.897 C 232.460 52.365,214.998 55.332,203.715 86.333 C 202.687 89.161,201.196 93.413,200.094 96.669 C 199.426 98.642,198.715 100.578,198.515 100.971 C 198.314 101.365,197.999 102.174,197.815 102.770 C 197.120 105.022,195.838 105.142,195.225 103.012 C 195.078 102.501,194.772 101.715,194.545 101.264 C 194.318 100.813,193.476 98.525,192.673 96.180 C 191.870 93.835,190.968 91.204,190.668 90.333 C 187.782 81.944,182.713 71.474,180.501 69.333 C 180.454 69.287,180.106 68.837,179.728 68.333 C 175.894 63.213,169.476 60.009,164.917 60.940 M169.124 62.917 C 178.289 65.078,184.828 76.786,194.490 108.333 C 194.869 109.571,195.252 110.608,195.340 110.639 C 195.428 110.669,195.500 110.801,195.500 110.931 C 195.500 111.306,195.762 111.205,195.970 110.750 C 196.170 110.311,196.491 110.188,196.513 110.542 C 196.524 110.707,196.544 110.707,196.610 110.543 C 196.712 110.290,197.033 110.567,197.226 111.077 C 197.396 111.527,198.003 110.263,198.584 108.250 C 200.641 101.112,204.724 89.041,206.786 84.000 C 216.304 60.728,228.014 56.351,240.232 71.500 C 245.889 78.513,252.265 91.558,256.280 104.333 C 263.591 127.599,269.351 160.057,269.928 181.250 C 270.035 185.193,269.936 185.608,268.681 186.453 C 267.959 186.940,255.921 187.060,255.012 186.589 C 253.775 185.950,253.420 185.054,253.257 182.167 C 252.313 165.364,247.624 126.506,245.002 113.750 C 239.258 85.810,231.982 70.285,225.929 73.056 C 221.179 75.231,216.345 86.646,211.908 106.167 C 209.762 115.609,209.029 120.322,207.838 132.333 C 206.986 140.938,206.671 148.298,206.411 165.750 C 206.180 181.199,207.219 179.668,196.964 179.663 C 189.164 179.659,188.963 179.634,188.219 178.561 C 187.670 177.770,187.658 177.652,187.497 171.427 C 187.264 162.486,186.447 145.400,186.002 140.167 C 185.912 139.112,185.722 136.825,185.579 135.083 C 184.613 123.303,183.271 114.470,180.985 104.833 C 175.198 80.446,169.106 69.586,163.410 73.505 C 158.097 77.160,152.174 92.682,147.831 114.333 C 145.322 126.839,140.990 162.712,139.764 181.122 C 139.502 185.068,139.318 185.688,138.184 186.452 L 137.617 186.833 130.550 186.833 C 122.976 186.833,123.011 186.837,122.229 185.974 C 121.551 185.227,121.480 184.624,121.668 181.237 C 122.996 157.357,132.051 114.864,140.081 94.833 C 149.194 72.099,159.594 60.670,169.124 62.917 M164.076 64.802 C 154.636 67.598,143.881 85.518,136.750 110.333 C 129.766 134.635,124.015 165.331,123.548 180.799 L 123.451 184.014 123.894 184.476 C 124.223 184.819,124.539 184.957,125.126 185.011 C 126.466 185.134,136.556 185.086,137.036 184.954 C 137.678 184.778,137.736 184.432,138.246 177.750 C 138.708 171.705,139.408 164.170,140.006 158.833 C 143.896 124.054,146.122 110.858,150.763 95.060 C 161.689 57.861,174.319 63.776,184.084 110.667 C 186.614 122.816,188.449 143.533,189.161 168.000 C 189.406 176.417,189.427 176.633,190.051 177.291 L 190.564 177.831 197.199 177.820 C 202.504 177.810,203.880 177.763,204.058 177.585 C 204.383 177.260,204.480 175.065,204.665 163.917 C 205.213 131.007,207.221 114.574,213.235 93.810 C 221.718 64.523,231.814 63.120,240.670 90.000 C 243.377 98.215,246.265 110.035,247.735 118.917 C 248.864 125.735,250.785 139.787,251.996 150.083 C 253.111 159.562,254.124 169.967,254.924 180.146 C 255.327 185.282,255.068 185.012,259.700 185.128 C 264.170 185.239,267.583 185.060,267.947 184.696 C 268.669 183.974,267.644 169.337,266.066 157.833 C 261.124 121.793,252.391 92.640,241.776 76.750 C 229.794 58.812,219.392 60.481,209.583 81.917 C 207.635 86.172,204.368 95.398,201.556 104.583 C 200.536 107.916,198.646 115.509,198.341 117.500 C 197.610 122.270,197.317 123.167,196.493 123.167 C 195.890 123.167,195.769 122.922,195.506 121.167 C 195.402 120.479,195.058 118.829,194.739 117.500 C 194.421 116.171,194.086 114.746,193.995 114.333 C 192.634 108.193,190.684 101.662,187.499 92.583 C 180.026 71.279,172.469 62.316,164.076 64.802 M169.423 68.427 C 169.895 68.650,170.361 68.833,170.457 68.833 C 170.645 68.833,170.875 69.264,170.901 69.667 C 170.909 69.804,171.079 69.940,171.278 69.968 C 171.476 69.996,171.679 70.124,171.727 70.251 C 171.850 70.572,171.365 70.387,170.833 69.912 C 170.604 69.707,170.135 69.440,169.792 69.319 C 169.448 69.199,169.167 69.040,169.167 68.967 C 169.167 68.893,168.994 68.833,168.782 68.833 C 168.570 68.833,168.251 68.723,168.074 68.589 C 167.896 68.454,167.619 68.342,167.458 68.339 C 167.298 68.336,167.167 68.225,167.167 68.093 C 167.167 67.744,168.349 67.919,169.423 68.427 M226.167 68.057 C 226.167 68.180,225.848 68.375,225.458 68.490 C 220.848 69.856,217.761 73.839,213.955 83.333 C 212.144 87.850,209.870 95.149,209.491 97.667 C 209.387 98.354,209.234 98.988,209.151 99.075 C 209.068 99.162,209.000 99.398,209.000 99.600 C 209.000 99.802,208.773 101.156,208.495 102.609 C 207.956 105.431,206.626 112.323,206.250 114.250 C 206.039 115.329,205.916 116.184,205.249 121.250 C 204.622 126.000,203.937 133.130,203.423 140.250 C 203.112 144.554,202.868 152.086,202.751 161.000 C 202.561 175.365,202.515 175.535,198.712 175.771 C 193.317 176.105,191.517 175.431,191.418 173.040 C 191.396 172.514,191.331 171.633,191.272 171.083 C 191.214 170.533,191.091 167.721,190.998 164.833 C 190.724 156.238,190.032 143.824,189.411 136.333 C 188.293 122.855,187.671 118.152,185.410 106.083 C 185.067 104.253,184.508 101.168,184.443 100.750 C 183.859 96.987,180.300 85.636,178.317 81.210 C 178.142 80.822,178.000 80.447,177.999 80.377 C 177.999 80.307,177.449 79.141,176.776 77.785 C 176.104 76.429,175.617 75.281,175.694 75.233 C 175.771 75.186,175.833 75.072,175.833 74.980 C 175.833 74.889,175.758 74.860,175.665 74.917 C 175.440 75.057,175.092 74.668,175.046 74.224 C 174.987 73.645,175.462 73.610,175.753 74.172 C 175.894 74.444,176.082 74.667,176.171 74.667 C 176.260 74.667,176.333 74.752,176.333 74.857 C 176.333 74.961,176.444 75.130,176.579 75.232 C 176.794 75.394,177.879 77.093,178.880 78.833 C 180.585 81.798,182.701 86.849,184.744 92.833 C 185.781 95.872,185.883 96.164,186.581 98.083 C 187.337 100.163,187.818 101.430,188.108 102.109 C 188.232 102.397,188.333 102.739,188.333 102.867 C 188.333 102.995,188.398 103.171,188.477 103.258 C 188.989 103.823,191.003 110.705,191.233 112.674 C 191.399 114.103,191.644 115.238,192.006 116.258 C 192.526 117.722,192.717 118.328,193.235 120.167 C 193.652 121.649,194.105 122.274,194.502 121.915 C 194.881 121.572,195.333 121.694,195.333 122.139 C 195.333 123.642,197.343 123.646,197.866 122.144 C 197.966 121.856,198.191 121.625,198.428 121.566 C 198.758 121.483,198.894 121.228,199.253 120.025 C 199.489 119.232,199.943 118.001,200.262 117.289 C 201.064 115.498,201.594 113.681,201.821 111.945 C 201.927 111.135,202.115 110.198,202.238 109.862 C 202.362 109.525,202.661 108.575,202.904 107.750 C 203.516 105.671,204.496 102.715,204.838 101.917 C 204.995 101.550,205.222 100.912,205.342 100.500 C 205.463 100.087,205.740 99.337,205.958 98.833 C 206.176 98.329,206.505 97.467,206.688 96.917 C 206.872 96.367,207.237 95.354,207.501 94.667 C 207.764 93.979,208.364 92.329,208.835 91.000 C 209.841 88.158,210.870 85.482,211.495 84.083 C 211.740 83.533,212.045 82.821,212.171 82.500 C 212.443 81.811,214.085 78.606,214.775 77.417 C 215.041 76.958,215.407 76.327,215.588 76.014 C 216.074 75.172,217.978 72.647,218.490 72.164 C 218.735 71.934,219.078 71.502,219.253 71.206 C 219.429 70.909,219.623 70.667,219.685 70.667 C 219.747 70.667,220.164 70.337,220.611 69.935 C 221.650 69.001,223.138 68.195,224.030 68.083 C 224.413 68.035,224.763 67.959,224.808 67.914 C 225.002 67.720,226.167 67.843,226.167 68.057 M172.569 70.643 C 172.618 70.722,172.615 70.830,172.563 70.882 C 172.432 71.012,172.000 70.833,172.000 70.649 C 172.000 70.458,172.452 70.454,172.569 70.643 M152.356 81.354 C 152.322 81.480,152.272 81.898,152.243 82.282 C 152.215 82.666,152.077 83.228,151.937 83.532 C 151.796 83.835,151.571 84.383,151.437 84.750 C 151.302 85.117,150.771 86.542,150.256 87.917 C 149.741 89.292,149.252 90.679,149.170 91.000 C 148.710 92.792,148.135 95.307,147.818 96.917 C 147.619 97.925,147.172 99.912,146.824 101.333 C 144.687 110.057,143.434 116.566,142.169 125.500 C 141.578 129.670,140.977 134.060,140.835 135.242 C 140.596 137.232,140.008 141.821,139.746 143.750 C 139.376 146.468,137.896 159.558,137.503 163.583 C 137.018 168.560,136.705 171.920,136.493 174.417 C 136.392 175.608,136.228 177.258,136.129 178.083 C 136.030 178.908,135.960 179.830,135.975 180.131 C 136.087 182.489,133.903 183.331,128.667 182.952 C 125.210 182.701,125.013 181.335,126.577 168.500 C 127.242 163.049,129.172 150.993,129.914 147.667 C 130.046 147.071,130.350 145.533,130.588 144.250 C 130.827 142.967,131.130 141.429,131.263 140.833 C 131.395 140.237,132.024 137.387,132.660 134.500 C 136.310 117.931,141.223 101.264,144.154 95.500 C 145.842 92.182,146.417 91.081,146.503 91.000 C 146.552 90.954,146.733 90.579,146.905 90.167 C 148.469 86.414,151.343 81.238,151.771 81.402 C 151.905 81.453,152.000 81.382,152.000 81.231 C 152.000 81.089,152.094 81.007,152.208 81.049 C 152.323 81.091,152.389 81.228,152.356 81.354 M242.049 82.466 C 242.397 82.897,243.437 84.787,244.359 86.667 C 245.282 88.546,246.923 91.883,248.005 94.083 C 249.088 96.283,250.198 98.683,250.472 99.417 C 251.524 102.235,252.306 104.501,252.915 106.500 C 253.068 107.004,253.331 107.867,253.498 108.417 C 255.500 114.996,257.048 120.891,258.728 128.333 C 259.318 130.946,259.962 133.908,260.159 134.917 C 260.356 135.925,260.622 137.200,260.750 137.750 C 260.878 138.300,261.143 139.650,261.339 140.750 C 261.535 141.850,261.798 143.313,261.924 144.000 C 262.442 146.822,263.725 155.322,264.402 160.417 C 265.186 166.320,265.799 173.269,265.948 177.923 L 266.049 181.096 265.616 181.782 C 264.930 182.868,264.499 183.000,261.634 183.000 C 258.463 183.000,257.413 182.518,257.093 180.917 C 256.926 180.081,256.650 177.473,256.406 174.417 C 255.988 169.200,254.659 155.529,254.421 154.000 C 254.385 153.771,254.307 153.133,254.249 152.583 C 254.040 150.631,253.326 144.723,253.081 142.917 C 252.819 140.984,252.268 136.663,251.998 134.417 C 250.595 122.750,248.563 111.327,246.171 101.667 C 245.910 100.612,245.464 98.587,245.180 97.167 C 244.366 93.096,244.303 92.804,244.043 91.833 C 243.735 90.685,242.913 88.303,242.002 85.917 C 240.964 83.197,240.838 82.782,240.879 82.199 C 240.932 81.448,241.294 81.531,242.049 82.466 M276.909 180.539 C 276.916 182.454,276.937 182.581,277.250 182.613 C 277.500 182.639,277.511 182.626,277.297 182.563 C 277.051 182.490,277.002 182.196,276.955 180.488 L 276.901 178.499 276.909 180.539 M277.708 178.948 C 277.869 178.990,278.131 178.990,278.292 178.948 C 278.452 178.906,278.321 178.872,278.000 178.872 C 277.679 178.872,277.548 178.906,277.708 178.948 M275.205 180.500 C 275.205 180.821,275.240 180.952,275.282 180.792 C 275.323 180.631,275.323 180.369,275.282 180.208 C 275.240 180.048,275.205 180.179,275.205 180.500 M281.205 180.500 C 281.205 180.821,281.240 180.952,281.282 180.792 C 281.323 180.631,281.323 180.369,281.282 180.208 C 281.240 180.048,281.205 180.179,281.205 180.500 M279.053 182.250 C 279.087 182.586,279.833 182.851,279.833 182.527 C 279.833 182.438,279.690 182.402,279.515 182.448 C 279.303 182.503,279.167 182.428,279.108 182.224 C 279.031 181.958,279.024 181.962,279.053 182.250 " stroke="none" fill="#b15e04" fill-rule="evenodd"></path><path id="path1" d="M164.250 62.913 C 153.499 65.280,142.019 84.467,134.031 113.417 C 126.111 142.122,119.472 182.935,122.229 185.974 C 123.011 186.837,122.976 186.833,130.550 186.833 L 137.617 186.833 138.184 186.452 C 139.318 185.688,139.502 185.068,139.764 181.122 C 140.990 162.712,145.322 126.839,147.831 114.333 C 152.174 92.682,158.097 77.160,163.410 73.505 C 169.106 69.586,175.198 80.446,180.985 104.833 C 183.271 114.470,184.613 123.303,185.579 135.083 C 185.722 136.825,185.912 139.112,186.002 140.167 C 186.447 145.400,187.264 162.486,187.497 171.427 C 187.729 180.380,186.900 179.658,196.964 179.663 C 207.219 179.668,206.180 181.199,206.411 165.750 C 206.671 148.298,206.986 140.938,207.838 132.333 C 209.029 120.322,209.762 115.609,211.908 106.167 C 216.345 86.646,221.179 75.231,225.929 73.056 C 231.982 70.285,239.258 85.810,245.002 113.750 C 247.624 126.506,252.313 165.364,253.257 182.167 C 253.420 185.054,253.775 185.950,255.012 186.589 C 255.921 187.060,267.959 186.940,268.681 186.453 C 269.936 185.608,270.035 185.193,269.928 181.250 C 269.383 161.245,264.456 132.389,257.449 108.167 C 253.244 93.630,246.504 79.275,240.232 71.500 C 228.014 56.351,216.304 60.728,206.786 84.000 C 204.724 89.041,200.641 101.112,198.584 108.250 C 198.003 110.263,197.396 111.527,197.226 111.077 C 197.033 110.567,196.712 110.290,196.610 110.543 C 196.544 110.707,196.524 110.707,196.513 110.542 C 196.491 110.188,196.170 110.311,195.970 110.750 C 195.762 111.205,195.500 111.306,195.500 110.931 C 195.500 110.801,195.428 110.669,195.340 110.639 C 195.252 110.608,194.869 109.571,194.490 108.333 C 189.724 92.771,186.030 82.754,182.873 76.833 C 177.130 66.063,170.944 61.440,164.250 62.913 M169.963 65.037 C 176.363 67.657,181.692 76.027,187.499 92.583 C 190.684 101.662,192.634 108.193,193.995 114.333 C 194.086 114.746,194.421 116.171,194.739 117.500 C 195.058 118.829,195.402 120.479,195.506 121.167 C 195.769 122.922,195.890 123.167,196.493 123.167 C 197.317 123.167,197.610 122.270,198.341 117.500 C 198.646 115.509,200.536 107.916,201.556 104.583 C 204.368 95.398,207.635 86.172,209.583 81.917 C 219.392 60.481,229.794 58.812,241.776 76.750 C 252.391 92.640,261.124 121.793,266.066 157.833 C 267.644 169.337,268.669 183.974,267.947 184.696 C 267.583 185.060,264.170 185.239,259.700 185.128 C 255.068 185.012,255.327 185.282,254.924 180.146 C 254.124 169.967,253.111 159.562,251.996 150.083 C 250.785 139.787,248.864 125.735,247.735 118.917 C 246.265 110.035,243.377 98.215,240.670 90.000 C 231.814 63.120,221.718 64.523,213.235 93.810 C 207.221 114.574,205.213 131.007,204.665 163.917 C 204.480 175.065,204.383 177.260,204.058 177.585 C 203.880 177.763,202.504 177.810,197.199 177.820 L 190.564 177.831 190.051 177.291 C 189.427 176.633,189.406 176.417,189.161 168.000 C 188.449 143.533,186.614 122.816,184.084 110.667 C 172.921 57.062,158.131 57.619,146.504 112.083 C 144.733 120.380,142.553 136.060,140.006 158.833 C 139.408 164.170,138.708 171.705,138.246 177.750 C 137.736 184.432,137.678 184.778,137.036 184.954 C 136.556 185.086,126.466 185.134,125.126 185.011 C 124.539 184.957,124.223 184.819,123.894 184.476 L 123.451 184.014 123.548 180.799 C 124.015 165.331,129.766 134.635,136.750 110.333 C 145.603 79.528,159.399 60.712,169.963 65.037 M277.040 177.047 C 274.155 178.141,273.822 182.070,276.482 183.631 C 278.599 184.874,281.394 183.517,281.761 181.067 C 282.164 178.383,279.499 176.114,277.040 177.047 M279.737 177.734 C 281.801 178.943,281.729 182.295,279.616 183.317 C 278.299 183.955,277.001 183.698,276.046 182.610 C 273.727 179.970,276.746 175.981,279.737 177.734 M277.000 180.500 C 277.000 182.167,277.042 182.500,277.250 182.500 C 277.439 182.500,277.500 182.296,277.500 181.667 C 277.500 180.315,278.810 180.516,279.071 181.908 C 279.142 182.288,279.276 182.500,279.444 182.500 C 279.634 182.500,279.678 182.397,279.605 182.125 C 279.550 181.919,279.504 181.624,279.502 181.470 C 279.501 181.316,279.384 181.074,279.242 180.933 C 279.009 180.700,279.019 180.627,279.347 180.184 C 280.063 179.215,279.417 178.500,277.825 178.500 L 277.000 178.500 277.000 180.500 M278.574 178.936 C 279.486 179.286,279.176 180.333,278.161 180.333 L 277.500 180.333 277.500 179.583 C 277.500 178.800,277.780 178.631,278.574 178.936 " stroke="none" fill="#f7ec35" fill-rule="evenodd"></path><path id="path2" d="M0.000 112.500 L 0.000 225.000 200.000 225.000 L 400.000 225.000 400.000 112.500 L 400.000 0.000 200.000 0.000 L 0.000 0.000 0.000 112.500 M170.690 59.713 C 173.966 60.363,178.964 64.136,182.087 68.316 C 182.675 69.105,183.216 69.825,183.287 69.917 C 184.508 71.482,188.181 78.472,189.417 81.583 C 189.562 81.950,189.749 82.400,189.831 82.583 C 190.074 83.127,191.842 87.809,192.348 89.250 C 194.605 95.676,195.154 96.652,196.519 96.661 C 197.418 96.668,197.759 96.286,198.673 94.250 C 198.961 93.608,199.265 92.933,199.348 92.750 C 199.432 92.567,199.867 91.367,200.317 90.083 C 201.156 87.688,203.183 82.309,203.583 81.417 C 203.706 81.142,204.072 80.317,204.396 79.583 C 206.094 75.743,209.759 69.343,210.839 68.333 C 210.888 68.287,211.100 68.025,211.310 67.750 C 216.233 61.301,222.606 58.410,229.360 59.561 C 233.556 60.276,235.513 61.428,240.340 66.022 C 243.473 69.004,248.136 75.550,250.298 80.000 C 250.410 80.229,250.738 80.829,251.028 81.333 C 251.904 82.854,254.845 89.194,255.862 91.750 C 256.045 92.208,256.294 92.808,256.416 93.083 C 256.538 93.358,256.909 94.333,257.240 95.250 C 257.572 96.167,257.911 97.067,257.995 97.250 C 258.312 97.945,260.690 105.363,261.414 107.917 C 261.544 108.375,261.815 109.312,262.016 109.998 C 262.217 110.685,262.566 111.960,262.791 112.832 C 263.016 113.703,263.336 114.942,263.502 115.583 C 264.593 119.790,264.883 120.957,265.261 122.667 C 265.494 123.721,265.833 125.221,266.014 126.000 C 266.196 126.779,266.414 127.717,266.500 128.083 C 266.735 129.097,267.605 133.247,267.896 134.750 C 268.039 135.483,268.312 136.833,268.503 137.750 C 268.934 139.816,270.167 146.927,270.410 148.750 C 270.471 149.208,270.559 149.808,270.604 150.083 C 270.681 150.551,270.948 152.394,271.076 153.333 C 271.107 153.563,271.219 154.275,271.326 154.917 C 271.433 155.558,271.583 156.683,271.660 157.417 C 271.737 158.150,271.847 159.012,271.904 159.333 C 271.961 159.654,272.080 160.592,272.169 161.417 C 272.257 162.242,272.441 163.892,272.577 165.083 C 273.378 172.089,273.667 178.936,273.343 183.250 C 272.875 189.488,269.240 191.152,257.921 190.309 C 251.473 189.828,249.630 187.017,249.088 176.833 C 249.037 175.871,248.920 174.333,248.828 173.417 C 248.737 172.500,248.552 170.587,248.417 169.167 C 248.283 167.746,248.055 165.496,247.911 164.167 C 247.767 162.837,247.543 160.700,247.414 159.417 C 247.284 158.133,247.061 156.108,246.918 154.917 C 246.419 150.769,246.158 148.574,245.995 147.167 C 245.905 146.387,245.717 144.887,245.576 143.833 C 245.435 142.779,245.208 141.017,245.071 139.917 C 244.829 137.968,244.483 135.278,244.169 132.917 C 243.736 129.654,242.616 122.346,242.074 119.250 C 241.353 115.126,241.351 115.114,240.665 112.000 C 240.372 110.671,240.099 109.396,240.058 109.167 C 240.017 108.938,239.876 108.375,239.745 107.917 C 239.613 107.458,239.364 106.446,239.191 105.667 C 238.816 103.981,237.585 99.228,237.247 98.167 C 237.116 97.754,236.589 96.067,236.075 94.417 C 235.562 92.767,234.965 90.967,234.750 90.417 C 234.535 89.867,234.305 89.192,234.239 88.917 C 234.173 88.642,233.987 88.117,233.826 87.750 C 233.665 87.383,233.175 86.258,232.736 85.250 C 231.335 82.032,230.521 80.630,228.994 78.804 C 228.152 77.798,226.245 78.098,225.374 79.374 C 225.108 79.764,224.690 80.375,224.445 80.732 C 222.214 83.981,218.305 95.355,216.249 104.583 C 216.126 105.133,215.824 106.446,215.578 107.500 C 215.332 108.554,215.070 109.679,214.996 110.000 C 214.674 111.393,214.011 114.838,213.421 118.173 C 213.282 118.956,213.098 120.231,213.012 121.007 C 212.926 121.782,212.698 123.617,212.505 125.083 C 211.983 129.064,211.775 131.114,211.242 137.500 C 211.108 139.104,210.929 141.242,210.845 142.250 C 210.596 145.226,210.346 152.626,210.164 162.417 C 209.863 178.623,209.461 180.483,205.863 182.318 C 203.421 183.564,190.542 183.605,188.099 182.375 C 184.742 180.684,184.024 178.450,183.748 168.833 C 183.637 164.962,183.208 155.199,183.081 153.667 C 183.032 153.071,182.920 151.271,182.833 149.667 C 182.667 146.642,182.594 145.463,182.334 141.667 C 182.153 139.027,181.370 130.438,181.255 129.833 C 181.211 129.604,181.021 128.029,180.832 126.333 C 180.406 122.515,179.110 114.235,178.664 112.491 C 178.482 111.778,178.333 111.025,178.333 110.817 C 178.333 110.610,178.261 110.210,178.173 109.928 C 178.084 109.647,177.849 108.667,177.649 107.750 C 177.036 104.928,174.990 97.021,174.311 94.849 C 171.996 87.443,170.233 82.967,168.777 80.800 C 168.573 80.497,168.200 79.894,167.947 79.459 C 166.892 77.645,163.864 77.740,163.397 79.602 C 163.342 79.821,163.237 80.000,163.164 80.000 C 162.981 80.000,161.669 82.212,160.940 83.750 C 158.362 89.193,154.438 101.718,152.664 110.167 C 152.577 110.579,152.392 111.442,152.252 112.083 C 152.113 112.725,151.888 113.850,151.754 114.583 C 151.619 115.317,151.395 116.479,151.255 117.167 C 150.818 119.321,150.687 120.046,150.505 121.333 C 150.407 122.021,150.107 124.008,149.837 125.750 C 149.567 127.492,149.234 129.817,149.096 130.917 C 148.958 132.017,148.732 133.646,148.594 134.537 C 148.365 136.012,148.219 137.158,147.425 143.667 C 147.285 144.813,147.053 146.612,146.910 147.667 C 146.670 149.436,146.402 151.826,145.996 155.833 C 145.908 156.704,145.728 158.317,145.595 159.417 C 145.383 161.184,145.216 162.823,144.927 166.000 C 144.881 166.504,144.728 167.929,144.588 169.167 C 144.448 170.404,144.221 172.804,144.083 174.500 C 143.665 179.654,143.516 181.172,143.414 181.338 C 143.360 181.425,143.203 182.256,143.065 183.186 C 142.421 187.507,140.435 189.668,136.646 190.169 C 132.633 190.699,124.628 190.500,122.583 189.819 C 120.523 189.133,118.986 187.441,118.437 185.257 C 117.955 183.340,118.161 175.499,118.828 170.333 C 118.917 169.646,119.071 168.296,119.170 167.333 C 119.517 163.974,121.043 153.707,121.672 150.500 C 121.843 149.629,122.254 147.454,122.585 145.667 C 123.169 142.514,123.670 140.018,124.340 136.917 C 124.519 136.092,124.749 135.004,124.852 134.500 C 124.954 133.996,125.096 133.358,125.166 133.083 C 125.236 132.808,125.416 132.021,125.565 131.333 C 125.898 129.802,127.110 124.634,127.324 123.833 C 127.410 123.513,127.866 121.712,128.338 119.833 C 128.810 117.954,129.422 115.554,129.698 114.500 C 129.974 113.446,130.259 112.358,130.330 112.083 C 130.402 111.808,130.849 110.271,131.324 108.667 C 131.798 107.063,132.337 105.225,132.521 104.583 C 133.322 101.787,135.645 95.137,136.430 93.391 C 136.560 93.103,136.667 92.821,136.667 92.765 C 136.667 92.709,136.812 92.345,136.989 91.957 C 137.167 91.568,137.512 90.763,137.757 90.167 C 138.002 89.571,138.428 88.596,138.703 88.000 C 138.979 87.404,139.393 86.504,139.624 86.000 C 140.536 84.011,141.707 81.671,142.586 80.083 C 143.093 79.167,143.582 78.267,143.673 78.083 C 143.764 77.900,143.985 77.525,144.164 77.250 C 144.343 76.975,144.616 76.525,144.769 76.250 C 145.234 75.418,147.753 71.629,148.315 70.917 C 152.726 65.323,157.058 61.592,160.646 60.296 C 163.300 59.337,167.551 59.091,170.690 59.713 M146.062 95.333 C 145.662 96.181,145.286 97.084,144.432 99.250 C 143.553 101.482,139.802 113.048,139.001 116.000 C 138.914 116.321,138.617 117.408,138.341 118.417 C 137.643 120.967,135.122 131.164,134.590 133.583 C 134.348 134.683,134.080 135.883,133.995 136.250 C 133.909 136.617,133.423 138.792,132.915 141.083 C 132.407 143.375,131.846 145.887,131.668 146.667 C 131.364 147.998,131.193 148.874,130.350 153.417 C 128.633 162.671,127.408 172.491,127.556 175.812 C 127.686 178.733,127.742 178.957,128.416 179.239 C 129.000 179.483,129.500 180.073,129.500 180.519 C 129.500 181.367,131.833 181.128,132.168 180.246 C 132.256 180.015,132.659 179.673,133.119 179.439 C 134.433 178.771,134.743 177.685,135.262 171.938 C 135.795 166.048,135.994 163.973,136.418 159.917 C 136.657 157.625,136.921 155.150,137.003 154.417 C 137.086 153.683,137.457 150.083,137.828 146.417 C 138.199 142.750,138.653 138.625,138.836 137.250 C 139.018 135.875,139.391 133.063,139.663 131.000 C 140.335 125.899,141.303 119.445,142.162 114.333 C 142.865 110.148,144.528 102.688,145.852 97.774 C 146.581 95.066,146.669 94.049,146.062 95.333 M246.500 95.268 C 246.500 95.416,246.756 96.485,247.070 97.643 C 248.405 102.583,250.256 111.137,250.988 115.750 C 251.177 116.942,251.409 118.329,251.503 118.833 C 251.764 120.225,253.496 132.668,254.079 137.333 C 254.222 138.479,254.413 139.942,254.503 140.583 C 255.075 144.651,255.772 150.783,256.329 156.667 C 257.021 163.963,257.498 169.032,257.749 171.750 C 258.249 177.150,258.591 178.749,259.306 179.025 C 259.550 179.119,260.099 179.377,260.525 179.598 C 261.492 180.100,261.810 180.102,262.341 179.609 C 262.573 179.395,262.985 179.112,263.256 178.982 C 263.982 178.635,264.147 177.937,264.156 175.167 C 264.170 171.153,263.118 161.193,261.999 154.750 C 261.904 154.200,261.759 153.262,261.678 152.667 C 261.325 150.064,259.895 142.117,258.965 137.583 C 258.683 136.208,258.399 134.783,258.334 134.417 C 258.015 132.624,256.404 125.664,255.307 121.333 C 252.495 110.237,246.500 92.494,246.500 95.268 M206.530 102.042 C 205.268 105.421,203.515 112.028,201.567 120.750 C 200.965 123.448,200.291 124.986,199.708 124.996 C 199.594 124.998,199.500 125.063,199.500 125.140 C 199.500 125.536,197.894 125.988,196.382 126.018 C 194.303 126.058,192.293 124.741,191.909 123.087 C 191.812 122.669,190.518 116.434,190.386 115.750 C 190.102 114.275,188.805 109.563,187.748 106.167 C 186.480 102.090,186.384 102.481,187.431 107.454 C 189.201 115.856,190.195 123.154,190.423 129.417 C 190.473 130.792,190.546 132.292,190.586 132.750 C 191.295 140.870,191.969 152.025,192.418 163.083 C 192.705 170.139,192.901 171.224,194.030 172.015 C 194.334 172.229,194.836 172.688,195.146 173.036 C 196.177 174.195,197.958 174.168,198.744 172.980 C 199.096 172.448,199.268 172.333,199.716 172.333 C 200.978 172.333,201.118 171.214,201.328 159.417 C 201.565 146.083,201.708 142.860,202.424 134.667 C 202.557 133.154,202.665 131.302,202.666 130.552 C 202.669 124.960,203.998 115.311,206.080 105.750 C 207.133 100.916,207.221 100.194,206.530 102.042 M279.397 176.870 C 280.761 177.275,282.005 178.981,281.997 180.436 C 281.976 184.483,276.674 185.679,274.852 182.048 C 273.415 179.185,276.264 175.940,279.397 176.870 M276.703 177.993 C 275.849 178.611,275.425 179.482,275.441 180.581 C 275.487 183.774,279.600 184.628,280.853 181.705 C 282.024 178.972,279.038 176.301,276.703 177.993 M279.424 178.742 C 279.916 179.234,279.951 179.882,279.511 180.322 C 279.235 180.598,279.223 180.673,279.428 180.843 C 279.559 180.952,279.667 181.214,279.667 181.426 C 279.667 181.638,279.740 182.004,279.829 182.239 C 279.980 182.636,279.958 182.667,279.516 182.667 C 279.091 182.667,279.019 182.586,278.852 181.922 C 278.517 180.592,277.667 180.539,277.667 181.847 C 277.667 182.610,277.638 182.667,277.250 182.667 L 276.833 182.667 276.833 180.611 C 276.833 179.481,276.883 178.506,276.944 178.444 C 277.262 178.127,279.020 178.339,279.424 178.742 M277.667 179.566 C 277.667 180.246,278.041 180.454,278.601 180.087 C 279.199 179.695,278.845 179.008,278.042 179.003 C 277.726 179.000,277.667 179.089,277.667 179.566 " stroke="none" fill="#040404" fill-rule="evenodd"></path><path id="path3" d="M165.000 59.840 C 162.697 60.184,160.601 60.904,158.917 61.929 C 158.550 62.152,158.119 62.380,157.958 62.437 C 157.798 62.493,157.667 62.593,157.667 62.659 C 157.667 62.726,157.492 62.859,157.280 62.956 C 156.843 63.155,154.655 64.957,154.450 65.286 C 154.377 65.404,154.249 65.500,154.165 65.500 C 154.001 65.500,151.786 67.751,151.694 68.012 C 151.663 68.099,151.438 68.389,151.194 68.656 C 150.260 69.679,150.013 69.987,148.898 71.513 C 146.569 74.700,144.596 77.900,142.717 81.540 C 141.710 83.492,138.998 89.205,138.661 90.083 C 138.451 90.633,138.225 91.158,138.160 91.250 C 138.094 91.342,137.986 91.604,137.919 91.833 C 137.799 92.241,137.602 92.726,137.067 93.935 C 136.920 94.266,136.613 95.072,136.385 95.726 C 136.156 96.380,135.921 96.990,135.862 97.082 C 135.803 97.175,135.752 97.287,135.749 97.333 C 135.721 97.677,135.259 99.026,135.144 99.097 C 135.065 99.146,135.000 99.329,135.000 99.504 C 135.000 99.679,134.893 100.068,134.762 100.369 C 134.631 100.670,134.213 101.929,133.833 103.167 C 133.452 104.404,132.994 105.867,132.814 106.417 C 132.634 106.967,132.263 108.242,131.990 109.250 C 131.717 110.258,131.338 111.646,131.147 112.333 C 130.956 113.021,130.613 114.333,130.386 115.250 C 130.158 116.167,129.928 117.029,129.874 117.167 C 129.738 117.516,129.204 119.545,128.920 120.794 C 128.790 121.369,128.637 121.913,128.581 122.003 C 128.525 122.094,128.417 122.524,128.341 122.959 C 128.265 123.394,128.013 124.500,127.781 125.417 C 126.961 128.656,126.468 130.761,126.316 131.667 C 126.231 132.171,126.091 132.733,126.004 132.917 C 125.918 133.100,125.812 133.475,125.769 133.750 C 125.651 134.508,124.759 138.715,124.355 140.417 C 124.268 140.783,124.111 141.608,124.006 142.250 C 123.902 142.892,123.748 143.717,123.664 144.083 C 123.580 144.450,123.393 145.425,123.247 146.250 C 123.101 147.075,122.862 148.313,122.717 149.000 C 122.571 149.688,122.425 150.475,122.391 150.749 C 122.358 151.024,122.215 151.886,122.073 152.666 C 121.609 155.221,121.475 156.072,121.400 156.917 C 121.360 157.375,121.222 158.162,121.094 158.667 C 120.966 159.171,120.814 160.033,120.757 160.583 C 120.700 161.133,120.547 162.296,120.419 163.167 C 119.985 166.105,119.830 167.246,119.742 168.167 C 119.386 171.869,119.005 175.475,118.938 175.777 C 118.394 178.230,118.707 184.933,119.433 186.366 C 120.932 189.323,122.707 189.887,130.500 189.881 C 137.440 189.876,138.577 189.639,140.522 187.790 C 141.597 186.769,142.377 185.048,142.579 183.250 C 142.728 181.932,142.870 180.357,143.082 177.667 C 143.347 174.310,143.563 171.905,143.843 169.167 C 143.933 168.296,144.042 167.058,144.086 166.417 C 144.130 165.775,144.209 164.974,144.262 164.637 C 144.315 164.300,144.381 163.700,144.409 163.304 C 144.488 162.180,144.671 160.363,144.834 159.083 C 144.915 158.442,145.027 157.435,145.082 156.846 C 145.137 156.258,145.208 155.733,145.240 155.680 C 145.272 155.627,145.348 154.871,145.410 154.000 C 145.472 153.129,145.552 152.304,145.589 152.167 C 145.625 152.029,145.854 150.229,146.098 148.167 C 146.342 146.104,146.609 143.892,146.691 143.250 C 146.773 142.608,146.846 141.971,146.853 141.833 C 146.859 141.696,146.928 141.133,147.004 140.583 C 147.081 140.033,147.186 139.246,147.237 138.833 C 147.289 138.421,147.413 137.483,147.513 136.750 C 147.719 135.236,147.735 135.120,148.106 132.500 C 148.255 131.446,148.399 130.283,148.426 129.917 C 148.452 129.550,148.589 128.612,148.730 127.833 C 148.871 127.054,149.143 125.292,149.334 123.918 C 149.526 122.544,149.752 121.119,149.837 120.752 C 149.922 120.384,149.994 119.848,149.996 119.561 C 149.998 119.273,150.107 118.673,150.237 118.227 C 150.367 117.782,150.636 116.442,150.835 115.250 C 151.034 114.058,151.261 112.821,151.341 112.500 C 151.677 111.143,152.153 109.047,152.230 108.583 C 152.316 108.062,152.952 105.471,153.415 103.750 C 153.564 103.200,153.752 102.487,153.834 102.167 C 154.128 101.017,154.982 97.899,155.250 97.000 C 155.400 96.496,155.588 95.858,155.668 95.583 C 156.309 93.372,156.683 92.207,156.829 91.961 C 156.923 91.801,157.000 91.576,157.000 91.460 C 157.000 91.344,157.304 90.462,157.676 89.500 C 158.048 88.537,158.545 87.225,158.780 86.583 C 159.398 84.899,161.580 80.539,161.991 80.167 C 162.042 80.121,162.158 79.963,162.250 79.817 C 164.256 76.605,165.677 75.952,167.197 77.542 C 169.349 79.792,170.538 81.847,172.267 86.305 C 172.682 87.375,173.085 88.400,173.162 88.583 C 173.506 89.399,175.455 95.750,176.001 97.833 C 176.205 98.612,176.445 99.438,176.535 99.667 C 176.624 99.896,176.764 100.458,176.845 100.917 C 176.926 101.375,177.148 102.313,177.339 103.000 C 177.756 104.503,178.415 107.362,178.817 109.417 C 178.978 110.242,179.152 111.029,179.202 111.167 C 179.321 111.487,180.141 115.870,180.247 116.750 C 180.292 117.117,180.473 118.242,180.651 119.250 C 181.094 121.759,181.554 125.467,182.006 130.167 C 182.098 131.129,182.257 132.704,182.358 133.667 C 182.585 135.823,182.608 136.112,182.744 138.500 C 182.804 139.554,182.885 140.829,182.925 141.333 C 183.144 144.127,183.357 147.429,183.585 151.583 C 183.726 154.150,183.873 156.775,183.911 157.417 C 184.014 159.133,184.160 163.002,184.251 166.417 C 184.497 175.646,184.675 177.401,185.532 179.024 C 185.997 179.907,186.998 181.167,187.234 181.167 C 187.292 181.167,187.620 181.341,187.962 181.554 C 189.434 182.470,191.199 182.678,197.476 182.670 C 203.976 182.662,205.123 182.422,207.038 180.670 C 209.132 178.752,209.208 178.202,209.482 163.000 C 209.698 150.981,210.026 141.162,210.250 140.000 C 210.281 139.839,210.390 138.704,210.492 137.479 C 210.898 132.616,210.966 131.840,211.174 129.667 C 211.266 128.704,211.410 127.467,211.495 126.917 C 211.580 126.367,211.731 125.167,211.831 124.250 C 212.140 121.410,212.676 117.638,212.944 116.417 C 213.084 115.775,213.231 115.025,213.269 114.750 C 213.456 113.411,213.709 111.988,213.921 111.083 C 214.049 110.533,214.392 109.033,214.681 107.750 C 215.546 103.921,216.959 98.279,217.327 97.185 C 217.516 96.623,217.776 95.733,217.904 95.207 C 218.221 93.903,219.308 90.365,219.580 89.750 C 219.702 89.475,219.877 88.987,219.969 88.667 C 220.212 87.819,222.240 82.910,222.478 82.593 C 222.551 82.496,222.711 82.154,222.834 81.833 C 223.082 81.183,224.895 78.531,225.633 77.738 C 227.206 76.047,228.190 76.346,230.347 79.167 C 231.283 80.391,233.000 83.447,233.000 83.889 C 233.000 84.027,233.058 84.164,233.128 84.194 C 233.285 84.262,234.260 86.534,234.207 86.705 C 234.186 86.772,234.321 87.099,234.508 87.431 C 234.839 88.020,235.809 90.667,236.243 92.167 C 237.040 94.918,237.550 96.629,237.658 96.917 C 238.052 97.963,238.217 98.486,238.341 99.083 C 238.417 99.450,238.641 100.350,238.838 101.083 C 239.131 102.174,239.492 103.571,239.742 104.583 C 239.764 104.675,239.829 104.862,239.884 105.000 C 239.940 105.138,240.101 105.826,240.242 106.529 C 240.383 107.233,240.617 108.245,240.763 108.779 C 241.038 109.786,241.426 111.639,241.665 113.083 C 241.740 113.542,241.846 114.029,241.900 114.167 C 242.132 114.759,243.241 121.257,243.991 126.417 C 244.084 127.058,244.245 128.071,244.347 128.667 C 244.450 129.262,244.594 130.350,244.667 131.083 C 244.739 131.817,244.953 133.542,245.142 134.917 C 245.331 136.292,245.603 138.354,245.747 139.500 C 245.891 140.646,246.041 141.696,246.080 141.833 C 246.119 141.971,246.234 142.833,246.336 143.750 C 246.772 147.675,247.166 151.033,247.500 153.667 C 248.111 158.487,249.213 169.541,249.568 174.417 C 250.141 182.293,250.401 184.345,251.003 185.750 C 251.374 186.617,252.620 188.186,253.020 188.290 C 253.193 188.335,253.333 188.432,253.333 188.506 C 253.333 189.898,265.625 190.523,268.750 189.290 C 269.940 188.820,271.667 187.376,271.667 186.851 C 271.667 186.750,271.733 186.667,271.814 186.667 C 271.895 186.667,272.004 186.535,272.057 186.375 C 272.109 186.215,272.318 185.671,272.520 185.167 C 272.948 184.101,273.020 179.252,272.670 175.000 C 272.568 173.762,272.415 171.850,272.331 170.750 C 272.246 169.650,272.139 168.262,272.093 167.667 C 271.951 165.828,271.661 163.162,271.413 161.417 C 270.967 158.270,270.678 156.082,270.575 155.083 C 270.518 154.533,270.371 153.521,270.248 152.833 C 270.125 152.146,269.899 150.683,269.748 149.583 C 269.423 147.231,269.104 145.263,268.749 143.417 C 268.607 142.683,268.425 141.708,268.343 141.250 C 268.261 140.792,268.081 139.779,267.942 139.000 C 267.596 137.063,267.352 135.859,267.165 135.167 C 267.078 134.846,266.812 133.533,266.572 132.250 C 266.332 130.967,265.957 129.167,265.738 128.250 C 265.520 127.333,265.267 126.246,265.176 125.833 C 264.839 124.302,263.663 119.400,263.516 118.917 C 263.433 118.642,263.273 118.004,263.162 117.500 C 262.937 116.484,261.949 112.864,261.160 110.167 C 260.878 109.204,260.608 108.229,260.559 108.000 C 260.511 107.771,260.145 106.533,259.747 105.250 C 259.349 103.967,258.936 102.579,258.829 102.167 C 258.721 101.754,258.539 101.229,258.424 101.000 C 258.309 100.771,257.932 99.721,257.587 98.667 C 257.243 97.612,256.904 96.675,256.836 96.583 C 256.767 96.492,256.580 96.004,256.420 95.500 C 256.260 94.996,255.942 94.133,255.713 93.583 C 254.984 91.834,253.314 87.941,252.996 87.250 C 252.239 85.607,251.632 84.375,251.332 83.875 C 251.153 83.577,251.039 83.333,251.079 83.333 C 251.119 83.333,250.879 82.827,250.545 82.208 C 250.211 81.590,249.738 80.708,249.493 80.250 C 249.247 79.792,248.888 79.154,248.694 78.833 C 248.500 78.512,248.149 77.912,247.915 77.500 C 246.829 75.592,245.267 73.128,244.593 72.261 C 244.313 71.901,243.971 71.442,243.833 71.242 C 242.249 68.938,237.485 63.859,236.877 63.827 C 236.807 63.823,236.490 63.598,236.173 63.327 C 235.856 63.055,235.534 62.833,235.458 62.833 C 235.382 62.833,235.165 62.689,234.976 62.513 C 234.339 61.920,231.505 60.649,229.872 60.224 C 224.554 58.842,218.210 60.980,214.252 65.489 C 213.976 65.803,213.633 66.178,213.491 66.322 C 213.348 66.466,212.973 66.918,212.657 67.327 C 212.342 67.736,211.872 68.298,211.613 68.577 C 211.354 68.855,211.005 69.346,210.837 69.667 C 210.669 69.987,210.337 70.475,210.100 70.750 C 209.862 71.025,209.667 71.299,209.667 71.358 C 209.667 71.417,209.378 71.942,209.025 72.525 C 207.680 74.745,206.089 77.791,205.120 80.000 C 204.980 80.321,204.644 81.071,204.375 81.667 C 204.105 82.262,203.682 83.313,203.433 84.000 C 203.185 84.688,202.869 85.481,202.730 85.762 C 202.592 86.044,202.460 86.382,202.438 86.512 C 202.376 86.866,202.158 87.519,201.912 88.083 C 201.793 88.358,201.459 89.258,201.171 90.083 C 200.883 90.908,200.426 92.187,200.157 92.925 C 199.887 93.663,199.667 94.378,199.667 94.513 C 199.667 94.648,199.551 94.924,199.410 95.126 C 199.269 95.328,199.049 95.813,198.922 96.205 C 198.523 97.433,198.261 98.067,197.904 98.670 C 197.713 98.992,197.416 99.629,197.243 100.086 C 196.703 101.516,196.171 101.660,195.905 100.448 C 195.842 100.158,195.605 99.679,195.381 99.384 C 195.156 99.090,194.789 98.306,194.564 97.644 C 194.340 96.981,194.094 96.359,194.017 96.261 C 193.940 96.163,193.723 95.633,193.534 95.083 C 193.346 94.533,192.879 93.221,192.497 92.167 C 191.285 88.820,190.308 86.089,190.262 85.917 C 190.198 85.678,189.998 85.161,189.747 84.583 C 189.627 84.308,189.107 83.071,188.591 81.833 C 188.075 80.596,187.543 79.384,187.409 79.141 C 187.276 78.898,187.167 78.585,187.167 78.447 C 187.167 78.308,187.104 78.169,187.028 78.139 C 186.952 78.108,186.614 77.521,186.277 76.833 C 185.939 76.146,185.327 74.983,184.915 74.250 C 184.504 73.517,184.100 72.764,184.017 72.576 C 183.935 72.389,183.748 72.136,183.601 72.014 C 183.454 71.892,183.333 71.723,183.333 71.639 C 183.333 71.554,182.940 70.917,182.458 70.223 C 181.977 69.528,181.458 68.772,181.306 68.542 C 180.715 67.651,176.949 63.667,176.697 63.667 C 176.633 63.667,176.391 63.492,176.161 63.278 C 173.658 60.957,168.388 59.333,165.000 59.840 M169.000 61.068 C 172.638 61.717,176.972 64.652,179.728 68.333 C 180.106 68.837,180.454 69.287,180.501 69.333 C 182.713 71.474,187.782 81.944,190.668 90.333 C 190.968 91.204,191.870 93.835,192.673 96.180 C 193.476 98.525,194.318 100.813,194.545 101.264 C 194.772 101.715,195.078 102.501,195.225 103.012 C 195.838 105.142,197.120 105.022,197.815 102.770 C 197.999 102.174,198.314 101.365,198.515 100.971 C 198.715 100.578,199.426 98.642,200.094 96.669 C 201.196 93.413,202.687 89.161,203.715 86.333 C 214.998 55.332,232.460 52.365,247.482 78.897 C 254.990 92.156,260.824 109.587,265.647 133.167 C 265.919 134.496,266.257 136.146,266.399 136.833 C 267.204 140.741,268.591 149.002,269.253 153.833 C 269.384 154.796,269.685 156.971,269.921 158.667 C 271.633 170.963,272.268 182.761,271.343 185.083 C 270.805 186.435,269.578 187.625,268.060 188.267 L 266.917 188.750 261.833 188.750 C 255.549 188.750,254.219 188.394,252.728 186.312 C 251.536 184.649,251.399 183.956,250.915 177.167 C 250.615 172.953,249.294 159.366,248.655 153.917 C 248.472 152.358,248.134 149.471,247.905 147.500 C 247.675 145.529,247.419 143.429,247.335 142.833 C 247.251 142.237,247.063 140.813,246.917 139.667 C 246.771 138.521,246.583 137.096,246.500 136.500 C 246.417 135.904,246.190 134.254,245.997 132.833 C 245.168 126.743,243.991 119.097,243.431 116.167 C 243.300 115.479,243.079 114.317,242.940 113.583 C 242.331 110.363,240.076 101.135,238.928 97.167 C 238.702 96.388,238.368 95.223,238.185 94.579 C 235.119 83.804,230.477 75.500,227.519 75.500 C 223.371 75.500,218.798 85.626,214.159 105.083 C 212.830 110.659,212.006 114.878,211.264 119.917 C 210.876 122.548,210.259 127.695,210.005 130.417 C 209.910 131.425,209.759 133.000,209.668 133.917 C 208.982 140.841,208.591 149.747,208.423 162.333 C 208.255 174.854,208.147 176.548,207.419 178.083 C 207.038 178.886,205.976 180.167,205.690 180.167 C 205.614 180.167,205.423 180.309,205.266 180.482 C 203.903 181.988,191.392 182.150,188.833 180.695 C 186.109 179.146,185.694 177.910,185.490 170.750 C 185.320 164.801,184.881 154.034,184.755 152.750 C 184.710 152.292,184.633 150.979,184.584 149.833 C 184.535 148.688,184.460 147.300,184.418 146.750 C 184.375 146.200,184.300 145.000,184.250 144.083 C 184.141 142.068,184.010 140.258,183.750 137.167 C 182.647 124.039,181.430 115.571,179.403 106.917 C 174.098 84.264,169.141 73.806,164.620 75.728 C 160.380 77.531,154.969 90.933,150.739 110.110 C 150.500 111.195,150.197 112.571,150.065 113.167 C 149.753 114.583,149.425 116.411,148.823 120.083 C 148.553 121.733,148.257 123.533,148.166 124.083 C 148.074 124.633,147.700 127.258,147.335 129.917 C 146.969 132.575,146.593 135.275,146.500 135.917 C 146.407 136.558,146.215 138.021,146.073 139.167 C 145.931 140.313,145.671 142.412,145.496 143.833 C 143.811 157.460,142.660 168.635,141.915 178.583 C 141.458 184.701,140.951 186.152,138.742 187.672 C 136.259 189.381,124.707 189.387,122.289 187.681 C 120.512 186.428,119.667 184.646,119.667 182.153 C 119.667 178.724,120.952 166.478,122.001 159.917 C 123.447 150.875,124.068 147.492,125.938 138.500 C 127.052 133.139,128.010 128.981,129.451 123.250 C 130.050 120.867,130.596 118.654,130.666 118.333 C 130.842 117.517,131.771 114.028,132.264 112.333 C 132.491 111.554,132.904 110.129,133.182 109.167 C 134.238 105.518,134.558 104.489,135.673 101.167 C 138.525 92.667,141.260 86.404,145.122 79.531 C 146.571 76.953,149.167 72.786,149.502 72.500 C 149.556 72.454,150.036 71.834,150.568 71.121 C 155.051 65.118,159.331 62.081,164.917 60.940 C 165.653 60.790,167.821 60.858,169.000 61.068 M167.167 68.093 C 167.167 68.225,167.298 68.336,167.458 68.339 C 167.619 68.342,167.896 68.454,168.074 68.589 C 168.251 68.723,168.570 68.833,168.782 68.833 C 168.994 68.833,169.167 68.893,169.167 68.967 C 169.167 69.040,169.448 69.199,169.792 69.319 C 170.135 69.440,170.604 69.707,170.833 69.912 C 171.365 70.387,171.850 70.572,171.727 70.251 C 171.679 70.124,171.476 69.996,171.278 69.968 C 171.079 69.940,170.909 69.804,170.901 69.667 C 170.875 69.264,170.645 68.833,170.457 68.833 C 170.361 68.833,169.895 68.650,169.423 68.427 C 168.349 67.919,167.167 67.744,167.167 68.093 M224.808 67.914 C 224.763 67.959,224.413 68.035,224.030 68.083 C 223.138 68.195,221.650 69.001,220.611 69.935 C 220.164 70.337,219.747 70.667,219.685 70.667 C 219.623 70.667,219.429 70.909,219.253 71.206 C 219.078 71.502,218.735 71.934,218.490 72.164 C 217.978 72.647,216.074 75.172,215.588 76.014 C 215.407 76.327,215.041 76.958,214.775 77.417 C 214.085 78.606,212.443 81.811,212.171 82.500 C 212.045 82.821,211.740 83.533,211.495 84.083 C 210.870 85.482,209.841 88.158,208.835 91.000 C 208.364 92.329,207.764 93.979,207.501 94.667 C 207.237 95.354,206.872 96.367,206.688 96.917 C 206.505 97.467,206.176 98.329,205.958 98.833 C 205.740 99.337,205.463 100.087,205.342 100.500 C 205.222 100.912,204.995 101.550,204.838 101.917 C 204.496 102.715,203.516 105.671,202.904 107.750 C 202.661 108.575,202.362 109.525,202.238 109.862 C 202.115 110.198,201.927 111.135,201.821 111.945 C 201.594 113.681,201.064 115.498,200.262 117.289 C 199.943 118.001,199.489 119.232,199.253 120.025 C 198.894 121.228,198.758 121.483,198.428 121.566 C 198.191 121.625,197.966 121.856,197.866 122.144 C 197.343 123.646,195.333 123.642,195.333 122.139 C 195.333 121.694,194.881 121.572,194.502 121.915 C 194.105 122.274,193.652 121.649,193.235 120.167 C 192.717 118.328,192.526 117.722,192.006 116.258 C 191.644 115.238,191.399 114.103,191.233 112.674 C 191.003 110.705,188.989 103.823,188.477 103.258 C 188.398 103.171,188.333 102.995,188.333 102.867 C 188.333 102.739,188.232 102.397,188.108 102.109 C 187.818 101.430,187.337 100.163,186.581 98.083 C 185.883 96.164,185.781 95.872,184.744 92.833 C 182.701 86.849,180.585 81.798,178.880 78.833 C 177.879 77.093,176.794 75.394,176.579 75.232 C 176.444 75.130,176.333 74.961,176.333 74.857 C 176.333 74.752,176.260 74.667,176.171 74.667 C 176.082 74.667,175.894 74.444,175.753 74.172 C 175.462 73.610,174.987 73.645,175.046 74.224 C 175.092 74.668,175.440 75.057,175.665 74.917 C 175.758 74.860,175.833 74.889,175.833 74.980 C 175.833 75.072,175.771 75.186,175.694 75.233 C 175.617 75.281,176.104 76.429,176.776 77.785 C 177.449 79.141,177.999 80.307,177.999 80.377 C 178.000 80.447,178.142 80.822,178.317 81.210 C 180.300 85.636,183.859 96.987,184.443 100.750 C 184.508 101.168,185.067 104.253,185.410 106.083 C 187.671 118.152,188.293 122.855,189.411 136.333 C 190.032 143.824,190.724 156.238,190.998 164.833 C 191.091 167.721,191.214 170.533,191.272 171.083 C 191.331 171.633,191.396 172.514,191.418 173.040 C 191.517 175.431,193.317 176.105,198.712 175.771 C 202.515 175.535,202.561 175.365,202.751 161.000 C 202.868 152.086,203.112 144.554,203.423 140.250 C 203.937 133.130,204.622 126.000,205.249 121.250 C 205.916 116.184,206.039 115.329,206.250 114.250 C 206.626 112.323,207.956 105.431,208.495 102.609 C 208.773 101.156,209.000 99.802,209.000 99.600 C 209.000 99.398,209.068 99.162,209.151 99.075 C 209.234 98.988,209.387 98.354,209.491 97.667 C 210.048 93.971,213.568 83.622,215.953 78.667 C 218.849 72.649,221.691 69.607,225.458 68.490 C 226.363 68.223,226.404 67.833,225.528 67.833 C 225.176 67.833,224.852 67.870,224.808 67.914 M172.000 70.649 C 172.000 70.833,172.432 71.012,172.563 70.882 C 172.615 70.830,172.618 70.722,172.569 70.643 C 172.452 70.454,172.000 70.458,172.000 70.649 M152.000 81.231 C 152.000 81.382,151.905 81.453,151.771 81.402 C 151.343 81.238,148.469 86.414,146.905 90.167 C 146.733 90.579,146.552 90.954,146.503 91.000 C 146.417 91.081,145.842 92.182,144.154 95.500 C 141.223 101.264,136.310 117.931,132.660 134.500 C 132.024 137.387,131.395 140.237,131.263 140.833 C 131.130 141.429,130.827 142.967,130.588 144.250 C 130.350 145.533,130.046 147.071,129.914 147.667 C 129.172 150.993,127.242 163.049,126.577 168.500 C 125.013 181.335,125.210 182.701,128.667 182.952 C 133.903 183.331,136.087 182.489,135.975 180.131 C 135.960 179.830,136.030 178.908,136.129 178.083 C 136.228 177.258,136.392 175.608,136.493 174.417 C 136.705 171.920,137.018 168.560,137.503 163.583 C 137.896 159.558,139.376 146.468,139.746 143.750 C 140.008 141.821,140.596 137.232,140.835 135.242 C 142.360 122.556,144.259 111.807,146.824 101.333 C 147.172 99.912,147.619 97.925,147.818 96.917 C 148.135 95.307,148.710 92.792,149.170 91.000 C 149.252 90.679,149.741 89.292,150.256 87.917 C 150.771 86.542,151.302 85.117,151.437 84.750 C 151.571 84.383,151.796 83.835,151.937 83.532 C 152.077 83.228,152.215 82.666,152.243 82.282 C 152.272 81.898,152.322 81.480,152.356 81.354 C 152.389 81.228,152.323 81.091,152.208 81.049 C 152.094 81.007,152.000 81.089,152.000 81.231 M240.879 82.199 C 240.838 82.782,240.964 83.197,242.002 85.917 C 242.913 88.303,243.735 90.685,244.043 91.833 C 244.303 92.804,244.366 93.096,245.180 97.167 C 245.464 98.587,245.910 100.612,246.171 101.667 C 248.563 111.327,250.595 122.750,251.998 134.417 C 252.268 136.663,252.819 140.984,253.081 142.917 C 253.326 144.723,254.040 150.631,254.249 152.583 C 254.307 153.133,254.385 153.771,254.421 154.000 C 254.659 155.529,255.988 169.200,256.406 174.417 C 256.650 177.473,256.926 180.081,257.093 180.917 C 257.413 182.518,258.463 183.000,261.634 183.000 C 264.499 183.000,264.930 182.868,265.616 181.782 L 266.049 181.096 265.948 177.923 C 265.799 173.269,265.186 166.320,264.402 160.417 C 263.725 155.322,262.442 146.822,261.924 144.000 C 261.798 143.313,261.535 141.850,261.339 140.750 C 261.143 139.650,260.878 138.300,260.750 137.750 C 260.622 137.200,260.356 135.925,260.159 134.917 C 258.672 127.316,255.932 116.416,253.498 108.417 C 253.331 107.867,253.068 107.004,252.915 106.500 C 252.306 104.501,251.524 102.235,250.472 99.417 C 250.198 98.683,249.088 96.283,248.005 94.083 C 246.923 91.883,245.282 88.546,244.359 86.667 C 242.209 82.288,240.984 80.715,240.879 82.199 M147.036 94.192 C 146.945 94.591,146.417 96.679,145.863 98.833 C 144.867 102.705,144.249 105.543,143.414 110.083 C 143.178 111.367,142.883 112.904,142.758 113.500 C 142.634 114.096,142.482 115.033,142.421 115.583 C 142.360 116.133,142.200 117.221,142.065 118.000 C 141.614 120.616,140.715 127.026,140.009 132.667 C 139.545 136.372,139.538 136.429,139.352 137.667 C 139.262 138.262,139.154 139.087,139.110 139.500 C 139.067 139.912,138.951 140.887,138.852 141.667 C 138.753 142.446,138.476 144.846,138.237 147.000 C 137.998 149.154,137.701 151.817,137.577 152.917 C 137.453 154.017,137.315 155.292,137.271 155.750 C 137.085 157.659,136.827 160.131,136.596 162.206 C 136.181 165.944,135.833 169.668,135.325 175.833 C 135.208 177.247,134.997 178.624,134.816 179.151 C 134.646 179.647,134.545 180.209,134.592 180.401 C 134.728 180.956,133.847 181.792,133.253 181.673 C 133.162 181.655,132.477 181.769,131.730 181.926 C 130.467 182.191,130.315 182.192,129.572 181.939 C 129.133 181.789,128.533 181.667,128.239 181.667 C 127.106 181.667,126.837 181.039,126.775 178.250 C 126.712 175.394,128.115 163.891,129.500 155.917 C 130.066 152.662,130.120 152.359,130.592 149.833 C 131.273 146.187,131.264 146.231,131.749 144.000 C 131.998 142.854,132.262 141.579,132.335 141.167 C 132.409 140.754,132.667 139.554,132.909 138.500 C 133.152 137.446,133.496 135.908,133.674 135.083 C 133.852 134.258,134.105 133.171,134.238 132.667 C 134.370 132.162,134.748 130.587,135.078 129.167 C 135.719 126.404,136.061 125.050,136.434 123.801 C 136.562 123.371,136.862 122.246,137.099 121.301 C 138.016 117.657,138.714 115.221,140.027 111.083 C 142.140 104.426,145.485 95.517,146.554 93.698 C 146.992 92.952,147.256 93.223,147.036 94.192 M246.363 93.792 C 246.687 94.172,247.091 95.071,248.224 97.931 C 249.685 101.624,250.310 103.355,252.217 109.000 C 253.584 113.046,255.037 118.109,256.520 124.000 C 257.028 126.017,257.230 126.880,257.725 129.167 C 257.854 129.762,258.163 131.112,258.413 132.167 C 258.662 133.221,258.925 134.458,258.997 134.917 C 259.069 135.375,259.295 136.500,259.499 137.417 C 259.866 139.066,259.981 139.639,260.333 141.583 C 260.433 142.133,260.577 142.921,260.654 143.333 C 260.952 144.948,262.021 151.287,262.101 151.917 C 262.147 152.283,262.337 153.633,262.524 154.917 C 262.711 156.200,262.927 157.738,263.005 158.335 C 263.084 158.932,263.224 159.907,263.319 160.502 C 264.189 166.002,265.113 178.189,264.729 179.107 C 264.591 179.438,264.499 180.008,264.526 180.373 C 264.583 181.174,264.037 181.754,263.380 181.589 C 263.164 181.535,262.634 181.595,262.202 181.723 C 261.654 181.886,261.291 181.908,261.000 181.796 C 260.771 181.708,260.259 181.640,259.862 181.645 C 258.922 181.658,258.305 181.102,258.359 180.291 C 258.380 179.990,258.260 179.483,258.094 179.164 C 257.905 178.800,257.771 178.117,257.735 177.333 C 257.676 176.039,257.396 172.888,256.817 167.000 C 256.632 165.121,256.415 162.758,256.333 161.750 C 256.196 160.052,255.424 152.723,255.262 151.583 C 255.223 151.308,255.145 150.633,255.088 150.083 C 254.925 148.501,254.514 145.070,253.990 140.917 C 253.724 138.808,253.350 135.846,253.160 134.333 C 252.970 132.821,252.744 131.208,252.659 130.750 C 252.573 130.292,252.306 128.342,252.066 126.417 C 251.825 124.492,251.569 122.542,251.496 122.083 C 251.423 121.625,251.245 120.388,251.100 119.333 C 250.954 118.279,250.764 117.117,250.677 116.750 C 250.590 116.383,250.475 115.746,250.421 115.333 C 250.367 114.921,250.260 114.246,250.183 113.833 C 250.106 113.421,249.880 112.146,249.681 111.000 C 248.918 106.627,248.270 103.584,247.072 98.746 C 245.631 92.924,245.632 92.933,246.363 93.792 M207.554 100.125 C 207.426 100.927,207.067 102.671,206.755 104.000 C 204.751 112.557,203.865 118.595,203.333 127.333 C 203.164 130.110,202.968 132.805,202.418 139.917 C 202.087 144.206,201.823 150.997,201.741 157.333 C 201.595 168.667,201.513 171.087,201.251 171.831 C 201.113 172.222,201.000 172.791,201.000 173.096 C 201.000 173.833,200.431 174.410,199.667 174.450 C 199.346 174.466,198.555 174.608,197.910 174.764 C 196.756 175.045,196.716 175.043,195.525 174.674 C 194.859 174.468,194.158 174.340,193.968 174.390 C 193.367 174.547,192.694 173.703,192.694 172.792 C 192.694 172.373,192.622 171.892,192.534 171.723 C 192.358 171.387,192.249 169.562,191.995 162.750 C 191.903 160.275,191.757 156.975,191.670 155.417 C 191.582 153.858,191.432 151.046,191.336 149.167 C 191.093 144.442,190.640 137.887,190.332 134.667 C 190.159 132.853,189.735 126.542,189.587 123.583 C 189.409 120.009,188.382 112.995,187.342 108.250 C 186.868 106.086,186.047 102.161,185.956 101.621 C 185.849 100.987,186.102 100.889,186.388 101.453 C 187.194 103.041,189.918 112.213,190.584 115.583 C 191.249 118.944,192.282 122.940,192.444 122.778 C 192.481 122.742,192.924 123.100,193.430 123.575 C 194.444 124.526,196.366 125.095,197.149 124.676 C 197.330 124.579,197.622 124.500,197.797 124.500 C 197.973 124.500,198.427 124.275,198.807 124.000 C 199.187 123.725,199.557 123.500,199.630 123.500 C 200.060 123.500,200.848 122.526,200.980 121.833 C 201.058 121.421,201.246 120.596,201.398 120.000 C 201.550 119.404,202.272 116.479,203.002 113.500 C 204.314 108.149,204.563 107.250,205.864 103.167 C 206.619 100.799,207.470 98.667,207.659 98.667 C 207.730 98.667,207.682 99.323,207.554 100.125 M277.544 178.453 C 277.797 178.491,278.172 178.490,278.377 178.451 C 278.582 178.411,278.375 178.380,277.917 178.381 C 277.458 178.382,277.291 178.415,277.544 178.453 M277.545 179.667 C 277.545 180.079,277.578 180.248,277.618 180.042 C 277.657 179.835,277.657 179.498,277.618 179.292 C 277.578 179.085,277.545 179.254,277.545 179.667 M274.545 180.500 C 274.545 180.912,274.578 181.081,274.618 180.875 C 274.657 180.669,274.657 180.331,274.618 180.125 C 274.578 179.919,274.545 180.088,274.545 180.500 M277.550 181.667 C 277.550 182.171,277.581 182.377,277.619 182.125 C 277.658 181.873,277.658 181.460,277.619 181.208 C 277.581 180.956,277.550 181.162,277.550 181.667 " stroke="none" fill="#5f1904" fill-rule="evenodd"></path><path id="path4" d="M163.000 59.653 C 158.082 60.710,153.734 64.045,148.315 70.917 C 147.753 71.629,145.234 75.418,144.769 76.250 C 144.616 76.525,144.343 76.975,144.164 77.250 C 143.985 77.525,143.764 77.900,143.673 78.083 C 143.582 78.267,143.093 79.167,142.586 80.083 C 141.707 81.671,140.536 84.011,139.624 86.000 C 139.393 86.504,138.979 87.404,138.703 88.000 C 138.428 88.596,138.002 89.571,137.757 90.167 C 137.512 90.763,137.167 91.568,136.989 91.957 C 136.812 92.345,136.667 92.709,136.667 92.765 C 136.667 92.821,136.560 93.103,136.430 93.391 C 135.645 95.137,133.322 101.787,132.521 104.583 C 132.337 105.225,131.798 107.063,131.324 108.667 C 130.849 110.271,130.402 111.808,130.330 112.083 C 130.259 112.358,129.974 113.446,129.698 114.500 C 129.422 115.554,128.810 117.954,128.338 119.833 C 127.866 121.712,127.410 123.513,127.324 123.833 C 127.110 124.634,125.898 129.802,125.565 131.333 C 125.416 132.021,125.236 132.808,125.166 133.083 C 125.096 133.358,124.954 133.996,124.852 134.500 C 124.749 135.004,124.519 136.092,124.340 136.917 C 123.670 140.018,123.169 142.514,122.585 145.667 C 122.254 147.454,121.843 149.629,121.672 150.500 C 121.043 153.707,119.517 163.974,119.170 167.333 C 119.071 168.296,118.917 169.646,118.828 170.333 C 116.822 185.865,118.286 189.771,126.330 190.350 C 129.293 190.563,134.336 190.474,136.646 190.169 C 140.435 189.668,142.421 187.507,143.065 183.186 C 143.203 182.256,143.360 181.425,143.414 181.338 C 143.516 181.172,143.665 179.654,144.083 174.500 C 144.221 172.804,144.448 170.404,144.588 169.167 C 144.728 167.929,144.881 166.504,144.927 166.000 C 145.216 162.823,145.383 161.184,145.595 159.417 C 145.728 158.317,145.908 156.704,145.996 155.833 C 146.402 151.826,146.670 149.436,146.910 147.667 C 147.053 146.612,147.285 144.813,147.425 143.667 C 148.219 137.158,148.365 136.012,148.594 134.537 C 148.732 133.646,148.958 132.017,149.096 130.917 C 149.234 129.817,149.567 127.492,149.837 125.750 C 150.107 124.008,150.407 122.021,150.505 121.333 C 150.687 120.046,150.818 119.321,151.255 117.167 C 151.395 116.479,151.619 115.317,151.754 114.583 C 151.888 113.850,152.113 112.725,152.252 112.083 C 152.392 111.442,152.577 110.579,152.664 110.167 C 154.438 101.718,158.362 89.193,160.940 83.750 C 161.669 82.212,162.981 80.000,163.164 80.000 C 163.237 80.000,163.342 79.821,163.397 79.602 C 163.864 77.740,166.892 77.645,167.947 79.459 C 168.200 79.894,168.573 80.497,168.777 80.800 C 170.233 82.967,171.996 87.443,174.311 94.849 C 174.990 97.021,177.036 104.928,177.649 107.750 C 177.849 108.667,178.084 109.647,178.173 109.928 C 178.261 110.210,178.333 110.610,178.333 110.817 C 178.333 111.025,178.482 111.778,178.664 112.491 C 179.110 114.235,180.406 122.515,180.832 126.333 C 181.021 128.029,181.211 129.604,181.255 129.833 C 181.370 130.438,182.153 139.027,182.334 141.667 C 182.594 145.463,182.667 146.642,182.833 149.667 C 182.920 151.271,183.032 153.071,183.081 153.667 C 183.208 155.199,183.637 164.962,183.748 168.833 C 184.024 178.450,184.742 180.684,188.099 182.375 C 190.542 183.605,203.421 183.564,205.863 182.318 C 209.461 180.483,209.863 178.623,210.164 162.417 C 210.346 152.626,210.596 145.226,210.845 142.250 C 210.929 141.242,211.108 139.104,211.242 137.500 C 211.775 131.114,211.983 129.064,212.505 125.083 C 212.698 123.617,212.926 121.782,213.012 121.007 C 213.098 120.231,213.282 118.956,213.421 118.173 C 214.011 114.838,214.674 111.393,214.996 110.000 C 215.070 109.679,215.332 108.554,215.578 107.500 C 215.824 106.446,216.126 105.133,216.249 104.583 C 218.305 95.355,222.214 83.981,224.445 80.732 C 224.690 80.375,225.108 79.764,225.374 79.374 C 226.245 78.098,228.152 77.798,228.994 78.804 C 230.521 80.630,231.335 82.032,232.736 85.250 C 233.175 86.258,233.665 87.383,233.826 87.750 C 233.987 88.117,234.173 88.642,234.239 88.917 C 234.305 89.192,234.535 89.867,234.750 90.417 C 234.965 90.967,235.562 92.767,236.075 94.417 C 236.589 96.067,237.116 97.754,237.247 98.167 C 237.585 99.228,238.816 103.981,239.191 105.667 C 239.364 106.446,239.613 107.458,239.745 107.917 C 239.876 108.375,240.017 108.938,240.058 109.167 C 240.099 109.396,240.372 110.671,240.665 112.000 C 241.351 115.114,241.353 115.126,242.074 119.250 C 242.616 122.346,243.736 129.654,244.169 132.917 C 244.483 135.278,244.829 137.968,245.071 139.917 C 245.208 141.017,245.435 142.779,245.576 143.833 C 245.717 144.887,245.905 146.387,245.995 147.167 C 246.158 148.574,246.419 150.769,246.918 154.917 C 247.061 156.108,247.284 158.133,247.414 159.417 C 247.543 160.700,247.767 162.837,247.911 164.167 C 248.055 165.496,248.283 167.746,248.417 169.167 C 248.552 170.587,248.737 172.500,248.828 173.417 C 248.920 174.333,249.037 175.871,249.088 176.833 C 249.630 187.017,251.473 189.828,257.921 190.309 C 269.240 191.152,272.875 189.488,273.343 183.250 C 273.667 178.936,273.378 172.089,272.577 165.083 C 272.441 163.892,272.257 162.242,272.169 161.417 C 272.080 160.592,271.961 159.654,271.904 159.333 C 271.847 159.012,271.737 158.150,271.660 157.417 C 271.583 156.683,271.433 155.558,271.326 154.917 C 271.219 154.275,271.107 153.563,271.076 153.333 C 270.948 152.394,270.681 150.551,270.604 150.083 C 270.559 149.808,270.471 149.208,270.410 148.750 C 270.167 146.927,268.934 139.816,268.503 137.750 C 268.312 136.833,268.039 135.483,267.896 134.750 C 267.605 133.247,266.735 129.097,266.500 128.083 C 266.414 127.717,266.196 126.779,266.014 126.000 C 265.833 125.221,265.494 123.721,265.261 122.667 C 264.883 120.957,264.593 119.790,263.502 115.583 C 263.336 114.942,263.016 113.703,262.791 112.832 C 262.566 111.960,262.217 110.685,262.016 109.998 C 261.815 109.312,261.544 108.375,261.414 107.917 C 260.690 105.363,258.312 97.945,257.995 97.250 C 257.911 97.067,257.572 96.167,257.240 95.250 C 256.909 94.333,256.538 93.358,256.416 93.083 C 256.294 92.808,256.045 92.208,255.862 91.750 C 254.845 89.194,251.904 82.854,251.028 81.333 C 250.738 80.829,250.410 80.229,250.298 80.000 C 248.136 75.550,243.473 69.004,240.340 66.022 C 235.513 61.428,233.556 60.276,229.360 59.561 C 222.606 58.410,216.233 61.301,211.310 67.750 C 211.100 68.025,210.888 68.287,210.839 68.333 C 209.759 69.343,206.094 75.743,204.396 79.583 C 204.072 80.317,203.706 81.142,203.583 81.417 C 203.183 82.309,201.156 87.688,200.317 90.083 C 199.867 91.367,199.432 92.567,199.348 92.750 C 199.265 92.933,198.961 93.608,198.673 94.250 C 197.759 96.286,197.418 96.668,196.519 96.661 C 195.154 96.652,194.605 95.676,192.348 89.250 C 191.842 87.809,190.074 83.127,189.831 82.583 C 189.749 82.400,189.562 81.950,189.417 81.583 C 188.181 78.472,184.508 71.482,183.287 69.917 C 183.216 69.825,182.675 69.105,182.087 68.316 C 179.922 65.419,176.039 62.016,173.357 60.667 C 170.924 59.443,166.149 58.976,163.000 59.653 M169.981 60.184 C 171.886 60.621,174.950 62.155,176.161 63.278 C 176.391 63.492,176.633 63.667,176.697 63.667 C 176.949 63.667,180.715 67.651,181.306 68.542 C 181.458 68.772,181.977 69.528,182.458 70.223 C 182.940 70.917,183.333 71.554,183.333 71.639 C 183.333 71.723,183.454 71.892,183.601 72.014 C 183.748 72.136,183.935 72.389,184.017 72.576 C 184.100 72.764,184.504 73.517,184.915 74.250 C 185.327 74.983,185.939 76.146,186.277 76.833 C 186.614 77.521,186.952 78.108,187.028 78.139 C 187.104 78.169,187.167 78.308,187.167 78.447 C 187.167 78.585,187.276 78.898,187.409 79.141 C 187.543 79.384,188.075 80.596,188.591 81.833 C 189.107 83.071,189.627 84.308,189.747 84.583 C 189.998 85.161,190.198 85.678,190.262 85.917 C 190.308 86.089,191.285 88.820,192.497 92.167 C 192.879 93.221,193.346 94.533,193.534 95.083 C 193.723 95.633,193.940 96.163,194.017 96.261 C 194.094 96.359,194.340 96.981,194.564 97.644 C 194.789 98.306,195.156 99.090,195.381 99.384 C 195.605 99.679,195.842 100.158,195.905 100.448 C 196.171 101.660,196.703 101.516,197.243 100.086 C 197.416 99.629,197.713 98.992,197.904 98.670 C 198.261 98.067,198.523 97.433,198.922 96.205 C 199.049 95.813,199.269 95.328,199.410 95.126 C 199.551 94.924,199.667 94.648,199.667 94.513 C 199.667 94.378,199.887 93.663,200.157 92.925 C 200.426 92.187,200.883 90.908,201.171 90.083 C 201.459 89.258,201.793 88.358,201.912 88.083 C 202.158 87.519,202.376 86.866,202.438 86.512 C 202.460 86.382,202.592 86.044,202.730 85.762 C 202.869 85.481,203.185 84.688,203.433 84.000 C 203.682 83.313,204.105 82.262,204.375 81.667 C 204.644 81.071,204.980 80.321,205.120 80.000 C 206.089 77.791,207.680 74.745,209.025 72.525 C 209.378 71.942,209.667 71.417,209.667 71.358 C 209.667 71.299,209.862 71.025,210.100 70.750 C 210.337 70.475,210.669 69.987,210.837 69.667 C 211.005 69.346,211.354 68.855,211.613 68.577 C 211.872 68.298,212.342 67.736,212.657 67.327 C 212.973 66.918,213.348 66.466,213.491 66.322 C 213.633 66.178,213.976 65.803,214.252 65.489 C 218.210 60.980,224.554 58.842,229.872 60.224 C 231.505 60.649,234.339 61.920,234.976 62.513 C 235.165 62.689,235.382 62.833,235.458 62.833 C 235.534 62.833,235.856 63.055,236.173 63.327 C 236.490 63.598,236.807 63.823,236.877 63.827 C 237.485 63.859,242.249 68.938,243.833 71.242 C 243.971 71.442,244.313 71.901,244.593 72.261 C 245.267 73.128,246.829 75.592,247.915 77.500 C 248.149 77.912,248.500 78.512,248.694 78.833 C 248.888 79.154,249.247 79.792,249.493 80.250 C 249.738 80.708,250.211 81.590,250.545 82.208 C 250.879 82.827,251.119 83.333,251.079 83.333 C 251.039 83.333,251.153 83.577,251.332 83.875 C 251.632 84.375,252.239 85.607,252.996 87.250 C 253.314 87.941,254.984 91.834,255.713 93.583 C 255.942 94.133,256.260 94.996,256.420 95.500 C 256.580 96.004,256.767 96.492,256.836 96.583 C 256.904 96.675,257.243 97.612,257.587 98.667 C 257.932 99.721,258.309 100.771,258.424 101.000 C 258.539 101.229,258.721 101.754,258.829 102.167 C 258.936 102.579,259.349 103.967,259.747 105.250 C 260.145 106.533,260.511 107.771,260.559 108.000 C 260.608 108.229,260.878 109.204,261.160 110.167 C 261.949 112.864,262.937 116.484,263.162 117.500 C 263.273 118.004,263.433 118.642,263.516 118.917 C 263.663 119.400,264.839 124.302,265.176 125.833 C 265.267 126.246,265.520 127.333,265.738 128.250 C 265.957 129.167,266.332 130.967,266.572 132.250 C 266.812 133.533,267.078 134.846,267.165 135.167 C 267.352 135.859,267.596 137.063,267.942 139.000 C 268.081 139.779,268.261 140.792,268.343 141.250 C 268.425 141.708,268.607 142.683,268.749 143.417 C 269.104 145.263,269.423 147.231,269.748 149.583 C 269.899 150.683,270.125 152.146,270.248 152.833 C 270.371 153.521,270.518 154.533,270.575 155.083 C 270.678 156.082,270.967 158.270,271.413 161.417 C 271.661 163.162,271.951 165.828,272.093 167.667 C 272.139 168.262,272.246 169.650,272.331 170.750 C 272.415 171.850,272.568 173.762,272.670 175.000 C 273.020 179.252,272.948 184.101,272.520 185.167 C 272.318 185.671,272.109 186.215,272.057 186.375 C 272.004 186.535,271.895 186.667,271.814 186.667 C 271.733 186.667,271.667 186.750,271.667 186.851 C 271.667 187.376,269.940 188.820,268.750 189.290 C 265.625 190.523,253.333 189.898,253.333 188.506 C 253.333 188.432,253.193 188.335,253.020 188.290 C 252.620 188.186,251.374 186.617,251.003 185.750 C 250.401 184.345,250.141 182.293,249.568 174.417 C 249.213 169.541,248.111 158.487,247.500 153.667 C 247.166 151.033,246.772 147.675,246.336 143.750 C 246.234 142.833,246.119 141.971,246.080 141.833 C 246.041 141.696,245.891 140.646,245.747 139.500 C 245.603 138.354,245.331 136.292,245.142 134.917 C 244.953 133.542,244.739 131.817,244.667 131.083 C 244.594 130.350,244.450 129.262,244.347 128.667 C 244.245 128.071,244.084 127.058,243.991 126.417 C 243.241 121.257,242.132 114.759,241.900 114.167 C 241.846 114.029,241.740 113.542,241.665 113.083 C 241.426 111.639,241.038 109.786,240.763 108.779 C 240.617 108.245,240.383 107.233,240.242 106.529 C 240.101 105.826,239.940 105.138,239.884 105.000 C 239.829 104.862,239.764 104.675,239.742 104.583 C 239.492 103.571,239.131 102.174,238.838 101.083 C 238.641 100.350,238.417 99.450,238.341 99.083 C 238.217 98.486,238.052 97.963,237.658 96.917 C 237.550 96.629,237.040 94.918,236.243 92.167 C 235.809 90.667,234.839 88.020,234.508 87.431 C 234.321 87.099,234.186 86.772,234.207 86.705 C 234.260 86.534,233.285 84.262,233.128 84.194 C 233.058 84.164,233.000 84.027,233.000 83.889 C 233.000 83.447,231.283 80.391,230.347 79.167 C 228.190 76.346,227.206 76.047,225.633 77.738 C 224.895 78.531,223.082 81.183,222.834 81.833 C 222.711 82.154,222.551 82.496,222.478 82.593 C 222.240 82.910,220.212 87.819,219.969 88.667 C 219.877 88.987,219.702 89.475,219.580 89.750 C 219.308 90.365,218.221 93.903,217.904 95.207 C 217.776 95.733,217.516 96.623,217.327 97.185 C 216.959 98.279,215.546 103.921,214.681 107.750 C 214.392 109.033,214.049 110.533,213.921 111.083 C 213.709 111.988,213.456 113.411,213.269 114.750 C 213.231 115.025,213.084 115.775,212.944 116.417 C 212.676 117.638,212.140 121.410,211.831 124.250 C 211.731 125.167,211.580 126.367,211.495 126.917 C 211.410 127.467,211.266 128.704,211.174 129.667 C 210.966 131.840,210.898 132.616,210.492 137.479 C 210.390 138.704,210.281 139.839,210.250 140.000 C 210.026 141.162,209.698 150.981,209.482 163.000 C 209.208 178.202,209.132 178.752,207.038 180.670 C 205.123 182.422,203.976 182.662,197.476 182.670 C 191.199 182.678,189.434 182.470,187.962 181.554 C 187.620 181.341,187.292 181.167,187.234 181.167 C 186.998 181.167,185.997 179.907,185.532 179.024 C 184.675 177.401,184.497 175.646,184.251 166.417 C 184.160 163.002,184.014 159.133,183.911 157.417 C 183.873 156.775,183.726 154.150,183.585 151.583 C 183.357 147.429,183.144 144.127,182.925 141.333 C 182.885 140.829,182.804 139.554,182.744 138.500 C 182.608 136.112,182.585 135.823,182.358 133.667 C 182.257 132.704,182.098 131.129,182.006 130.167 C 181.554 125.467,181.094 121.759,180.651 119.250 C 180.473 118.242,180.292 117.117,180.247 116.750 C 180.141 115.870,179.321 111.487,179.202 111.167 C 179.152 111.029,178.978 110.242,178.817 109.417 C 178.415 107.362,177.756 104.503,177.339 103.000 C 177.148 102.313,176.926 101.375,176.845 100.917 C 176.764 100.458,176.624 99.896,176.535 99.667 C 176.445 99.438,176.205 98.612,176.001 97.833 C 175.455 95.750,173.506 89.399,173.162 88.583 C 173.085 88.400,172.682 87.375,172.267 86.305 C 170.538 81.847,169.349 79.792,167.197 77.542 C 165.677 75.952,164.256 76.605,162.250 79.817 C 162.158 79.963,162.042 80.121,161.991 80.167 C 161.580 80.539,159.398 84.899,158.780 86.583 C 158.545 87.225,158.048 88.537,157.676 89.500 C 157.304 90.462,157.000 91.344,157.000 91.460 C 157.000 91.576,156.923 91.801,156.829 91.961 C 156.683 92.207,156.309 93.372,155.668 95.583 C 155.588 95.858,155.400 96.496,155.250 97.000 C 154.982 97.899,154.128 101.017,153.834 102.167 C 153.752 102.487,153.564 103.200,153.415 103.750 C 152.952 105.471,152.316 108.062,152.230 108.583 C 152.153 109.047,151.677 111.143,151.341 112.500 C 151.261 112.821,151.034 114.058,150.835 115.250 C 150.636 116.442,150.367 117.782,150.237 118.227 C 150.107 118.673,149.998 119.273,149.996 119.561 C 149.994 119.848,149.922 120.384,149.837 120.752 C 149.752 121.119,149.526 122.544,149.334 123.918 C 149.143 125.292,148.871 127.054,148.730 127.833 C 148.589 128.612,148.452 129.550,148.426 129.917 C 148.399 130.283,148.255 131.446,148.106 132.500 C 147.735 135.120,147.719 135.236,147.513 136.750 C 147.413 137.483,147.289 138.421,147.237 138.833 C 147.186 139.246,147.081 140.033,147.004 140.583 C 146.928 141.133,146.859 141.696,146.853 141.833 C 146.846 141.971,146.773 142.608,146.691 143.250 C 146.609 143.892,146.342 146.104,146.098 148.167 C 145.854 150.229,145.625 152.029,145.589 152.167 C 145.552 152.304,145.472 153.129,145.410 154.000 C 145.348 154.871,145.272 155.627,145.240 155.680 C 145.208 155.733,145.137 156.258,145.082 156.846 C 145.027 157.435,144.915 158.442,144.834 159.083 C 144.671 160.363,144.488 162.180,144.409 163.304 C 144.381 163.700,144.315 164.300,144.262 164.637 C 144.209 164.974,144.130 165.775,144.086 166.417 C 144.042 167.058,143.933 168.296,143.843 169.167 C 143.563 171.905,143.347 174.310,143.082 177.667 C 142.870 180.357,142.728 181.932,142.579 183.250 C 142.377 185.048,141.597 186.769,140.522 187.790 C 138.577 189.639,137.440 189.876,130.500 189.881 C 122.707 189.887,120.932 189.323,119.433 186.366 C 118.707 184.933,118.394 178.230,118.938 175.777 C 119.005 175.475,119.386 171.869,119.742 168.167 C 119.830 167.246,119.985 166.105,120.419 163.167 C 120.547 162.296,120.700 161.133,120.757 160.583 C 120.814 160.033,120.966 159.171,121.094 158.667 C 121.222 158.162,121.360 157.375,121.400 156.917 C 121.475 156.072,121.609 155.221,122.073 152.666 C 122.215 151.886,122.358 151.024,122.391 150.749 C 122.425 150.475,122.571 149.688,122.717 149.000 C 122.862 148.313,123.101 147.075,123.247 146.250 C 123.393 145.425,123.580 144.450,123.664 144.083 C 123.748 143.717,123.902 142.892,124.006 142.250 C 124.111 141.608,124.268 140.783,124.355 140.417 C 124.759 138.715,125.651 134.508,125.769 133.750 C 125.812 133.475,125.918 133.100,126.004 132.917 C 126.091 132.733,126.231 132.171,126.316 131.667 C 126.468 130.761,126.961 128.656,127.781 125.417 C 128.013 124.500,128.265 123.394,128.341 122.959 C 128.417 122.524,128.525 122.094,128.581 122.003 C 128.637 121.913,128.790 121.369,128.920 120.794 C 129.204 119.545,129.738 117.516,129.874 117.167 C 129.928 117.029,130.158 116.167,130.386 115.250 C 130.613 114.333,130.956 113.021,131.147 112.333 C 131.338 111.646,131.717 110.258,131.990 109.250 C 132.263 108.242,132.634 106.967,132.814 106.417 C 132.994 105.867,133.452 104.404,133.833 103.167 C 134.213 101.929,134.631 100.670,134.762 100.369 C 134.893 100.068,135.000 99.679,135.000 99.504 C 135.000 99.329,135.065 99.146,135.144 99.097 C 135.259 99.026,135.721 97.677,135.749 97.333 C 135.752 97.287,135.803 97.175,135.862 97.082 C 135.921 96.990,136.156 96.380,136.385 95.726 C 136.613 95.072,136.920 94.266,137.067 93.935 C 137.602 92.726,137.799 92.241,137.919 91.833 C 137.986 91.604,138.094 91.342,138.160 91.250 C 138.225 91.158,138.451 90.633,138.661 90.083 C 138.998 89.205,141.710 83.492,142.717 81.540 C 144.596 77.900,146.569 74.700,148.898 71.513 C 150.013 69.987,150.260 69.679,151.194 68.656 C 151.438 68.389,151.663 68.099,151.694 68.012 C 151.786 67.751,154.001 65.500,154.165 65.500 C 154.249 65.500,154.377 65.404,154.450 65.286 C 154.655 64.957,156.843 63.155,157.280 62.956 C 157.492 62.859,157.667 62.726,157.667 62.659 C 157.667 62.593,157.798 62.493,157.958 62.437 C 158.119 62.380,158.550 62.152,158.917 61.929 C 162.227 59.914,166.129 59.299,169.981 60.184 M146.554 93.698 C 145.485 95.517,142.140 104.426,140.027 111.083 C 138.714 115.221,138.016 117.657,137.099 121.301 C 136.862 122.246,136.562 123.371,136.434 123.801 C 136.061 125.050,135.719 126.404,135.078 129.167 C 134.748 130.587,134.370 132.162,134.238 132.667 C 134.105 133.171,133.852 134.258,133.674 135.083 C 133.496 135.908,133.152 137.446,132.909 138.500 C 132.667 139.554,132.409 140.754,132.335 141.167 C 132.262 141.579,131.998 142.854,131.749 144.000 C 131.264 146.231,131.273 146.187,130.592 149.833 C 130.120 152.359,130.066 152.662,129.500 155.917 C 128.115 163.891,126.712 175.394,126.775 178.250 C 126.837 181.039,127.106 181.667,128.239 181.667 C 128.533 181.667,129.133 181.789,129.572 181.939 C 130.315 182.192,130.467 182.191,131.730 181.926 C 132.477 181.769,133.162 181.655,133.253 181.673 C 133.847 181.792,134.728 180.956,134.592 180.401 C 134.545 180.209,134.646 179.647,134.816 179.151 C 134.997 178.624,135.208 177.247,135.325 175.833 C 135.833 169.668,136.181 165.944,136.596 162.206 C 136.827 160.131,137.085 157.659,137.271 155.750 C 137.315 155.292,137.453 154.017,137.577 152.917 C 137.701 151.817,137.998 149.154,138.237 147.000 C 138.476 144.846,138.753 142.446,138.852 141.667 C 138.951 140.887,139.067 139.912,139.110 139.500 C 139.154 139.087,139.262 138.262,139.352 137.667 C 139.538 136.429,139.545 136.372,140.009 132.667 C 140.715 127.026,141.614 120.616,142.065 118.000 C 142.200 117.221,142.360 116.133,142.421 115.583 C 142.482 115.033,142.634 114.096,142.758 113.500 C 142.883 112.904,143.178 111.367,143.414 110.083 C 144.249 105.543,144.867 102.705,145.863 98.833 C 146.417 96.679,146.945 94.591,147.036 94.192 C 147.256 93.223,146.992 92.952,146.554 93.698 M245.833 93.621 C 245.833 93.688,246.391 95.994,247.072 98.746 C 248.270 103.584,248.918 106.627,249.681 111.000 C 249.880 112.146,250.106 113.421,250.183 113.833 C 250.260 114.246,250.367 114.921,250.421 115.333 C 250.475 115.746,250.590 116.383,250.677 116.750 C 250.764 117.117,250.954 118.279,251.100 119.333 C 251.245 120.388,251.423 121.625,251.496 122.083 C 251.569 122.542,251.825 124.492,252.066 126.417 C 252.306 128.342,252.573 130.292,252.659 130.750 C 252.744 131.208,252.970 132.821,253.160 134.333 C 253.350 135.846,253.724 138.808,253.990 140.917 C 254.514 145.070,254.925 148.501,255.088 150.083 C 255.145 150.633,255.223 151.308,255.262 151.583 C 255.424 152.723,256.196 160.052,256.333 161.750 C 256.415 162.758,256.632 165.121,256.817 167.000 C 257.396 172.888,257.676 176.039,257.735 177.333 C 257.771 178.117,257.905 178.800,258.094 179.164 C 258.260 179.483,258.380 179.990,258.359 180.291 C 258.305 181.102,258.922 181.658,259.862 181.645 C 260.259 181.640,260.771 181.708,261.000 181.796 C 261.291 181.908,261.654 181.886,262.202 181.723 C 262.634 181.595,263.164 181.535,263.380 181.589 C 264.037 181.754,264.583 181.174,264.526 180.373 C 264.499 180.008,264.591 179.438,264.729 179.107 C 265.113 178.189,264.189 166.002,263.319 160.502 C 263.224 159.907,263.084 158.932,263.005 158.335 C 262.927 157.738,262.711 156.200,262.524 154.917 C 262.337 153.633,262.147 152.283,262.101 151.917 C 262.021 151.287,260.952 144.948,260.654 143.333 C 260.577 142.921,260.433 142.133,260.333 141.583 C 259.981 139.639,259.866 139.066,259.499 137.417 C 259.295 136.500,259.069 135.375,258.997 134.917 C 258.925 134.458,258.662 133.221,258.413 132.167 C 258.163 131.112,257.854 129.762,257.725 129.167 C 256.882 125.275,256.210 122.608,254.744 117.333 C 253.407 112.522,252.928 111.004,250.828 104.917 C 249.138 100.017,246.886 94.406,246.363 93.792 C 246.109 93.493,245.833 93.404,245.833 93.621 M145.852 97.774 C 144.528 102.688,142.865 110.148,142.162 114.333 C 141.303 119.445,140.335 125.899,139.663 131.000 C 139.391 133.063,139.018 135.875,138.836 137.250 C 138.653 138.625,138.199 142.750,137.828 146.417 C 137.457 150.083,137.086 153.683,137.003 154.417 C 136.921 155.150,136.657 157.625,136.418 159.917 C 135.994 163.973,135.795 166.048,135.262 171.938 C 134.743 177.685,134.433 178.771,133.119 179.439 C 132.659 179.673,132.256 180.015,132.168 180.246 C 131.833 181.128,129.500 181.367,129.500 180.519 C 129.500 180.073,129.000 179.483,128.416 179.239 C 126.802 178.565,127.559 168.463,130.350 153.417 C 131.193 148.874,131.364 147.998,131.668 146.667 C 131.846 145.887,132.407 143.375,132.915 141.083 C 133.423 138.792,133.909 136.617,133.995 136.250 C 134.080 135.883,134.348 134.683,134.590 133.583 C 135.122 131.164,137.643 120.967,138.341 118.417 C 138.617 117.408,138.914 116.321,139.001 116.000 C 139.802 113.048,143.553 101.482,144.432 99.250 C 146.585 93.788,147.058 93.296,145.852 97.774 M248.032 98.208 C 251.010 105.745,254.193 116.275,256.558 126.417 C 257.229 129.293,258.203 133.683,258.334 134.417 C 258.399 134.783,258.683 136.208,258.965 137.583 C 259.895 142.117,261.325 150.064,261.678 152.667 C 261.759 153.262,261.904 154.200,261.999 154.750 C 263.118 161.193,264.170 171.153,264.156 175.167 C 264.147 177.937,263.982 178.635,263.256 178.982 C 262.985 179.112,262.573 179.395,262.341 179.609 C 261.810 180.102,261.492 180.100,260.525 179.598 C 260.099 179.377,259.550 179.119,259.306 179.025 C 258.591 178.749,258.249 177.150,257.749 171.750 C 257.498 169.032,257.021 163.963,256.329 156.667 C 255.772 150.783,255.075 144.651,254.503 140.583 C 254.413 139.942,254.222 138.479,254.079 137.333 C 253.496 132.668,251.764 120.225,251.503 118.833 C 251.409 118.329,251.177 116.942,250.988 115.750 C 250.256 111.137,248.405 102.583,247.070 97.643 C 246.037 93.825,246.379 94.026,248.032 98.208 M207.030 99.875 C 206.565 100.995,205.833 103.191,204.765 106.667 C 204.526 107.446,203.732 110.521,203.002 113.500 C 202.272 116.479,201.550 119.404,201.398 120.000 C 201.246 120.596,201.058 121.421,200.980 121.833 C 200.848 122.526,200.060 123.500,199.630 123.500 C 199.557 123.500,199.187 123.725,198.807 124.000 C 198.427 124.275,197.973 124.500,197.797 124.500 C 197.622 124.500,197.330 124.579,197.149 124.676 C 196.366 125.095,194.444 124.526,193.430 123.575 C 192.924 123.100,192.481 122.742,192.444 122.778 C 192.282 122.940,191.249 118.944,190.584 115.583 C 189.918 112.213,187.194 103.041,186.388 101.453 C 186.102 100.889,185.849 100.987,185.956 101.621 C 186.047 102.161,186.868 106.086,187.342 108.250 C 188.382 112.995,189.409 120.009,189.587 123.583 C 189.735 126.542,190.159 132.853,190.332 134.667 C 190.640 137.887,191.093 144.442,191.336 149.167 C 191.432 151.046,191.582 153.858,191.670 155.417 C 191.757 156.975,191.903 160.275,191.995 162.750 C 192.249 169.562,192.358 171.387,192.534 171.723 C 192.622 171.892,192.694 172.373,192.694 172.792 C 192.694 173.703,193.367 174.547,193.968 174.390 C 194.158 174.340,194.859 174.468,195.525 174.674 C 196.716 175.043,196.756 175.045,197.910 174.764 C 198.555 174.608,199.346 174.466,199.667 174.450 C 200.431 174.410,201.000 173.833,201.000 173.096 C 201.000 172.791,201.113 172.222,201.251 171.831 C 201.513 171.087,201.595 168.667,201.741 157.333 C 201.823 150.997,202.087 144.206,202.418 139.917 C 202.968 132.805,203.164 130.110,203.333 127.333 C 203.865 118.595,204.751 112.557,206.755 104.000 C 207.416 101.181,207.842 98.667,207.659 98.667 C 207.589 98.667,207.306 99.210,207.030 99.875 M206.911 101.792 C 206.853 102.135,206.480 103.917,206.080 105.750 C 203.998 115.311,202.669 124.960,202.666 130.552 C 202.665 131.302,202.557 133.154,202.424 134.667 C 201.708 142.860,201.565 146.083,201.328 159.417 C 201.118 171.214,200.978 172.333,199.716 172.333 C 199.268 172.333,199.096 172.448,198.744 172.980 C 197.958 174.168,196.177 174.195,195.146 173.036 C 194.836 172.688,194.334 172.229,194.030 172.015 C 192.901 171.224,192.705 170.139,192.418 163.083 C 191.969 152.025,191.295 140.870,190.586 132.750 C 190.546 132.292,190.473 130.792,190.423 129.417 C 190.195 123.154,189.201 115.856,187.431 107.454 C 186.635 103.676,186.527 102.886,186.923 103.750 C 187.497 105.002,189.959 113.535,190.386 115.750 C 190.518 116.434,191.812 122.669,191.909 123.087 C 192.293 124.741,194.303 126.058,196.382 126.018 C 197.894 125.988,199.500 125.536,199.500 125.140 C 199.500 125.063,199.594 124.998,199.708 124.996 C 200.291 124.986,200.965 123.448,201.567 120.750 C 202.576 116.234,203.474 112.484,204.184 109.833 C 205.715 104.113,207.307 99.417,206.911 101.792 " stroke="none" fill="#320404" fill-rule="evenodd"></path></g></svg>