<svg height="512" viewBox="0 0 512 512" width="512" xmlns="http://www.w3.org/2000/svg"><g id="flat"><path d="m340 268h120v80h-120z" fill="#ffbfa1" transform="matrix(0 -1 1 0 92 708)"/><path d="m80 80h120v72h-120z" fill="#ffbfa1"/><path d="m208 240v80l-64 64-80-40v-118.86293a17.13707 17.13707 0 0 1 17.13707-17.13707 17.13707 17.13707 0 0 1 16.96483 14.71352l5.8981 41.28648 32-24z" fill="#ffceb6"/><path d="m135.5848 328a7.98422 7.98422 0 0 1 -7.94821-7.17225 72.50186 72.50186 0 0 0 -22.91685-45.83375 7.98423 7.98423 0 0 1 -.96886-10.66179l.00308-.00411a7.98142 7.98142 0 0 1 11.76982-1.1337 88.6105 88.6105 0 0 1 28.02578 55.97806 8.01108 8.01108 0 0 1 -7.96476 8.82754z" fill="#ffb089"/><path d="m64 344 80 40-48 104h-72v-88z" fill="#548aff"/><path d="m280 168h-136a136.05612 136.05612 0 0 1 92.98-129.06006z" fill="#ef5e3b"/><path d="m80 120h35.14941a53.90211 53.90211 0 0 0 44.8519-24.00654l31.99608.00654a16 16 0 0 0 16.00261-16 16 16 0 0 0 -15.99736-16l47.99708-.00059a15.99969 15.99969 0 0 0 16.00028-15.99968 15.9997 15.9997 0 0 0 -15.99969-15.99973h-80.90414a88 88 0 0 0 -73.22043 39.18639l-5.87574 8.81361z" fill="#ffceb6"/><path d="m159.09619 24h80.35866c13.42612 0 24.76843 10.98668 24.54167 24.41088a24.0285 24.0285 0 0 1 -23.997 23.58864l-71.99971-.00176a8 8 0 0 1 -7.9998-8 8 8 0 0 1 8.00019-8l71.71734.00175a8.18884 8.18884 0 0 0 8.26409-7.45228 8.0079 8.0079 0 0 0 -7.98114-8.54723h-80.9043a79.83971 79.83971 0 0 0 -66.564 35.624l-21.186 31.77832-13.3125-8.875 21.18604-31.77832a95.80693 95.80693 0 0 1 79.87646-42.749z" fill="#ffb089"/><path d="m24 80h56v72h-56z" fill="#548aff"/><path d="m456 184a136.0217 136.0217 0 0 1 -215.06 110.67993l79.06-110.67993-43.02-129.06006a136.11235 136.11235 0 0 1 179.02 129.06006z" fill="#ffc431"/><path d="m400 368v-35.14941a53.90211 53.90211 0 0 1 24.00654-44.8519l-.00654-31.99608a16 16 0 0 1 16-16.00261 16 16 0 0 1 16 15.99736l.00059-47.99708a15.99969 15.99969 0 0 1 15.99968-16.00028 15.9997 15.9997 0 0 1 15.99973 15.99969v80.90414a88 88 0 0 1 -39.18639 73.22043l-8.81361 5.87574z" fill="#ffceb6"/><path d="m496 288.90381v-80.35866c0-13.42612-10.98668-24.76843-24.41088-24.54167a24.0285 24.0285 0 0 0 -23.58864 23.997l.00176 71.99971a8 8 0 0 0 8 7.9998 8 8 0 0 0 8-8.00019l-.00175-71.71734a8.18884 8.18884 0 0 1 7.45228-8.26409 8.0079 8.0079 0 0 1 8.54723 7.98114v80.9043a79.83971 79.83971 0 0 1 -35.624 66.564l-31.77832 21.186 8.875 13.3125 31.77832-21.186a95.80693 95.80693 0 0 0 42.749-79.8765z" fill="#ffb089"/><path d="m360 368h88v120h-88z" fill="#548aff"/><path d="m264 200-79.06 110.67993a135.86991 135.86991 0 0 1 -56.94-110.67993z" fill="#02c26a"/></g></svg>