<?xml version="1.0" encoding="iso-8859-1"?>
<!-- Generator: Adobe Illustrator 19.0.0, SVG Export Plug-In . SVG Version: 6.00 Build 0)  -->
<svg version="1.1" id="Layer_1" xmlns="http://www.w3.org/2000/svg" xmlns:xlink="http://www.w3.org/1999/xlink" x="0px" y="0px"
	 viewBox="0 0 512.021 512.021" style="enable-background:new 0 0 512.021 512.021;" xml:space="preserve">
<path style="fill:#FDC794;" d="M512,329.773V225.638c0-16.488-13.885-34.712-30.373-34.712c-16.488,0-30.373,17.356-30.373,33.844
	v-42.522c0-16.488-13.885-34.712-30.373-34.712c-16.488,0-30.373,18.224-30.373,34.712v60.746v-95.458
	c0-16.488-13.885-34.712-30.373-34.712s-30.373,18.224-30.373,34.712V43.401c0-16.488-13.885-34.712-30.373-34.712
	s-30.373,18.224-30.373,34.712v242.983c0-24.298-20.827-72.895-43.39-95.458c-19.092-19.092-72.895-6.075-43.39,34.712
	c20.827,28.637,34.712,89.383,34.712,121.492c0,77.234,60.746,104.136,60.746,104.136v60.746h208.271v-60.746l0,0
	C513.736,413.95,512,415.685,512,329.773"/>
<g>
	<path style="fill:#71C386;" d="M95.458,69.434c-5.207,0-8.678-3.471-8.678-8.678V8.689c0-5.207,3.471-8.678,8.678-8.678
		c5.207,0,8.678,3.471,8.678,8.678v52.068C104.136,65.963,100.664,69.434,95.458,69.434"/>
	<path style="fill:#71C386;" d="M95.458,190.926c-5.207,0-8.678-3.471-8.678-8.678V130.18c0-5.207,3.471-8.678,8.678-8.678
		c5.207,0,8.678,3.471,8.678,8.678v52.068C104.136,187.455,100.664,190.926,95.458,190.926"/>
	<path style="fill:#71C386;" d="M121.492,43.401c-2.603,0-4.339-0.868-6.075-2.603L95.458,20.838L75.498,40.797
		c-3.471,3.471-8.678,3.471-12.149,0c-3.471-3.471-3.471-8.678,0-12.149L89.383,2.614c3.471-3.471,8.678-3.471,12.149,0
		l26.034,26.034c3.471,3.471,3.471,8.678,0,12.149C125.831,42.533,124.095,43.401,121.492,43.401"/>
	<path style="fill:#71C386;" d="M95.458,190.926c-2.603,0-4.339-0.868-6.075-2.603l-26.034-26.034
		c-3.471-3.471-3.471-8.678,0-12.149c3.471-3.471,8.678-3.471,12.149,0l19.959,19.959l19.959-19.959
		c3.471-3.471,8.678-3.471,12.149,0c3.471,3.471,3.471,8.678,0,12.149l-26.034,26.034C99.797,190.058,98.061,190.926,95.458,190.926
		"/>
	<path style="fill:#71C386;" d="M60.746,104.146H8.678c-5.207,0-8.678-3.471-8.678-8.678c0-5.207,3.471-8.678,8.678-8.678h52.068
		c5.207,0,8.678,3.471,8.678,8.678C69.424,100.675,65.953,104.146,60.746,104.146"/>
	<path style="fill:#71C386;" d="M182.237,104.146h-52.068c-5.207,0-8.678-3.471-8.678-8.678c0-5.207,3.471-8.678,8.678-8.678h52.068
		c5.207,0,8.678,3.471,8.678,8.678C190.915,100.675,187.444,104.146,182.237,104.146"/>
	<path style="fill:#71C386;" d="M34.712,130.18c-2.603,0-4.339-0.868-6.075-2.603L2.603,101.543c-3.471-3.471-3.471-8.678,0-12.149
		L28.637,63.36c3.471-3.471,8.678-3.471,12.149,0c3.471,3.471,3.471,8.678,0,12.149L20.827,95.468l19.959,19.959
		c3.471,3.471,3.471,8.678,0,12.149C39.051,129.312,37.315,130.18,34.712,130.18"/>
	<path style="fill:#71C386;" d="M156.203,130.18c-2.603,0-4.339-0.868-6.075-2.603c-3.471-3.471-3.471-8.678,0-12.149l19.959-19.959
		l-19.959-19.959c-3.471-3.471-3.471-8.678,0-12.149c3.471-3.471,8.678-3.471,12.149,0l26.034,26.034
		c3.471,3.471,3.471,8.678,0,12.149l-26.034,26.034C160.542,129.312,158.807,130.18,156.203,130.18"/>
</g>
<g>
	<path style="fill:#F9A671;" d="M390.508,442.587h-26.034c-5.207,0-8.678-3.471-8.678-8.678c0-5.207,3.471-8.678,8.678-8.678h26.034
		c5.207,0,8.678,3.471,8.678,8.678C399.186,439.116,395.715,442.587,390.508,442.587"/>
	<path style="fill:#F9A671;" d="M399.186,477.299h-43.39c-5.207,0-8.678-3.471-8.678-8.678s3.471-8.678,8.678-8.678h43.39
		c5.207,0,8.678,3.471,8.678,8.678S404.393,477.299,399.186,477.299"/>
	<path style="fill:#F9A671;" d="M329.763,303.74c-5.207,0-8.678-3.471-8.678-8.678V138.858c0-5.207,3.471-8.678,8.678-8.678
		c5.207,0,8.678,3.471,8.678,8.678v156.203C338.441,300.268,334.969,303.74,329.763,303.74"/>
	<path style="fill:#F9A671;" d="M390.508,312.417c-5.207,0-8.678-3.471-8.678-8.678V173.57c0-5.207,3.471-8.678,8.678-8.678
		c5.207,0,8.678,3.471,8.678,8.678V303.74C399.186,308.946,395.715,312.417,390.508,312.417"/>
	<path style="fill:#F9A671;" d="M451.254,329.773c-5.207,0-8.678-3.471-8.678-8.678V216.96c0-5.207,3.471-8.678,8.678-8.678
		s8.678,3.471,8.678,8.678v104.136C459.932,326.302,456.461,329.773,451.254,329.773"/>
</g>
<g>
</g>
<g>
</g>
<g>
</g>
<g>
</g>
<g>
</g>
<g>
</g>
<g>
</g>
<g>
</g>
<g>
</g>
<g>
</g>
<g>
</g>
<g>
</g>
<g>
</g>
<g>
</g>
<g>
</g>
</svg>
