<?xml version="1.0" encoding="iso-8859-1"?>
<!-- Generator: Adobe Illustrator 19.0.0, SVG Export Plug-In . SVG Version: 6.00 Build 0)  -->
<svg version="1.1" id="Capa_1" xmlns="http://www.w3.org/2000/svg" xmlns:xlink="http://www.w3.org/1999/xlink" x="0px" y="0px"
	 viewBox="0 0 512 512" style="enable-background:new 0 0 512 512;" xml:space="preserve">
<symbol id="svg-line" viewBox="0 0 512 512">
<g>
	<g>
		<path d="M178.118,441.409l320.691-322.143c17.586-17.584,17.589-46.05,0-63.636l-42.424-42.426
			C438.842-4.34,410.294-4.34,392.725,13.229c-96.197,96.632-224.74,225.758-320.942,322.395c-1.122,1.125-2.327,2.814-3.063,4.46
			c-0.7,1.566-67.084,150.04-67.444,150.863c-4.372,9.988,3.054,21.004,13.744,21.004c0.003,0,0.006,0,0.01,0h361.968
			c8.284,0,14.999-6.716,14.999-14.999c0-8.284-6.716-14.999-14.999-14.999H87.429l85.79-37.133
			C175.053,444.024,176.787,442.786,178.118,441.409z M413.961,34.417c5.849-5.849,15.364-5.848,21.213,0l42.424,42.425
			c5.771,5.771,5.961,15.251-0.024,21.236l-31.722,31.865l-63.637-63.636L413.961,34.417z M361.051,87.566l63.637,63.636
			l-42.329,42.521l-63.637-63.636L361.051,87.566z M44.448,467.867l42.765-95.649l53.837,53.837L44.448,467.867z M103.601,346.182
			l193.958-194.835l63.637,63.636L167.238,409.817L103.601,346.182z"/>
	</g>
</g>
<g>
</g>
<g>
</g>
<g>
</g>
<g>
</g>
<g>
</g>
<g>
</g>
<g>
</g>
<g>
</g>
<g>
</g>
<g>
</g>
<g>
</g>
<g>
</g>
<g>
</g>
<g>
</g>
<g>
</g>
</symbol>
</svg>
