<?xml version="1.0" encoding="iso-8859-1"?>
<!-- Generator: Adobe Illustrator 19.0.0, SVG Export Plug-In . SVG Version: 6.00 Build 0)  -->
<svg version="1.1" id="Capa_1" xmlns="http://www.w3.org/2000/svg" xmlns:xlink="http://www.w3.org/1999/xlink" x="0px" y="0px"
	 viewBox="0 0 511.999 511.999" style="enable-background:new 0 0 511.999 511.999;" xml:space="preserve">
	<symbol id="svg-line-a" viewBox="0 0 511.999 511.999" >
<path style="fill:#FE52A2;" d="M498.95,118.812c-11.698,11.399-20.399,20.399-32.099,31.799c-7.5-3.3-13.498-5.7-20.998-8.699
	l-76.198-76.198c-2.999-7.5-5.4-13.499-8.699-20.999c11.399-11.698,20.399-20.399,31.799-32.097
	c17.099-16.799,46.798-16.799,63.597,0l21.3,21.298l21.298,21.3C516.349,72.615,516.349,101.111,498.95,118.812z"/>
<path style="fill:#FE318F;" d="M498.95,118.812c-11.698,11.399-20.399,20.399-32.099,31.799c-7.5-3.3-13.498-5.7-20.998-8.699
	l-38.099-38.099l69.898-69.898l21.298,21.3C516.349,72.615,516.349,101.111,498.95,118.812z"/>
<polygon style="fill:#CAE8F9;" points="466.851,150.61 403.254,214.207 382.256,205.509 306.059,129.311 297.36,108.313 
	360.957,44.714 413.755,97.513 "/>
<polygon style="fill:#B7E0F6;" points="466.851,150.61 403.254,214.207 382.256,205.509 343.858,167.109 413.755,97.513 "/>
<path style="fill:#17ACE8;" d="M375.006,511.97H15.022c-8.291,0-14.999-6.709-14.999-14.999s6.709-14.999,14.999-14.999h359.984
	c8.291,0,14.999,6.709,14.999,14.999S383.296,511.97,375.006,511.97z"/>
<path style="fill:#B758CE;" d="M297.36,108.313l52.798,52.796l53.097,53.099c0,0-46.547,48.474-96.346,98.271
	c-49.497,49.499-105.295,105.295-128.693,128.994l-44.397,7.5L98.42,413.573l-33.898-34.198l7.5-44.097L297.36,108.313z"/>
<path style="fill:#AA3DC8;" d="M403.254,214.207c0,0-46.547,48.474-96.346,98.271c-49.497,49.499-105.295,105.295-128.693,128.994
	l-44.397,7.5L98.42,413.573L350.159,161.11L403.254,214.207z"/>
<path style="fill:#FEC478;" d="M72.02,335.277c-0.601,0.601-3.3,4.501-3.3,4.799l-4.2,9.3l-42.354,94.742l46.174,46.174
	l95.475-41.319l9.302-4.199c0.3,0,4.497-2.701,5.098-3.301L72.02,335.277z"/>
<path style="fill:#994C0F;" d="M22.166,444.117L1.224,490.97c-2.402,5.4-1.201,12,2.999,16.499c4.501,4.501,11.1,5.7,16.797,3.3
	l47.32-20.478L22.166,444.117z"/>
<path style="fill:#713708;" d="M44.973,466.924l-40.75,40.545c4.501,4.501,11.1,5.7,16.797,3.3l47.32-20.478L44.973,466.924z"/>
<path style="fill:#FEB756;" d="M124.518,387.775l-79.544,79.149l23.367,23.367l95.475-41.319l9.302-4.199
	c0.3,0,4.497-2.701,5.098-3.301L124.518,387.775z"/>
<g>
</g>
<g>
</g>
<g>
</g>
<g>
</g>
<g>
</g>
<g>
</g>
<g>
</g>
<g>
</g>
<g>
</g>
<g>
</g>
<g>
</g>
<g>
</g>
<g>
</g>
<g>
</g>
<g>
</g>
</symbol>
</svg>
