<?xml version="1.0" encoding="iso-8859-1"?>
<!-- Generator: Adobe Illustrator 19.0.0, SVG Export Plug-In . SVG Version: 6.00 Build 0)  -->
<svg version="1.1" id="Capa_1" xmlns="http://www.w3.org/2000/svg" xmlns:xlink="http://www.w3.org/1999/xlink" x="0px" y="0px"
	 viewBox="0 0 512 512" style="enable-background:new 0 0 512 512;" xml:space="preserve">
<g>
	<g>
		<path d="M456.606,154.394l-150-150C303.793,1.58,299.978,0,296,0H66c-8.284,0-15,6.716-15,15v482c0,8.284,6.716,15,15,15h380
			c8.284,0,15-6.716,15-15V165C461,161.021,459.419,157.206,456.606,154.394z M306,271h-35v35c0,8.284-6.716,15-15,15
			s-15-6.716-15-15v-35h-35c-8.284,0-15-6.716-15-15s6.716-15,15-15h35v-35c0-8.284,6.716-15,15-15s15,6.716,15,15v35h35
			c8.284,0,15,6.716,15,15S314.284,271,306,271z"/>
	</g>
</g>
<g>
</g>
<g>
</g>
<g>
</g>
<g>
</g>
<g>
</g>
<g>
</g>
<g>
</g>
<g>
</g>
<g>
</g>
<g>
</g>
<g>
</g>
<g>
</g>
<g>
</g>
<g>
</g>
<g>
</g>
</svg>
