<svg height="512" viewBox="0 0 58 58" width="512" xmlns="http://www.w3.org/2000/svg"><g id="Page-1" fill="none" fill-rule="evenodd"><g id="012---Path-Tool" fill-rule="nonzero"><path id="Shape" d="m23 50-7.89-12.27c-.6921598-1.0880358-.818685-2.4425996-.34-3.64l8.49-21.24c.45001-1.1235961 1.5416604-1.8574455 2.752-1.85.5475928.0065716.9880394.4523678.988 1v18.06c-.0078025.2974004-.1562251.5734664-.4.744-1.2995695.9723892-1.882704 2.6336905-1.476 4.205.3575771 1.4206135 1.4718209 2.5267747 2.895 2.874 1.8526272.4714919 3.7799229-.4338178 4.5999002-2.1607137.8199772-1.7268959.3034088-3.792619-1.2329002-4.9302863-.2349567-.1620995-.3783804-.4266531-.386-.712v-18.08c-.0000394-.5476322.4404072-.9934284.988-1 1.2103396-.0074455 2.30199.7264039 2.752 1.85l8.49 21.24c.478685 1.1974004.3521598 2.5519642-.34 3.64l-7.89 12.27z" fill="#f0c419"/><rect id="Rectangle-path" fill="#3d324c" height="4" rx="1" width="18" x="20" y="50"/><path id="Shape" d="m32 47h-6c-.5522847 0-1-.4477153-1-1s.4477153-1 1-1h6c.5522847 0 1 .4477153 1 1s-.4477153 1-1 1z" fill="#f29c1f"/><path id="Rectangle-path" d="m22 54h14v4h-14z" fill="#804537"/><path id="Shape" d="m54.829 27.01c-.5079943-.0002442-.9350887-.3813174-.993-.886-1.3910639-11.5028828-10.4571172-20.56893612-21.96-21.96-.548971-.06185589-.9438559-.55702896-.882-1.106s.557029-.94385589 1.106-.882c12.4842255 1.38421921 22.3397808 11.2397745 23.724 23.724.0585241.5461142-.3343589 1.037218-.88 1.1-.0380799.0057907-.0764922.0091309-.115.01z" fill="#556080"/><path id="Shape" d="m3.171 27.01c-.03850783-.0008691-.07692015-.0042093-.115-.01-.54868395-.0627041-.94266263-.5583113-.88-1.107 1.38727302-12.4814987 11.2420925-22.33341037 23.724-23.717.548971-.06296045 1.0450395.33102897 1.108.88.0629604.54897104-.331029 1.04503953-.88 1.108-11.5028828 1.39106388-20.56893612 10.4571172-21.96 21.96-.05808257.5062025-.48747929.8877928-.997.886z" fill="#556080"/><g fill="#894b9d"><circle id="Oval" cx="29" cy="3" r="3"/><circle id="Oval" cx="3" cy="29" r="3"/><circle id="Oval" cx="55" cy="29" r="3"/></g></g></g></svg>