<svg height="512" viewBox="0 0 512 512" width="512" xmlns="http://www.w3.org/2000/svg"><g id="flat"><path d="m304 331.156v-35.156h-80v35.156a95.263 95.263 0 0 1 -16 52.844h112a95.263 95.263 0 0 1 -16-52.844z" fill="#645960"/><path d="m304 320h-80v11.156c0 1.618-.056 3.233-.138 4.844h80.276c-.082-1.611-.138-3.226-.138-4.844z" fill="#4b4348"/><path d="m56 24h416a16 16 0 0 1 16 16v248h-448v-248a16 16 0 0 1 16-16z" fill="#e6e6e6"/><g fill="#ccc"><path d="m80 48v48h384v-48z"/><path d="m360 224h104v56h-104z"/><path d="m216 224h112v64h-112z"/><path d="m80 128h104v64h-104z"/><path d="m360 128h104v64h-104z"/><path d="m216 128h112v64h-112z"/><path d="m80 224h104v48h-104z"/></g><path d="m352 232h104v56h-104z" fill="#f55441"/><path d="m208 232h112v64h-112z" fill="#ffaf00"/><path d="m40 280h448v32a16 16 0 0 1 -16 16h-416a16 16 0 0 1 -16-16z" fill="#315a70"/><rect fill="#e6e6e6" height="16" rx="8" width="16" x="256" y="296"/><path d="m72 56v48h384v-48z" fill="#ffaf00"/><path d="m72 136h104v64h-104z" fill="#6ad3d3"/><path d="m352 136h104v64h-104z" fill="#19af19"/><path d="m208 136h112v64h-112z" fill="#f55441"/><path d="m72 232h104v48h-104z" fill="#19af19"/><rect fill="#645960" height="224" rx="16" width="160" x="24" y="264"/><path d="m24 296h160v160h-160z" fill="#e6e6e6"/><path d="m24 440v16h160v-70.015a262.819 262.819 0 0 1 -160 54.015z" fill="#ccc"/><path d="m368 360h80v128h-80z" fill="#e6e6e6"/><path d="m368 442.308v45.692h80v-120.193a265.375 265.375 0 0 1 -80 74.501z" fill="#ccc"/><path d="m368 456h80v32h-80z" fill="#645960"/><rect fill="#e6e6e6" height="16" rx="8" width="16" x="400" y="464"/><path d="m384 384h48v16h-48z" fill="#f55441"/><path d="m384 416h48v16h-48z" fill="#ffaf00"/><rect fill="#e6e6e6" height="16" rx="8" width="16" x="96" y="464"/><path d="m24 296h160v8h-160z" fill="#ccc"/><path d="m56 328h96v32h-96z" fill="#ffaf00"/><path d="m128 384h32v16h-32z" fill="#19af19"/><path d="m128 416h32v16h-32z" fill="#f55441"/><path d="m88 384h32v16h-32z" fill="#f55441"/><path d="m88 416h32v16h-32z" fill="#ffaf00"/><path d="m48 384h32v16h-32z" fill="#6ad3d3"/><path d="m48 416h32v16h-32z" fill="#19af19"/><path d="m421.289 400h10.711v-11.678q-5.177 6.003-10.711 11.678z" fill="#d3463c"/><path d="m384 431.866v.134h48v-16h-27.678q-9.756 8.415-20.322 15.866z" fill="#e59900"/><path d="m88.7 432h31.3v-10.007a262.045 262.045 0 0 1 -31.3 10.007z" fill="#e59900"/><path d="m128 418.711v13.289h32v-16h-25.9q-3.03 1.392-6.1 2.711z" fill="#d3463c"/></g></svg>