<?xml version="1.0" encoding="iso-8859-1"?>
<!-- Generator: Adobe Illustrator 19.0.0, SVG Export Plug-In . SVG Version: 6.00 Build 0)  -->
<svg version="1.1" id="Layer_1" xmlns="http://www.w3.org/2000/svg" xmlns:xlink="http://www.w3.org/1999/xlink" x="0px" y="0px"
	 viewBox="0 0 511.998 511.998" style="enable-background:new 0 0 511.998 511.998;" xml:space="preserve">
	 <symbol id="svg-star" viewBox="0 0 511.998 511.998">
<g>
	<g>
		<path d="M511.572,196.742c-1.007-3.072-3.661-5.316-6.861-5.786l-166.536-24.568L263.67,13.139c-2.85-5.879-12.493-5.879-15.343,0
			l-74.505,153.25L7.286,190.957c-3.2,0.469-5.854,2.714-6.861,5.786c-1.007,3.063-0.196,6.443,2.108,8.721l120.585,119.322
			L94.642,493.31c-0.546,3.208,0.794,6.451,3.43,8.346c2.628,1.903,6.135,2.133,9.003,0.606l148.924-79.488l148.924,79.488
			c1.263,0.674,2.645,1.007,4.019,1.007c1.758,0,3.507-0.546,4.983-1.613c2.637-1.894,3.977-5.137,3.43-8.346L388.88,324.785
			l120.585-119.322C511.768,203.185,512.579,199.806,511.572,196.742z M373.733,315.774c-1.98,1.954-2.876,4.745-2.415,7.484
			l26.317,155.767l-137.617-73.446c-1.263-0.674-2.637-1.007-4.019-1.007s-2.756,0.333-4.019,1.007l-137.617,73.446l26.317-155.767
			c0.461-2.739-0.435-5.53-2.415-7.484l-111.59-110.43l154.095-22.733c2.79-0.41,5.197-2.176,6.426-4.71l68.804-141.517
			l68.804,141.517c1.229,2.534,3.635,4.301,6.426,4.71l154.095,22.733L373.733,315.774z"/>
	</g>
</g>
<g>
</g>
<g>
</g>
<g>
</g>
<g>
</g>
<g>
</g>
<g>
</g>
<g>
</g>
<g>
</g>
<g>
</g>
<g>
</g>
<g>
</g>
<g>
</g>
<g>
</g>
<g>
</g>
<g>
</g>
</symbol>
</svg>
