<svg id="Capa_1" enable-background="new 0 0 512 512" height="512" viewBox="0 0 512 512" width="512" xmlns="http://www.w3.org/2000/svg"><g><g><path d="m91 211h90v-30h30v150h-30v90h150v-90h-30v-150h30v30h90v-120h-330z" fill="#55147e"/></g><g><g><g><path d="m452 75h30v362h-30z" fill="#7984eb"/></g></g><g><g><path d="m75 452h362v30h-362z" fill="#979fef"/></g></g><g><g><path d="m30 75h30v362h-30z" fill="#979fef"/></g></g><g><path d="m75 30h362v30h-362z" fill="#979fef"/></g><g><g><path d="m90 90h-90v-90h90z" fill="#979fef"/></g></g><g><path d="m90 512h-90v-90h90z" fill="#979fef"/></g></g><g><path d="m256 452h181v30h-181z" fill="#7984eb"/><path d="m256 30h181v30h-181z" fill="#7984eb"/><path d="m256 421h75v-90h-30v-150h30v30h90v-120h-165z" fill="#300152"/></g><g><g><path d="m512 90h-90v-90h90z" fill="#7984eb"/></g></g><g><g><path d="m512 512h-90v-90h90z" fill="#7984eb"/></g></g></g></svg>