<svg id="Capa_1" enable-background="new 0 0 512 512" height="512" viewBox="0 0 512 512" width="512" xmlns="http://www.w3.org/2000/svg">
<symbol id="svg-text" viewBox="0 0 512 512">
<g><path d="m91 211h90v-30h30v150h-30v90h150v-90h-30v-150h30v30h90v-120h-330zm30-90h270v60h-30v-30h-90v210h30v30h-90v-30h30v-210h-90v30h-30z"/><path d="m512 90v-90h-90v30h-332v-30h-90v90h30v332h-30v90h90v-30h332v30h90v-90h-30v-332zm-60-60h30v30h-30zm-422 0h30v30h-30zm30 452h-30v-30h30zm422 0h-30v-30h30zm-30-60h-30v30h-332v-30h-30v-332h30v-30h332v30h30z"/></g>
</symbol>
</svg>