<svg id="Flat" height="512" viewBox="0 0 512 512" width="512" xmlns="http://www.w3.org/2000/svg"><path d="m272 104 36.77 110.309 24.513-49.026 49.026-24.513z" fill="#b01641"/><path d="m464 472h-416a8 8 0 0 1 -8-8v-208a216 216 0 0 1 368.736-152.737 214.588 214.588 0 0 1 63.264 152.737v208a8 8 0 0 1 -8 8zm-408-16h400v-200c0-110.28-89.72-200-200-200s-200 89.72-200 200z" fill="#757c80"/><path d="m440 56h-368a8 8 0 0 1 0-16h368a8 8 0 0 1 0 16z" fill="#757c80"/><path d="m440 232h48v48h-48z" fill="#fcb442" transform="matrix(0 1 -1 0 720 -208)"/><path d="m488 288h-48a8 8 0 0 1 -8-8v-48a8 8 0 0 1 8-8h48a8 8 0 0 1 8 8v48a8 8 0 0 1 -8 8zm-40-16h32v-32h-32z" fill="#2b70a8"/><path d="m232 440h48v48h-48z" fill="#fcb442" transform="matrix(0 1 -1 0 720 208)"/><path d="m280 496h-48a8 8 0 0 1 -8-8v-48a8 8 0 0 1 8-8h48a8 8 0 0 1 8 8v48a8 8 0 0 1 -8 8zm-40-16h32v-32h-32z" fill="#2b70a8"/><path d="m440 440h48v48h-48z" fill="#fcb442" transform="matrix(0 1 -1 0 928 0)"/><path d="m488 496h-48a8 8 0 0 1 -8-8v-48a8 8 0 0 1 8-8h48a8 8 0 0 1 8 8v48a8 8 0 0 1 -8 8zm-40-16h32v-32h-32z" fill="#2b70a8"/><path d="m24 440h48v48h-48z" fill="#fcb442" transform="matrix(0 1 -1 0 512 416)"/><path d="m72 496h-48a8 8 0 0 1 -8-8v-48a8 8 0 0 1 8-8h48a8 8 0 0 1 8 8v48a8 8 0 0 1 -8 8zm-40-16h32v-32h-32z" fill="#2b70a8"/><path d="m24 232h48v48h-48z" fill="#fcb442" transform="matrix(0 1 -1 0 304 208)"/><path d="m72 288h-48a8 8 0 0 1 -8-8v-48a8 8 0 0 1 8-8h48a8 8 0 0 1 8 8v48a8 8 0 0 1 -8 8zm-40-16h32v-32h-32z" fill="#2b70a8"/><path d="m232 24h48v48h-48z" fill="#fcb442" transform="matrix(0 1 -1 0 304 -208)"/><g fill="#2b70a8"><path d="m280 80h-48a8 8 0 0 1 -8-8v-48a8 8 0 0 1 8-8h48a8 8 0 0 1 8 8v48a8 8 0 0 1 -8 8zm-40-16h32v-32h-32z"/><circle cx="440" cy="48" r="24"/><circle cx="72" cy="48" r="24"/></g></svg>