<?xml version="1.0" encoding="iso-8859-1"?>
<!-- Generator: Adobe Illustrator 19.0.0, SVG Export Plug-In . SVG Version: 6.00 Build 0)  -->
<svg version="1.1" id="Capa_1" xmlns="http://www.w3.org/2000/svg" xmlns:xlink="http://www.w3.org/1999/xlink" x="0px" y="0px"
	 viewBox="0 0 187.734 187.734" style="enable-background:new 0 0 187.734 187.734;" xml:space="preserve">
	 <symbol id="svg-wireframe" viewBox="0 0 187.734 187.734">
<g>
	<g>
		<path d="M119.467,129.707c-1.886,0-3.413,1.527-3.413,3.413v47.787H6.827V71.681H53.6c1.886,0,3.413-1.527,3.413-3.413
			c0-1.886-1.527-3.413-3.413-3.413H3.413C1.527,64.853,0,66.382,0,68.267v116.053c0,1.886,1.527,3.413,3.413,3.413h116.053
			c1.886,0,3.413-1.528,3.413-3.413v-51.2C122.88,131.235,121.352,129.707,119.467,129.707z"/>
	</g>
</g>
<g>
	<g>
		<path d="M119.467,0.001C81.823,0.001,51.2,30.624,51.2,68.267c0,37.644,30.623,68.267,68.267,68.267
			c37.644,0,68.267-30.623,68.267-68.267C187.733,30.624,157.111,0.001,119.467,0.001z M119.467,129.707
			c-33.877,0-61.44-27.563-61.44-61.44c0-33.877,27.563-61.44,61.44-61.44c33.877,0,61.44,27.563,61.44,61.44
			C180.907,102.145,153.344,129.707,119.467,129.707z"/>
	</g>
</g>
<g>
</g>
<g>
</g>
<g>
</g>
<g>
</g>
<g>
</g>
<g>
</g>
<g>
</g>
<g>
</g>
<g>
</g>
<g>
</g>
<g>
</g>
<g>
</g>
<g>
</g>
<g>
</g>
<g>
</g>
	 
	 </symbol>
</svg>
