<svg class="thumb" width="1008" height="686" viewBox="0,0,1008,686" xmlns="http://www.w3.org/2000/svg" xmlns:inkscape="http://www.inkscape.org/namespaces/inkscape" xmlns:sodipodi="http://sodipodi.sourceforge.net/DTD/sodipodi-0.dtd" xmlns:xlink="http://www.w3.org/1999/xlink" xmlns:ns1="http://www.inkscape.org/namespaces/inkscape" xmlns:sketch="http://www.bohemiancoding.com/sketch/ns"><defs></defs><g><g transform="matrix(6.343,0,0,6.1956,91.1265,0.2175)"><svg width="100" height="100" viewBox="0,0,100,100"><defs><linearGradient x1="0" y1="0.5" x2="1" y2="0.5" id="linearGradientSkdiqwf9d19y"><stop offset="0%" stop-color="#3a3a3a"></stop><stop offset="100%" stop-color="#3a3a3a"></stop></linearGradient></defs><g><path fill="url('#linearGradientSkdiqwf9d19y')" d="M95,52c0-12.871-5.692-24.431-14.682-32.318C72.431,10.692,60.871,5,48,5C24.29,5,5,24.29,5,48  c0,12.868,5.69,24.426,14.677,32.313C27.564,89.306,39.126,95,52,95c0.084,0,0.166-0.006,0.25-0.006S52.416,95,52.5,95  C75.972,95,95,75.972,95,52.5c0-0.084-0.006-0.166-0.006-0.25S95,52.084,95,52z M21.828,73.371  c-4.245-5.978-6.77-13.259-6.822-21.121c0.135-20.511,16.732-37.109,37.244-37.244c7.862,0.052,15.144,2.577,21.121,6.822  C80.224,28.473,84.5,37.758,84.5,48c0,20.126-16.374,36.5-36.5,36.5C37.758,84.5,28.473,80.224,21.828,73.371z M6,48  C6,24.841,24.841,6,48,6c9.858,0,18.926,3.422,26.1,9.13C67.637,11.242,60.076,9,52,9C28.29,9,9,28.29,9,52  c0,8.074,2.241,15.633,6.127,22.095C9.421,66.923,6,57.856,6,48z M52,89c-10.08,0-19.227-4.055-25.905-10.615  C32.269,82.854,39.838,85.5,48,85.5c20.678,0,37.5-16.822,37.5-37.5c0-8.162-2.646-15.731-7.115-21.905  C84.945,32.773,89,41.92,89,52C89,72.402,72.402,89,52,89z"></path></g></svg></g><g transform="matrix(2.9999,1.6629,-1.6629,2.9999,680.0847,247.492)"><svg width="80.27279830485263" height="102.27564161962461" viewBox="10.022044591403807,-0.9837719136779182,80.27279830485263,102.27564161962461"><defs><linearGradient x1="0" y1="0.5" x2="1" y2="0.5" id="linearGradientSkdiqwf9d1a4"><stop offset="0%" stop-color="#8bd12a"></stop><stop offset="100%" stop-color="#8bd12a"></stop></linearGradient></defs><g><path d="M65.972,26.195c-7.961,7.236-14.737,15.846-20.222,25.188C37.261,64.682,29.704,79.02,27.271,94.483  c-0.167,1.08,0.581,1.852,1.373,1.807c8.801-0.5,16.18-3.28,22.471-6.531C90.475,69.44,85.554,11.877,84.574,4.73  c-0.035-0.278-0.247-0.855-0.802-0.682c-2.938,0.914-13.076,4.262-24.687,10.255C33.797,27.361,1.242,52.382,21.215,92.782  c0.366,0.722,1.852,0.672,1.988-0.021c5.057-26.521,21.455-50.09,42.319-67.039C66.644,24.81,67.243,25.034,65.972,26.195z" fill="url('#linearGradientSkdiqwf9d1a4')"></path></g></svg></g><g transform="matrix(2.2886,-1.0189,1.0189,2.2886,465.7644,376.0399)"><svg width="80.27279830485263" height="102.27564161962461" viewBox="10.022044591403807,-0.9837719136779182,80.27279830485263,102.27564161962461"><defs><linearGradient x1="0" y1="0.5" x2="1" y2="0.5" id="linearGradientSkdiqwf9d1aa"><stop offset="0%" stop-color="#a4f03a"></stop><stop offset="100%" stop-color="#a4f03a"></stop></linearGradient></defs><g><path d="M65.972,26.195c-7.961,7.236-14.737,15.846-20.222,25.188C37.261,64.682,29.704,79.02,27.271,94.483  c-0.167,1.08,0.581,1.852,1.373,1.807c8.801-0.5,16.18-3.28,22.471-6.531C90.475,69.44,85.554,11.877,84.574,4.73  c-0.035-0.278-0.247-0.855-0.802-0.682c-2.938,0.914-13.076,4.262-24.687,10.255C33.797,27.361,1.242,52.382,21.215,92.782  c0.366,0.722,1.852,0.672,1.988-0.021c5.057-26.521,21.455-50.09,42.319-67.039C66.644,24.81,67.243,25.034,65.972,26.195z" fill="url('#linearGradientSkdiqwf9d1aa')"></path></g></svg></g><g transform="matrix(1.003,0,0,1.003,169.5491,195.8659)"><svg width="272" height="245" style="overflow: visible;"><defs><linearGradient x1="0" y1="0.5" x2="1" y2="0.5" id="linearGradientSkdiqwf9d1io"><stop offset="0%" stop-color="#000000"></stop><stop offset="100%" stop-color="#000000"></stop></linearGradient></defs><g><path d="M-61.60000000000001-38.9L-68.00000000000001-38.9L-65.9-49L-59.400000000000006-49.6L-58.80000000000001-52.9Q-58.10000000000001-56.7 -56.60000000000001-60.05Q-55.10000000000001-63.4 -52.75000000000001-65.9Q-50.400000000000006-68.4 -47.150000000000006-69.85Q-43.900000000000006-71.3 -39.60000000000001-71.3L-39.60000000000001-71.3Q-36.70000000000001-71.3 -34.00000000000001-70.6Q-31.30000000000001-69.9 -29.000000000000007-68.6L-29.000000000000007-68.6L-33.400000000000006-58.9Q-34.20000000000001-59.4 -35.50000000000001-59.9Q-36.80000000000001-60.4 -38.20000000000001-60.4L-38.20000000000001-60.4Q-40.900000000000006-60.4 -42.60000000000001-58.95Q-44.30000000000001-57.5 -45.10000000000001-53.4L-45.10000000000001-53.4L-45.80000000000001-49.6L-37.20000000000001-49.6L-39.30000000000001-38.9L-48.10000000000001-38.9L-55.80000000000001 0L-69.50000000000001 0L-61.60000000000001-38.9ZM-25.300000000000004 0L-39.00000000000001 0L-29.000000000000007-49.6L-15.400000000000006-49.6L-25.300000000000004 0ZM-19.600000000000005-57L-19.600000000000005-57Q-22.400000000000006-57 -24.700000000000006-58.65Q-27.000000000000007-60.3 -27.000000000000007-63.6L-27.000000000000007-63.6Q-27.000000000000007-65.2 -26.350000000000005-66.7Q-25.700000000000006-68.2 -24.550000000000004-69.3Q-23.400000000000006-70.4 -21.850000000000005-71.05Q-20.300000000000004-71.7 -18.500000000000007-71.7L-18.500000000000007-71.7Q-15.600000000000005-71.7 -13.350000000000005-70Q-11.100000000000005-68.3 -11.100000000000005-65.1L-11.100000000000005-65.1Q-11.100000000000005-61.6 -13.550000000000004-59.3Q-16.000000000000007-57 -19.600000000000005-57ZM 1.1999999999999975 0L-12.500000000000002 0L-2.700000000000003-49.6L 8.399999999999999-49.6L 7.799999999999997-40L 8.2-40Q 11.099999999999998-44.7  15.099999999999998-47.75Q 19.099999999999998-50.8  23.399999999999995-50.8L 23.399999999999995-50.8Q 25.3-50.8  26.55-50.55Q 27.8-50.3  28.599999999999998-49.8L 28.599999999999998-49.8L 24.099999999999998-38Q 23.099999999999998-38.5  21.749999999999996-38.65Q 20.399999999999995-38.8  19.2-38.8L 19.2-38.8Q 15.899999999999999-38.8  12.799999999999997-36.4Q 9.7-34  6.799999999999997-28.7L 6.799999999999997-28.7L 1.1999999999999975 0ZM 26.400000000000002-20L 26.400000000000002-20Q 26.400000000000002-26.9  28.85-32.55Q 31.300000000000004-38.2  35.25-42.25Q 39.2-46.3  44.10000000000001-48.55Q 49-50.8  54-50.8L 54-50.8Q 58.400000000000006-50.8  61.5-49.35Q 64.60000000000001-47.9  66.55-45.35Q 68.5-42.8  69.35000000000001-39.45Q 70.2-36.1  70.2-32.2L 70.2-32.2Q 70.2-30.4  69.9-28.65Q 69.60000000000001-26.9  69.2-25.35Q 68.8-23.8  68.35000000000001-22.65Q 67.9-21.5  67.60000000000001-20.9L 67.60000000000001-20.9L 39.400000000000006-20.9Q 39.1-14.7  42.35000000000001-11.9Q 45.60000000000001-9.1  50.5-9.1L 50.5-9.1Q 52.800000000000004-9.1  55.300000000000004-10.2Q 57.8-11.3  59.7-12.6L 59.7-12.6L 64.5-4Q 61.5-1.9  57-0.35Q 52.5 1.2  46.7 1.2L 46.7 1.2Q 42.2 1.2  38.45-0.25Q 34.7-1.7  32.050000000000004-4.45Q 29.400000000000006-7.2  27.900000000000006-11.1Q 26.400000000000002-15  26.400000000000002-20ZM 40.5-29.3L 40.5-29.3L 58.5-29.3Q 59-31  59-33L 59-33Q 59-36  57.55-38.15Q 56.10000000000001-40.3  52.300000000000004-40.3L 52.300000000000004-40.3Q 48.800000000000004-40.3  45.5-37.55Q 42.2-34.8  40.5-29.3Z" data-textpath="fire" data-text-anchor="middle" data-font-size="100" data-letterspacing="0" data-side="left" data-offset="0" data-dx="0" data-dy="138.75" data-xmlspace="preserve" data-href="" data-font="Source Sans Pro" data-font-src="/Content/clientfonts/sourcesanspro-bold-italic.woff" data-font-scale="contain" transform="translate(238,138.75)" data-x="238" data-y="0" fill="url('#linearGradientSkdiqwf9d1io')"></path></g></svg></g><g transform="matrix(1.003,0,0,1.003,253.8053,278.8659)"><svg width="0" height="245" style="overflow: visible;"><defs><linearGradient x1="0" y1="0.5" x2="1" y2="0.5" id="linearGradientSkdiqwf9d1ir"><stop offset="0%" stop-color="#000000"></stop><stop offset="100%" stop-color="#000000"></stop></linearGradient></defs><g><path d="" data-textpath="" data-text-anchor="middle" data-font-size="100" data-letterspacing="0" data-side="left" data-offset="0" data-dx="0" data-dy="138.75" data-xmlspace="preserve" data-href="" data-font="Source Sans Pro" data-font-src="/Content/clientfonts/sourcesanspro-bold-italic.woff" data-font-scale="contain" transform="translate(154,138.75)" data-x="154" data-y="0" fill="url('#linearGradientSkdiqwf9d1ir')"></path></g></svg></g></g></svg>