<svg class="thumb" width="413" height="366" viewBox="0,0,413,366" xmlns="http://www.w3.org/2000/svg" xmlns:inkscape="http://www.inkscape.org/namespaces/inkscape" xmlns:sodipodi="http://sodipodi.sourceforge.net/DTD/sodipodi-0.dtd" xmlns:xlink="http://www.w3.org/1999/xlink" xmlns:ns1="http://www.inkscape.org/namespaces/inkscape" xmlns:sketch="http://www.bohemiancoding.com/sketch/ns"><defs></defs><g><g transform="matrix(0,0.4186,-0.4186,0,279.7181,0.259)"><svg width="510" height="443.015" viewBox="-5,25.16,510,443.015" class="thumb"><defs><linearGradient x1="0" y1="0.5" x2="1" y2="0.5" id="linearGradientSkdiqwf9d2e"><stop offset="0%" stop-color="#ffc038"></stop><stop offset="100%" stop-color="#ffc038"></stop></linearGradient></defs><g></g><g><polygon points="125,463.175 0,246.667 125,30.16 374.999,30.16 500,246.667 374.999,463.175 " fill="url('#linearGradientSkdiqwf9d2e')"></polygon></g></svg></g><g transform="matrix(1.6146,0,0,1.6146,165.6964,140.1659)"><svg width="27.265" height="16.606891038197716" viewBox="36.308,71.828,27.265,16.606891038197716"><defs><linearGradient x1="0" y1="0.5" x2="1" y2="0.5" id="linearGradientSkdiqwf9d2k"><stop offset="0%" stop-color="#000000"></stop><stop offset="100%" stop-color="#000000"></stop></linearGradient></defs><g><path d="M41.308,76.828c1.197,2.07,2.931,3.953,5.371,5.497c0,0,1.453,1.163,3.373,1.108c1.918,0.051,3.375-1.107,3.375-1.107   c2.289-1.446,3.958-3.192,5.146-5.112c-2.274,0.496-4.875,0.754-7.556,0.754C47.714,77.968,44.316,77.583,41.308,76.828z" fill="url('#linearGradientSkdiqwf9d2k')"></path></g></svg></g><g transform="matrix(1.6146,0,0,1.6146,162.1061,125.6349)"><svg width="31.991999999999997" height="16.800092191011956" viewBox="34.051,63.36,31.991999999999997,16.800092191011956"><defs><linearGradient x1="0" y1="0.5" x2="1" y2="0.5" id="linearGradientSkdiqwf9d2q"><stop offset="0%" stop-color="#ffffff"></stop><stop offset="100%" stop-color="#ffffff"></stop></linearGradient></defs><g><path d="M39.051,68.36c0.055,1.736,0.307,3.47,0.818,5.141c5.94,2.063,15.1,2.206,20.244,0.407c0.563-1.692,0.85-3.453,0.93-5.221   c-2.995,0.938-6.551,1.364-10.114,1.364C46.659,70.052,42.394,69.434,39.051,68.36z" fill="url('#linearGradientSkdiqwf9d2q')"></path></g></svg></g><g transform="matrix(1.6146,0,0,1.6146,162.1061,112.7179)"><svg width="31.867999999999995" height="16.630912092367097" viewBox="34.128,55.641000000000005,31.867999999999995,16.630912092367097"><defs><linearGradient x1="0" y1="0.5" x2="1" y2="0.5" id="linearGradientSkdiqwf9d2w"><stop offset="0%" stop-color="#000000"></stop><stop offset="100%" stop-color="#000000"></stop></linearGradient></defs><g><path d="M50.929,62.06c-3.902,0-7.81-0.511-11.006-1.419c-0.373,1.537-0.658,3.156-0.795,4.812   c5.78,2.114,15.619,2.598,21.868,0.309c-0.119-1.662-0.384-3.297-0.745-4.846C57.427,61.692,54.187,62.06,50.929,62.06z" fill="url('#linearGradientSkdiqwf9d2w')"></path></g></svg></g><g transform="matrix(1.6146,0,0,1.6146,164.528,102.2222)"><svg width="28.836000000000006" height="15.788046460420631" viewBox="35.678,48.491,28.836000000000006,15.788046460420631"><defs><linearGradient x1="0" y1="0.5" x2="1" y2="0.5" id="linearGradientSkdiqwf9d32"><stop offset="0%" stop-color="#ffffff"></stop><stop offset="100%" stop-color="#ffffff"></stop></linearGradient></defs><g><path d="M59.514,58.241c-0.571-1.815-1.232-3.435-1.862-4.75c-2.599,0.543-5.42,0.809-8.212,0.809   c-2.458,0-4.881-0.204-7.097-0.579c-0.564,1.205-1.146,2.646-1.665,4.246C46.062,59.501,53.848,59.813,59.514,58.241z" fill="url('#linearGradientSkdiqwf9d32')"></path></g></svg></g><g transform="matrix(1.6146,0,0,1.6146,99.9744,41.1952)"><svg width="108.32981691822947" height="57.54144295152284" viewBox="-4.359346882061053,10.889,108.32981691822947,57.54144295152284"><defs><linearGradient x1="0" y1="0.5" x2="1" y2="0.5" id="linearGradientSkdiqwf9d38"><stop offset="0%" stop-color="#000000"></stop><stop offset="100%" stop-color="#000000"></stop></linearGradient></defs><g><path d="M58.786,38.047c-0.651-1.481-1.406-2.589-1.406-2.589c-0.11-0.123-0.253-0.232-0.394-0.342  c0.422-1.017,0.659-2.14,0.659-3.324c0-3.374-1.896-6.271-4.6-7.523l2.116-7.369l6.143-0.228c0.215-0.007,0.382-0.188,0.378-0.405  c-0.008-0.215-0.19-0.375-0.406-0.378l-6.396,0.238c-0.152,0.006-0.287,0.095-0.346,0.239l-3.563,7.305  c-0.302-0.039-0.607-0.065-0.92-0.065c-0.314,0-0.621,0.026-0.924,0.066l-3.565-7.308c-0.058-0.138-0.193-0.23-0.349-0.237  l-6.393-0.236c-0.216-0.001-0.396,0.161-0.407,0.376c-0.006,0.218,0.163,0.398,0.38,0.405l6.143,0.23l2.118,7.368  c-2.703,1.252-4.598,4.147-4.597,7.52c0,1.184,0.239,2.307,0.659,3.323c-0.148,0.11-0.288,0.223-0.393,0.344  c0,0-0.739,1.108-1.38,2.663C29.184,41.662-2.639,46.12,0.916,55.936c3.944,10.877,25.455,7.546,29.052,4.598  c5.007-4.104,9.231-7.95,11.843-11c0.224,0.512,0.459,0.979,0.694,1.396c4.583,0.822,10.289,0.82,14.998-0.245  c0.166-0.346,0.332-0.731,0.496-1.137c2.625,3.011,6.768,6.769,11.648,10.77c3.596,2.949,25.106,6.275,29.048-4.599  C102.202,46.038,71.295,41.566,58.786,38.047z" fill="url('#linearGradientSkdiqwf9d38')"></path></g></svg></g><g transform="matrix(0.5,0,0,0.5,45.5,161.5)"><svg width="323.42857142857144" height="374" style="overflow: visible;"><defs><linearGradient x1="0" y1="0.5" x2="1" y2="0.5" id="linearGradientSkdiqwf9duo"><stop offset="0%" stop-color="#000000"></stop><stop offset="100%" stop-color="#000000"></stop></linearGradient></defs><g><path d="M-105 0L-105 0L-120.5 0Q-122.4 0 -123.25-0.85Q-124.1-1.7 -124.1-3.6L-124.1-3.6L-124.1-68.4Q-124.1-70.3 -123.25-71.15Q-122.4-72 -120.5-72L-120.5-72L-75.9-72Q-74-72 -73.15-71.15Q-72.3-70.3 -72.3-68.4L-72.3-68.4L-72.3-56.5Q-72.3-54.6 -73.15-53.75Q-74-52.9 -75.9-52.9L-75.9-52.9L-101.4-52.9L-101.4-42.5L-84-42.5Q-82.1-42.5 -81.25-41.65Q-80.4-40.8 -80.4-38.9L-80.4-38.9L-80.4-26.9Q-80.4-25 -81.25-24.15Q-82.1-23.3 -84-23.3L-84-23.3L-101.4-23.3L-101.4-3.6Q-101.4-1.7 -102.25-0.85Q-103.1 0 -105 0ZM-17.69999999999999 0L-60.29999999999999 0Q-62.19999999999999 0 -63.04999999999999-0.85Q-63.89999999999999-1.7 -63.89999999999999-3.6L-63.89999999999999-3.6L-63.89999999999999-15.5Q-63.89999999999999-17.4 -63.04999999999999-18.25Q-62.19999999999999-19.1 -60.29999999999999-19.1L-60.29999999999999-19.1L-50.39999999999999-19.1L-50.39999999999999-52.7L-60.29999999999999-52.7Q-62.19999999999999-52.7 -63.04999999999999-53.55Q-63.89999999999999-54.4 -63.89999999999999-56.3L-63.89999999999999-56.3L-63.89999999999999-68.4Q-63.89999999999999-70.3 -63.04999999999999-71.15Q-62.19999999999999-72 -60.29999999999999-72L-60.29999999999999-72L-17.69999999999999-72Q-15.79999999999999-72 -14.949999999999989-71.15Q-14.099999999999987-70.3 -14.099999999999987-68.4L-14.099999999999987-68.4L-14.099999999999987-56.3Q-14.099999999999987-54.4 -14.949999999999989-53.55Q-15.79999999999999-52.7 -17.69999999999999-52.7L-17.69999999999999-52.7L-27.39999999999999-52.7L-27.39999999999999-19.1L-17.69999999999999-19.1Q-15.79999999999999-19.1 -14.949999999999989-18.25Q-14.099999999999987-17.4 -14.099999999999987-15.5L-14.099999999999987-15.5L-14.099999999999987-3.6Q-14.099999999999987-1.7 -14.949999999999989-0.85Q-15.79999999999999 0 -17.69999999999999 0L-17.69999999999999 0ZM 28.30000000000001-54L 20.80000000000001-54L 20.80000000000001-41.2L 28.30000000000001-41.2Q 30.900000000000013-41.2  31.80000000000001-42.55Q 32.70000000000001-43.9  32.70000000000001-45.9L 32.70000000000001-45.9L 32.70000000000001-49.3Q 32.70000000000001-51.3  31.80000000000001-52.65Q 30.900000000000013-54  28.30000000000001-54L 28.30000000000001-54ZM 17.20000000000001 0L 17.20000000000001 0L 1.8000000000000114 0Q-0.09999999999998899 0 -0.9499999999999886-0.85Q-1.7999999999999883-1.7 -1.7999999999999883-3.6L-1.7999999999999883-3.6L-1.7999999999999883-68.4Q-1.7999999999999883-70.3 -0.9499999999999886-71.15Q-0.09999999999998899-72  1.8000000000000114-72L 1.8000000000000114-72L 35.10000000000001-72Q 46.30000000000001-72  50.55000000000001-67.35Q 54.80000000000001-62.7  54.80000000000001-55.3L 54.80000000000001-55.3L 54.80000000000001-50.7Q 54.80000000000001-46.5  53.55000000000001-43.55Q 52.30000000000001-40.6  49.20000000000001-39.3L 49.20000000000001-39.3Q 54.60000000000001-38.7  57.95000000000002-34.9Q 61.30000000000001-31.1  61.30000000000001-24.8L 61.30000000000001-24.8L 61.30000000000001-3.6Q 61.30000000000001-1.7  60.45000000000002-0.85Q 59.60000000000001 0  57.70000000000002 0L 57.70000000000002 0L 42.20000000000001 0Q 40.30000000000001 0  39.45000000000001-0.85Q 38.60000000000001-1.7  38.60000000000001-3.6L 38.60000000000001-3.6L 38.60000000000001-18.9Q 38.60000000000001-21.1  37.750000000000014-22.15Q 36.90000000000001-23.2  34.80000000000001-23.2L 34.80000000000001-23.2L 20.80000000000001-23.2L 20.80000000000001-3.6Q 20.80000000000001-1.7  19.95000000000001-0.85Q 19.100000000000012 0  17.20000000000001 0ZM 122.5 0L 122.5 0L 76.1 0Q 74.19999999999999 0  73.35-0.85Q 72.5-1.7  72.5-3.6L 72.5-3.6L 72.5-68.4Q 72.5-70.3  73.35-71.15Q 74.19999999999999-72  76.1-72L 76.1-72L 122.5-72Q 124.39999999999999-72  125.25-71.15Q 126.1-70.3  126.1-68.4L 126.1-68.4L 126.1-56.7Q 126.1-54.8  125.25-53.95Q 124.39999999999999-53.1  122.5-53.1L 122.5-53.1L 94.89999999999999-53.1L 94.89999999999999-45.4L 114.39999999999999-45.4Q 116.3-45.4  117.14999999999999-44.55Q 118-43.7  118-41.8L 118-41.8L 118-31.1Q 118-29.2  117.14999999999999-28.35Q 116.3-27.5  114.39999999999999-27.5L 114.39999999999999-27.5L 94.89999999999999-27.5L 94.89999999999999-18.9L 122.5-18.9Q 124.39999999999999-18.9  125.25-18.05Q 126.1-17.2  126.1-15.3L 126.1-15.3L 126.1-3.6Q 126.1-1.7  125.25-0.85Q 124.39999999999999 0  122.5 0Z" data-textpath="fire" data-text-anchor="middle" data-font-size="100" data-letterspacing="0" data-side="left" data-offset="0" data-dx="0" data-dy="235.5" data-xmlspace="preserve" data-href="" data-font="Bungee" data-font-src="/Content/clientfonts/bungee.woff" data-font-scale="contain" transform="translate(283,235.5)" data-x="283" data-y="0" fill="url('#linearGradientSkdiqwf9duo')"></path></g></svg></g><g transform="matrix(0.5,0,0,0.5,97.5,209.5)"><svg width="0" height="374" style="overflow: visible;"><defs><linearGradient x1="0" y1="0.5" x2="1" y2="0.5" id="linearGradientSkdiqwf9dur"><stop offset="0%" stop-color="#000000"></stop><stop offset="100%" stop-color="#000000"></stop></linearGradient></defs><g><path d="" data-textpath="" data-text-anchor="middle" data-font-size="100" data-letterspacing="0" data-side="left" data-offset="0" data-dx="0" data-dy="235.5" data-xmlspace="preserve" data-href="" data-font="Bungee" data-font-src="/Content/clientfonts/bungee.woff" data-font-scale="contain" transform="translate(179,235.5)" data-x="179" data-y="0" fill="url('#linearGradientSkdiqwf9dur')"></path></g></svg></g></g></svg>