<svg class="thumb" width="688" height="610" viewBox="0,0,688,610" xmlns="http://www.w3.org/2000/svg" xmlns:inkscape="http://www.inkscape.org/namespaces/inkscape" xmlns:sodipodi="http://sodipodi.sourceforge.net/DTD/sodipodi-0.dtd" xmlns:xlink="http://www.w3.org/1999/xlink" xmlns:ns1="http://www.inkscape.org/namespaces/inkscape" xmlns:sketch="http://www.bohemiancoding.com/sketch/ns"><defs></defs><g><g transform="matrix(2.6139,0,0,2.6139,80.7731,5.911)"><svg width="187.0337218024264" height="186.77" viewBox="-5.131860901213205,-5,187.0337218024264,186.77" class="thumb"><defs><linearGradient x1="0" y1="0.5" x2="1" y2="0.5" id="linearGradientSkdiqwf9d41q"><stop offset="0%" stop-color="#ffc342"></stop><stop offset="100%" stop-color="#ffc342"></stop></linearGradient></defs><g><circle cx="88.385" cy="88.385" r="88.385" fill="url('#linearGradientSkdiqwf9d41q')"></circle></g></svg></g><g transform="matrix(1.5038,0,0,1.5038,225.169,411)"><svg width="133.5" height="133.5" viewBox="-5,-5,133.5,133.5" class="thumb"><defs><linearGradient x1="0" y1="0.5" x2="1" y2="0.5" id="linearGradientSkdiqwf9d41w"><stop offset="0%" stop-color="#ffc342"></stop><stop offset="100%" stop-color="#ffc342"></stop></linearGradient></defs><g></g><g><polygon points="123.5 123.5 61.04 92.5 0 123.5 0 0 123.5 0 123.5 123.5" style="" fill="url('#linearGradientSkdiqwf9d41w')"></polygon></g></svg></g><g transform="matrix(2.9068,0,0,2.9068,208.7008,158.424)"><svg width="72.82839745102241" height="79.85604357975592" viewBox="93.67242454897759,890.02512,72.82839745102241,79.85604357975592"><defs><linearGradient x1="0" y1="0.5" x2="1" y2="0.5" id="linearGradientSkdiqwf9d422"><stop offset="0%" stop-color="#153607"></stop><stop offset="100%" stop-color="#153607"></stop></linearGradient></defs><g><path d="M126.524268,930.047889 C131.604509,925.615586 138.084315,922.105615 143.493482,916.728286 L143.493482,916.728286 C155.69481,919.43216 154.267531,904.605017 161.500822,901.23594 C153.661436,899.988819 142.337418,905.49404 142.815278,916.482078 C138.193831,920.430339 133.645841,923.117323 129.468607,926.081112 L130.115036,925.46596 C130.115036,925.46596 131.393302,923.224601 131.776354,918.164575 C142.526592,912.369416 136.11699,899.499153 141.200658,895.02512 C133.107249,895.02512 124.872122,907.924727 131.319666,917.920155 C130.621506,922.749038 129.266448,925.629361 128.744479,926.600696 L128.744479,926.600696 C127.02556,927.848825 125.373754,929.160283 123.810446,930.645708 C121.766444,932.587878 119.825524,934.570186 117.996569,936.548874 L117.996569,936.548874 C118.347098,934.916534 118.722566,932.579414 118.830037,929.738408 C126.863035,924.113139 118.436261,913.41325 119.64926,904.775391 C113.639845,907.842824 110.326911,925.162747 118.302231,929.947387 C117.907547,933.300061 117.183912,936.161497 116.604475,938.077781 C105.958109,949.94641 99.4424259,961.276299 98.9886308,962.555403 C97.6892282,966.218007 100.814556,964.45889 100.814556,964.45889 C103.042715,958.816608 106.936088,952.303349 112.448645,945.320418 L112.448645,945.320418 C114.280568,944.479163 118.520801,942.71288 123.592855,941.803383 C123.574328,941.833722 123.555849,941.864241 123.537418,941.894943 C130.21875,946.879824 144.993832,943.189241 148.613076,937.450348 C138.970839,939.52471 129.732133,933.366279 124.202404,940.89244 C119.813484,941.367 115.873601,942.798517 113.761127,943.686581 C116.98299,939.743691 120.70971,935.663765 124.933247,931.516904 C124.963192,931.487502 124.993204,931.458149 125.023282,931.428843 C127.005338,930.612614 130.666952,929.284139 134.887702,928.615368 C143.051793,934.402985 156.180895,932.211938 160.827303,924.991234 C156.146338,927.17399 143.865696,919.158924 134.72381,928.22167 C131.21194,928.528877 128.344937,929.374845 126.524268,930.047889 Z" fill="url('#linearGradientSkdiqwf9d422')" sketch:type="MSShapeGroup"></path></g></svg></g><g transform="matrix(0.8463,0,0,0.8463,132.3018,44.686)"><svg width="459" height="267" style="overflow: visible;"><defs><linearGradient x1="0" y1="0.5" x2="1" y2="0.5" id="linearGradientSkdiqwf9d4fy"><stop offset="0%" stop-color="#ffffff"></stop><stop offset="100%" stop-color="#ffffff"></stop></linearGradient></defs><g><path d="M 175.64978167220283 61.63180581342972L 178.8485198224916 71.42251948741117L 170.3030328390845 74.21442783411953L 183.99549546493228 116.12438568711386L 171.64778957900813 120.15852244170134L 157.95532695316035 78.24856458870701L 151.97633772895227 80.20196876009696L 149.95771656614866 74.02336304350672L 154.7255330926746 68.36279544216265L 153.45224897459846 64.46552106708265Q 150.62928491769313 55.82497861111262  152.83381386637242 50.465337567681175Q 155.035237244032 45.09619097699343  162.97236920303638 42.50303917554573L 162.97236920303638 42.50303917554573Q 167.99129815435893 40.86329767714526  172.98693666202962 41.53508328333054L 172.98693666202962 41.53508328333054L 172.81676595191777 52.02669145030953Q 170.13095504105803 51.66279620287327  167.7165460379597 52.45161124187652L 167.7165460379597 52.45161124187652Q 165.57779790529383 53.150364721308534  165.1548125846188 55.14010928242523Q 164.72232171668747 57.132959414561604  165.8589607098969 60.61198971036472L 165.8589607098969 60.61198971036472L 167.10429468879573 64.42371416013808L 175.64978167220283 61.63180581342972ZM 201.66986727598388 56.59201463183404L 211.1158380295812 110.15548853450565L 198.3330858461527 112.409739322917L 188.88711509255538 58.84626542024539L 201.66986727598388 56.59201463183404ZM 185.88745485508414 44.945987061171635L 185.88745485508414 44.945987061171635Q 185.32649722437776 41.76507107099643  186.85142654815527 39.58713843717062Q 188.37635587193284 37.40920580334482  191.69514438180605 36.82393421960473L 191.69514438180605 36.82393421960473Q 194.8169721492535 36.27339685448424  197.02444889444314 37.793116045468835Q 199.22207760251155 39.314571947384394  199.78303523321793 42.4954879375596L 199.78303523321793 42.4954879375596Q 200.3596232623031 45.76503626182638  198.75707412402167 47.90588568656261Q 197.14467694861895 50.04847182222983  194.12132955238434 50.581642078040524L 194.12132955238434 50.581642078040524Q 190.9404135622091 51.1425997087469  188.70222822318922 49.67906754709266Q 186.46404288416932 48.215535385438415  185.88745485508414 44.945987061171635ZM 245.16712621029902 53.19087808804558L 245.16712621029902 53.19087808804558Q 247.55710717288136 53.18133877496684  249.86000253375454 53.90215286810659L 249.86000253375454 53.90215286810659L 248.3903055804771 66.5081193469422Q 247.02836065473633 66.02355147837389  244.8283781787191 66.0323324360196L 244.8283781787191 66.0323324360196Q 240.08841593493653 66.05125140840171  237.56336379516893 69.80135963236738Q 235.048271662303 73.54142802254367  235.07672994776385 80.67137122890855L 235.07672994776385 80.67137122890855L 235.18840776363973 108.65114835570927L 222.19851123479265 108.70299591926279L 221.98142201372443 54.313429159909994L 232.671336863099 54.27076168844062L 234.17521166771596 62.754826785552865L 234.6152081629194 62.753070594023725Q 236.73471552017136 57.614569979782765  239.26595424373488 55.41444940937468Q 241.7971530538545 53.20432891862105  245.16712621029902 53.19087808804558ZM 275.2960161316462 114.84142645437345L 275.2960161316462 114.84142645437345Q 265.3631846938998 112.47859771971716  261.32062440715254 104.06464464592284Q 257.2706498180515 95.63864880996161  260.34394713403924 82.71915796830913L 260.34394713403924 82.71915796830913Q 263.4612148182528 69.61482501371133  270.3983945522916 63.483810632906035Q 277.32584575407014 57.35048202219412  286.5874084658572 59.553628893293826L 286.5874084658572 59.553628893293826Q 295.23607364524656 61.61097928027662  298.71977541292875 69.09022536486616Q 302.2132057128712 76.5717856793623  299.51249941184875 87.92498282710963L 299.51249941184875 87.92498282710963L 297.90873808656295 94.666855683484L 272.4978118227104 88.62208716739956Q 270.94925190233687 95.73685787157639  272.892917677314 99.83799958519499Q 274.8268549200309 103.93682706890698  279.6716639856505 105.0893135624024L 279.6716639856505 105.0893135624024Q 285.84928197092864 106.55884955310441  293.2254624347753 104.24299943602725L 293.2254624347753 104.24299943602725L 290.74923643469475 114.65252895452736Q 283.79875332713135 116.86406339275699  275.2960161316462 114.84142645437345ZM 284.1735790067304 69.26874738676841L 284.1735790067304 69.26874738676841Q 281.46904703837237 68.6253914727288  279.0254848768095 71.07643287641379Q 276.58933701760037 73.5395170422657  274.8626585076892 79.50178014644108L 274.8626585076892 79.50178014644108L 287.69459255899915 82.55424939326933Q 288.97658826074024 76.73290186707598  288.0234778255638 73.35050914913832Q 287.07268162029396 69.95838789894037  284.1735790067304 69.26874738676841Z" data-textpath="fire" data-text-anchor="middle" data-font-size="100" data-letterspacing="0" data-side="left" data-offset="0.5" data-dx="0" data-dy="0" data-xmlspace="preserve" data-href="" data-font="Open Sans Condensed" data-font-src="/Content/clientfonts/opensanscondensed-bold.woff" data-font-scale="contain" transform="translate(0,0)" data-x="0" data-y="0" fill="url('#linearGradientSkdiqwf9d4fy')"></path></g></svg></g><g transform="matrix(4.9664,0,0,4.9664,76.851,0.682)"><svg width="100" height="100" viewBox="0,0.6460000000000008,100,100" class="thumb"><defs><linearGradient x1="0" y1="0.5" x2="1" y2="0.5" id="linearGradientSkdiqwf9d42d"><stop offset="0%" stop-color="#ffffff"></stop><stop offset="100%" stop-color="#ffffff"></stop></linearGradient></defs><g><path d="M50,95.646c24.854,0,45-20.147,45-45s-20.146-45-45-45s-45,20.147-45,45S25.146,95.646,50,95.646z M50,6.646  c24.262,0,44,19.738,44,44s-19.738,44-44,44s-44-19.738-44-44S25.738,6.646,50,6.646z" fill="url('#linearGradientSkdiqwf9d42d')"></path></g></svg></g><g transform="matrix(0.8363,0,0,0.8363,198.2511,285.2235)"><svg width="0" height="256" style="overflow: visible;"><defs><linearGradient x1="0" y1="0.5" x2="1" y2="0.5" id="linearGradientSkdiqwf9d4g1"><stop offset="0%" stop-color="#ffffff"></stop><stop offset="100%" stop-color="#ffffff"></stop></linearGradient></defs><g><path d="" data-textpath="" data-text-anchor="middle" data-font-size="100" data-letterspacing="0" data-side="left" data-offset="0" data-dx="0" data-dy="147" data-xmlspace="preserve" data-href="" data-font="Open Sans Condensed" data-font-src="/Content/clientfonts/opensanscondensed-bold.woff" data-font-scale="contain" transform="translate(146,147)" data-x="146" data-y="0" fill="url('#linearGradientSkdiqwf9d4g1')"></path></g></svg></g></g></svg>