<svg class="thumb" width="742" height="450" viewBox="0,0,742,450" xmlns="http://www.w3.org/2000/svg" xmlns:inkscape="http://www.inkscape.org/namespaces/inkscape" xmlns:sodipodi="http://sodipodi.sourceforge.net/DTD/sodipodi-0.dtd" xmlns:xlink="http://www.w3.org/1999/xlink" xmlns:ns1="http://www.inkscape.org/namespaces/inkscape" xmlns:sketch="http://www.bohemiancoding.com/sketch/ns"><defs></defs><g><g transform="matrix(2.293,0,0,2.293,354.2129,109.3489)"><svg width="16.136382350251495" height="16.137196823500034" viewBox="51.04181447357878,46.203,16.136382350251495,16.137196823500034"><defs><linearGradient x1="0" y1="0.5" x2="1" y2="0.5" id="linearGradientSkdiqwf9d233"><stop offset="0%" stop-color="#2b944e"></stop><stop offset="100%" stop-color="#2b944e"></stop></linearGradient></defs><g><path d="M59.075,57.34c1.693,0.019,3.084-1.34,3.103-3.034c0.019-1.693-1.34-3.084-3.033-3.103c-0.04,0-0.079,0.001-0.118,0.002   c-1.642,0.045-2.966,1.378-2.985,3.03c-0.018,1.656,1.276,3.02,2.916,3.101C58.997,57.337,59.036,57.34,59.075,57.34z" stroke="none" fill="url('#linearGradientSkdiqwf9d233')" style=""></path></g></svg></g><g transform="matrix(2.293,0,0,2.293,342.7479,119.6674)"><svg width="16.1353834661142" height="15.891076265614736" viewBox="46.20079342509768,51,16.1353834661142,15.891076265614736"><defs><linearGradient x1="0" y1="0.5" x2="1" y2="0.5" id="linearGradientSkdiqwf9d239"><stop offset="0%" stop-color="#2b944e"></stop><stop offset="100%" stop-color="#2b944e"></stop></linearGradient></defs><g><path d="M54.303,56c-0.039,0-0.08,0-0.119,0c-1.642,0-2.966,1.218-2.983,2.871c-0.019,1.655,1.275,2.938,2.915,3.02   c0.039,0.002,0.078-0.036,0.119-0.036c1.693,0.019,3.082-1.199,3.101-2.894C57.354,57.268,55.996,56,54.303,56z" stroke="none" fill="url('#linearGradientSkdiqwf9d239')" style=""></path></g></svg></g><g transform="matrix(2.293,0,0,2.293,381.7289,125.3999)"><svg width="16.019162951422047" height="16.019587024625267" viewBox="63.41616614139883,53.96959144107052,16.019162951422047,16.019587024625267"><defs><linearGradient x1="0" y1="0.5" x2="1" y2="0.5" id="linearGradientSkdiqwf9d23f"><stop offset="0%" stop-color="#2b944e"></stop><stop offset="100%" stop-color="#2b944e"></stop></linearGradient></defs><g><path d="M71.093,58.988c-0.039,0.005-0.077,0.011-0.115,0.017c-1.593,0.239-2.723,1.697-2.543,3.309   c0.181,1.613,1.604,2.785,3.211,2.667c0.037-0.002,0.077-0.005,0.114-0.009c1.652-0.185,2.843-1.674,2.656-3.327   C74.233,59.994,72.743,58.806,71.093,58.988z" stroke="none" fill="url('#linearGradientSkdiqwf9d23f')" style=""></path></g></svg></g><g transform="matrix(2.293,0,0,2.293,371.4104,105.9094)"><svg width="17.516868525467927" height="17.514652796998654" viewBox="58.762799513103914,45.006510460366684,17.516868525467927,17.514652796998654"><defs><linearGradient x1="0" y1="0.5" x2="1" y2="0.5" id="linearGradientSkdiqwf9d23l"><stop offset="0%" stop-color="#b08758"></stop><stop offset="100%" stop-color="#b08758"></stop></linearGradient></defs><g><path d="M67.794,57.511c0.048-0.003,0.097-0.006,0.145-0.011c2.062-0.231,3.548-2.09,3.317-4.154   c-0.229-2.061-2.089-3.546-4.151-3.316c-0.048,0.005-0.096,0.013-0.144,0.02c-1.989,0.299-3.398,2.117-3.175,4.131   C64.012,56.194,65.788,57.658,67.794,57.511z" stroke="none" fill="url('#linearGradientSkdiqwf9d23l')" style=""></path></g></svg></g><g transform="matrix(2.293,0,0,2.293,417.2704,89.8584)"><svg width="17.325961777400195" height="17.3267683269817" viewBox="78.52289100369383,37.90096822207036,17.325961777400195,17.3267683269817"><defs><linearGradient x1="0" y1="0.5" x2="1" y2="0.5" id="linearGradientSkdiqwf9d23r"><stop offset="0%" stop-color="#2b944e"></stop><stop offset="100%" stop-color="#2b944e"></stop></linearGradient></defs><g><path d="M90.826,46.156c-0.225-2.008-2.037-3.457-4.045-3.232c-0.048,0.006-0.095,0.013-0.142,0.02   c-1.938,0.292-3.313,2.065-3.093,4.026c0.218,1.963,1.951,3.39,3.905,3.248c0.047-0.004,0.094-0.007,0.142-0.012   C89.602,49.98,91.05,48.167,90.826,46.156z" stroke="none" fill="url('#linearGradientSkdiqwf9d23r')" style=""></path></g></svg></g><g transform="matrix(2.293,0,0,2.293,397.7799,127.6929)"><svg width="16.019597835238486" height="16.019988561480368" viewBox="70.01816648881281,54.48405733514266,16.019597835238486,16.019988561480368"><defs><linearGradient x1="0" y1="0.5" x2="1" y2="0.5" id="linearGradientSkdiqwf9d23x"><stop offset="0%" stop-color="#2b944e"></stop><stop offset="100%" stop-color="#2b944e"></stop></linearGradient></defs><g><path d="M77.695,59.503c-0.039,0.004-0.077,0.01-0.114,0.015c-1.594,0.24-2.724,1.697-2.544,3.309   c0.181,1.614,1.604,2.786,3.21,2.669c0.039-0.004,0.078-0.006,0.116-0.01c1.65-0.185,2.84-1.675,2.656-3.326   S79.346,59.318,77.695,59.503z" stroke="none" fill="url('#linearGradientSkdiqwf9d23x')" style=""></path></g></svg></g><g transform="matrix(2.293,0,0,2.293,389.7544,115.0814)"><svg width="15.795535509283553" height="15.794902964340572" viewBox="66.57674770553484,48.217880392088034,15.795535509283553,15.794902964340572"><defs><linearGradient x1="0" y1="0.5" x2="1" y2="0.5" id="linearGradientSkdiqwf9d243"><stop offset="0%" stop-color="#2b944e"></stop><stop offset="100%" stop-color="#2b944e"></stop></linearGradient></defs><g><path d="M76.419,53.967c-0.027-0.025-0.057-0.05-0.084-0.073c-1.189-0.996-2.961-0.881-4.009,0.275   c-1.049,1.16-0.986,2.935,0.123,4.019c0.026,0.025,0.053,0.052,0.08,0.077c1.186,1.072,3.02,0.981,4.095-0.206   C77.697,56.873,77.605,55.041,76.419,53.967z" stroke="none" fill="url('#linearGradientSkdiqwf9d243')" style=""></path></g></svg></g><g transform="matrix(2.293,0,0,2.293,403.5124,96.7374)"><svg width="15.064829079110837" height="15.066265208894315" viewBox="73.39747799927954,41.099591114605666,15.064829079110837,15.066265208894315"><defs><linearGradient x1="0" y1="0.5" x2="1" y2="0.5" id="linearGradientSkdiqwf9d249"><stop offset="0%" stop-color="#2b944e"></stop><stop offset="100%" stop-color="#2b944e"></stop></linearGradient></defs><g><path d="M82.556,46.691c-1.039-0.871-2.588-0.771-3.503,0.241c-0.917,1.014-0.863,2.565,0.106,3.512   c0.023,0.022,0.047,0.045,0.072,0.068c1.036,0.938,2.638,0.857,3.577-0.18c0.938-1.036,0.858-2.638-0.179-3.576   C82.605,46.733,82.581,46.712,82.556,46.691z" stroke="none" fill="url('#linearGradientSkdiqwf9d249')" style=""></path></g></svg></g><g transform="matrix(2.293,0,0,2.293,412.6844,78.3933)"><svg width="15.06531204460471" height="15.065613989777717" viewBox="77.35794602711081,32.956591114605665,15.06531204460471,15.065613989777717"><defs><linearGradient x1="0" y1="0.5" x2="1" y2="0.5" id="linearGradientSkdiqwf9d24f"><stop offset="0%" stop-color="#2b944e"></stop><stop offset="100%" stop-color="#2b944e"></stop></linearGradient></defs><g><path d="M83.191,42.368c1.037,0.938,2.64,0.858,3.577-0.18c0.939-1.036,0.859-2.638-0.177-3.576   c-0.025-0.021-0.051-0.043-0.074-0.064c-1.039-0.871-2.588-0.771-3.504,0.241c-0.917,1.013-0.862,2.564,0.107,3.511   C83.145,42.323,83.167,42.346,83.191,42.368z" stroke="none" fill="url('#linearGradientSkdiqwf9d24f')" style=""></path></g></svg></g><g transform="matrix(2.293,0,0,2.293,404.6589,109.3489)"><svg width="18.06448993325202" height="18.065239206205483" viewBox="73.18476935491404,46.728,18.06448993325202,18.065239206205483"><defs><linearGradient x1="0" y1="0.5" x2="1" y2="0.5" id="linearGradientSkdiqwf9d24l"><stop offset="0%" stop-color="#2b944e"></stop><stop offset="100%" stop-color="#2b944e"></stop></linearGradient></defs><g><path d="M82.264,51.728c-0.053,0-0.104,0.001-0.156,0.002c-2.157,0.059-3.898,1.812-3.923,3.983   c-0.023,2.176,1.677,3.968,3.833,4.074c0.051,0.003,0.104,0.005,0.155,0.006c2.226,0.024,4.052-1.761,4.076-3.989   C86.274,53.579,84.488,51.753,82.264,51.728z" stroke="none" fill="url('#linearGradientSkdiqwf9d24l')" style=""></path></g></svg></g><g transform="matrix(2.293,0,0,2.293,264.7859,95.5909)"><svg width="16.74317259893144" height="16.742787491008812" viewBox="12.467426607192895,40.27898959599494,16.74317259893144,16.742787491008812"><defs><linearGradient x1="0" y1="0.5" x2="1" y2="0.5" id="linearGradientSkdiqwf9d24r"><stop offset="0%" stop-color="#2b944e"></stop><stop offset="100%" stop-color="#2b944e"></stop></linearGradient></defs><g><path d="M21.79,51.884c0.041-0.013,0.083-0.025,0.125-0.039c1.763-0.593,2.712-2.505,2.119-4.27   c-0.593-1.762-2.505-2.712-4.268-2.12c-0.042,0.014-0.082,0.03-0.123,0.045c-1.687,0.64-2.578,2.502-1.999,4.223   C18.224,51.447,20.06,52.394,21.79,51.884z" stroke="none" fill="url('#linearGradientSkdiqwf9d24r')" style=""></path></g></svg></g><g transform="matrix(2.293,0,0,2.293,316.3784,87.5654)"><svg width="15.904830875803697" height="15.904641436637867" viewBox="34.23396549666643,36.51645180477527,15.904830875803697,15.904641436637867"><defs><linearGradient x1="0" y1="0.5" x2="1" y2="0.5" id="linearGradientSkdiqwf9d24x"><stop offset="0%" stop-color="#2b944e"></stop><stop offset="100%" stop-color="#2b944e"></stop></linearGradient></defs><g><path d="M40.021,42.461c-0.026,0.028-0.05,0.057-0.075,0.086c-1.029,1.199-0.935,3.005,0.232,4.087   c1.168,1.082,2.977,1.041,4.095-0.077c0.026-0.026,0.054-0.054,0.08-0.082c1.107-1.195,1.036-3.064-0.16-4.173   C42.998,41.195,41.129,41.267,40.021,42.461z" stroke="none" fill="url('#linearGradientSkdiqwf9d24x')" style=""></path></g></svg></g><g transform="matrix(2.293,0,0,2.293,283.1299,91.0049)"><svg width="16.57874358381866" height="16.57924497591648" viewBox="20.08322072473956,38.205317881151274,16.57874358381866,16.57924497591648"><defs><linearGradient x1="0" y1="0.5" x2="1" y2="0.5" id="linearGradientSkdiqwf9d253"><stop offset="0%" stop-color="#2b944e"></stop><stop offset="100%" stop-color="#2b944e"></stop></linearGradient></defs><g><path d="M30.688,48.831c0.03-0.029,0.06-0.06,0.089-0.09c1.24-1.327,1.168-3.41-0.16-4.651c-1.327-1.239-3.41-1.168-4.648,0.159   c-0.029,0.031-0.058,0.063-0.085,0.096c-1.151,1.331-1.053,3.344,0.241,4.554C27.422,50.11,29.438,50.071,30.688,48.831z" stroke="none" fill="url('#linearGradientSkdiqwf9d253')" style=""></path></g></svg></g><g transform="matrix(2.293,0,0,2.293,252.1744,105.9094)"><svg width="15.369534957167744" height="15.368851914750792" viewBox="6.918948046552156,45.07551533568751,15.369534957167744,15.368851914750792"><defs><linearGradient x1="0" y1="0.5" x2="1" y2="0.5" id="linearGradientSkdiqwf9d259"><stop offset="0%" stop-color="#2b944e"></stop><stop offset="100%" stop-color="#2b944e"></stop></linearGradient></defs><g><path d="M14.096,50.125c-0.034,0.006-0.068,0.015-0.102,0.022c-1.399,0.326-2.3,1.702-2.026,3.121   c0.275,1.423,1.624,2.363,3.043,2.145c0.034-0.005,0.068-0.01,0.103-0.018c1.455-0.28,2.407-1.689,2.125-3.146   C16.959,50.795,15.55,49.843,14.096,50.125z" stroke="none" fill="url('#linearGradientSkdiqwf9d259')" style=""></path></g></svg></g><g transform="matrix(2.293,0,0,2.293,323.2574,103.6164)"><svg width="15.551029781238135" height="15.548897434900248" viewBox="37.286054298704215,43.895180423180676,15.551029781238135,15.548897434900248"><defs><linearGradient x1="0" y1="0.5" x2="1" y2="0.5" id="linearGradientSkdiqwf9d25f"><stop offset="0%" stop-color="#b08758"></stop><stop offset="100%" stop-color="#b08758"></stop></linearGradient></defs><g><path d="M42.364,51.02c-0.351,1.455,0.516,2.918,1.946,3.32c0.034,0.01,0.068,0.019,0.104,0.027c1.488,0.357,2.987-0.56,3.346-2.05   c0.357-1.488-0.56-2.987-2.048-3.345c-0.036-0.008-0.071-0.016-0.105-0.022C44.15,48.657,42.713,49.566,42.364,51.02z" stroke="none" fill="url('#linearGradientSkdiqwf9d25f')" style=""></path></g></svg></g><g transform="matrix(2.293,0,0,2.293,267.0789,111.6419)"><svg width="14.607789993332283" height="14.606598083144853" viewBox="13.163395719291124,47.355584509743686,14.607789993332283,14.606598083144853"><defs><linearGradient x1="0" y1="0.5" x2="1" y2="0.5" id="linearGradientSkdiqwf9d25l"><stop offset="0%" stop-color="#2b944e"></stop><stop offset="100%" stop-color="#2b944e"></stop></linearGradient></defs><g><path d="M19.929,56.898c1.236,0.297,2.48-0.465,2.778-1.702c0.297-1.236-0.465-2.479-1.701-2.776   c-0.028-0.008-0.058-0.013-0.087-0.019c-1.208-0.243-2.401,0.512-2.691,1.718c-0.291,1.208,0.428,2.423,1.615,2.757   C19.872,56.883,19.9,56.891,19.929,56.898z" stroke="none" fill="url('#linearGradientSkdiqwf9d25l')" style=""></path></g></svg></g><g transform="matrix(2.293,0,0,2.293,307.2064,121.9604)"><svg width="17.375354404026552" height="17.374713137933284" viewBox="31.150900463202277,52.09360390403759,17.375354404026552,17.374713137933284"><defs><linearGradient x1="0" y1="0.5" x2="1" y2="0.5" id="linearGradientSkdiqwf9d25r"><stop offset="0%" stop-color="#2b944e"></stop><stop offset="100%" stop-color="#2b944e"></stop></linearGradient></defs><g><path d="M40.701,57.196c-0.046-0.011-0.093-0.02-0.139-0.03c-1.935-0.388-3.844,0.82-4.308,2.751   c-0.465,1.934,0.686,3.877,2.585,4.412c0.046,0.013,0.091,0.025,0.139,0.036c1.978,0.477,3.97-0.743,4.446-2.725   C43.898,59.663,42.679,57.672,40.701,57.196z" stroke="none" fill="url('#linearGradientSkdiqwf9d25r')" style=""></path></g></svg></g><g transform="matrix(2.293,0,0,2.293,292.3019,120.8139)"><svg width="16.662637375712734" height="16.66117134413266" viewBox="24.010744458382078,51.1796000177198,16.662637375712734,16.66117134413266"><defs><linearGradient x1="0" y1="0.5" x2="1" y2="0.5" id="linearGradientSkdiqwf9d25x"><stop offset="0%" stop-color="#2b944e"></stop><stop offset="100%" stop-color="#2b944e"></stop></linearGradient></defs><g><path d="M30.984,56.47c-0.04,0.017-0.078,0.037-0.117,0.056c-1.598,0.787-2.298,2.704-1.566,4.342   c0.733,1.641,2.628,2.397,4.282,1.732c0.04-0.016,0.079-0.032,0.119-0.05c1.678-0.75,2.431-2.721,1.681-4.4   C34.632,56.473,32.662,55.72,30.984,56.47z" stroke="none" fill="url('#linearGradientSkdiqwf9d25x')" style=""></path></g></svg></g><g transform="matrix(2.293,0,0,2.293,280.8369,107.0559)"><svg width="16.932134998851676" height="16.93012752064832" viewBox="19.00289467519018,45.18082741560783,16.932134998851676,16.93012752064832"><defs><linearGradient x1="0" y1="0.5" x2="1" y2="0.5" id="linearGradientSkdiqwf9d263"><stop offset="0%" stop-color="#2b944e"></stop><stop offset="100%" stop-color="#2b944e"></stop></linearGradient></defs><g><path d="M30.632,52.231c-0.78-1.746-2.83-2.528-4.576-1.748c-0.041,0.018-0.082,0.038-0.121,0.058   c-1.663,0.82-2.392,2.814-1.63,4.518c0.763,1.706,2.734,2.493,4.455,1.802c0.042-0.016,0.083-0.034,0.124-0.052   C30.63,56.029,31.414,53.979,30.632,52.231z" stroke="none" fill="url('#linearGradientSkdiqwf9d263')" style=""></path></g></svg></g><g transform="matrix(2.293,0,0,2.293,268.2254,121.9604)"><svg width="19.122940274003597" height="19.12243361371835" viewBox="14.26072189027327,51.942315096675124,19.122940274003597,19.12243361371835"><defs><linearGradient x1="0" y1="0.5" x2="1" y2="0.5" id="linearGradientSkdiqwf9d269"><stop offset="0%" stop-color="#b08758"></stop><stop offset="100%" stop-color="#b08758"></stop></linearGradient></defs><g><path d="M25.549,57.282c-0.054-0.021-0.109-0.041-0.165-0.062c-2.292-0.838-4.853,0.28-5.782,2.555   c-0.932,2.276,0.11,4.869,2.333,5.879c0.053,0.024,0.107,0.048,0.162,0.071c2.33,0.952,4.994-0.165,5.948-2.497   C28.995,60.899,27.878,58.236,25.549,57.282z" stroke="none" fill="url('#linearGradientSkdiqwf9d269')" style=""></path></g></svg></g><g transform="matrix(2.293,0,0,2.293,312.9389,38.2657)"><svg width="16.71064811210732" height="16.710312930844562" viewBox="33.1295918367347,15.630318728878521,16.71064811210732,16.710312930844562"><defs><linearGradient x1="0" y1="0.5" x2="1" y2="0.5" id="linearGradientSkdiqwf9d26f"><stop offset="0%" stop-color="#2b944e"></stop><stop offset="100%" stop-color="#2b944e"></stop></linearGradient></defs><g><path d="M42.812,20.905c-1.649-0.711-3.575,0.002-4.354,1.634c-0.78,1.633-0.123,3.581,1.467,4.415   c0.038,0.021,0.077,0.04,0.116,0.059c1.671,0.798,3.674,0.088,4.472-1.584c0.797-1.67,0.088-3.673-1.582-4.47   C42.89,20.939,42.851,20.922,42.812,20.905z" stroke="none" fill="url('#linearGradientSkdiqwf9d26f')" style=""></path></g></svg></g><g transform="matrix(2.293,0,0,2.293,303.7669,6.1636)"><svg width="18.25983528561538" height="18.25847972104701" viewBox="29.267883369363325,1.283195691455096,18.25983528561538,18.25847972104701"><defs><linearGradient x1="0" y1="0.5" x2="1" y2="0.5" id="linearGradientSkdiqwf9d26l"><stop offset="0%" stop-color="#2b944e"></stop><stop offset="100%" stop-color="#2b944e"></stop></linearGradient></defs><g><path d="M36.478,14.067c0.047,0.024,0.094,0.05,0.143,0.072c2.057,0.981,4.522,0.108,5.504-1.95   c0.981-2.056,0.108-4.521-1.948-5.503c-0.048-0.022-0.098-0.044-0.146-0.065c-2.029-0.875-4.401,0.004-5.359,2.011   C33.712,10.643,34.521,13.04,36.478,14.067z" stroke="none" fill="url('#linearGradientSkdiqwf9d26l')" style=""></path></g></svg></g><g transform="matrix(2.293,0,0,2.293,294.5949,45.1447)"><svg width="16.709411461963036" height="16.708726226822215" viewBox="25.28020397501335,18.125470459369208,16.709411461963036,16.708726226822215"><defs><linearGradient x1="0" y1="0.5" x2="1" y2="0.5" id="linearGradientSkdiqwf9d26r"><stop offset="0%" stop-color="#2b944e"></stop><stop offset="100%" stop-color="#2b944e"></stop></linearGradient></defs><g><path d="M32.075,29.448c0.039,0.02,0.077,0.04,0.116,0.059c1.67,0.797,3.673,0.088,4.472-1.584c0.796-1.67,0.087-3.673-1.583-4.47   c-0.039-0.019-0.079-0.036-0.118-0.053c-1.648-0.711-3.576,0.003-4.354,1.634C29.829,26.666,30.486,28.613,32.075,29.448z" stroke="none" fill="url('#linearGradientSkdiqwf9d26r')" style=""></path></g></svg></g><g transform="matrix(2.293,0,0,2.293,276.2509,22.2146)"><svg width="18.548265402359753" height="18.548442224962187" viewBox="16.832046604546253,7.898201854321323,18.548265402359753,18.548442224962187"><defs><linearGradient x1="0" y1="0.5" x2="1" y2="0.5" id="linearGradientSkdiqwf9d26x"><stop offset="0%" stop-color="#2b944e"></stop><stop offset="100%" stop-color="#2b944e"></stop></linearGradient></defs><g><path d="M24.119,20.955c0.048,0.025,0.098,0.051,0.148,0.075c2.128,1.015,4.679,0.112,5.696-2.019   c1.016-2.128,0.113-4.679-2.016-5.696c-0.05-0.023-0.101-0.045-0.151-0.067c-2.1-0.906-4.554,0.004-5.546,2.082   C21.257,17.411,22.094,19.892,24.119,20.955z" stroke="none" fill="url('#linearGradientSkdiqwf9d26x')" style=""></path></g></svg></g><g transform="matrix(2.293,0,0,2.293,296.8879,79.5398)"><svg width="16.711014339165885" height="16.708298303625448" viewBox="25.719203975013357,32.979898382565985,16.711014339165885,16.708298303625448"><defs><linearGradient x1="0" y1="0.5" x2="1" y2="0.5" id="linearGradientSkdiqwf9d273"><stop offset="0%" stop-color="#2b944e"></stop><stop offset="100%" stop-color="#2b944e"></stop></linearGradient></defs><g><path d="M32.632,44.361c1.67,0.797,3.673,0.088,4.471-1.584c0.797-1.67,0.088-3.673-1.583-4.47   c-0.039-0.018-0.079-0.036-0.119-0.053c-1.648-0.71-3.574,0.003-4.354,1.634c-0.779,1.633-0.122,3.581,1.467,4.415   C32.554,44.323,32.593,44.343,32.632,44.361z" stroke="none" fill="url('#linearGradientSkdiqwf9d273')" style=""></path></g></svg></g><g transform="matrix(2.293,0,0,2.293,286.5694,60.0492)"><svg width="17.562616151423608" height="17.562110618434016" viewBox="21.315034949201493,24.721665230198614,17.562616151423608,17.562110618434016"><defs><linearGradient x1="0" y1="0.5" x2="1" y2="0.5" id="linearGradientSkdiqwf9d279"><stop offset="0%" stop-color="#b08758"></stop><stop offset="100%" stop-color="#b08758"></stop></linearGradient></defs><g><path d="M28.468,36.915c1.884,0.898,4.141,0.1,5.041-1.786c0.898-1.882,0.099-4.139-1.784-5.038   c-0.044-0.021-0.089-0.041-0.133-0.06c-1.858-0.801-4.03,0.003-4.907,1.841c-0.879,1.841-0.138,4.036,1.654,4.977   C28.381,36.872,28.424,36.895,28.468,36.915z" stroke="none" fill="url('#linearGradientSkdiqwf9d279')" style=""></path></g></svg></g><g transform="matrix(2.293,0,0,2.293,296.8879,24.5076)"><svg width="18.2790140210057" height="18.278327470298997" viewBox="26.32646644861657,9.398277726256772,18.2790140210057,18.278327470298997"><defs><linearGradient x1="0" y1="0.5" x2="1" y2="0.5" id="linearGradientSkdiqwf9d27f"><stop offset="0%" stop-color="#2b944e"></stop><stop offset="100%" stop-color="#2b944e"></stop></linearGradient></defs><g><path d="M33.541,22.2c0.047,0.025,0.095,0.049,0.143,0.073c2.061,0.983,4.532,0.109,5.518-1.955   c0.983-2.062,0.108-4.532-1.953-5.516c-0.049-0.022-0.097-0.044-0.146-0.065c-2.034-0.877-4.411,0.003-5.371,2.016   C30.769,18.768,31.58,21.171,33.541,22.2z" stroke="none" fill="url('#linearGradientSkdiqwf9d27f')" style=""></path></g></svg></g><g transform="matrix(2.293,0,0,2.293,248.7349,56.6097)"><svg width="18.277962800593045" height="18.277762447317066" viewBox="5.235539287851626,22.897277726256767,18.277962800593045,18.277762447317066"><defs><linearGradient x1="0" y1="0.5" x2="1" y2="0.5" id="linearGradientSkdiqwf9d27l"><stop offset="0%" stop-color="#2b944e"></stop><stop offset="100%" stop-color="#2b944e"></stop></linearGradient></defs><g><path d="M12.593,35.771c2.061,0.984,4.533,0.109,5.517-1.955c0.983-2.061,0.108-4.531-1.952-5.515   c-0.049-0.023-0.098-0.044-0.147-0.065c-2.033-0.877-4.41,0.003-5.371,2.016c-0.961,2.015-0.151,4.417,1.81,5.447   C12.498,35.723,12.545,35.748,12.593,35.771z" stroke="none" fill="url('#linearGradientSkdiqwf9d27l')" style=""></path></g></svg></g><g transform="matrix(2.293,0,0,2.293,265.9324,41.7052)"><svg width="19.961609459144604" height="19.959302830572895" viewBox="12.916191782556801,16.839198701727245,19.961609459144604,19.959302830572895"><defs><linearGradient x1="0" y1="0.5" x2="1" y2="0.5" id="linearGradientSkdiqwf9d27r"><stop offset="0%" stop-color="#2b944e"></stop><stop offset="100%" stop-color="#2b944e"></stop></linearGradient></defs><g><path d="M23.017,31.797c0.063-0.001,0.128-0.003,0.192-0.007c2.743-0.171,4.83-2.537,4.659-5.283   c-0.172-2.742-2.537-4.829-5.28-4.658c-0.064,0.004-0.128,0.011-0.192,0.017c-2.652,0.267-4.637,2.583-4.47,5.262   C18.094,29.809,20.352,31.862,23.017,31.797z" stroke="none" fill="url('#linearGradientSkdiqwf9d27r')" style=""></path></g></svg></g><g transform="matrix(2.293,0,0,2.293,264.7859,70.3678)"><svg width="20.67974157522691" height="20.678198165777815" viewBox="11.86872735185673,28.667978290203216,20.67974157522691,20.678198165777815"><defs><linearGradient x1="0" y1="0.5" x2="1" y2="0.5" id="linearGradientSkdiqwf9d27x"><stop offset="0%" stop-color="#2b944e"></stop><stop offset="100%" stop-color="#2b944e"></stop></linearGradient></defs><g><path d="M24.097,34.013c-0.065-0.024-0.13-0.047-0.196-0.068c-2.708-0.907-5.668,0.481-6.686,3.173   c-1.018,2.694,0.284,5.694,2.917,6.805c0.063,0.027,0.127,0.054,0.191,0.078c2.756,1.041,5.837-0.352,6.88-3.111   C28.244,38.135,26.853,35.054,24.097,34.013z" stroke="none" fill="url('#linearGradientSkdiqwf9d27x')" style=""></path></g></svg></g><g transform="matrix(2.293,0,0,2.293,357.6524,50.8772)"><svg width="17.269956056830146" height="17.269386479585272" viewBox="52.58343496244735,20.375391857271126,17.269956056830146,17.269386479585272"><defs><linearGradient x1="0" y1="0.5" x2="1" y2="0.5" id="linearGradientSkdiqwf9d283"><stop offset="0%" stop-color="#b08758"></stop><stop offset="100%" stop-color="#b08758"></stop></linearGradient></defs><g><path d="M59.621,32.274c0.043,0.02,0.085,0.041,0.128,0.06c1.834,0.811,3.98-0.02,4.793-1.856c0.812-1.833-0.019-3.98-1.854-4.791   c-0.043-0.019-0.086-0.037-0.129-0.054c-1.809-0.719-3.872,0.115-4.664,1.905C57.102,29.331,57.875,31.419,59.621,32.274z" stroke="none" fill="url('#linearGradientSkdiqwf9d283')" style=""></path></g></svg></g><g transform="matrix(2.293,0,0,2.293,346.1874,64.6352)"><svg width="13.68282935167013" height="13.683183592788609" viewBox="47.97161071152135,26.40168124648087,13.68282935167013,13.683183592788609"><defs><linearGradient x1="0" y1="0.5" x2="1" y2="0.5" id="linearGradientSkdiqwf9d289"><stop offset="0%" stop-color="#2b944e"></stop><stop offset="100%" stop-color="#2b944e"></stop></linearGradient></defs><g><path d="M54.94,35.08c1.014-0.069,1.78-0.949,1.71-1.964c-0.069-1.013-0.947-1.779-1.963-1.71c-0.023,0.003-0.046,0.004-0.07,0.007   c-0.979,0.104-1.709,0.966-1.641,1.956c0.068,0.991,0.907,1.745,1.892,1.715C54.893,35.082,54.917,35.082,54.94,35.08z" stroke="none" fill="url('#linearGradientSkdiqwf9d289')" style=""></path></g></svg></g><g transform="matrix(2.293,0,0,2.293,357.6524,32.5331)"><svg width="17.00674221264328" height="17.005947612008793" viewBox="52.73368005544645,13.063694037883828,17.00674221264328,17.005947612008793"><defs><linearGradient x1="0" y1="0.5" x2="1" y2="0.5" id="linearGradientSkdiqwf9d28f"><stop offset="0%" stop-color="#2b944e"></stop><stop offset="100%" stop-color="#2b944e"></stop></linearGradient></defs><g><path d="M61.343,25.068c0.044-0.001,0.09-0.002,0.135-0.005c1.929-0.133,3.387-1.806,3.254-3.738   c-0.133-1.928-1.806-3.385-3.734-3.253c-0.045,0.004-0.089,0.008-0.135,0.013c-1.864,0.2-3.25,1.838-3.121,3.722   C57.87,23.691,59.469,25.125,61.343,25.068z" stroke="none" fill="url('#linearGradientSkdiqwf9d28f')" style=""></path></g></svg></g><g transform="matrix(2.293,0,0,2.293,357.6524,2.724)"><svg width="17.009367016311188" height="17.007546622566476" viewBox="52.73216667189476,-0.2503843267879571,17.009367016311188,17.007546622566476"><defs><linearGradient x1="0" y1="0.5" x2="1" y2="0.5" id="linearGradientSkdiqwf9d28l"><stop offset="0%" stop-color="#2b944e"></stop><stop offset="100%" stop-color="#2b944e"></stop></linearGradient></defs><g><path d="M59.849,11.469c0.042,0.018,0.084,0.036,0.125,0.052c1.804,0.697,3.833-0.201,4.532-2.007   c0.696-1.803-0.203-3.832-2.005-4.529c-0.043-0.016-0.086-0.031-0.129-0.045c-1.772-0.609-3.723,0.288-4.403,2.049   C57.287,8.751,58.128,10.727,59.849,11.469z" stroke="none" fill="url('#linearGradientSkdiqwf9d28l')" style=""></path></g></svg></g><g transform="matrix(2.293,0,0,2.293,389.7544,30.2401)"><svg width="17.005795905191732" height="17.00637321469369" viewBox="66.59779122319777,11.74301131190484,17.005795905191732,17.00637321469369"><defs><linearGradient x1="0" y1="0.5" x2="1" y2="0.5" id="linearGradientSkdiqwf9d28r"><stop offset="0%" stop-color="#2b944e"></stop><stop offset="100%" stop-color="#2b944e"></stop></linearGradient></defs><g><path d="M72.321,22.378c1.151,1.5,3.274,1.811,4.805,0.727c0.036-0.026,0.073-0.052,0.109-0.08   c1.533-1.177,1.822-3.377,0.644-4.913c-1.177-1.533-3.377-1.822-4.909-0.646c-0.037,0.029-0.072,0.058-0.106,0.086   C71.422,18.75,71.171,20.881,72.321,22.378z" stroke="none" fill="url('#linearGradientSkdiqwf9d28r')" style=""></path></g></svg></g><g transform="matrix(2.293,0,0,2.293,332.4294,0.431)"><svg width="17.896953987608207" height="17.89716107173637" viewBox="41.256552078653215,-1.6482686051486244,17.896953987608207,17.89716107173637"><defs><linearGradient x1="0" y1="0.5" x2="1" y2="0.5" id="linearGradientSkdiqwf9d28x"><stop offset="0%" stop-color="#2b944e"></stop><stop offset="100%" stop-color="#2b944e"></stop></linearGradient></defs><g><path d="M50.325,11.247c0.05-0.001,0.102-0.003,0.152-0.006c2.174-0.149,3.817-2.035,3.667-4.213   c-0.149-2.173-2.034-3.815-4.208-3.667c-0.052,0.004-0.102,0.01-0.152,0.014c-2.101,0.226-3.664,2.072-3.518,4.194   C46.413,9.695,48.213,11.312,50.325,11.247z" stroke="none" fill="url('#linearGradientSkdiqwf9d28x')" style=""></path></g></svg></g><g transform="matrix(2.293,0,0,2.293,342.7479,15.3356)"><svg width="18.459754066064335" height="18.458322488065313" viewBox="46.421219896921215,5.737115794312992,18.459754066064335,18.458322488065313"><defs><linearGradient x1="0" y1="0.5" x2="1" y2="0.5" id="linearGradientSkdiqwf9d293"><stop offset="0%" stop-color="#2b944e"></stop><stop offset="100%" stop-color="#2b944e"></stop></linearGradient></defs><g><path d="M51.623,16.253c0.695,2.173,2.98,3.394,5.16,2.787c0.052-0.014,0.106-0.029,0.158-0.045   c2.223-0.711,3.449-3.092,2.738-5.318c-0.712-2.222-3.093-3.449-5.314-2.738c-0.053,0.018-0.104,0.036-0.155,0.054   C52.082,11.763,50.929,14.083,51.623,16.253z" stroke="none" fill="url('#linearGradientSkdiqwf9d293')" style=""></path></g></svg></g><g transform="matrix(2.293,0,0,2.293,369.1174,16.4821)"><svg width="19.38248871305872" height="19.381503467019122" viewBox="57.7348810329017,5.488570233181557,19.38248871305872,19.381503467019122"><defs><linearGradient x1="0" y1="0.5" x2="1" y2="0.5" id="linearGradientSkdiqwf9d299"><stop offset="0%" stop-color="#2b944e"></stop><stop offset="100%" stop-color="#2b944e"></stop></linearGradient></defs><g><path d="M63.281,17.375c1.185,2.236,3.92,3.12,6.181,2.029c0.054-0.026,0.109-0.052,0.163-0.081   c2.287-1.212,3.159-4.053,1.944-6.343c-1.212-2.285-4.053-3.157-6.339-1.945c-0.054,0.03-0.105,0.06-0.159,0.089   C62.901,12.384,62.098,15.143,63.281,17.375z" stroke="none" fill="url('#linearGradientSkdiqwf9d299')" style=""></path></g></svg></g><g transform="matrix(2.293,0,0,2.293,372.5569,40.5587)"><svg width="18.502813972449445" height="18.50164410210043" viewBox="59.61211932677941,16.689584565517407,18.502813972449445,18.50164410210043"><defs><linearGradient x1="0" y1="0.5" x2="1" y2="0.5" id="linearGradientSkdiqwf9d29f"><stop offset="0%" stop-color="#2b944e"></stop><stop offset="100%" stop-color="#2b944e"></stop></linearGradient></defs><g><path d="M73.049,25.199c-0.408-2.309-2.614-3.852-4.924-3.444c-0.055,0.01-0.107,0.021-0.162,0.032   c-2.223,0.482-3.685,2.637-3.285,4.893c0.398,2.258,2.511,3.782,4.764,3.471c0.055-0.007,0.108-0.014,0.164-0.024   C71.914,29.719,73.459,27.513,73.049,25.199z" stroke="none" fill="url('#linearGradientSkdiqwf9d29f')" style=""></path></g></svg></g><g transform="matrix(2.293,0,0,2.293,320.9644,16.4821)"><svg width="19.310814685700635" height="19.308840723441882" viewBox="36.439161461921756,6.1293134205096536,19.310814685700635,19.308840723441882"><defs><linearGradient x1="0" y1="0.5" x2="1" y2="0.5" id="linearGradientSkdiqwf9d29l"><stop offset="0%" stop-color="#b08758"></stop><stop offset="100%" stop-color="#b08758"></stop></linearGradient></defs><g><path d="M41.511,16.593c0.438,2.473,2.75,4.142,5.218,3.801c0.059-0.007,0.118-0.016,0.178-0.026   c2.529-0.447,4.219-2.864,3.771-5.396c-0.447-2.528-2.863-4.218-5.392-3.771c-0.06,0.011-0.119,0.024-0.177,0.036   C42.675,11.764,41.074,14.124,41.511,16.593z" stroke="none" fill="url('#linearGradientSkdiqwf9d29l')" style=""></path></g></svg></g><g transform="matrix(2.293,0,0,2.293,370.2639,61.1957)"><svg width="16.784000000000006" height="16.783" viewBox="58.566,25.560000000000002,16.784000000000006,16.783"><defs><linearGradient x1="0" y1="0.5" x2="1" y2="0.5" id="linearGradientSkdiqwf9d29r"><stop offset="0%" stop-color="#2b944e"></stop><stop offset="100%" stop-color="#2b944e"></stop></linearGradient></defs><g><path d="M66.828,37.34c0.044,0.002,0.087,0.003,0.131,0.003c1.872,0,3.391-1.52,3.391-3.393c0-1.871-1.519-3.39-3.391-3.39   c-0.044,0-0.087,0.002-0.131,0.003c-1.813,0.069-3.262,1.559-3.262,3.387C63.566,35.78,65.015,37.271,66.828,37.34z" stroke="none" fill="url('#linearGradientSkdiqwf9d29r')" style=""></path></g></svg></g><g transform="matrix(2.293,0,0,2.293,387.4614,69.2213)"><svg width="15.684268151161689" height="15.683892838629177" viewBox="65.60937311978081,28.420733844150945,15.684268151161689,15.683892838629177"><defs><linearGradient x1="0" y1="0.5" x2="1" y2="0.5" id="linearGradientSkdiqwf9d29x"><stop offset="0%" stop-color="#2b944e"></stop><stop offset="100%" stop-color="#2b944e"></stop></linearGradient></defs><g><path d="M72.476,38.93c0.034,0.013,0.068,0.025,0.104,0.037c1.492,0.481,3.094-0.339,3.576-1.833   c0.481-1.492-0.339-3.093-1.831-3.575c-0.035-0.012-0.071-0.021-0.106-0.032c-1.463-0.411-3.001,0.404-3.471,1.861   C70.276,36.848,71.048,38.409,72.476,38.93z" stroke="none" fill="url('#linearGradientSkdiqwf9d29x')" style=""></path></g></svg></g><g transform="matrix(2.293,0,0,2.293,395.4869,79.5399)"><svg width="18.151274201511242" height="18.149806239179917" viewBox="68.93425016973863,33.10103431258752,18.151274201511242,18.149806239179917"><defs><linearGradient x1="0" y1="0.5" x2="1" y2="0.5" id="linearGradientSkdiqwf9d2a3"><stop offset="0%" stop-color="#2b944e"></stop><stop offset="100%" stop-color="#2b944e"></stop></linearGradient></defs><g><path d="M76.37,38.447c-0.048,0.021-0.096,0.044-0.143,0.067c-1.962,0.954-2.831,3.292-1.947,5.302   c0.886,2.012,3.199,2.951,5.227,2.149c0.048-0.02,0.097-0.039,0.145-0.06c2.059-0.906,2.994-3.312,2.087-5.372   C80.833,38.476,78.429,37.541,76.37,38.447z" stroke="none" fill="url('#linearGradientSkdiqwf9d2a3')" style=""></path></g></svg></g><g transform="matrix(2.293,0,0,2.293,351.9199,68.0748)"><svg width="18.150554592155473" height="18.14980623917991" viewBox="50.81456043219273,28.47903431258753,18.150554592155473,18.14980623917991"><defs><linearGradient x1="0" y1="0.5" x2="1" y2="0.5" id="linearGradientSkdiqwf9d2a9"><stop offset="0%" stop-color="#b08758"></stop><stop offset="100%" stop-color="#b08758"></stop></linearGradient></defs><g><path d="M63.619,35.911c-0.905-2.057-3.311-2.992-5.369-2.086c-0.048,0.021-0.095,0.045-0.143,0.068   c-1.96,0.954-2.831,3.292-1.947,5.301c0.886,2.012,3.199,2.951,5.227,2.149c0.049-0.02,0.099-0.039,0.146-0.06   C63.591,40.378,64.525,37.972,63.619,35.911z" stroke="none" fill="url('#linearGradientSkdiqwf9d2a9')" style=""></path></g></svg></g><g transform="matrix(2.293,0,0,2.293,388.6079,97.8839)"><svg width="16.48412539998975" height="16.484151726017764" viewBox="66.68680227887678,41.34366593643391,16.48412539998975,16.484151726017764"><defs><linearGradient x1="0" y1="0.5" x2="1" y2="0.5" id="linearGradientSkdiqwf9d2af"><stop offset="0%" stop-color="#2b944e"></stop><stop offset="100%" stop-color="#2b944e"></stop></linearGradient></defs><g><path d="M71.961,50.89c0.705,1.601,2.545,2.348,4.159,1.711c0.038-0.017,0.077-0.031,0.116-0.048   c1.637-0.722,2.381-2.636,1.659-4.274c-0.721-1.637-2.634-2.381-4.271-1.66c-0.038,0.017-0.076,0.036-0.113,0.054   C71.951,47.431,71.259,49.291,71.961,50.89z" stroke="none" fill="url('#linearGradientSkdiqwf9d2af')" style=""></path></g></svg></g><g transform="matrix(2.293,0,0,2.293,343.8944,94.4444)"><svg width="15.847181704606513" height="15.846106413655129" viewBox="46.73814065565665,39.93282695860972,15.847181704606513,15.846106413655129"><defs><linearGradient x1="0" y1="0.5" x2="1" y2="0.5" id="linearGradientSkdiqwf9d2al"><stop offset="0%" stop-color="#2b944e"></stop><stop offset="100%" stop-color="#2b944e"></stop></linearGradient></defs><g><path d="M55.736,50.574c0.034-0.014,0.07-0.028,0.104-0.043c1.477-0.649,2.147-2.375,1.497-3.853   c-0.649-1.476-2.376-2.147-3.852-1.497c-0.034,0.016-0.068,0.032-0.103,0.048c-1.406,0.684-2.03,2.362-1.396,3.802   C52.623,50.476,54.282,51.149,55.736,50.574z" stroke="none" fill="url('#linearGradientSkdiqwf9d2al')" style=""></path></g></svg></g><g transform="matrix(2.293,0,0,2.293,393.1939,49.7307)"><svg width="16.688802190719585" height="16.68670622163079" viewBox="68.1494439588097,20.4361587061121,16.688802190719585,16.68670622163079"><defs><linearGradient x1="0" y1="0.5" x2="1" y2="0.5" id="linearGradientSkdiqwf9d2ar"><stop offset="0%" stop-color="#b08758"></stop><stop offset="100%" stop-color="#b08758"></stop></linearGradient></defs><g><path d="M77.042,25.482c-1.764-0.294-3.458,0.855-3.823,2.619c-0.364,1.767,0.736,3.495,2.473,3.923   c0.042,0.01,0.083,0.021,0.126,0.029c1.808,0.374,3.576-0.791,3.951-2.599c0.372-1.807-0.792-3.576-2.599-3.949   C77.128,25.496,77.085,25.49,77.042,25.482z" stroke="none" fill="url('#linearGradientSkdiqwf9d2ar')" style=""></path></g></svg></g><g transform="matrix(2.293,0,0,2.293,356.5059,88.7119)"><svg width="14.818503393033367" height="14.817262125335894" viewBox="52.26074489041384,36.96863958025099,14.818503393033367,14.817262125335894"><defs><linearGradient x1="0" y1="0.5" x2="1" y2="0.5" id="linearGradientSkdiqwf9d2ax"><stop offset="0%" stop-color="#2b944e"></stop><stop offset="100%" stop-color="#2b944e"></stop></linearGradient></defs><g><path d="M59.736,46.785c0.031-0.001,0.063-0.001,0.094-0.004c1.326-0.088,2.331-1.236,2.244-2.563   c-0.089-1.326-1.236-2.332-2.562-2.244c-0.031,0.002-0.062,0.006-0.094,0.009c-1.281,0.134-2.237,1.257-2.152,2.553   C57.353,45.832,58.448,46.82,59.736,46.785z" stroke="none" fill="url('#linearGradientSkdiqwf9d2ax')" style=""></path></g></svg></g><g transform="matrix(2.293,0,0,2.293,342.7479,81.8328)"><svg width="14.818618018190307" height="14.817199576051365" viewBox="46.53963019926228,34.3277517165528,14.818618018190307,14.817199576051365"><defs><linearGradient x1="0" y1="0.5" x2="1" y2="0.5" id="linearGradientSkdiqwf9d2b3"><stop offset="0%" stop-color="#2b944e"></stop><stop offset="100%" stop-color="#2b944e"></stop></linearGradient></defs><g><path d="M51.545,41.894c0.086,1.296,1.182,2.286,2.47,2.25c0.031-0.001,0.063-0.002,0.093-0.004   c1.327-0.088,2.332-1.236,2.245-2.563c-0.089-1.326-1.236-2.331-2.562-2.244c-0.032,0.002-0.063,0.006-0.094,0.009   C52.416,39.476,51.459,40.6,51.545,41.894z" stroke="none" fill="url('#linearGradientSkdiqwf9d2b3')" style=""></path></g></svg></g><g transform="matrix(2.293,0,0,2.293,402.3659,68.0748)"><svg width="14.81862311849207" height="14.816317496039815" viewBox="71.62862516495512,28.02063471584249,14.81862311849207,14.816317496039815"><defs><linearGradient x1="0" y1="0.5" x2="1" y2="0.5" id="linearGradientSkdiqwf9d2b9"><stop offset="0%" stop-color="#2b944e"></stop><stop offset="100%" stop-color="#2b944e"></stop></linearGradient></defs><g><path d="M78.786,33.033c-1.282,0.134-2.238,1.258-2.152,2.553c0.085,1.297,1.182,2.286,2.47,2.25   c0.031-0.001,0.062-0.001,0.094-0.003c1.326-0.088,2.331-1.236,2.244-2.564c-0.089-1.326-1.236-2.331-2.563-2.243   C78.848,33.026,78.816,33.029,78.786,33.033z" stroke="none" fill="url('#linearGradientSkdiqwf9d2b9')" style=""></path></g></svg></g><g transform="matrix(2.293,0,0,2.293,363.3849,100.1769)"><svg width="14.357594163497652" height="14.355281813961" viewBox="55.66770484372179,42.441017193258425,14.357594163497652,14.355281813961"><defs><linearGradient x1="0" y1="0.5" x2="1" y2="0.5" id="linearGradientSkdiqwf9d2bf"><stop offset="0%" stop-color="#2b944e"></stop><stop offset="100%" stop-color="#2b944e"></stop></linearGradient></defs><g><path d="M62.406,51.751c1.178,0.243,2.33-0.516,2.574-1.693c0.243-1.177-0.516-2.33-1.693-2.573   c-0.027-0.005-0.056-0.01-0.083-0.014c-1.149-0.192-2.253,0.557-2.491,1.706c-0.237,1.151,0.479,2.277,1.611,2.556   C62.351,51.738,62.379,51.746,62.406,51.751z" stroke="none" fill="url('#linearGradientSkdiqwf9d2bf')" style=""></path></g></svg></g><g transform="matrix(2.293,0,0,2.293,296.8877,37.1191)"><svg width="52.732088056999565" height="87.64682278665757" viewBox="25.84691194300043,14.603177213342427,52.732088056999565,87.64682278665757"><defs><linearGradient x1="0" y1="0.5" x2="1" y2="0.5" id="linearGradientSkdiqwf9d2bl"><stop offset="0%" stop-color="#2b944e"></stop><stop offset="100%" stop-color="#2b944e"></stop></linearGradient></defs><g><path d="M60.26,57.437c-0.066,0.029-0.129,0.061-0.193,0.091c-1.826,0.89-2.953,2.668-3.089,4.576   c-0.091,0.044-0.18,0.087-0.271,0.133c-2.9,1.449-4.65,2.589-5.632,4.004c-0.045-1.785-0.05-2.775,0.007-4.523   c-0.011-0.613-0.023-1.17-0.034-1.666c-0.035-1.487-0.05-2.408-0.05-2.533c0-0.648,8.378-8.217,12.174-11.613   c0.893,1.697,2.643,2.873,4.676,2.951c0.07,0.003,0.143,0.006,0.214,0.006c3.045,0,5.517-2.473,5.517-5.521   c0-3.045-2.472-5.517-5.517-5.517c-0.071,0-0.144,0.003-0.214,0.005c-2.951,0.113-5.307,2.538-5.307,5.511   c0,0.755,0.153,1.475,0.428,2.131c-2.261,1.68-10.657,8.275-11.818,9.001c-0.12-0.195-0.181-0.873-0.197-1.893   c0.272-5.11,0.272-10.59,0.763-15.838c0.03-0.426,0.061-0.85,0.09-1.264c0.103-1.419,0.199-2.725,0.284-3.828   c0.57-0.046,1.143-0.174,1.701-0.391c0.071-0.028,0.146-0.057,0.216-0.087c3.055-1.323,4.46-4.877,3.135-7.935   c-1.322-3.054-4.875-4.459-7.93-3.136C49.141,20.13,49.07,20.164,49,20.197c-2.911,1.396-4.221,4.851-2.929,7.833   c0.85,1.961,2.615,3.243,4.579,3.56c-0.136,0.594-0.26,1.351-0.374,2.217c-0.083,0.633-0.159,1.323-0.231,2.04   c-0.343,3.706-0.647,7.664-0.647,11.318c-1.825-2.738-3.137-5.475-4.405-8.316c1.208-0.951,2.057-2.361,2.259-4.009   c0.406-3.303-1.947-6.313-5.251-6.719c-0.078-0.009-0.155-0.016-0.232-0.022c-3.217-0.271-6.095,2.046-6.491,5.272   c-0.397,3.23,1.836,6.176,5.022,6.691c0.077,0.012,0.154,0.024,0.232,0.034c1.154,0.142,2.271-0.054,3.255-0.508   c1.925,4.494,4.903,9.197,4.455,13.756c-0.02,0.375-0.024,0.786-0.024,1.252c0,1.049,0.021,2.382-0.063,4.234   c-0.029,0.618-0.069,1.294-0.127,2.036c-0.235-0.33-0.476-0.654-0.723-0.976c-0.247-0.319-0.5-0.634-0.757-0.945   c-0.259-0.31-0.522-0.614-0.791-0.912c-1.535-1.376-3.023-2.902-4.587-4.346c0.744-1.317,0.948-2.933,0.428-4.479   c-0.971-2.886-4.102-4.441-6.989-3.47c-0.067,0.023-0.134,0.048-0.2,0.073c-2.762,1.048-4.221,4.097-3.273,6.915   c0.949,2.822,3.955,4.371,6.789,3.537c0.068-0.02,0.136-0.04,0.204-0.063c1.073-0.36,1.96-1.021,2.604-1.854   c1.5,1.36,2.858,2.895,3.937,4.731c0.343,0.555,0.641,1.104,0.902,1.642c2.609,5.627,0.991,11.402,0.744,17.353   c-0.032,0.351-0.063,0.709-0.095,1.074c-0.071,0.79-0.143,1.614-0.216,2.455c-0.476,5.491-0.98,11.764-1.206,14.588   c1.357,0.674,2.925,1.061,4.598,1.061c1.669,0,3.233-0.386,4.588-1.055c-0.593-2.758-1.507-8.345-2.026-14.839   c-0.084-1.049-0.159-2.121-0.218-3.211c-0.031-0.475-0.058-0.951-0.085-1.427c-0.259-2.957-0.473-6.016-0.565-9.064   c1.413-1.347,3.748-2.912,5.96-4.23c0.074,0.434,0.197,0.866,0.383,1.288c1.2,2.725,4.334,3.994,7.08,2.907   c0.066-0.026,0.133-0.053,0.197-0.082c2.788-1.229,4.053-4.487,2.823-7.277C66.305,57.474,63.047,56.208,60.26,57.437z" stroke="none" fill="url('#linearGradientSkdiqwf9d2bl')" style=""></path></g></svg></g><g transform="matrix(1.1055,0,0,1.1055,177.2744,211.9324)"><svg width="317" height="196" style="overflow: visible;"><defs><linearGradient x1="0" y1="0.5" x2="1" y2="0.5" id="linearGradientSkdiqwf9d2lq"><stop offset="0%" stop-color="#232936"></stop><stop offset="100%" stop-color="#232936"></stop></linearGradient></defs><g><path d="M-125.74999999999999 1.2Q-134.54999999999998 1.2 -141.14999999999998-2.6Q-147.75-6.4 -151.35-13.35Q-154.95-20.3 -154.95-29.7L-154.95-29.7Q-154.95-40 -150.54999999999998-48Q-146.14999999999998-56 -138.14999999999998-60.45Q-130.14999999999998-64.9 -119.85-64.9L-119.85-64.9Q-116.14999999999999-64.9 -111.85-64.35Q-107.54999999999998-63.8 -104.44999999999999-63.25Q-101.35-62.7 -100.44999999999999-62.5L-100.44999999999999-62.5L-100.04999999999998-61.9Q-100.24999999999999-61.3 -100.74999999999999-59Q-101.24999999999999-56.7 -101.79999999999998-53Q-102.35-49.3 -102.64999999999999-45.2L-102.64999999999999-45.2L-107.35-44.8Q-107.24999999999999-45.3 -107.14999999999999-46.75Q-107.04999999999998-48.2 -107.04999999999998-50.2L-107.04999999999998-50.2Q-107.04999999999998-54.8 -110.6-56.9Q-114.14999999999999-59 -122.14999999999999-59L-122.14999999999999-59Q-133.54999999999998-59 -139.89999999999998-52.15Q-146.25-45.3 -146.25-32.9L-146.25-32.9Q-146.25-24.2 -143.45-17.6Q-140.64999999999998-11 -135.45-7.4Q-130.25-3.8 -123.44999999999999-3.8L-123.44999999999999-3.8Q-119.85-3.8 -116.85-4.65Q-113.85-5.5 -111.79999999999998-6.5Q-109.74999999999999-7.5 -109.74999999999999-7.6L-109.74999999999999-7.6L-109.74999999999999-19.8Q-109.74999999999999-23.2 -110.79999999999998-24.2Q-111.85-25.2 -115.24999999999999-25.2L-115.24999999999999-25.2L-122.14999999999999-25.2L-122.35-25.6L-121.44999999999999-30.6Q-120.24999999999999-30.5 -116.35-30.35Q-112.44999999999999-30.2 -108.74999999999999-30.2L-108.74999999999999-30.2Q-106.04999999999998-30.2 -103.44999999999999-30.4Q-100.85-30.6 -100.14999999999999-30.7L-100.14999999999999-30.7L-99.74999999999999-28.5Q-101.54999999999998-27 -102.19999999999999-23.75Q-102.85-20.5 -102.85-13.1L-102.85-13.1Q-102.85-7.3 -102.14999999999999-4.3L-102.14999999999999-4.3L-102.74999999999999-3.4Q-102.74999999999999-3.3 -106.29999999999998-2.05Q-109.85-0.8 -114.99999999999999 0.2Q-120.14999999999999 1.2 -125.74999999999999 1.2L-125.74999999999999 1.2ZM-41.04999999999998 1.6Q-43.54999999999998 1.6 -46.399999999999984-0.95Q-49.249999999999986-3.5 -51.649999999999984-7.9L-51.649999999999984-7.9L-62.34999999999999-27.3L-70.64999999999998-27.3L-70.94999999999999-12.4Q-70.94999999999999-8.6 -70.44999999999999-6.95Q-69.94999999999999-5.3 -68.54999999999998-4.75Q-67.14999999999998-4.2 -63.749999999999986-4.2L-63.749999999999986-4.2L-63.54999999999998-3.8L-64.44999999999999 0.4Q-65.64999999999998 0.3 -69.24999999999999 0.2Q-72.85 0.1 -76.74999999999999 0.1L-76.74999999999999 0.1Q-80.24999999999999 0.1 -82.94999999999999 0.2Q-85.64999999999999 0.3 -86.54999999999998 0.4L-86.54999999999998 0.4L-85.64999999999999-4.1Q-82.44999999999999-4.5 -80.84999999999998-5.2Q-79.24999999999999-5.9 -78.64999999999999-7.45Q-78.04999999999998-9 -78.04999999999998-12L-78.04999999999998-12L-77.94999999999999-54Q-77.94999999999999-57.2 -78.69999999999999-58.3Q-79.44999999999999-59.4 -81.64999999999999-59.4L-81.64999999999999-59.4Q-82.64999999999999-59.4 -83.64999999999999-59.3Q-84.64999999999999-59.2 -85.04999999999998-59.2L-85.04999999999998-59.2L-85.24999999999999-59.6L-84.54999999999998-64Q-83.34999999999998-63.9 -80.04999999999998-63.8Q-76.74999999999999-63.7 -73.44999999999999-63.7L-73.44999999999999-63.7Q-70.04999999999998-63.7 -66.29999999999998-63.85Q-62.54999999999998-64 -61.149999999999984-64.1L-61.149999999999984-64.1Q-51.84999999999999-64.1 -46.44999999999999-59.9Q-41.04999999999998-55.7 -41.04999999999998-48.4L-41.04999999999998-48.4Q-41.04999999999998-42.4 -44.899999999999984-37.4Q-48.749999999999986-32.4 -55.749999999999986-29.2L-55.749999999999986-29.2L-44.749999999999986-11.8Q-41.84999999999999-7 -39.09999999999999-5.15Q-36.34999999999999-3.3 -32.34999999999999-3.3L-32.34999999999999-3.3L-31.94999999999999-2.9L-32.54999999999998 0.5L-41.04999999999998 1.6ZM-60.149999999999984-31.9Q-60.149999999999984-31.6 -57.149999999999984-33.2Q-54.149999999999984-34.8 -51.749999999999986-38.1Q-49.34999999999999-41.4 -49.34999999999999-46.6L-49.34999999999999-46.6Q-49.34999999999999-59.8 -67.64999999999998-59.8L-67.64999999999998-59.8Q-68.64999999999998-59.8 -68.99999999999999-59.35Q-69.35-58.9 -69.44999999999999-57.5L-69.44999999999999-57.5Q-70.35-42.2 -70.44999999999999-32.9L-70.44999999999999-32.9L-60.149999999999984-31.9ZM 21.75000000000001-17.2L 22.050000000000015-16.7Q 20.350000000000012-8.6  19.350000000000012 0.1L 19.350000000000012 0.1L 18.850000000000012 0.7Q-2.149999999999988 0 -11.449999999999989 0L-11.449999999999989 0Q-18.849999999999987 0 -25.349999999999987 1L-25.349999999999987 1L-24.749999999999986-3.6Q-20.249999999999986-4.2 -18.599999999999987-5.95Q-16.94999999999999-7.7 -16.94999999999999-12L-16.94999999999999-12L-16.849999999999987-54Q-16.849999999999987-57.2 -17.599999999999987-58.3Q-18.349999999999987-59.4 -20.54999999999999-59.4L-20.54999999999999-59.4L-23.94999999999999-59.2L-24.149999999999988-59.6L-23.44999999999999-64Q-13.24999999999999-63.7 -9.549999999999986-63.7L-9.549999999999986-63.7Q 2.350000000000012-63.7  8.950000000000014-63.95Q 15.550000000000015-64.2  20.450000000000014-64.9L 20.450000000000014-64.9L 20.75000000000001-64.3Q 18.950000000000014-56.4  18.450000000000014-47.7L 18.450000000000014-47.7L 13.65000000000001-47.3L 13.850000000000012-51.6Q 13.850000000000012-55.1  12.950000000000014-56.45Q 12.050000000000015-57.8  9.050000000000015-58.25Q 6.050000000000015-58.7 -1.4499999999999886-58.7L-1.4499999999999886-58.7Q-4.949999999999989-58.7 -6.249999999999989-58.5Q-7.5499999999999865-58.3 -7.949999999999989-57.55Q-8.349999999999987-56.8 -8.449999999999989-54.8L-8.449999999999989-54.8L-9.24999999999999-35.4L 1.050000000000015-35.3Q 4.9500000000000135-35.3  13.25000000000001-36.4L 13.25000000000001-36.4L 13.65000000000001-35.9L 12.25000000000001-30Q 1.1500000000000092-30.3 -1.7499999999999893-30.3L-1.7499999999999893-30.3Q-5.0499999999999865-30.3 -9.449999999999989-29.6L-9.449999999999989-29.6L-9.849999999999987-10.5Q-9.849999999999987-7.6 -9.349999999999987-6.45Q-8.849999999999987-5.3 -7.2999999999999865-4.9Q-5.749999999999989-4.5 -1.9499999999999886-4.5L-1.9499999999999886-4.5Q 6.4500000000000135-4.5  10.00000000000001-5.3Q 13.550000000000015-6.1  15.050000000000015-8.5Q 16.550000000000015-10.9  17.350000000000012-16.7L 17.350000000000012-16.7L 21.75000000000001-17.2ZM 80.85-17.2L 81.15-16.7Q 79.45-8.6  78.45 0.1L 78.45 0.1L 77.95 0.7Q 56.95 0  47.65 0L 47.65 0Q 40.25 0  33.75 1L 33.75 1L 34.35-3.6Q 38.85-4.2  40.5-5.95Q 42.15-7.7  42.15-12L 42.15-12L 42.25-54Q 42.25-57.2  41.5-58.3Q 40.75-59.4  38.55-59.4L 38.55-59.4L 35.15-59.2L 34.95-59.6L 35.65-64Q 45.849999999999994-63.7  49.55-63.7L 49.55-63.7Q 61.45-63.7  68.05-63.95Q 74.65-64.2  79.55-64.9L 79.55-64.9L 79.85-64.3Q 78.05-56.4  77.55-47.7L 77.55-47.7L 72.75-47.3L 72.95-51.6Q 72.95-55.1  72.05-56.45Q 71.15-57.8  68.15-58.25Q 65.15-58.7  57.65-58.7L 57.65-58.7Q 54.15-58.7  52.849999999999994-58.5Q 51.55-58.3  51.15-57.55Q 50.75-56.8  50.65-54.8L 50.65-54.8L 49.849999999999994-35.4L 60.150000000000006-35.3Q 64.05-35.3  72.35-36.4L 72.35-36.4L 72.75-35.9L 71.35-30Q 60.25-30.3  57.349999999999994-30.3L 57.349999999999994-30.3Q 54.05-30.3  49.65-29.6L 49.65-29.6L 49.25-10.5Q 49.25-7.6  49.75-6.45Q 50.25-5.3  51.8-4.9Q 53.349999999999994-4.5  57.15-4.5L 57.15-4.5Q 65.55-4.5  69.1-5.3Q 72.65-6.1  74.15-8.5Q 75.65-10.9  76.45-16.7L 76.45-16.7L 80.85-17.2ZM 144.05 4Q 135.35000000000002-9.5  127.10000000000001-21.75Q 118.85000000000001-34  113.55000000000001-41.55Q 108.25000000000001-49.1  106.85000000000001-51.1L 106.85000000000001-51.1L 106.35000000000001-51.1L 105.85000000000001-8.4Q 105.85000000000001-6.2  106.55000000000001-5.3Q 107.25000000000001-4.4  108.95000000000002-4.4L 108.95000000000002-4.4L 114.05000000000001-4.5L 114.25000000000001-4.1L 113.35000000000001 0.4Q 112.25000000000001 0.3  108.85000000000001 0.15Q 105.45000000000002 0  102.75000000000001 0L 102.75000000000001 0Q 100.25000000000001 0  97.30000000000001 0.35Q 94.35000000000001 0.7  93.45000000000002 0.8L 93.45000000000002 0.8L 93.95000000000002-3.8Q 97.05000000000001-4.2  98.55000000000001-5.65Q 100.05000000000001-7.1  100.15-10.1L 100.15-10.1L 101.45000000000002-53.8Q 101.45000000000002-56.9  99.60000000000001-58.2Q 97.75000000000001-59.5  92.75000000000001-60L 92.75000000000001-60L 92.45000000000002-60.5L 93.25000000000001-64.2Q 94.15-64.1  97.15-63.9Q 100.15-63.7  101.85000000000001-63.7L 101.85000000000001-63.7Q 103.95000000000002-63.7  105.95000000000002-63.85Q 107.95000000000002-64  108.55000000000001-64.1L 108.55000000000001-64.1Q 115.95000000000002-52.6  123.4-41.6Q 130.85000000000002-30.6  135.85000000000002-23.5Q 140.85000000000002-16.4  142.15-14.5L 142.15-14.5L 142.65-14.5L 142.65-55Q 142.65-59.3  139.35000000000002-59.3L 139.35000000000002-59.3L 135.55-59.2L 135.35000000000002-59.6L 136.25-64.1Q 137.25-64  140.05-63.85Q 142.85000000000002-63.7  145.75-63.7L 145.75-63.7Q 148.35000000000002-63.7  151.5-64.05Q 154.65-64.4  155.65-64.5L 155.65-64.5L 155.15-59.9Q 151.65-59.4  150.05-57.95Q 148.45000000000002-56.5  148.35000000000002-53.6L 148.35000000000002-53.6L 146.95000000000002 2.6L 144.05 4Z" data-textpath="GREEN" data-text-anchor="middle" data-font-size="100" data-letterspacing="0" data-side="left" data-offset="0" data-dx="0" data-dy="102" data-xmlspace="preserve" data-href="" data-font="Alegreya" data-font-src="/Content/clientfonts/alegreya.woff" data-font-scale="contain" transform="translate(158.5,102)" data-x="158.5" data-y="0" fill="url('#linearGradientSkdiqwf9d2lq')"></path></g></svg></g><g transform="matrix(1.1055,0,0,1.1055,100.4436,300.9324)"><svg width="456" height="196" style="overflow: visible;"><defs><linearGradient x1="0" y1="0.5" x2="1" y2="0.5" id="linearGradientSkdiqwf9d2lt"><stop offset="0%" stop-color="#232936"></stop><stop offset="100%" stop-color="#232936"></stop></linearGradient></defs><g><path d="M-196.35000000000005 1.2Q-204.45000000000005 1.2 -210.75000000000003-2.7Q-217.05000000000004-6.6 -220.55000000000004-13.65Q-224.05000000000004-20.7 -224.05000000000004-29.7L-224.05000000000004-29.7Q-224.05000000000004-39.5 -219.70000000000005-47.55Q-215.35000000000005-55.6 -207.80000000000004-60.25Q-200.25000000000003-64.9 -191.15000000000003-64.9L-191.15000000000003-64.9Q-182.85000000000002-64.9 -176.45000000000005-61Q-170.05000000000004-57.1 -166.45000000000005-50.1Q-162.85000000000002-43.1 -162.85000000000002-34.1L-162.85000000000002-34.1Q-162.85000000000002-24.3 -167.30000000000004-16.2Q-171.75000000000006-8.1 -179.40000000000003-3.45Q-187.05000000000004 1.2 -196.35000000000005 1.2L-196.35000000000005 1.2ZM-193.25000000000006-3.9Q-186.95000000000005-3.9 -182.05000000000004-7.2Q-177.15000000000003-10.5 -174.45000000000005-16.4Q-171.75000000000006-22.3 -171.75000000000006-29.9L-171.75000000000006-29.9Q-171.75000000000006-38.4 -174.65000000000003-44.95Q-177.55000000000004-51.5 -182.70000000000005-55.2Q-187.85000000000002-58.9 -194.55000000000004-58.9L-194.55000000000004-58.9Q-200.65000000000003-58.9 -205.40000000000003-55.6Q-210.15000000000003-52.3 -212.80000000000004-46.4Q-215.45000000000005-40.5 -215.45000000000005-32.9L-215.45000000000005-32.9Q-215.45000000000005-24.4 -212.65000000000003-17.85Q-209.85000000000005-11.3 -204.80000000000004-7.6Q-199.75000000000003-3.9 -193.25000000000006-3.9L-193.25000000000006-3.9ZM-107.65000000000005 1.6Q-110.15000000000005 1.6 -113.00000000000006-0.95Q-115.85000000000005-3.5 -118.25000000000006-7.9L-118.25000000000006-7.9L-128.95000000000005-27.3L-137.25000000000006-27.3L-137.55000000000004-12.4Q-137.55000000000004-8.6 -137.05000000000004-6.95Q-136.55000000000004-5.3 -135.15000000000006-4.75Q-133.75000000000006-4.2 -130.35000000000005-4.2L-130.35000000000005-4.2L-130.15000000000006-3.8L-131.05000000000004 0.4Q-132.25000000000006 0.3 -135.85000000000005 0.2Q-139.45000000000005 0.1 -143.35000000000005 0.1L-143.35000000000005 0.1Q-146.85000000000005 0.1 -149.55000000000004 0.2Q-152.25000000000006 0.3 -153.15000000000006 0.4L-153.15000000000006 0.4L-152.25000000000006-4.1Q-149.05000000000004-4.5 -147.45000000000005-5.2Q-145.85000000000005-5.9 -145.25000000000006-7.45Q-144.65000000000006-9 -144.65000000000006-12L-144.65000000000006-12L-144.55000000000004-54Q-144.55000000000004-57.2 -145.30000000000004-58.3Q-146.05000000000004-59.4 -148.25000000000006-59.4L-148.25000000000006-59.4Q-149.25000000000006-59.4 -150.25000000000006-59.3Q-151.25000000000006-59.2 -151.65000000000006-59.2L-151.65000000000006-59.2L-151.85000000000005-59.6L-151.15000000000006-64Q-149.95000000000005-63.9 -146.65000000000006-63.8Q-143.35000000000005-63.7 -140.05000000000004-63.7L-140.05000000000004-63.7Q-136.65000000000006-63.7 -132.90000000000006-63.85Q-129.15000000000006-64 -127.75000000000006-64.1L-127.75000000000006-64.1Q-118.45000000000005-64.1 -113.05000000000005-59.9Q-107.65000000000005-55.7 -107.65000000000005-48.4L-107.65000000000005-48.4Q-107.65000000000005-42.4 -111.50000000000006-37.4Q-115.35000000000005-32.4 -122.35000000000005-29.2L-122.35000000000005-29.2L-111.35000000000005-11.8Q-108.45000000000005-7 -105.70000000000005-5.15Q-102.95000000000005-3.3 -98.95000000000005-3.3L-98.95000000000005-3.3L-98.55000000000005-2.9L-99.15000000000005 0.5L-107.65000000000005 1.6ZM-126.75000000000006-31.9Q-126.75000000000006-31.6 -123.75000000000006-33.2Q-120.75000000000006-34.8 -118.35000000000005-38.1Q-115.95000000000005-41.4 -115.95000000000005-46.6L-115.95000000000005-46.6Q-115.95000000000005-59.8 -134.25000000000006-59.8L-134.25000000000006-59.8Q-135.25000000000006-59.8 -135.60000000000005-59.35Q-135.95000000000005-58.9 -136.05000000000004-57.5L-136.05000000000004-57.5Q-136.95000000000005-42.2 -137.05000000000004-32.9L-137.05000000000004-32.9L-126.75000000000006-31.9ZM-64.85000000000002 1.2Q-73.85000000000002 1.2 -80.65-2.6Q-87.45000000000002-6.4 -91.10000000000001-13.35Q-94.75000000000001-20.3 -94.75000000000001-29.7L-94.75000000000001-29.7Q-94.75000000000001-39.7 -90.25000000000001-47.75Q-85.75000000000001-55.8 -77.80000000000001-60.35Q-69.85000000000002-64.9 -59.850000000000016-64.9L-59.850000000000016-64.9Q-56.15000000000001-64.9 -52.30000000000001-64.35Q-48.45000000000002-63.8 -45.80000000000001-63.25Q-43.15000000000001-62.7 -42.45000000000002-62.5L-42.45000000000002-62.5L-42.05000000000001-61.9Q-42.250000000000014-61.3 -42.70000000000002-59Q-43.15000000000001-56.7 -43.70000000000002-53Q-44.250000000000014-49.3 -44.55000000000001-45.2L-44.55000000000001-45.2L-49.350000000000016-44.8Q-49.250000000000014-45.3 -49.15000000000001-46.65Q-49.05000000000001-48 -49.05000000000001-49.7L-49.05000000000001-49.7Q-49.05000000000001-59 -63.750000000000014-59L-63.750000000000014-59Q-70.35000000000002-59 -75.35000000000002-55.8Q-80.35000000000002-52.6 -83.05000000000001-46.75Q-85.75000000000001-40.9 -85.75000000000001-33L-85.75000000000001-33Q-85.75000000000001-24.3 -82.90000000000002-17.7Q-80.05000000000001-11.1 -74.85000000000002-7.45Q-69.65-3.8 -62.850000000000016-3.8L-62.850000000000016-3.8Q-56.05000000000001-3.8 -51.90000000000001-7.65Q-47.750000000000014-11.5 -45.850000000000016-19.6L-45.850000000000016-19.6L-41.05000000000001-20Q-41.350000000000016-18.5 -42.350000000000016-13.35Q-43.350000000000016-8.2 -43.750000000000014-3.7L-43.750000000000014-3.7L-44.350000000000016-2.8Q-44.350000000000016-2.7 -47.40000000000001-1.65Q-50.45000000000002-0.6 -55.000000000000014 0.3Q-59.55000000000001 1.2 -64.85000000000002 1.2L-64.85000000000002 1.2ZM-30.350000000000012 1.2L-29.750000000000014-3.4Q-25.150000000000013-4.3 -23.55000000000001-6.05Q-21.950000000000014-7.8 -21.950000000000014-12L-21.950000000000014-12L-21.850000000000012-54Q-21.850000000000012-57.2 -22.600000000000012-58.3Q-23.350000000000012-59.4 -25.55000000000001-59.4L-25.55000000000001-59.4L-28.950000000000014-59.2L-29.150000000000013-59.6L-28.450000000000014-64Q-27.150000000000013-64 -26.450000000000014-63.9L-26.450000000000014-63.9Q-20.450000000000014-63.7 -17.350000000000012-63.7L-17.350000000000012-63.7Q-13.150000000000013-63.7 -6.650000000000013-64.6L-6.650000000000013-64.6L-7.050000000000011-60.1Q-10.050000000000011-59.6 -11.300000000000011-58.9Q-12.550000000000011-58.2 -13.000000000000014-56.55Q-13.450000000000014-54.9 -13.650000000000013-51.1L-13.650000000000013-51.1L-14.250000000000014-34.9L 2.54999999999999-34.8Q 8.849999999999987-34.8  17.349999999999987-35.8L 17.349999999999987-35.8L 17.44999999999999-54Q 17.44999999999999-57.2  16.69999999999999-58.3Q 15.949999999999989-59.4  13.749999999999986-59.4L 13.749999999999986-59.4Q 12.349999999999987-59.4  10.349999999999987-59.2L 10.349999999999987-59.2L 10.149999999999984-59.6L 10.849999999999987-64Q 11.949999999999989-63.9  14.849999999999987-63.8Q 17.749999999999986-63.7  20.649999999999984-63.7L 20.649999999999984-63.7Q 25.44999999999999-63.7  32.649999999999984-64.6L 32.649999999999984-64.6L 32.24999999999999-60.1Q 28.54999999999999-59.6  27.249999999999986-58.45Q 25.94999999999999-57.3  25.849999999999987-54.4L 25.849999999999987-54.4Q 25.249999999999986-43.1  24.849999999999987-30.15Q 24.44999999999999-17.2  24.44999999999999-10.6L 24.44999999999999-10.6Q 24.44999999999999-6.9  25.349999999999987-5.65Q 26.249999999999986-4.4  28.849999999999987-4.4L 28.849999999999987-4.4Q 30.04999999999999-4.4  33.34999999999999-4.7L 33.34999999999999-4.7L 33.54999999999999-4.3L 32.649999999999984 0.3Q 31.249999999999993 0.3  30.44999999999998 0.2L 30.44999999999998 0.2Q 23.849999999999987 0  20.349999999999987 0L 20.349999999999987 0L 8.849999999999987 0.2L 9.749999999999986-4.3Q 13.04999999999999-4.4  14.599999999999987-5.2Q 16.149999999999984-6  16.749999999999986-8.2Q 17.349999999999987-10.4  17.349999999999987-15L 17.349999999999987-15L 17.349999999999987-30.1L 2.1499999999999844-30.2Q-0.35000000000001563-30.1 -4.850000000000012-29.85Q-9.350000000000012-29.6 -14.450000000000014-29.1L-14.450000000000014-29.1L-14.850000000000012-11.2Q-14.850000000000012-7.1 -13.950000000000014-5.75Q-13.050000000000011-4.4 -10.450000000000014-4.4L-10.450000000000014-4.4Q-9.250000000000014-4.4 -5.9500000000000135-4.7L-5.9500000000000135-4.7L-5.750000000000014-4.3L-6.650000000000013 0.3Q-7.550000000000011 0.2 -10.050000000000011 0.1Q-12.550000000000011 0 -15.150000000000013 0L-15.150000000000013 0Q-19.750000000000014 0 -25.000000000000014 0.4Q-30.250000000000014 0.8 -30.350000000000012 1.2L-30.350000000000012 1.2ZM 71.44999999999999 1L 71.14999999999998 0.3L 71.54999999999998-3.6Q 76.64999999999998-4  78.54999999999998-4.8Q 80.44999999999999-5.6  80.44999999999999-7.4L 80.44999999999999-7.4Q 80.44999999999999-9.4  79.54999999999998-12.2L 79.54999999999998-12.2L 76.24999999999999-23.1Q 73.85-23.2  65.85-23.2L 65.85-23.2Q 61.04999999999998-23.2  54.94999999999999-22.4L 54.94999999999999-22.4L 51.249999999999986-12Q 50.34999999999999-9.3  50.34999999999999-8.1L 50.34999999999999-8.1Q 50.34999999999999-5.9  51.749999999999986-4.95Q 53.149999999999984-4  56.34999999999999-4L 56.34999999999999-4L 62.04999999999998-4L 62.249999999999986-3.6L 61.649999999999984 0.7Q 60.44999999999999 0.6  56.149999999999984 0.3Q 51.84999999999999 0  47.749999999999986 0L 47.749999999999986 0Q 44.04999999999998 0  40.899999999999984 0.1Q 37.749999999999986 0.2 36.749999999999986 0.3L 36.749999999999986 0.3L 37.54999999999998-4.4Q 40.34999999999999-4.7  42.04999999999998-6.35Q 43.749999999999986-8  45.34999999999999-12.1L 45.34999999999999-12.1L 64.85-63.2L 71.14999999999998-64.9L 71.94999999999999-64.9Q 72.54999999999998-62.5  74.99999999999999-53.8Q 77.44999999999999-45.1  80.99999999999999-33.2Q 84.54999999999998-21.3  87.85-11.3L 87.85-11.3Q 89.04999999999998-7.6  91.04999999999998-6.1Q 93.04999999999998-4.6  97.44999999999999-4.2L 97.44999999999999-4.2L 97.64999999999998-3.8L 96.94999999999999 0.3Q 95.74999999999999 0.3  92.6 0.15Q 89.44999999999999 0  86.35 0L 86.35 0Q 81.54999999999998 0  77.1 0.4Q 72.64999999999998 0.8  71.44999999999999 1L 71.44999999999999 1ZM 56.749999999999986-27.3L 65.54999999999998-27.3Q 69.14999999999998-27.3  74.85-27.8L 74.85-27.8L 66.94999999999999-54L 66.24999999999999-54L 56.749999999999986-27.3ZM 147.85000000000002 1.6Q 145.35000000000002 1.6  142.5-0.95Q 139.65-3.5  137.25-7.9L 137.25-7.9L 126.55000000000001-27.3L 118.25-27.3L 117.95-12.4Q 117.95-8.6  118.45-6.95Q 118.95-5.3  120.35000000000001-4.75Q 121.75-4.2  125.15-4.2L 125.15-4.2L 125.35000000000001-3.8L 124.45 0.4Q 123.25 0.3  119.65 0.2Q 116.05000000000001 0.1  112.15 0.1L 112.15 0.1Q 108.65 0.1  105.95 0.2Q 103.25 0.3  102.35000000000001 0.4L 102.35000000000001 0.4L 103.25-4.1Q 106.45-4.5  108.05000000000001-5.2Q 109.65-5.9  110.25-7.45Q 110.85000000000001-9  110.85000000000001-12L 110.85000000000001-12L 110.95-54Q 110.95-57.2  110.2-58.3Q 109.45-59.4  107.25-59.4L 107.25-59.4Q 106.25-59.4  105.25-59.3Q 104.25-59.2  103.85000000000001-59.2L 103.85000000000001-59.2L 103.65-59.6L 104.35000000000001-64Q 105.55000000000001-63.9  108.85000000000001-63.8Q 112.15-63.7  115.45-63.7L 115.45-63.7Q 118.85000000000001-63.7  122.60000000000001-63.85Q 126.35000000000001-64  127.75-64.1L 127.75-64.1Q 137.05-64.1  142.45-59.9Q 147.85000000000002-55.7  147.85000000000002-48.4L 147.85000000000002-48.4Q 147.85000000000002-42.4  144-37.4Q 140.15-32.4  133.15-29.2L 133.15-29.2L 144.15-11.8Q 147.05-7  149.8-5.15Q 152.55-3.3  156.55-3.3L 156.55-3.3L 156.95-2.9L 156.35000000000002 0.5L 147.85000000000002 1.6ZM 128.75-31.9Q 128.75-31.6  131.75-33.2Q 134.75-34.8  137.15-38.1Q 139.55-41.4  139.55-46.6L 139.55-46.6Q 139.55-59.8  121.25-59.8L 121.25-59.8Q 120.25-59.8  119.9-59.35Q 119.55000000000001-58.9  119.45-57.5L 119.45-57.5Q 118.55000000000001-42.2  118.45-32.9L 118.45-32.9L 128.75-31.9ZM 189.45000000000002 1.2Q 187.95000000000002 1  183.10000000000002 0.5Q 178.25000000000003 0  175.05000000000004 0L 175.05000000000004 0Q 171.95000000000002 0  168.30000000000004 0.5Q 164.65000000000003 1  163.55000000000004 1.2L 163.55000000000004 1.2L 164.15000000000003-3.4Q 168.75000000000003-4.3  170.35000000000002-6.05Q 171.95000000000002-7.8  171.95000000000002-12L 171.95000000000002-12L 172.05000000000004-54Q 172.05000000000004-57.2  171.30000000000004-58.3Q 170.55000000000004-59.4  168.35000000000002-59.4L 168.35000000000002-59.4Q 167.35000000000002-59.4  166.35000000000002-59.3Q 165.35000000000002-59.2  164.95000000000002-59.2L 164.95000000000002-59.2L 164.75000000000003-59.6L 165.45000000000002-64Q 166.55000000000004-63.9  169.65000000000003-63.8Q 172.75000000000003-63.7  175.95000000000002-63.7L 175.95000000000002-63.7Q 180.25000000000003-63.7  184.85000000000002-63.85Q 189.45000000000002-64  191.15000000000003-64.1L 191.15000000000003-64.1Q 200.75000000000003-64.1  208.25000000000003-60.35Q 215.75000000000003-56.6  219.90000000000003-49.8Q 224.05-43  224.05-34.2L 224.05-34.2Q 224.05-24.4  219.45000000000005-16.3Q 214.85000000000002-8.2  206.95000000000005-3.5Q 199.05 1.2  189.45000000000002 1.2L 189.45000000000002 1.2ZM 184.25000000000003-59.2Q 182.15000000000003-59.2  181.45000000000002-58.75Q 180.75000000000003-58.3  180.65000000000003-57L 180.65000000000003-57Q 179.15000000000003-18.5  179.15000000000003-13.1L 179.15000000000003-13.1Q 179.15000000000003-9.3  180.20000000000002-7.4Q 181.25000000000003-5.5  183.90000000000003-4.7Q 186.55000000000004-3.9  191.75000000000003-3.9L 191.75000000000003-3.9Q 202.55-3.9  208.75000000000003-11.35Q 214.95000000000005-18.8  214.95000000000005-31.8L 214.95000000000005-31.8Q 214.95000000000005-45  207.00000000000003-52.1Q 199.05-59.2  184.25000000000003-59.2L 184.25000000000003-59.2Z" data-textpath="ORCHARD" data-text-anchor="middle" data-font-size="100" data-letterspacing="0" data-side="left" data-offset="0" data-dx="0" data-dy="102" data-xmlspace="preserve" data-href="" data-font="Alegreya" data-font-src="/Content/clientfonts/alegreya.woff" data-font-scale="contain" transform="translate(228,102)" data-x="228" data-y="0" fill="url('#linearGradientSkdiqwf9d2lt')"></path></g></svg></g></g></svg>