<?xml version="1.0" encoding="utf-8"?>
<!-- Generator: Adobe Illustrator 22.1.0, SVG Export Plug-In . SVG Version: 6.00 Build 0)  -->
<svg version="1.1" xmlns="http://www.w3.org/2000/svg" xmlns:xlink="http://www.w3.org/1999/xlink" x="0px" y="0px"
	 viewBox="0 0 1400 1400" style="enable-background:new 0 0 1400 1400;" xml:space="preserve">
<style type="text/css">
	.st0{fill:#D3D9DD;}
	.st1{fill:url(#SVGID_1_);}
	.st2{fill:url(#SVGID_2_);}
	.st3{fill:#FFF0D6;}
	.st4{fill:#2B5899;}
	.st5{opacity:0.27;fill:url(#SVGID_3_);}
	.st6{fill:#EFA500;}
	.st7{opacity:0.36;fill:#1C1D1E;}
	.st8{font-family:'SquadaOne-Regular';}
	.st9{font-size:59.3504px;}
	.st10{font-size:113.3529px;}
	.st11{font-size:46.0925px;}
	.st12{letter-spacing:4;}
	.st13{font-size:60.0852px;}
	.st14{font-size:54.8499px;}
	.st15{fill:none;}
	.st16{font-size:26.7634px;}
	.st17{font-size:35.1979px;}
	.st18{letter-spacing:3;}
</style>
<g id="Layer_2">
	<rect class="st0" width="1400" height="1400"/>
	<g>
		<linearGradient id="SVGID_1_" gradientUnits="userSpaceOnUse" x1="341.0057" y1="1328.5521" x2="887.8395" y2="1239.0702">
			<stop  offset="0" style="stop-color:#D3D9DD"/>
			<stop  offset="0.1339" style="stop-color:#C8CED1"/>
			<stop  offset="0.3738" style="stop-color:#ABAFB2"/>
			<stop  offset="0.6894" style="stop-color:#7C7E81"/>
			<stop  offset="1" style="stop-color:#474849"/>
		</linearGradient>
		<polygon class="st1" points="306,1295.6 306,1373 696.1,1295.6 		"/>
		<linearGradient id="SVGID_2_" gradientUnits="userSpaceOnUse" x1="1084.8561" y1="1333.1855" x2="504.3263" y2="1265.4265">
			<stop  offset="0" style="stop-color:#D3D9DD"/>
			<stop  offset="0.1339" style="stop-color:#C8CED1"/>
			<stop  offset="0.3738" style="stop-color:#ABAFB2"/>
			<stop  offset="0.6894" style="stop-color:#7C7E81"/>
			<stop  offset="1" style="stop-color:#474849"/>
		</linearGradient>
		<polygon class="st2" points="705.7,1295.6 1098,1373.4 1098,1296 1090.8,1295.6 		"/>
	</g>
</g>
<g id="Layer_1">
	<g>
		<rect x="282.6" y="105.8" class="st3" width="834.8" height="1188.5"/>
		<g>
			<rect x="282.6" y="105.8" class="st4" width="834.8" height="531.1"/>
			<radialGradient id="SVGID_3_" cx="702" cy="533.2864" r="373.0185" gradientUnits="userSpaceOnUse">
				<stop  offset="0" style="stop-color:#FFFFFF"/>
				<stop  offset="0.1087" style="stop-color:#F0F4F8"/>
				<stop  offset="0.3165" style="stop-color:#CAD5E6"/>
				<stop  offset="0.6019" style="stop-color:#8CA4C8"/>
				<stop  offset="0.9507" style="stop-color:#38629F"/>
				<stop  offset="1" style="stop-color:#2B5899"/>
			</radialGradient>
			<path class="st5" d="M832.3,532.8l285.1,13.5v-61.1l-286,13.6l286-62.2v-64.8l-295.5,94.4l295.5-152.4v-77.8L804.2,437.3
				l313.2-284.8v-46.8h-57.6L779.6,413.9l198-308.2h-77.3L749.8,397.7l93.3-291.9h-64.5l-61.8,284l13.5-284h-61l13.5,284.8
				l-62-284.8h-64.6l94.1,294.4L498.5,105.8h-77.7l200.5,312.1L337.6,105.8h-55v49.9l315.3,286.7L282.6,239.8V318l299.1,154.2
				l-299.1-95.6v65.2l291.1,63.4l-291.1-13.8V553l292-13.9l-292,63.5v34.1h97.8l203.8-65.1l-126.3,65.1h87.7l56.3-36.2l-39.8,36.2
				h52.7l11.6-12.7l-8.2,12.7h177.1l-10.7-16.6l15.1,16.6h53.6l-45.3-41.2l64.2,41.2H962l-137.7-71l222.3,71h70.8v-42L832.3,532.8z
				 M811,561.5l-15.1,26.2l0.4,0.3l-21.4,21.4l0.4,0.4L749,625l0.2,0.5l-29.2,7.8l0.1,0.5h-30.3l0,0.5l-29.2-7.8l-0.2,0.5
				l-26.2-15.1l-0.3,0.4l-21.4-21.4l-0.4,0.4L597,565l-0.5,0.2l-7.8-29.2l-0.5,0.1v-30.3l-0.5,0l7.8-29.2l-0.5-0.2l15.1-26.2
				l-0.4-0.3l21.4-21.4l-0.4-0.4L657,413l-0.2-0.5l29.2-7.8l-0.1-0.5h30.3l0-0.5l29.2,7.8l0.2-0.5l26.2,15.1l0.3-0.4l21.4,21.4
				l0.4-0.4L809,473l0.5-0.2l7.8,29.2l0.5-0.1v30.3l0.5,0l-7.8,29.2L811,561.5z"/>
			<rect x="532.2" y="836" class="st6" width="335.6" height="74"/>
			<g>
				<polygon class="st6" points="884.6,848.2 936,848.2 926.1,873.7 936,897.8 884.6,897.8 				"/>
				<polygon class="st6" points="515.4,897.8 464,897.8 473.9,872.3 464,848.2 515.4,848.2 				"/>
			</g>
			<g>
				<g id="XMLID_732_">
					<circle id="XMLID_671_" class="st6" cx="695" cy="470.8" r="92.4"/>
					<path id="XMLID_677_" class="st3" d="M695,333.8c-75.7,0-137,61.3-137,137c0,75.7,61.3,137,137,137s137-61.3,137-137
						C832,395.1,770.7,333.8,695,333.8z M588.6,436.2c5.6-17.3,19.9-29.4,34.7-29.4c2.7,0,5.4,0.4,8,1.3
						c17.5,5.7,40.7,32.9,34.2,53.1c-5,15.4-27.4,24.6-46.2,24.6c0,0,0,0,0,0c-4.8,0-9.1-0.6-12.6-1.7
						C589.9,478.6,581.8,457.1,588.6,436.2z M680.3,558.9c-5.3,7.2-14.2,11.4-24.5,11.4c0,0,0,0,0,0c-9.1,0-18.5-3.2-26.5-9
						c-8.9-6.4-15.1-15.3-17.5-24.9c-2.3-9.1-0.9-17.7,4-24.4c7.3-10.1,26.3-20.9,44.1-20.9c6.8,0,12.5,1.6,16.9,4.8
						C694,508.4,691.1,544,680.3,558.9z M695,439.7c-9.3,0-19.3-6.2-27.5-17c-7.6-10-12.5-22.5-12.5-31.9
						c0-17.6,17.9-31.9,39.9-31.9c22,0,39.9,14.3,39.9,31.9C734.9,409.3,716.3,439.7,695,439.7z M778.2,536.4
						c-2.4,9.6-8.6,18.5-17.5,24.9c-8,5.8-17.4,9-26.5,9c0,0,0,0,0,0c-10.3,0-19.3-4.1-24.5-11.4c-5.5-7.6-8.9-20.6-8.7-33.2
						c0.3-13.5,4.7-24.4,12.2-29.9c4.4-3.2,10.1-4.8,16.9-4.8c17.9,0,36.8,10.9,44.1,20.9C779.1,518.7,780.5,527.3,778.2,536.4z
						 M783.4,484c-3.5,1.1-7.9,1.7-12.6,1.7c0,0,0,0,0,0c-18.8,0-41.2-9.2-46.2-24.6c-2.9-8.8-0.1-20.3,7.6-31.4
						c7.2-10.3,17.6-18.8,26.5-21.7c2.6-0.8,5.3-1.3,8-1.3c14.8,0,29.1,12.1,34.7,29.4C808.2,457.1,800.1,478.6,783.4,484z"/>
				</g>
				<g>
					<circle class="st6" cx="695.3" cy="452" r="6"/>
					<circle class="st6" cx="677.4" cy="464.3" r="6"/>
					<circle class="st6" cx="683.5" cy="485.2" r="6"/>
					<circle class="st6" cx="705.3" cy="485.8" r="6"/>
					<circle class="st6" cx="712.6" cy="465.2" r="6"/>
				</g>
			</g>
			<path class="st7" d="M831.6,460h-28.7c-2.1,10.2-7.9,18.6-16.3,22.7c0.5-3.9,0.8-7.9,0.8-11.9c0-3.6-0.2-7.2-0.6-10.8h-62.6h-8.6
				h-5.9h-28.1h-8.4h-7.3h-62.6c-0.4,3.5-0.6,7.1-0.6,10.8c0,4,0.3,8,0.8,11.9c-8.4-4.1-14.2-12.5-16.3-22.7h-28.7
				c-0.3,3.6-0.4,7.2-0.4,10.8c0,75.7,61.3,137,137,137s137-61.3,137-137C832,467.2,831.9,463.6,831.6,460z M655.8,570.3
				c-9.1,0-18.5-3.2-26.5-9c-8.9-6.4-15.1-15.3-17.5-24.9c-2-7.8-1.2-15.2,2.1-21.4c13.1,24,36.5,41.5,64.2,46.6
				C672.6,567.2,664.7,570.3,655.8,570.3C655.8,570.3,655.8,570.3,655.8,570.3z M778.2,536.4c-2.4,9.6-8.6,18.5-17.5,24.9
				c-8,5.8-17.4,9-26.5,9c0,0,0,0,0,0c-9,0-16.9-3.1-22.2-8.7c27.7-5.1,51.1-22.7,64.2-46.6C779.4,521.2,780.2,528.6,778.2,536.4z"
				/>
			<rect x="282.6" y="546" class="st6" width="834.8" height="130"/>
			<g>
				<rect x="282.6" y="559" class="st4" width="834.8" height="7.9"/>
				<rect x="282.6" y="657.9" class="st4" width="834.8" height="7.9"/>
			</g>
			<text transform="matrix(1 0 0 1 513.7383 195.5181)" class="st3 st8 st9">YOUR PRODUCTION</text>
			<g>
				<g>
					<polygon class="st3" points="426.9,588 433.1,600.5 446.9,602.5 436.9,612.3 439.3,626.1 426.9,619.6 414.5,626.1 416.9,612.3 
						406.9,602.5 420.7,600.5 					"/>
					<polygon class="st3" points="378,588 384.2,600.5 398,602.5 388,612.3 390.4,626.1 378,619.6 365.6,626.1 368,612.3 358,602.5 
						371.8,600.5 					"/>
					<polygon class="st3" points="328.1,588 334.3,600.5 348.1,602.5 338.1,612.3 340.5,626.1 328.1,619.6 315.7,626.1 318.1,612.3 
						308.1,602.5 321.9,600.5 					"/>
				</g>
				<g>
					<polygon class="st3" points="1071.9,588 1078.1,600.5 1091.9,602.5 1081.9,612.3 1084.3,626.1 1071.9,619.6 1059.5,626.1 
						1061.9,612.3 1051.9,602.5 1065.7,600.5 					"/>
					<polygon class="st3" points="1023,588 1029.2,600.5 1043,602.5 1033,612.3 1035.4,626.1 1023,619.6 1010.6,626.1 1013,612.3 
						1003,602.5 1016.8,600.5 					"/>
					<polygon class="st3" points="973.1,588 979.3,600.5 993.1,602.5 983.1,612.3 985.5,626.1 973.1,619.6 960.7,626.1 963.1,612.3 
						953.1,602.5 966.9,600.5 					"/>
				</g>
			</g>
			<path class="st6" d="M927.9,664.2l-0.2-106.8l-0.1-47.5c0,0-28.6,0-28.6,0c-13.6,0-24.7-16.2-24.7-36.3c0-0.4,0-0.8,0-1.2
				l-54.4,0.1c0-0.1,0-0.1,0-0.2L528,473c0,0.4,0,0.8,0,1.2c0,20.1-11,36.3-24.6,36.4c0,0-28.6,0-28.6,0L475,558l0.2,106.8l0.1,47.5
				c0,0,28.6,0,28.6,0c13.6,0,24.7,16.2,24.7,36.3c0,0.4,0,0.8,0,1.2l54.4-0.1c0,0.1,0,0.1,0,0.2l291.8-0.6c0-0.4,0-0.8,0-1.2
				c0-20.1,11-36.3,24.6-36.4c0,0,28.6,0,28.6,0L927.9,664.2z"/>
			<path class="st4" d="M603.4,729.5l-20.4,0.1l-36.9,0.1c-6.1-22-22.5-37.4-42.2-37.4l-8.7,0l-0.3-161.8l8.6,0
				c13.3,0,25.6-7.1,34-19.5c3.6-5.3,6.4-11.5,8.2-18.1l253.9-0.5l0,0.2l20.4-0.1l36.9-0.1c6.1,22,22.5,37.4,42.2,37.4l8.7,0
				l0.3,161.8l-8.6,0c-13.3,0-25.6,7.1-34,19.5c-3.6,5.3-6.4,11.5-8.2,18.1l-253.9,0.5L603.4,729.5z"/>
			<path class="st6" d="M613.6,719.5l-30.6,0.1l-29.7,0.1c-8.7-22.2-27.2-36.8-48.1-37.3l-0.3-141.8c16.1-0.5,30.9-9.1,40.8-23.8
				c2.8-4.2,5.2-8.8,7.1-13.7l236.5-0.5l0,0.2l30.6-0.1l29.7-0.1c8.7,22.2,27.2,36.8,48.1,37.3l0.3,141.8
				c-16.1,0.5-30.9,9.1-40.8,23.8c-2.8,4.2-5.2,8.8-7.1,13.7l-236.4,0.5L613.6,719.5z"/>
			<g>
				<g>
					<text transform="matrix(1 0 0 1 560.0122 597.6533)" class="st3 st8 st10">MOVIE </text>
					<text transform="matrix(1 0 0 1 575.9453 702.1484)" class="st4 st8 st10">NIGHT</text>
				</g>
			</g>
			<rect x="550" y="611" class="st3" width="279" height="7"/>
			<text transform="matrix(1 0 0 1 396.1797 806.8955)" class="st4 st8 st11 st12">BEST MOVIE AROUND THE WORLD</text>
			<text transform="matrix(1 0 0 1 554.9277 892.1025)" class="st3 st8 st13">DECEMBER 20</text>
			<g>
				<text transform="matrix(1 0 0 1 377.5449 981.335)" class="st4 st8 st14">CINEMA IPSUM </text>
				<text transform="matrix(1 0 0 1 728.249 981.335)" class="st4 st8 st14">START AT 9 PM</text>
				<rect x="697.6" y="938.7" class="st4" width="3.4" height="50.8"/>
			</g>
			<g>
				<path class="st4" d="M1117.4,1061.5c-15.5,4.5-26.8,18.8-26.8,35.7c0,12.3,6,23.2,15.1,30h-29.9c5.6-5.1,9.1-12.4,9.1-20.5
					c0-15.3-12.4-27.8-27.8-27.8c-15.3,0-27.8,12.4-27.8,27.8c0,8.1,3.5,15.5,9.1,20.5h0v18.1H1026v24.9h-9v10.2h-12.4v-17l-52-29.4
					h-22.6v108.6h22.6l52-27.1v-18.1h12.4v10.2h9v36.2h39.6v14.7h4.2l-14,35.9h15.8l14-35.9h15.1l14,35.9h2.6v-33.7l-0.8-2.2h0.8
					V1107c-2.4-2.6-3.8-6-3.8-9.8c0-3.8,1.5-7.2,3.8-9.8V1061.5z M1057.2,1117.3c-5.9,0-10.7-4.8-10.7-10.7s4.8-10.7,10.7-10.7
					c5.9,0,10.7,4.8,10.7,10.7S1063.1,1117.3,1057.2,1117.3z"/>
				<path class="st4" d="M1057.2,1101.2c-3,0-5.5,2.4-5.5,5.5c0,3,2.5,5.5,5.5,5.5c3,0,5.5-2.4,5.5-5.5
					C1062.7,1103.6,1060.2,1101.2,1057.2,1101.2z"/>
				<path class="st4" d="M1062.7,1106.6c0,3-2.4,5.5-5.5,5.5c-3,0-5.5-2.4-5.5-5.5c0-3,2.5-5.5,5.5-5.5
					C1060.2,1101.2,1062.7,1103.6,1062.7,1106.6z"/>
			</g>
			<rect x="412.4" y="1014" class="st15" width="571.5" height="95.7"/>
			<text transform="matrix(1 0 0 1 418.5869 1031.29)"><tspan x="0" y="0" class="st4 st8 st16">Lorem ipsum dolor sit amet, consectetuer adipiscing elit, </tspan><tspan x="18.6" y="32.1" class="st4 st8 st16">sed diam nonummy nibh euismod tincidunt ut laoreet </tspan><tspan x="68.3" y="64.2" class="st4 st8 st16">dolore magna aliquam erat volutpat.minim.</tspan></text>
			<g>
				<path class="st6" d="M282.6,1027.6l0.6-0.6l12.3,12.3l-12.3,12.3l-0.6-0.6v9.8l62.3,62.3l-62.3,62.3v48.8l11.6-11.6l12.3,12.3
					l-12.3,12.3l-11.6-11.6v8.2l50.3,50.3h8.2l-7.5-7.5l12.3-12.3l12.3,12.3l-7.5,7.5h48.8l58.2-58.2l58.2,58.2h16.9l8.8-8.8
					l8.8,8.8h7.8l-275.6-275.6V1027.6z M320.1,1273.2l-12.3-12.3l12.3-12.3l12.3,12.3L320.1,1273.2z M370.4,1289.5l-79-79l70.4-70.4
					l79,79L370.4,1289.5z M515.7,1259.6l12.3,12.3l-12.3,12.3l-12.3-12.3L515.7,1259.6z M489.9,1233.8l12.3,12.3l-12.3,12.3
					l-12.3-12.3L489.9,1233.8z M464.1,1208l12.3,12.3l-12.3,12.3l-12.3-12.3L464.1,1208z M438.2,1182.1l12.3,12.3l-12.3,12.3
					l-12.3-12.3L438.2,1182.1z M412.4,1156.3l12.3,12.3l-12.3,12.3l-12.3-12.3L412.4,1156.3z M386.5,1130.4l12.3,12.3l-12.3,12.3
					l-12.3-12.3L386.5,1130.4z M360.7,1104.6l12.3,12.3l-12.3,12.3l-12.3-12.3L360.7,1104.6z M334.9,1078.8l12.3,12.3l-12.3,12.3
					l-12.3-12.3L334.9,1078.8z M309,1052.9l12.3,12.3l-12.3,12.3l-12.3-12.3L309,1052.9z"/>
			</g>
			<text transform="matrix(1 0 0 1 555.3164 1203.1992)" class="st4 st8 st17 st18">www.cinema.com</text>
		</g>
	</g>
</g>
</svg>
