<?xml version="1.0" encoding="UTF-8" standalone="no"?>
<!-- Created with Inkscape (http://www.inkscape.org/) -->
<svg xmlns:dc="http://purl.org/dc/elements/1.1/" xmlns:cc="http://creativecommons.org/ns#" xmlns:rdf="http://www.w3.org/1999/02/22-rdf-syntax-ns#" xmlns:svg="http://www.w3.org/2000/svg" xmlns="http://www.w3.org/2000/svg" xmlns:xlink="http://www.w3.org/1999/xlink" xmlns:sodipodi="http://sodipodi.sourceforge.net/DTD/sodipodi-0.dtd" xmlns:inkscape="http://www.inkscape.org/namespaces/inkscape" width="765" height="990" id="svg2" version="1.1" inkscape:version="0.48.4 r9939" sodipodi:docname="christmas2013.svg">
  <defs id="defs4">
    <linearGradient inkscape:collect="always" id="linearGradient4284">
      <stop style="stop-color:#001000;stop-opacity:1;" offset="0" id="stop4286"/>
      <stop style="stop-color:#001000;stop-opacity:0;" offset="1" id="stop4288"/>
    </linearGradient>
    <radialGradient inkscape:collect="always" xlink:href="#linearGradient4284" id="radialGradient4290" cx="225.98932" cy="259.55515" fx="225.98932" fy="259.55515" r="114.23645" gradientTransform="matrix(1,0,0,1.5321634,0,-138.12577)" gradientUnits="userSpaceOnUse"/>
  </defs>
  <sodipodi:namedview id="base" pagecolor="#ffffff" bordercolor="#666666" borderopacity="1.0" inkscape:pageopacity="0.0" inkscape:pageshadow="2" inkscape:zoom="0.35" inkscape:cx="44.799748" inkscape:cy="590.73744" inkscape:document-units="px" inkscape:current-layer="layer1" showgrid="false" inkscape:window-width="1366" inkscape:window-height="744" inkscape:window-x="0" inkscape:window-y="24" inkscape:window-maximized="1" fit-margin-top="0" fit-margin-left="0" fit-margin-right="0" fit-margin-bottom="0"/>
  <g inkscape:label="Layer 1" inkscape:groupmode="layer" id="layer1" transform="translate(-1.4285715,-68.07649)">
    <g id="g4264" style="fill:#909090;fill-opacity:1" transform="matrix(-1,0,0,0.98773055,420.94055,6.8275703)">
      <path inkscape:connector-curvature="0" id="path11221" style="fill:#909090;fill-opacity:1;stroke:none" d="M 115.30735,62.491426 55.72876,545.83712 44.45064,544.33335 108.03333,62.492655 z M 61.37251,546.55131 118.93782,62.494403 l 3.62666,0.0025 L 67.01919,547.2404 z m 22.60389,2.6053 49.44545,-486.640056 7.22514,-0.02265 -45.35277,487.814216 z m 28.31195,2.68969 39.16915,-489.331113 3.59949,-0.0084 -37.09971,489.801713 z m 22.68668,1.69746 30.86463,-491.044446 -3.59175,-3.4e-4 -32.94719,490.658316 z m 28.39353,1.55317 20.40243,-492.586832 -7.16764,-0.0036 -24.59613,492.045032 z m 17.04967,0.62826 14.09511,-493.223592 -7.1606,0.01231 -18.30181,492.817742 z m 24.82883,-493.225552 -7.77257,493.625972 5.73979,0.34372 5.71429,-493.969692 z m 20.66138,493.786962 -2.7802,-493.785597 -10.72808,-0.01127 -3.55258,493.776297 z m 11.3733,-0.1129 -7.00099,-493.681427 3.57718,0.01759 9.10999,493.569367 z m 34.10798,-0.94645 -19.63673,-492.742349 -10.73953,0.02132 13.3252,493.308169 z m 11.36257,-0.51798 -23.83178,-492.196109 -3.5842,-0.0063 21.73523,492.474009 z m 11.35768,-0.61915 -28.01733,-491.58399 7.17913,-0.0091 32.19019,490.87278 z m 34.03536,-2.46408 -40.48883,-489.138542 -3.59918,0.0095 38.42005,489.602902 z m 16.99101,-1.57284 -46.66261,-487.555904 -7.21271,0.01201 42.55019,488.617674 z m 5.65927,-0.57473 -48.70993,-486.978476 10.85394,-0.0012 54.81754,485.104356 z m 45.17277,-5.5038 -64.86417,-481.478203 -10.91096,-0.001 58.85767,483.731733 z m 16.88702,-2.47833 -70.801,-478.998459 -7.30528,-0.0052 66.85177,480.680929 z"/>
    </g>
    <path style="fill:#000000;fill-opacity:1;stroke:none" d="m 200.71839,67.424179 -9.2859,73.687221 -4.97694,-21.39512 2.51806,23.98317 -11.52888,-21.33085 7.99486,20.49227 -37.53962,-41.30187 34.14918,44.02897 -19.03502,-11.6947 19.18226,15.22448 -23.62895,-7.1395 20.54137,8.96581 -56.54703,-3.33011 56.12132,7.61364 -21.96671,4.84897 24.61014,-2.45391 -21.88848,11.23517 21.01693,-7.80435 -42.38282,36.59522 45.17876,-33.26722 -11.9992,18.53811 15.62249,-18.69357 -7.32615,23.02699 9.21246,-20.01688 -7.34442,93.38318 11.73011,-92.99342 4.97328,21.43101 -2.51807,-23.98318 11.52888,21.33085 -8.00836,-20.4815 37.55193,41.30308 -34.13693,-44.02778 19.02277,11.69349 -19.18229,-15.22448 23.62898,7.13951 -20.55245,-8.97896 56.55934,3.3313 -56.10908,-7.61246 21.95325,-4.83819 -24.61017,2.45391 21.88851,-11.23517 -21.02923,7.80315 42.39512,-36.59403 -45.16652,33.26842 11.98814,-18.55127 -15.62247,18.69357 7.32614,-23.02698 -9.21613,20.05275 5.82301,-74.157925 z" id="path4230-4" inkscape:connector-curvature="0" sodipodi:nodetypes="cccccccccccccccccccccccccccccccccccccccccccccccccc"/>
    <path transform="matrix(0.20543176,0.01995411,-0.02047575,0.20019816,147.01754,117.92397)" d="m 212.85715,264.70435 -20.30544,-83.46531 -83.4653,-20.30543 83.4653,-20.30544 20.30543,-83.465298 20.30544,83.465298 83.4653,20.30544 -83.4653,20.30544 z" inkscape:randomized="0" inkscape:rounded="0" inkscape:flatsided="false" sodipodi:arg2="2.3561945" sodipodi:arg1="1.5707963" sodipodi:r2="28.716223" sodipodi:r1="103.77074" sodipodi:cy="160.93361" sodipodi:cx="212.85715" sodipodi:sides="4" id="path4358" style="fill:#000000;fill-opacity:1;stroke:none" sodipodi:type="star"/>
    <path style="fill:#000000;fill-opacity:1;stroke:none" d="M 192.29076,323.96875 76.228259,380.03125 65.947009,538.5 l 23.65625,0 c 0,0 0.0768,-3.6434 0.125,-9.25 0.14475,-16.8198 0.12851,-51.40029 -2.1875,-58.875 -1.22677,-3.95926 19.375001,-82.875 19.375001,-82.875 l 85.375,-37.48239 85.375,37.48239 c 0,0 20.57052,78.91574 19.34375,82.875 -3.08802,9.96628 -2.03125,68.125 -2.03125,68.125 l 23.65625,0 -10.28125,-158.46875 z" id="path11490" inkscape:connector-curvature="0" sodipodi:nodetypes="ccccsscccscccc"/>
    <path style="fill:#000000;fill-opacity:1;stroke:none" d="m 162.35613,503.12499 c -1.25209,-0.0872 -3.04018,0.32143 -4.9375,1.4375 -2.78274,1.6369 -2.42446,6.37587 -2.34375,7.1875 l -5,0 0,6.6875 c 0,4.79737 3.81168,8.25632 9.96875,10.53125 l -3.84375,8.78125 9.59375,0 1.15625,-6.90625 c 5.1529,1.01781 11.16118,1.53125 17.59375,1.53125 6.43257,0 12.4096,-0.51344 17.5625,-1.53125 l 1.1875,6.90625 9.59375,0 -3.875,-8.75 c 6.18035,-2.27469 10,-5.75486 10,-10.5625 l 0,-6.6875 -9.84375,0 c -0.15734,-1.12687 -0.63709,-2.49471 -1.34375,-3.15625 -4.33422,-4.05745 -7.07078,-3.03125 -17.53125,-3.03125 -8.11301,0 -15.02073,1.30868 -17.71875,3.125 -0.22696,-2.44493 -1.75844,-3.33279 -3.9375,-3.65625 -0.005,-0.008 -0.0937,-0.15625 -0.0937,-0.15625 0,0 -3.91071,-0.23214 -4.625,-1.125 -0.26785,-0.33482 -0.81124,-0.57269 -1.5625,-0.625 z" id="path11511" inkscape:connector-curvature="0"/>
    <path style="fill:#000000;fill-opacity:1;stroke:none" d="m 229.31476,370.37983 c 2.28624,0.13049 4.73227,1.40464 7.5,4.5625 -0.18502,0.41552 14.35378,13.03566 20.34375,20.59375 5.88333,7.42353 10.40396,19.0717 15.125,24.0625 l -3.46875,3.53125 c -4.44081,3.80089 -3.486,3.66162 -6.875,7.65625 1.21582,16.20715 5.49302,47.56566 8.53125,62.625 3.37843,16.74569 11.49414,27.09998 15.90625,36.8125 l 3.0625,6.75 -68,-0.0313 c 0.75522,-0.10529 1.23345,-3.56869 11.1875,-72.90625 0.64163,-4.46955 1.2241,-8.7049 1.75,-12.75 -7.2454,-3.80374 -15.56251,-16.59375 -15.56251,-16.59375 l 0.25,-23.28125 c -1.13499,-0.96901 -2.3905,-1.59404 -3.09375,-2.125 -3.40697,-2.57225 -6.53392,-6.97646 -7.1875,-10.09375 -0.34186,-1.63047 0.83799,-3.43621 1.40625,-3.71875 1.52401,-0.46277 2.03891,-0.28271 2.96875,0.0625 1.14474,0.42502 1.87225,1.24232 2.8125,2.34375 -0.36488,-0.67751 0.42135,-0.674 0.78125,-0.90625 0.53556,-0.34562 1.35036,0.56429 2.125,1.375 1.05704,1.10628 2.28707,2.77001 2.71876,4.28125 3.41857,4.44586 9.91626,11.93557 15.4375,12.4375 0.45773,0.0416 0.89355,0.0774 1.28125,0.0937 0.66737,-7.62548 1.39636,-9.49941 1.1875,-11.0625 -1.06272,-7.9525 -1.15625,-5.71875 -1.15625,-5.71875 0,0 -3.21353,4.49431 -5.53125,4.28125 -2.8429,-0.26135 -1.67102,-2.72228 -5.6875,-6.40625 -1.65655,-1.51941 -4.23978,-6.66661 -5.53125,-8.75 l -2.09376,3.5 c 0,0 -3.49251,-8.93676 -0.96875,-12.5625 2.25732,-3.22283 3.74263,-5.93679 7.31251,-7.4375 0.40629,-0.16698 0.80326,-0.30043 1.21875,-0.40625 0.72708,-0.1852 1.48791,-0.26225 2.25,-0.21875 z" id="path11555" inkscape:connector-curvature="0"/>
    <path style="fill:#000000;fill-opacity:1;stroke:none" d="m 136.642,423.40873 c 0.94891,0.0163 1.9254,0.20507 2.813,0.42522 1.7613,0.43687 3.38556,1.47768 4.74286,2.68217 1.23427,1.09531 2.91113,3.99054 2.91113,3.99054 0,0 2.11908,4.08006 1.83172,6.86896 -0.28737,2.78889 -0.58877,5.5933 -0.58877,5.5933 0,0 0.0774,0.28873 -0.94857,0.0328 -0.71475,-0.17838 -1.44641,-1.00094 -1.83172,-1.50463 -0.3345,1.29785 -0.86807,2.51284 -1.53734,3.92512 -1.12781,2.37988 -3.56409,3.34276 -5.75684,5.39704 -1.30227,1.22004 -4.6412,-2.60939 -5.42975,-1.96256 -0.55779,0.45756 1.21024,5.5933 1.21024,5.5933 l 1.57005,3.76157 c 1.2952,3.09631 1.44605,8.11247 0.49064,14.06502 1.79823,-1.34162 4.16047,-3.3523 5.75684,-4.97182 0.97602,-0.99015 1.66771,-1.83985 1.76631,-2.25694 0.24823,-1.04994 0.26738,-2.19712 -0.13084,-3.00926 -0.80296,-1.63757 0.20802,-4.96455 0.91586,-6.86896 0.40892,-1.10014 0.2252,-2.10571 0.88316,-1.99527 0.44215,0.0742 1.09907,0.48204 0.68689,2.35507 0.83267,-1.4309 1.17183,-3.56486 2.35507,-4.97182 0.34742,-0.41312 1.07367,-1.61544 1.43922,-1.96256 0.38437,-0.36499 1.08861,0.35356 1.47192,0.62148 1.50937,1.8167 1.54327,2.26216 1.70088,3.56531 0.19748,1.63256 -0.76635,3.61978 -1.01399,4.80828 -0.41398,1.98689 -0.57983,3.58847 -1.96256,6.01852 -0.31142,0.54729 -2.48302,5.77474 -3.27093,7.32689 -1.51476,2.98403 -1.24186,2.85824 -1.83173,4.87369 -0.39456,1.93521 -2.09339,6.67271 -4.05595,6.9998 -1.20466,0.20078 -4.24653,0.0405 -6.86897,-0.16355 -0.12768,2.04901 0.48302,3.848 2.28966,8.37359 4.07888,10.2175 6.0475,14.91881 6.9998,25.61142 0.17206,1.93199 3.99256,11.16817 1.86443,16.15842 -0.84814,1.98883 -3.85681,3.92512 -5.16808,3.92512 -10.32752,0.54612 -28.10373,0.0844 -43.274461,-0.0654 0,0 -3.292015,0.0127 -7.163346,-0.62148 -1.725473,-3.4633 0.916207,-6.54841 3.074678,-8.7661 4.121273,-4.23433 16.010029,-4.82166 16.583639,-6.31291 0.54984,-1.05211 1.09984,-2.56312 1.63547,-4.38305 2.82535,-9.59971 5.23349,-27.73803 5.23349,-31.82619 0,-2.88608 -4.2655,-0.51464 -4.87369,-5.29891 -0.74788,-5.88319 0.3167,-14.91089 2.71488,-21.03211 1.18617,-3.02763 4.2956,-7.12899 5.52788,-11.18659 3.10084,-10.21054 7.25668,-17.34663 11.9062,-20.70502 0.837,-1.09118 1.72186,-2.0093 2.64945,-2.51862 0.80162,-0.44015 1.73327,-0.6051 2.68217,-0.58877 z" id="path11551" inkscape:connector-curvature="0"/>
    <flowRoot xml:space="preserve" id="flowRoot4422" style="font-size:20px;font-style:normal;font-variant:normal;font-weight:normal;font-stretch:normal;line-height:125%;letter-spacing:0px;word-spacing:0px;fill:#000000;fill-opacity:1;stroke:none;font-family:Cinzel;-inkscape-font-specification:Cinzel">
      <flowRegion id="flowRegion4424">
        <rect id="rect4426" width="87.88327" height="463.66" x="133.34013" y="-174.97314"/>
      </flowRegion>
      <flowPara id="flowPara4428"/>
    </flowRoot>
    <g id="g4591" transform="translate(-1.428571,2)">
      <text sodipodi:linespacing="125%" id="text4372" y="242.36218" x="355.71429" style="font-size:20px;font-style:normal;font-variant:normal;font-weight:normal;font-stretch:normal;line-height:125%;letter-spacing:0px;word-spacing:0px;fill:#000000;fill-opacity:1;stroke:none;font-family:Cinzel;-inkscape-font-specification:Cinzel" xml:space="preserve">
        <tspan id="tspan4388" style="font-style:normal;font-variant:normal;font-weight:normal;font-stretch:normal;font-family:Georgia;-inkscape-font-specification:Georgia" y="242.36218" x="355.71429" sodipodi:role="line">Come celebrate Christ's birth with us, on</tspan>
        <tspan id="tspan4464" style="font-style:normal;font-variant:normal;font-weight:normal;font-stretch:normal;font-family:Georgia;-inkscape-font-specification:Georgia" y="267.36218" x="355.71429" sodipodi:role="line"><tspan id="tspan4434" style="font-weight:bold;-inkscape-font-specification:Georgia Bold"> Monday, Dec. 23</tspan> at <tspan id="tspan4436" style="font-weight:bold;-inkscape-font-specification:Georgia Bold">7:00pm<tspan id="tspan4472" style="font-weight:normal;-inkscape-font-specification:Georgia">.  We will</tspan></tspan></tspan>
        <tspan id="tspan4521" style="font-style:normal;font-variant:normal;font-weight:normal;font-stretch:normal;font-family:Georgia;-inkscape-font-specification:Georgia" y="292.36218" x="355.71429" sodipodi:role="line">
          <tspan id="tspan4523" style="font-weight:bold;-inkscape-font-specification:Georgia Bold">
            <tspan id="tspan4525" style="font-weight:normal;-inkscape-font-specification:Georgia">  have carols, fellowship, and good food!</tspan>
          </tspan>
        </tspan>
      </text>
      <g transform="translate(0,10.745415)" id="g4531">
        <text xml:space="preserve" style="font-size:39.8025589px;font-style:normal;font-variant:normal;font-weight:normal;font-stretch:normal;line-height:125%;letter-spacing:0px;word-spacing:0px;fill:#000000;fill-opacity:1;stroke:none;font-family:Futura;-inkscape-font-specification:Futura" x="345.55148" y="179.82579" id="text4368" sodipodi:linespacing="125%">
          <tspan sodipodi:role="line" id="tspan4370" x="345.55148" y="179.82579" style="font-style:normal;font-variant:normal;font-weight:bold;font-stretch:normal;font-family:Cinzel;-inkscape-font-specification:Cinzel Bold">Christmas Service</tspan>
        </text>
        <text sodipodi:linespacing="125%" id="text4440" y="145.71805" x="341.51511" style="font-size:28.35136795px;font-style:normal;font-variant:normal;font-weight:normal;font-stretch:normal;line-height:125%;letter-spacing:0px;word-spacing:0px;fill:#000000;fill-opacity:1;stroke:none;font-family:Futura;-inkscape-font-specification:Futura" xml:space="preserve">
          <tspan style="font-style:normal;font-variant:normal;font-weight:bold;font-stretch:normal;font-family:Cinzel;-inkscape-font-specification:Cinzel Bold" y="145.71805" x="341.51511" sodipodi:role="line" id="tspan4444">Providence Bible Church</tspan>
        </text>
      </g>
      <text sodipodi:linespacing="125%" id="text4372-2" y="95.967102" x="333.67746" style="font-size:20px;font-style:normal;font-variant:normal;font-weight:normal;font-stretch:normal;line-height:125%;letter-spacing:0px;word-spacing:0px;fill:#000000;fill-opacity:1;stroke:none;font-family:Cinzel;-inkscape-font-specification:Cinzel" xml:space="preserve">
        <tspan id="tspan4464-9" style="font-style:normal;font-variant:normal;font-weight:normal;font-stretch:normal;font-family:Georgia;-inkscape-font-specification:Georgia" y="95.967102" x="333.67746" sodipodi:role="line">You and your family are invited to</tspan>
      </text>
    </g>
    <g id="g4641" transform="translate(5.9999999,28.571428)">
      <text sodipodi:linespacing="125%" id="text4372-3" y="426.18137" x="378.52539" style="font-size:20px;font-style:normal;font-variant:normal;font-weight:normal;font-stretch:normal;line-height:125%;letter-spacing:0px;word-spacing:0px;fill:#000000;fill-opacity:1;stroke:none;font-family:Cinzel;-inkscape-font-specification:Cinzel" xml:space="preserve">
        <tspan id="tspan4521-2" style="font-style:normal;font-variant:normal;font-weight:normal;font-stretch:normal;font-family:Georgia;-inkscape-font-specification:Georgia" y="426.18137" x="378.52539" sodipodi:role="line">"She will bear a son; and you shall call</tspan>
        <tspan id="tspan4587" style="font-style:normal;font-variant:normal;font-weight:normal;font-stretch:normal;font-family:Georgia;-inkscape-font-specification:Georgia" y="451.18137" x="378.52539" sodipodi:role="line">  his name Jesus, for he will save his </tspan>
        <tspan id="tspan4589" style="font-style:normal;font-variant:normal;font-weight:normal;font-stretch:normal;font-family:Georgia;-inkscape-font-specification:Georgia" y="476.18137" x="378.52539" sodipodi:role="line">   people from their sins."</tspan>
      </text>
      <text sodipodi:linespacing="125%" id="text4372-3-4" y="499.03851" x="620.05859" style="font-size:20px;font-style:normal;font-variant:normal;font-weight:normal;font-stretch:normal;line-height:125%;letter-spacing:0px;word-spacing:0px;fill:#000000;fill-opacity:1;stroke:none;font-family:Cinzel;-inkscape-font-specification:Cinzel" xml:space="preserve">
        <tspan id="tspan4589-7" style="font-style:normal;font-variant:normal;font-weight:normal;font-stretch:normal;font-family:Georgia;-inkscape-font-specification:Georgia" y="499.03851" x="620.05859" sodipodi:role="line">-Matt 1:21</tspan>
      </text>
    </g>
    <g transform="matrix(-1,0,0,1,420.94055,497.14285)" style="fill:#909090;fill-opacity:1" id="g4659">
      <path d="M 115.30735,62.491426 55.72876,545.83712 44.45064,544.33335 108.03333,62.492655 z M 61.37251,546.55131 118.93782,62.494403 l 3.62666,0.0025 L 67.01919,547.2404 z m 22.60389,2.6053 49.44545,-486.640056 7.22514,-0.02265 -45.35277,487.814216 z m 28.31195,2.68969 39.16915,-489.331113 3.59949,-0.0084 -37.09971,489.801713 z m 22.68668,1.69746 30.86463,-491.044446 -3.59175,-3.4e-4 -32.94719,490.658316 z m 28.39353,1.55317 20.40243,-492.586832 -7.16764,-0.0036 -24.59613,492.045032 z m 17.04967,0.62826 14.09511,-493.223592 -7.1606,0.01231 -18.30181,492.817742 z m 24.82883,-493.225552 -7.77257,493.625972 5.73979,0.34372 5.71429,-493.969692 z m 20.66138,493.786962 -2.7802,-493.785597 -10.72808,-0.01127 -3.55258,493.776297 z m 11.3733,-0.1129 -7.00099,-493.681427 3.57718,0.01759 9.10999,493.569367 z m 34.10798,-0.94645 -19.63673,-492.742349 -10.73953,0.02132 13.3252,493.308169 z m 11.36257,-0.51798 -23.83178,-492.196109 -3.5842,-0.0063 21.73523,492.474009 z m 11.35768,-0.61915 -28.01733,-491.58399 7.17913,-0.0091 32.19019,490.87278 z m 34.03536,-2.46408 -40.48883,-489.138542 -3.59918,0.0095 38.42005,489.602902 z m 16.99101,-1.57284 -46.66261,-487.555904 -7.21271,0.01201 42.55019,488.617674 z m 5.65927,-0.57473 -48.70993,-486.978476 10.85394,-0.0012 54.81754,485.104356 z m 45.17277,-5.5038 -64.86417,-481.478203 -10.91096,-0.001 58.85767,483.731733 z m 16.88702,-2.47833 -70.801,-478.998459 -7.30528,-0.0052 66.85177,480.680929 z" style="fill:#909090;fill-opacity:1;stroke:none" id="path4661" inkscape:connector-curvature="0"/>
    </g>
    <path sodipodi:nodetypes="cccccccccccccccccccccccccccccccccccccccccccccccccc" inkscape:connector-curvature="0" id="path4663" d="m 200.71839,559.51651 -9.2859,75.61355 -4.97694,-21.95443 2.51806,24.61014 -11.52888,-21.88848 7.99486,21.02798 -37.53962,-42.38159 34.14918,45.17998 -19.03502,-12.00042 19.18226,15.62248 -23.62895,-7.32614 20.54137,9.20019 -56.54703,-3.41717 56.12132,7.81268 -21.96671,4.97573 24.61014,-2.51806 -21.88848,11.52888 21.01693,-8.00837 -42.38282,37.5519 45.17876,-34.1369 -11.9992,19.02274 15.62249,-19.18226 -7.32615,23.62896 9.21246,-20.54016 -7.34442,95.82441 11.73011,-95.42446 4.97328,21.99126 -2.51807,-24.61015 11.52888,21.88848 -8.00836,-21.01693 37.55193,42.38283 -34.13693,-45.17876 19.02277,11.99919 -19.18229,-15.62248 23.62898,7.32615 -20.55245,-9.21369 56.55934,3.41839 -56.10908,-7.81147 21.95325,-4.96467 -24.61017,2.51806 21.88851,-11.52888 -21.02923,8.00714 42.39512,-37.55067 -45.16652,34.13812 11.98814,-19.03624 -15.62247,19.18226 7.32614,-23.62895 -9.21613,20.57697 5.82301,-76.09656 z" style="fill:#000000;fill-opacity:1;stroke:none"/>
    <path sodipodi:type="star" style="fill:#000000;fill-opacity:1;stroke:none" id="path4665" sodipodi:sides="4" sodipodi:cx="212.85715" sodipodi:cy="160.93361" sodipodi:r1="103.77074" sodipodi:r2="28.716223" sodipodi:arg1="1.5707963" sodipodi:arg2="2.3561945" inkscape:flatsided="false" inkscape:rounded="0" inkscape:randomized="0" d="m 212.85715,264.70435 -20.30544,-83.46531 -83.4653,-20.30543 83.4653,-20.30544 20.30543,-83.465298 20.30544,83.465298 83.4653,20.30544 -83.4653,20.30544 z" transform="matrix(0.20543176,0.02047575,-0.02047575,0.20543176,147.01754,611.33647)"/>
    <path sodipodi:nodetypes="ccccsscccscccc" inkscape:connector-curvature="0" id="path4667" d="m 192.29076,821.1116 -116.062501,56.0625 -10.28125,158.4688 23.65625,0 c 0,0 0.0768,-3.6434 0.125,-9.25 0.14475,-16.8198 0.12851,-51.40034 -2.1875,-58.87505 -1.22677,-3.95926 19.375001,-82.875 19.375001,-82.875 l 85.375,-37.48239 85.375,37.48239 c 0,0 20.57052,78.91574 19.34375,82.875 -3.08802,9.96628 -2.03125,68.12505 -2.03125,68.12505 l 23.65625,0 -10.28125,-158.4688 z" style="fill:#000000;fill-opacity:1;stroke:none"/>
    <path inkscape:connector-curvature="0" id="path4669" d="m 162.35613,1000.2678 c -1.25209,-0.087 -3.04018,0.3215 -4.9375,1.4375 -2.78274,1.6369 -2.42446,6.3759 -2.34375,7.1875 l -5,0 0,6.6875 c 0,4.7974 3.81168,8.2564 9.96875,10.5313 l -3.84375,8.7812 9.59375,0 1.15625,-6.9062 c 5.1529,1.0178 11.16118,1.5312 17.59375,1.5312 6.43257,0 12.4096,-0.5134 17.5625,-1.5312 l 1.1875,6.9062 9.59375,0 -3.875,-8.75 c 6.18035,-2.2746 10,-5.7548 10,-10.5625 l 0,-6.6875 -9.84375,0 c -0.15734,-1.1268 -0.63709,-2.4947 -1.34375,-3.1562 -4.33422,-4.0575 -7.07078,-3.0313 -17.53125,-3.0313 -8.11301,0 -15.02073,1.3087 -17.71875,3.125 -0.22696,-2.4449 -1.75844,-3.3327 -3.9375,-3.6562 -0.005,-0.01 -0.0937,-0.1563 -0.0937,-0.1563 0,0 -3.91071,-0.2321 -4.625,-1.125 -0.26785,-0.3348 -0.81124,-0.5726 -1.5625,-0.625 z" style="fill:#000000;fill-opacity:1;stroke:none"/>
    <path inkscape:connector-curvature="0" id="path4671" d="m 229.31476,867.52268 c 2.28624,0.13049 4.73227,1.40464 7.5,4.5625 -0.18502,0.41552 14.35378,13.03566 20.34375,20.59375 5.88333,7.42353 10.40396,19.0717 15.125,24.0625 l -3.46875,3.53125 c -4.44081,3.80089 -3.486,3.66162 -6.875,7.65625 1.21582,16.20715 5.49302,47.56566 8.53125,62.625 3.37843,16.74567 11.49414,27.09997 15.90625,36.81247 l 3.0625,6.75 -68,-0.031 c 0.75522,-0.1053 1.23345,-3.5687 11.1875,-72.90622 0.64163,-4.46955 1.2241,-8.7049 1.75,-12.75 -7.2454,-3.80374 -15.56251,-16.59375 -15.56251,-16.59375 l 0.25,-23.28125 c -1.13499,-0.96901 -2.3905,-1.59404 -3.09375,-2.125 -3.40697,-2.57225 -6.53392,-6.97646 -7.1875,-10.09375 -0.34186,-1.63047 0.83799,-3.43621 1.40625,-3.71875 1.52401,-0.46277 2.03891,-0.28271 2.96875,0.0625 1.14474,0.42502 1.87225,1.24232 2.8125,2.34375 -0.36488,-0.67751 0.42135,-0.674 0.78125,-0.90625 0.53556,-0.34562 1.35036,0.56429 2.125,1.375 1.05704,1.10628 2.28707,2.77001 2.71876,4.28125 3.41857,4.44586 9.91626,11.93557 15.4375,12.4375 0.45773,0.0416 0.89355,0.0774 1.28125,0.0937 0.66737,-7.62548 1.39636,-9.49941 1.1875,-11.0625 -1.06272,-7.9525 -1.15625,-5.71875 -1.15625,-5.71875 0,0 -3.21353,4.49431 -5.53125,4.28125 -2.8429,-0.26135 -1.67102,-2.72228 -5.6875,-6.40625 -1.65655,-1.51941 -4.23978,-6.66661 -5.53125,-8.75 l -2.09376,3.5 c 0,0 -3.49251,-8.93676 -0.96875,-12.5625 2.25732,-3.22283 3.74263,-5.93679 7.31251,-7.4375 0.40629,-0.16698 0.80326,-0.30043 1.21875,-0.40625 0.72708,-0.1852 1.48791,-0.26225 2.25,-0.21875 z" style="fill:#000000;fill-opacity:1;stroke:none"/>
    <path inkscape:connector-curvature="0" id="path4673" d="m 136.642,920.55158 c 0.94891,0.0163 1.9254,0.20507 2.813,0.42522 1.7613,0.43687 3.38556,1.47768 4.74286,2.68217 1.23427,1.09531 2.91113,3.99054 2.91113,3.99054 0,0 2.11908,4.08006 1.83172,6.86896 -0.28737,2.78889 -0.58877,5.5933 -0.58877,5.5933 0,0 0.0774,0.28873 -0.94857,0.0328 -0.71475,-0.17838 -1.44641,-1.00094 -1.83172,-1.50463 -0.3345,1.29785 -0.86807,2.51284 -1.53734,3.92512 -1.12781,2.37988 -3.56409,3.34276 -5.75684,5.39704 -1.30227,1.22004 -4.6412,-2.60939 -5.42975,-1.96256 -0.55779,0.45756 1.21024,5.5933 1.21024,5.5933 l 1.57005,3.76157 c 1.2952,3.09631 1.44605,8.11247 0.49064,14.06502 1.79823,-1.34162 4.16047,-3.3523 5.75684,-4.97182 0.97602,-0.99015 1.66771,-1.83985 1.76631,-2.25694 0.24823,-1.04994 0.26738,-2.19712 -0.13084,-3.00926 -0.80296,-1.63757 0.20802,-4.96455 0.91586,-6.86896 0.40892,-1.10014 0.2252,-2.10571 0.88316,-1.99527 0.44215,0.0742 1.09907,0.48204 0.68689,2.35507 0.83267,-1.4309 1.17183,-3.56486 2.35507,-4.97182 0.34742,-0.41312 1.07367,-1.61544 1.43922,-1.96256 0.38437,-0.36499 1.08861,0.35356 1.47192,0.62148 1.50937,1.8167 1.54327,2.26216 1.70088,3.56531 0.19748,1.63256 -0.76635,3.61978 -1.01399,4.80828 -0.41398,1.98689 -0.57983,3.58847 -1.96256,6.01852 -0.31142,0.54729 -2.48302,5.77474 -3.27093,7.32689 -1.51476,2.98403 -1.24186,2.85824 -1.83173,4.87369 -0.39456,1.93521 -2.09339,6.67271 -4.05595,6.9998 -1.20466,0.20078 -4.24653,0.0405 -6.86897,-0.16355 -0.12768,2.04901 0.48302,3.848 2.28966,8.37359 4.07888,10.2175 6.0475,14.91882 6.9998,25.61142 0.17206,1.932 3.99256,11.1682 1.86443,16.1584 -0.84814,1.9889 -3.85681,3.9251 -5.16808,3.9251 -10.32752,0.5462 -28.10373,0.084 -43.274461,-0.065 0,0 -3.292015,0.013 -7.163346,-0.6214 -1.725473,-3.4633 0.916207,-6.5484 3.074678,-8.7661 4.121273,-4.2344 16.010029,-4.8217 16.583639,-6.3129 0.54984,-1.0522 1.09984,-2.5632 1.63547,-4.3831 2.82535,-9.5997 5.23349,-27.73803 5.23349,-31.82619 0,-2.88608 -4.2655,-0.51464 -4.87369,-5.29891 -0.74788,-5.88319 0.3167,-14.91089 2.71488,-21.03211 1.18617,-3.02763 4.2956,-7.12899 5.52788,-11.18659 3.10084,-10.21054 7.25668,-17.34663 11.9062,-20.70502 0.837,-1.09118 1.72186,-2.0093 2.64945,-2.51862 0.80162,-0.44015 1.73327,-0.6051 2.68217,-0.58877 z" style="fill:#000000;fill-opacity:1;stroke:none"/>
    <rect ry="1.5806342" y="1033.7908" x="1.4285715" height="24.285713" width="765" id="rect4675" style="fill:#000000;fill-opacity:1;stroke:none"/>
    <g transform="translate(-1.428571,499.14285)" id="g4677">
      <text xml:space="preserve" style="font-size:20px;font-style:normal;font-variant:normal;font-weight:normal;font-stretch:normal;line-height:125%;letter-spacing:0px;word-spacing:0px;fill:#000000;fill-opacity:1;stroke:none;font-family:Cinzel;-inkscape-font-specification:Cinzel" x="355.71429" y="242.36218" id="text4679" sodipodi:linespacing="125%">
        <tspan sodipodi:role="line" x="355.71429" y="242.36218" style="font-style:normal;font-variant:normal;font-weight:normal;font-stretch:normal;font-family:Georgia;-inkscape-font-specification:Georgia" id="tspan4681">Come celebrate Christ's birth with us, on</tspan>
        <tspan sodipodi:role="line" x="355.71429" y="267.36218" style="font-style:normal;font-variant:normal;font-weight:normal;font-stretch:normal;font-family:Georgia;-inkscape-font-specification:Georgia" id="tspan4683"><tspan style="font-weight:bold;-inkscape-font-specification:Georgia Bold" id="tspan4685"> Monday, Dec. 23</tspan> at <tspan style="font-weight:bold;-inkscape-font-specification:Georgia Bold" id="tspan4687">7:00pm<tspan style="font-weight:normal;-inkscape-font-specification:Georgia" id="tspan4689">.  We will</tspan></tspan></tspan>
        <tspan sodipodi:role="line" x="355.71429" y="292.36218" style="font-style:normal;font-variant:normal;font-weight:normal;font-stretch:normal;font-family:Georgia;-inkscape-font-specification:Georgia" id="tspan4691">
          <tspan style="font-weight:bold;-inkscape-font-specification:Georgia Bold" id="tspan4693">
            <tspan style="font-weight:normal;-inkscape-font-specification:Georgia" id="tspan4695">  have carols, fellowship, and good food!</tspan>
          </tspan>
        </tspan>
      </text>
      <g id="g4697" transform="translate(0,10.745415)">
        <text sodipodi:linespacing="125%" id="text4699" y="179.82579" x="345.55148" style="font-size:39.8025589px;font-style:normal;font-variant:normal;font-weight:normal;font-stretch:normal;line-height:125%;letter-spacing:0px;word-spacing:0px;fill:#000000;fill-opacity:1;stroke:none;font-family:Futura;-inkscape-font-specification:Futura" xml:space="preserve">
          <tspan style="font-style:normal;font-variant:normal;font-weight:bold;font-stretch:normal;font-family:Cinzel;-inkscape-font-specification:Cinzel Bold" y="179.82579" x="345.55148" id="tspan4701" sodipodi:role="line">Christmas Service</tspan>
        </text>
        <text xml:space="preserve" style="font-size:28.35136795px;font-style:normal;font-variant:normal;font-weight:normal;font-stretch:normal;line-height:125%;letter-spacing:0px;word-spacing:0px;fill:#000000;fill-opacity:1;stroke:none;font-family:Futura;-inkscape-font-specification:Futura" x="341.51511" y="145.71805" id="text4703" sodipodi:linespacing="125%">
          <tspan id="tspan4705" sodipodi:role="line" x="341.51511" y="145.71805" style="font-style:normal;font-variant:normal;font-weight:bold;font-stretch:normal;font-family:Cinzel;-inkscape-font-specification:Cinzel Bold">Providence Bible Church</tspan>
        </text>
      </g>
      <text xml:space="preserve" style="font-size:20px;font-style:normal;font-variant:normal;font-weight:normal;font-stretch:normal;line-height:125%;letter-spacing:0px;word-spacing:0px;fill:#000000;fill-opacity:1;stroke:none;font-family:Cinzel;-inkscape-font-specification:Cinzel" x="333.67746" y="95.967102" id="text4707" sodipodi:linespacing="125%">
        <tspan sodipodi:role="line" x="333.67746" y="95.967102" style="font-style:normal;font-variant:normal;font-weight:normal;font-stretch:normal;font-family:Georgia;-inkscape-font-specification:Georgia" id="tspan4709">You and your family are invited to</tspan>
      </text>
    </g>
    <g transform="translate(5.9999999,525.71428)" id="g4711">
      <text xml:space="preserve" style="font-size:20px;font-style:normal;font-variant:normal;font-weight:normal;font-stretch:normal;line-height:125%;letter-spacing:0px;word-spacing:0px;fill:#000000;fill-opacity:1;stroke:none;font-family:Cinzel;-inkscape-font-specification:Cinzel" x="378.52539" y="426.18137" id="text4713" sodipodi:linespacing="125%">
        <tspan sodipodi:role="line" x="378.52539" y="426.18137" style="font-style:normal;font-variant:normal;font-weight:normal;font-stretch:normal;font-family:Georgia;-inkscape-font-specification:Georgia" id="tspan4715">"She will bear a son; and you shall call</tspan>
        <tspan sodipodi:role="line" x="378.52539" y="451.18137" style="font-style:normal;font-variant:normal;font-weight:normal;font-stretch:normal;font-family:Georgia;-inkscape-font-specification:Georgia" id="tspan4717">  his name Jesus, for he will save his </tspan>
        <tspan sodipodi:role="line" x="378.52539" y="476.18137" style="font-style:normal;font-variant:normal;font-weight:normal;font-stretch:normal;font-family:Georgia;-inkscape-font-specification:Georgia" id="tspan4719">   people from their sins."</tspan>
      </text>
      <text xml:space="preserve" style="font-size:20px;font-style:normal;font-variant:normal;font-weight:normal;font-stretch:normal;line-height:125%;letter-spacing:0px;word-spacing:0px;fill:#000000;fill-opacity:1;stroke:none;font-family:Cinzel;-inkscape-font-specification:Cinzel" x="620.05859" y="499.03851" id="text4721" sodipodi:linespacing="125%">
        <tspan sodipodi:role="line" x="620.05859" y="499.03851" style="font-style:normal;font-variant:normal;font-weight:normal;font-stretch:normal;font-family:Georgia;-inkscape-font-specification:Georgia" id="tspan4723">-Matt 1:21</tspan>
      </text>
    </g>
    <rect style="fill:#000000;fill-opacity:1;stroke:none" id="rect4289" width="765" height="24.285713" x="1.4285715" y="536.64789" ry="1.5806342"/>
  </g>
  <metadata>
    <rdf:RDF>
      <cc:Work>
        <dc:format>image/svg+xml</dc:format>
        <dc:type rdf:resource="http://purl.org/dc/dcmitype/StillImage"/>
        <cc:license rdf:resource="http://creativecommons.org/licenses/publicdomain/"/>
        <dc:publisher>
          <cc:Agent rdf:about="http://openclipart.org/">
            <dc:title>Openclipart</dc:title>
          </cc:Agent>
        </dc:publisher>
        <dc:title>Christmas Flyer</dc:title>
        <dc:date>2013-12-10T20:30:31</dc:date>
        <dc:description>Christmas flyer design</dc:description>
        <dc:source>http://openclipart.org/detail/189431/christmas-flyer-by-dear_theophilus-189431</dc:source>
        <dc:creator>
          <cc:Agent>
            <dc:title>dear_theophilus</dc:title>
          </cc:Agent>
        </dc:creator>
        <dc:subject>
          <rdf:Bag>
            <rdf:li>christmas</rdf:li>
            <rdf:li>flyer</rdf:li>
            <rdf:li>nativity</rdf:li>
            <rdf:li>jesus</rdf:li>
            <rdf:li>mary</rdf:li>
            <rdf:li>joseph</rdf:li>
            <rdf:li>star</rdf:li>
            <rdf:li>baby</rdf:li>
            <rdf:li>manger</rdf:li>
            <rdf:li>silhouette</rdf:li>
          </rdf:Bag>
        </dc:subject>
      </cc:Work>
      <cc:License rdf:about="http://creativecommons.org/licenses/publicdomain/">
        <cc:permits rdf:resource="http://creativecommons.org/ns#Reproduction"/>
        <cc:permits rdf:resource="http://creativecommons.org/ns#Distribution"/>
        <cc:permits rdf:resource="http://creativecommons.org/ns#DerivativeWorks"/>
      </cc:License>
    </rdf:RDF>
  </metadata>
</svg>
