<?xml version="1.0" encoding="utf-8"?>
<!-- Generator: Adobe Illustrator 19.0.0, SVG Export Plug-In . SVG Version: 6.00 Build 0)  -->
<svg version="1.1" id="Layer_1" xmlns="http://www.w3.org/2000/svg" xmlns:xlink="http://www.w3.org/1999/xlink" x="0px" y="0px"
	 width="595.3px" height="841.9px" viewBox="0 0 595.3 841.9" enable-background="new 0 0 595.3 841.9" xml:space="preserve">
<g id="XMLID_209_">
	<defs>
		<rect id="XMLID_143_" width="595.3" height="841.9"/>
	</defs>
	<clipPath id="XMLID_93_">
		<use xlink:href="#XMLID_143_"  overflow="visible"/>
	</clipPath>
	<g id="XMLID_108_" clip-path="url(#XMLID_93_)">
		<g id="XMLID_70_">
			<rect id="XMLID_47_" fill="#001831" width="595.3" height="841.9"/>
			<polygon id="XMLID_49_" fill="#1E72B0" points="0,841.9 595.3,841.9 595.3,0 0,420.9 			"/>
			<g id="XMLID_61_">
				<polygon id="XMLID_48_" fill="#FF9F12" points="595.3,0 0,194.6 -26,535 415.2,571 611.5,95.3 				"/>
				<g id="XMLID_15_">
					<g id="XMLID_40_">
						<path id="XMLID_137_" fill="#04171B" d="M142.3,807.4c-0.7-3.9-1.6-7.8-2.9-11.5c-1.1-3.3-3-7.1-6.4-7.6
							c-1.2-0.2-2.4,0.1-3.6-0.1c-1.1-0.2-2.1-0.8-3.1-1.3c-4-2-8.9-2-12.9-0.1c-4,1.9-7.2,5.6-8.3,9.9c-0.5,2.1-0.6,4.3-0.7,6.5
							c-0.2,5.3-0.4,10.6-0.5,16c9.9,3,21,3.1,31.2,1.3c2.4-0.4,4.9-1,6.9-2.5C144.1,816.4,142.4,807.8,142.3,807.4z"/>
						<g id="XMLID_73_">
							<g id="XMLID_167_">
								<g id="XMLID_194_">
									<path id="XMLID_196_" fill="#FF9F12" d="M108.7,795.2c1.5-3.8,5-7.1,9.1-7.2c4.7-0.1,9,3.8,13.6,3c1.1-0.2,2.1-0.7,3.2-0.8
										c0.6-0.1,1.3-0.1,1.9,0.1c-0.9-1-2.1-1.8-3.5-2c-1.2-0.2-2.4,0.1-3.6-0.1c-1.1-0.2-2.1-0.8-3.1-1.3c-4-2-8.9-2-12.9-0.1
										c-4,1.9-7.2,5.6-8.3,9.9c-0.5,2.1-0.6,4.3-0.7,6.5c-0.2,5.3-0.4,10.6-0.5,16c1.1,0.3,2.2,0.6,3.3,0.9c0-4.2,0-8.4,0-12.6
										C107.2,803.2,107.2,799,108.7,795.2z"/>
								</g>
							</g>
						</g>
						<g id="XMLID_42_">
							<path id="XMLID_46_" fill="#FF9F12" d="M205.8,894.4H80.1v-62.8c0-13.9,11.3-25.2,25.2-25.2h100.5V894.4z"/>
							<path id="XMLID_43_" fill="#04171B" d="M210.9,900.2l-130.8-5.8l5.1-57c2.1-17.1,11.3-25.2,25.2-25.2h95.4L210.9,900.2z"/>
						</g>
					</g>
					<g id="XMLID_24_">
						<path id="XMLID_33_" fill="#04171B" d="M239.9,773.9c-1.1-6.3-2.6-12.4-4.6-18.5c-1.7-5.3-4.7-11.3-10.3-12.1
							c-1.9-0.3-3.8,0.1-5.7-0.2c-1.8-0.3-3.4-1.3-5-2.1c-6.4-3.1-14.2-3.2-20.7-0.2s-11.5,9-13.2,15.9c-0.9,3.4-1,6.9-1.1,10.3
							c-0.3,8.5-0.6,17-0.9,25.5c15.8,4.7,33.7,4.9,50,2.1c3.9-0.7,7.9-1.6,11.1-3.9S240,774.6,239.9,773.9z"/>
						<g id="XMLID_55_">
							<g id="XMLID_197_">
								<g id="XMLID_198_">
									<path id="XMLID_199_" fill="#FF9F12" d="M186.1,754.5c2.5-6.1,8-11.4,14.5-11.6c7.5-0.2,14.4,6.1,21.8,4.8
										c1.7-0.3,3.4-1.1,5.2-1.3c1-0.1,2-0.1,3,0.1c-1.5-1.6-3.3-2.8-5.6-3.1c-1.9-0.3-3.8,0.1-5.7-0.2c-1.8-0.3-3.4-1.3-5-2.1
										c-6.4-3.1-14.2-3.2-20.7-0.2c-6.5,3-11.5,9-13.2,15.9c-0.9,3.4-1,6.9-1.1,10.3c-0.3,8.5-0.6,17-0.9,25.5
										c1.7,0.5,3.5,1,5.2,1.4c0-6.7,0-13.4,0-20.1C183.6,767.3,183.6,760.5,186.1,754.5z"/>
								</g>
							</g>
						</g>
						<g id="XMLID_37_">
							<path id="XMLID_39_" fill="#FF9F12" d="M341.6,913.2H140.3V812.7c0-22.3,18.1-40.4,40.4-40.4h160.8V913.2z"/>
							<path id="XMLID_38_" fill="#04171B" d="M349.7,922.5l-209.4-9.3l8.2-91.2c3.4-27.4,18.1-40.4,40.4-40.4h152.7L349.7,922.5z"
								/>
						</g>
					</g>
					<g id="XMLID_28_">
						<path id="XMLID_17_" fill="#04171B" d="M281.7,750.6c0.6-4.9,0.4-10-0.6-14.9c-0.3-1.3-0.7-2.7-1.6-3.8
							c-2.1-2.3-5.8-1.7-8.9-1.5c-3.1,0.2-7.2-1.1-7.1-4.2c0-1.8,3.5-8.1,0.1-9.4c-2-0.7-0.2-4.9,1.9-5c-1.1-0.8-2.3-1.6-3.4-2.5
							c0.3-7.1-7-4-7-8.1c0.5-5,5.1-8.5,6.7-13.3c1.1-3.4,0.5-7.1,0.4-10.8c-0.5-10.3,2.5-20.7,8.4-29.2c6-8.6,22-2.8,30.6,3.1
							s14.3,15.5,16.7,25.7s1.7,20.9-0.5,31.1c-2.1,9.6-5.5,19.1-11.4,27C300.1,742.6,291.3,748.6,281.7,750.6z"/>
						<path id="XMLID_27_" fill="#04171B" d="M190.1,843.2c8-23.3,28-67,48-81.4c15.3-11,34.8-15.3,49.7-26.8c2.5-1.9,5-4.3,5.3-7.5
							c23.4-6.6,48.8-8,72.7-3.6c7.1,36.2,9.5,87.4,8.1,124.3L190.1,843.2z"/>
						<path id="XMLID_75_" fill="#FF9F12" d="M285.2,744c8.5-4.4,15.3-10.6,19.2-19.2c-3.8,0.8-7.5,1.7-11.2,2.7
							c-0.3,3.1-2.8,5.6-5.3,7.5c-15,11.5-34.4,15.8-49.7,26.8c-20,14.4-40,58.1-48,81.4l9.5,0.6C221,784,237.4,768.3,285.2,744z"/>
						<g id="XMLID_52_">
							<g id="XMLID_216_">
								<g id="XMLID_217_">
									<path id="XMLID_218_" fill="#FF9F12" d="M266,723.3c0.6-2,1.8-4.1,1.2-6.1c-0.4-1.3-1.6-2.6-0.9-3.8c2,1.2,3.3,3.4,3.5,5.7
										c0.1-3.6-0.5-7.2-1.7-10.6c-1-2.9-2.5-5.6-3.3-8.5c-0.8-3-0.7-6.4,1.2-8.7c0.9-1.1,2.2-2,2.5-3.4c0.3-1.5-0.5-2.9-1.4-4.2
										c-0.9-1.2-1.9-2.5-1.9-4c0-1.5,1.6-3.1,3-2.3c-2.8-4-3-9.3-2.3-14.1c0.8-5.7,2.7-11.2,5.5-16.2c-0.3,0.3-0.5,0.6-0.8,1
										c-5.9,8.4-8.9,18.9-8.4,29.2c0.2,3.6,0.8,7.3-0.4,10.8c-1.6,4.8-6.3,8.3-6.7,13.3c0,4.2,7.3,1.1,7,8.1
										c1.1,0.8,2.3,1.6,3.4,2.5c-2.1,0.1-3.8,4.3-1.9,5c3.5,1.3-0.1,7.6-0.1,9.4c0,1.5,1,2.6,2.3,3.3
										C265.3,727.5,265.4,725.3,266,723.3z"/>
								</g>
							</g>
						</g>
						<path id="XMLID_19_" fill="#FF9F12" d="M267.3,689.7c2.7-0.2,5.4-0.9,7.8-2.1c-3.1-1.6-6.2-3.1-9.4-4.4
							c0.9,0.7,1.7,1.7,2.6,2.3c0.2,0.1,0.3,0.3,0.4,0.4c0.1,0.2,0,0.5-0.1,0.7C268.4,687.6,267.6,688.9,267.3,689.7z"/>
						<path id="XMLID_20_" fill="#04171B" d="M336.8,774.3c-3.3,2.8-6.6,5.6-9.9,8.4c-2,1.7-4.1,3.5-6.7,4.3c-4.2,1.4-8.8,0-13-1.3
							c-4-1.3-8.2-2.7-10.8-5.9c-3.4-4.1-3.9-10.4-8.2-13.5c-4-2.9-9.9-1.9-13.8-4.9c-4.9-3.7-4-11.7-0.3-16.7
							c3.7-5,9.3-8.2,13.5-12.6c4.3-4.5,7.1-11.5,3.8-16.8c-1.4,2.3-4.3,3.6-6.9,3.1c-2.6-0.5-4.9-2.7-5.4-5.3
							c6.4-1.6,11.5-7.2,13.1-13.6c1.6-6.4,0.1-13.4-3.4-19c-3.7-6-9.4-10.4-14.5-15.2c-5.1-4.8-9.9-10.6-10.9-17.6
							c-0.6-4.2,5.9-7.2,10.1-7.7c11.8-1.6,23.8-3.2,35.5-1.5s23.5,7.1,30.3,16.8c3.2,4.6,5.2,10,6.8,15.4c1.7,5.4,3.1,11,2.9,16.6
							c-0.3,7.4-3.5,14.5-3.1,21.8c0.7,13.9,13.8,26,11.2,39.6C355,759.9,345.5,767,336.8,774.3z"/>
						<path id="XMLID_26_" fill="#FF9F12" d="M266.7,676.5c0.9-0.1,1.8,0.3,2.6,0.7c2.5,1.2,4.9,2.4,7,4.3c-2.4-1.3-4.9-2.3-7.6-3
							c-0.5-0.2-2.8,0-3.1-0.3C265.1,677.4,265.9,676.7,266.7,676.5z"/>
						<g id="XMLID_51_">
							<g id="XMLID_220_">
								<g id="XMLID_221_">
									<path id="XMLID_222_" fill="#FF9F12" d="M275.7,752.2c3.5-10.2,16.1-14.1,21.8-23.2c2.6-4.2,3.6-9.4,2.6-14.2
										c-0.7,2-2.7,3.5-4.8,3.6c3.4-5.2,4.8-11.8,3.6-18c-0.9,3.8-3,7.3-6,9.8c3.9-8.1,7.1-17.5,3.8-25.9
										c-3-7.7-10.7-12.3-17-17.6c-4.7-3.9-8.9-8.5-12.4-13.5c-1.5-2.2-2.9-4.9-3.5-7.5c-0.3,0.6-0.4,1.3-0.3,2
										c1,7,5.8,12.8,10.9,17.6c5.1,4.8,10.8,9.2,14.5,15.2c3.5,5.6,5,12.6,3.4,19c-1.6,6.4-6.7,12-13.1,13.6
										c0.5,2.6,2.8,4.8,5.4,5.3c2.6,0.5,5.5-0.8,6.9-3.1c3.3,5.2,0.4,12.3-3.8,16.8s-9.8,7.7-13.5,12.6c-3.7,5-4.6,13,0.3,16.7
										c0.3,0.2,0.6,0.4,0.9,0.6C274.6,758.7,274.6,755.3,275.7,752.2z"/>
								</g>
							</g>
						</g>
					</g>
					<g id="XMLID_68_">
						<path id="XMLID_21_" fill="#04171B" d="M403.6,728.7c0.6-6.4,0.9-12.9,1-19.4c0-0.8,0-1.6-0.2-2.3c-0.3-0.7-0.9-1.2-1.6-1.3
							c-2.5-0.5-5,0.6-7.4,1.3c-2.4,0.7-5.4,0.9-7.2-0.9c-1.7-1.8-1.6-4.6-0.8-7c0.3-0.9,0.6-2.1-0.1-2.8c-0.3-0.3-0.9-0.4-1.3-0.7
							c-0.9-0.6-1-2-0.4-3c0.5-1,1.5-1.6,2.4-2.2c-1.8-0.8-3.7-1.8-4.1-3.7c-0.2-1,0.2-2.2-0.3-3.1c-1-1.8-4.7-1.1-5.1-3.1
							c-0.2-0.8,0.4-1.6,0.9-2.3c1.5-2,3-3.9,4.4-5.9c0.5-0.7,1.1-1.4,1.1-2.3c0-1.3-1-2.3-1.6-3.4c-1.2-2.2-0.9-4.8-0.5-7.3
							c0.8-5,1.6-10.1,2.3-15.1c5.9-2.8,11.6-5.3,17.9-7.1c5.3-1.6,10.9-2.7,16.4-2.3c10.1,0.8,19.5,7.3,23.8,16.4
							c3.5,7.4,3.7,15.9,3.5,24c-0.4,18.6-2.4,37.2-1.2,55.8L403.6,728.7z"/>
						<path id="XMLID_22_" fill="#04171B" d="M448.6,693.9c-0.7,3.3-1.5,6.7-3,9.8c-1.5,3.1-3.7,5.9-6.8,7.4
							c-2.9,1.4-6.4,1.5-9.6,1.4c-2.2-0.1-4.4-0.2-6.6-0.5c-1.5-0.2-3.1-0.4-4.4-1.2c-2.6-1.6-3.2-5-4.3-7.8c-1.1-3.2-2.7-6.2-5-8.7
							c3.6-2.7,4.6-7.6,5.3-12.1c0.3-2.2,0.7-4.4,0.4-6.6s-1.3-4.4-3.2-5.5c-1.9-1.2-4.6-1-6,0.8c-0.8,1-1,2.3-1.2,3.5
							c-0.7,3.8-1.3,7.6-2,11.5c-1.1-2.7-1.7-5.6-1.6-8.5c0.1-3.1,0.8-6.6-1.2-9c-0.9-1.1-2.3-1.8-3.4-2.6c-2.3-1.7-3.8-4.3-4.2-7.1
							c-0.4-2.9,0.1-6.5-2.3-8.1c-0.7-0.5-1.6-0.7-2.4-0.9c-3.1-0.9-6.3-3.1-6.6-6.3c-0.6-6.7,2.4-14.6,8.9-16.4
							c4.1-1.1,8.4-0.3,12.7,0c10.9,0.7,22.1-2.7,32.5,0.4c7.3,2.1,13.6,7.5,16.6,14.4c1.8,4.1,2.4,8.6,2.7,13.1
							C454.6,667.5,451.3,681.4,448.6,693.9z"/>
						<path id="XMLID_23_" fill="#FF9F12" d="M387.8,672.2c1.3-1,2.6-2.1,3.9-3.1c-1.9-0.5-3.9-1-5.8-1.5
							C387.5,667.8,388.7,670.9,387.8,672.2z"/>
						<g id="XMLID_56_">
							<g id="XMLID_207_">
								<g id="XMLID_210_">
									<path id="XMLID_213_" fill="#FF9F12" d="M388.6,692.4c1.6,2,2.9,4.2,3.9,6.6c-0.5-3.2-1.6-6.3-3.4-9.1
										c-1.4-2.2-3.1-4.1-4.2-6.4c-1.2-2.3-1.8-5-0.7-7.4c1.1-2.5,4.1-4.8,3.1-7.4c-0.5-1.3-2-2.7-1.2-3.9c1-0.1,2-0.2,3-0.2
										c-1.8-0.2-3.2-1.9-3.6-3.6c-0.5-1.8-0.2-3.6,0.1-5.4c0.6-4.1,1.2-8.2,1.8-12.4c-0.8,0.4-1.5,0.7-2.3,1.1
										c-0.8,5-1.6,10.1-2.3,15.1c-0.4,2.5-0.7,5.1,0.5,7.3c0.6,1.1,1.7,2.1,1.6,3.4c0,0.9-0.6,1.6-1.1,2.3c-1.5,2-3,3.9-4.4,5.9
										c-0.5,0.7-1,1.4-0.9,2.3c0.4,2,4.1,1.3,5.1,3.1c0.5,0.9,0.1,2,0.3,3.1c0.3,1.9,2.3,3,4.1,3.7c-0.9,0.6-1.9,1.2-2.4,2.2
										c-0.5,1-0.5,2.3,0.4,3c0.4,0.3,0.9,0.4,1.3,0.7c0.7,0.7,0.4,1.8,0.1,2.8c-0.8,2.3-0.9,5.2,0.8,7c0.4,0.4,0.9,0.7,1.4,0.9
										c-0.5-1.1-0.8-2.2-0.9-3.5C388.2,699.8,390,695.9,388.6,692.4z"/>
								</g>
							</g>
						</g>
						<path id="XMLID_25_" fill="#FF9F12" d="M410.9,674.3c1.2,2.5,1,5.7-0.5,8c0.3-1.8,0.3-3.7,0.1-5.6c-0.1-0.5-0.2-1.1-0.6-1.5
							c-0.4-0.4-1.1-0.4-1.6-0.1c-0.5,0.3-0.7,1-0.5,1.5c0.1,0.4,0.5,0.7,0.7,1c1.3,1.6,1.1,4.1-0.4,5.5c0.8-0.9,1-2.3,0.3-3.3
							c-0.3-0.4-0.7-0.8-1.2-0.8c-0.5-0.1-1.1,0.2-1.2,0.7c1,0.6,1.4,2,0.9,3.1c-0.5,1-1.6,1.9-1.3,3c0.6,0.2,1.1,0.4,1.7,0.4
							c1.4-0.1,2.4-1.5,2.9-2.8c0,1.1,0,2.3-0.5,3.4c-0.5,1-1.5,1.9-2.6,2c-0.6,0-1.1-0.1-1.7-0.3c-0.3-0.1-0.6-0.2-0.8-0.4
							c-0.5-0.5-0.5-1.3-0.4-1.9c0.5-3.3,0.4-7.3,1.5-10.5C406.7,673.3,409.5,671.2,410.9,674.3z"/>
						<g id="XMLID_58_">
							<g id="XMLID_223_">
								<g id="XMLID_224_">
									<path id="XMLID_225_" fill="#FF9F12" d="M412,666.4c2.1-1.4,5-1.3,7,0.3c-0.4-3.9-5.4-5.4-9.3-5.4c-4,0-8.6,0.4-11.1-2.8
										c-2.1-2.7-1.3-6.9-3.2-9.8c-1.8-2.7-5.3-3.6-8.1-5.3c-3.1-1.9-5-5.2-5.6-8.7c-1,2.7-1.4,5.7-1.1,8.4
										c0.3,3.2,3.5,5.4,6.6,6.3c0.8,0.2,1.7,0.4,2.4,0.9c2.4,1.6,1.9,5.2,2.3,8.1c0.4,2.8,1.9,5.4,4.2,7.1
										c1.2,0.9,2.5,1.5,3.4,2.6c2,2.4,1.3,5.9,1.2,9c-0.1,2.9,0.4,5.9,1.6,8.5c0.7-3.8,1.3-7.6,2-11.5c0.2-1.2,0.4-2.5,1.2-3.5
										c1.4-1.7,4.1-1.9,6-0.8c1.9,1.2,2.9,3.3,3.2,5.5c0.3,2.2,0,4.4-0.4,6.6c-0.7,4.5-1.7,9.4-5.3,12.1c0.8,0.8,1.4,1.7,2,2.6
										c1.8-4.2,4.8-7.9,6.2-12.3C419.1,678.2,417,670.8,412,666.4z"/>
								</g>
							</g>
						</g>
					</g>
					<g id="XMLID_63_">
						<path id="XMLID_229_" fill="#04171B" d="M514.9,690.5c0.7-7.7,1.1-15.5,1.2-23.2c0-0.9,0-1.9-0.3-2.7s-1-1.4-1.9-1.6
							c-3-0.6-6,0.7-8.9,1.5s-6.5,1-8.6-1.1c-2.1-2.1-1.9-5.6-1-8.4c0.4-1.1,0.7-2.5-0.1-3.3c-0.4-0.4-1-0.5-1.5-0.8
							c-1.1-0.7-1.1-2.4-0.5-3.5c0.6-1.1,1.8-1.9,2.9-2.6c-2.1-0.9-4.5-2.2-4.9-4.5c-0.2-1.2,0.3-2.6-0.4-3.7
							c-1.3-2.2-5.6-1.3-6.1-3.7c-0.2-1,0.4-1.9,1-2.7c1.8-2.4,3.5-4.7,5.3-7.1c0.6-0.8,1.3-1.7,1.3-2.8c0.1-1.5-1.2-2.7-1.9-4.1
							c-1.5-2.6-1.1-5.8-0.6-8.8c0.9-6,1.9-12.1,2.8-18.1c7-3.4,14-6.4,21.5-8.6c6.4-1.9,13-3.3,19.7-2.8
							c12.1,0.9,23.4,8.7,28.5,19.6c4.2,8.9,4.4,19,4.2,28.8c-0.5,22.3-2.8,44.6-1.5,66.9L514.9,690.5z"/>
						<path id="XMLID_161_" fill="#FF9F12" d="M496,622.8c1.6-1.2,3.1-2.5,4.7-3.7c-2.3-0.6-4.7-1.2-7-1.8
							C495.6,617.5,497.1,621.2,496,622.8z"/>
						<g id="XMLID_140_">
							<g id="XMLID_248_">
								<g id="XMLID_249_">
									<path id="XMLID_250_" fill="#FF9F12" d="M497,647c1.9,2.4,3.5,5.1,4.6,7.9c-0.6-3.9-2-7.6-4-10.9c-1.6-2.6-3.7-4.9-5.1-7.7
										s-2.1-6-0.9-8.9c1.3-3,4.9-5.7,3.7-8.8c-0.6-1.6-2.4-3.2-1.4-4.6c1.2-0.1,2.4-0.2,3.5-0.3c-2.2-0.3-3.8-2.3-4.4-4.4
										s-0.2-4.3,0.1-6.5c0.7-4.9,1.4-9.9,2.2-14.8c-0.9,0.4-1.8,0.9-2.7,1.3c-0.9,6-1.9,12.1-2.8,18.1c-0.5,3-0.9,6.2,0.6,8.8
										c0.8,1.3,2,2.5,1.9,4.1c0,1-0.7,1.9-1.3,2.8c-1.8,2.4-3.5,4.7-5.3,7.1c-0.6,0.8-1.2,1.7-1,2.7c0.5,2.5,4.9,1.6,6.1,3.7
										c0.6,1.1,0.2,2.5,0.4,3.7c0.4,2.3,2.7,3.6,4.9,4.5c-1.1,0.7-2.3,1.5-2.9,2.6c-0.6,1.1-0.6,2.8,0.5,3.5
										c0.5,0.3,1.1,0.4,1.5,0.8c0.8,0.8,0.5,2.2,0.1,3.3c-0.9,2.8-1.1,6.3,1,8.4c0.5,0.5,1.1,0.8,1.7,1.1c-0.6-1.3-1-2.7-1.1-4.1
										C496.5,655.9,498.7,651.2,497,647z"/>
								</g>
							</g>
						</g>
						<path id="XMLID_69_" fill="#04171B" d="M588.9,639.5c2.7-8.9-8.9-16.8-8-26c0.7-6.5,7.7-12.1,6.2-18.5
							c-0.4-1.9-1.6-3.5-2.7-5.1c-6.8-9.7-14.4-19.8-25.9-24.5c-7.8-3.2-16.7-3.5-25.2-3.7c-6.3-0.2-12.6-0.3-19-0.5
							c-10.3-0.3-33.5,1.3-28.3,16.2c0.4,1.2,1,2.3,1.8,3.4c-0.5,2.4-0.7,4.9-0.5,7.2c0.4,3.9,4.2,6.5,7.9,7.6c1,0.3,2,0.5,2.9,1.1
							c2.9,1.9,2.3,6.3,2.8,9.7c0.5,3.4,2.3,6.5,5,8.5c1.4,1,3,1.8,4.1,3.2c2.3,2.9,1.5,7,1.4,10.7c-0.1,3.5,0.5,7,1.9,10.2
							c0.8-4.6,1.6-9.2,2.4-13.8c0.3-1.5,0.5-3,1.4-4.2c1.6-2.1,4.9-2.3,7.2-0.9c2.2,1.4,3.5,4,3.9,6.6c0.4,2.6,0,5.3-0.5,7.9
							c-0.8,5.4-2,11.3-6.3,14.5c2.8,2.9,4.6,6.6,6,10.4c0.4,1.1,0.7,2.2,1.1,3.3c-1.1,4-1.6,8.1-0.6,12.2c1.9,8.1,10,14.7,19,15.4
							c9,0.7,18.2-4.4,21.6-12.2c0.6-1.4,1.1-3,2.2-4.1c3.6-3.9,11.7-1.6,14.9-5.8c3.7-4.8-3.4-10.8-3-16.7
							C582.7,647.2,587.5,643.9,588.9,639.5z"/>
						<path id="XMLID_135_" fill="#FF9F12" d="M523.8,625.2c1.4,3,1.2,6.8-0.6,9.6c0.4-2.2,0.4-4.5,0.1-6.7
							c-0.1-0.6-0.2-1.3-0.7-1.8c-0.5-0.5-1.3-0.5-1.9-0.1c-0.6,0.4-0.8,1.2-0.6,1.8c0.2,0.5,0.5,0.8,0.9,1.2c1.6,1.9,1.4,5-0.4,6.6
							c1-1,1.2-2.8,0.4-4c-0.3-0.5-0.8-0.9-1.5-1c-0.6-0.1-1.3,0.3-1.4,0.9c1.2,0.8,1.7,2.4,1.1,3.7c-0.6,1.2-2,2.3-1.5,3.6
							c0.7,0.2,1.3,0.5,2.1,0.4c1.7-0.1,2.9-1.8,3.5-3.4c0,1.4,0,2.8-0.6,4.1c-0.6,1.3-1.8,2.3-3.1,2.4c-0.7,0-1.4-0.2-2-0.4
							c-0.3-0.1-0.7-0.2-0.9-0.4c-0.6-0.5-0.6-1.5-0.4-2.3c0.6-3.9,0.5-8.8,1.8-12.5C518.7,624,522.1,621.5,523.8,625.2z"/>
						<g id="XMLID_67_">
							<g id="XMLID_251_">
								<g id="XMLID_252_">
									<path id="XMLID_253_" fill="#FF9F12" d="M525,615.8c2.5-1.6,6-1.5,8.4,0.3c-0.4-4.7-6.4-6.5-11.2-6.5
										c-4.7,0.1-10.4,0.4-13.3-3.3c-2.5-3.3-1.6-8.2-3.9-11.7c-2.1-3.3-6.4-4.3-9.7-6.4c-3.7-2.3-5.9-6.2-6.8-10.4
										c-1.2,3.2-1.6,6.8-1.3,10.1c0.4,3.9,4.2,6.5,7.9,7.6c1,0.3,2,0.5,2.9,1.1c2.9,1.9,2.3,6.3,2.8,9.7c0.5,3.4,2.3,6.5,5,8.5
										c1.4,1,3,1.8,4.1,3.2c2.3,2.9,1.5,7,1.4,10.7c-0.1,3.5,0.5,7,1.9,10.2c0.8-4.6,1.6-9.2,2.4-13.8c0.3-1.5,0.5-3,1.4-4.2
										c1.6-2.1,4.9-2.3,7.2-0.9c2.2,1.4,3.5,4,3.9,6.6c0.4,2.6,0,5.3-0.5,7.9c-0.8,5.4-2,11.3-6.3,14.5c0.9,1,1.7,2,2.5,3.1
										c2.1-5.1,5.8-9.5,7.4-14.8C533.6,630,531,621,525,615.8z"/>
								</g>
							</g>
						</g>
					</g>
					<g id="XMLID_31_">
						<path id="XMLID_30_" fill="#FF9F12" d="M505,854.5H303.8V754c0-22.3,18.1-40.4,40.4-40.4H505V854.5z"/>
						<path id="XMLID_32_" fill="#04171B" d="M513.1,863.8l-209.4-9.3l8.2-91.2c3.4-27.4,18.1-40.4,40.4-40.4H505L513.1,863.8z"/>
					</g>
					<g id="XMLID_34_">
						<path id="XMLID_36_" fill="#FF9F12" d="M679.8,843.4H448.5V723.7c0-26,21.1-47.1,47.1-47.1h184.2V843.4z"/>
						<path id="XMLID_35_" fill="#04171B" d="M689.1,854.5l-240.7-11l9.4-108c3.9-32.5,20.8-47.8,46.4-47.8h175.5L689.1,854.5z"/>
					</g>
				</g>
				<rect id="XMLID_41_" x="-26" y="225" fill="#EDE8D1" width="441.2" height="346"/>
				<polygon id="XMLID_14_" fill="#00A695" points="82.4,25.7 83.6,37.2 95,39.6 84.4,44.3 85.6,55.8 77.8,47.2 67.2,51.9 73,41.9 
					65.3,33.3 76.6,35.7 				"/>
				<polygon id="XMLID_179_" fill="#00A695" points="410.8,16.4 411.9,27.9 423.3,30.3 412.7,35 413.9,46.5 406.1,37.9 395.5,42.6 
					401.4,32.6 393.6,24 404.9,26.4 				"/>
				<polygon id="XMLID_190_" fill="#00A695" points="530.7,-15.1 531.9,-3.6 543.2,-1.1 532.6,3.6 533.8,15.1 526.1,6.5 515.5,11.2 
					521.3,1.1 513.6,-7.5 524.9,-5.1 				"/>
				<polygon id="XMLID_172_" fill="#00A695" points="261.2,38.5 266.4,48.8 277.9,47.1 269.6,55.2 274.7,65.6 264.5,60.3 
					256.2,68.4 258.1,56.9 247.8,51.6 259.3,49.9 				"/>
				<polygon id="XMLID_156_" fill="#00A695" points="6,59.2 7.2,70.7 18.5,73.1 7.9,77.8 9.1,89.4 1.3,80.7 -9.2,85.4 -3.4,75.4 
					-11.2,66.8 0.2,69.2 				"/>
				<polygon id="XMLID_45_" fill="#00A695" points="82.4,124.9 83.6,136.4 95,138.8 84.4,143.5 85.6,155 77.8,146.4 67.2,151.1 
					73,141.1 65.3,132.5 76.6,134.9 				"/>
				<polygon id="XMLID_16_" fill="#00A695" points="139.4,95.1 141.7,98.9 146,97.9 143.1,101.3 145.4,105.1 141.3,103.4 
					138.4,106.7 138.8,102.3 134.7,100.6 139,99.6 				"/>
				<polygon id="XMLID_173_" fill="#00A695" points="51.3,83.6 53.6,87.4 57.9,86.4 55,89.7 57.3,93.5 53.2,91.8 50.3,95.1 
					50.7,90.7 46.6,89 50.9,88 				"/>
				<polygon id="XMLID_18_" fill="#00A695" points="147.6,19.9 149.9,23.7 154.2,22.7 151.3,26 153.6,29.8 149.5,28.1 146.6,31.5 
					147,27 142.9,25.3 147.2,24.3 				"/>
				<polygon id="XMLID_159_" fill="#00A695" points="311.8,62.6 314.1,66.4 318.4,65.4 315.5,68.7 317.8,72.5 313.7,70.8 
					310.8,74.1 311.2,69.7 307.1,68 311.5,67 				"/>
				<polygon id="XMLID_184_" fill="#00A695" points="362.3,50.1 364.6,53.9 368.9,52.8 366,56.2 368.3,60 364.2,58.3 361.3,61.6 
					361.6,57.2 357.6,55.5 361.9,54.5 				"/>
				<polygon id="XMLID_169_" fill="#00A695" points="244.4,0 246.7,3.8 251,2.8 248.1,6.1 250.4,9.9 246.3,8.2 243.4,11.6 
					243.8,7.2 239.7,5.4 244.1,4.4 				"/>
				<polygon id="XMLID_153_" fill="#00A695" points="11.2,14.1 13.5,17.9 17.8,16.9 14.9,20.2 17.2,24 13.1,22.3 10.2,25.7 
					10.6,21.2 6.5,19.5 10.8,18.5 				"/>
				<polygon id="XMLID_127_" fill="#00A695" points="210,77.8 212.3,81.6 216.6,80.6 213.7,83.9 216,87.7 211.9,86 209,89.4 
					209.4,84.9 205.3,83.2 209.6,82.2 				"/>
				<polygon id="XMLID_71_" fill="#00A695" points="-1,140 1.3,143.8 5.7,142.8 2.7,146.1 5,149.9 1,148.2 -2,151.5 -1.6,147.1 
					-5.7,145.4 -1.3,144.4 				"/>
				<polygon id="XMLID_176_" fill="#00A695" points="356.6,-5.8 358.9,-2 363.2,-3 360.3,0.4 362.6,4.2 358.5,2.4 355.6,5.8 
					356,1.4 351.9,-0.4 356.2,-1.4 				"/>
				<polygon id="XMLID_187_" fill="#00A695" points="488.9,14.1 491.2,17.9 495.5,16.9 492.6,20.2 494.9,24 490.8,22.3 487.9,25.7 
					488.3,21.2 484.2,19.5 488.5,18.5 				"/>
				<polygon id="XMLID_163_" fill="#00A695" points="412.3,-5.8 414.5,-2 418.9,-3 416,0.4 418.2,4.2 414.2,2.4 411.3,5.8 
					411.6,1.4 407.6,-0.4 411.9,-1.4 				"/>
				<g id="XMLID_57_">
					<text id="XMLID_241_" transform="matrix(1.4649 0 0 1 52.25 337.8979)"><tspan x="0" y="0" fill="#FF9F12" font-family="'Bangers-Regular'" font-size="102.4946px">M</tspan><tspan x="63.4" y="0" fill="#FF9F12" font-family="'Bangers-Regular'" font-size="102.4946px">O</tspan><tspan x="113.4" y="0" fill="#FF9F12" font-family="'Bangers-Regular'" font-size="102.4946px">VIE</tspan><tspan x="0" y="100.4" fill="#FF9F12" font-family="'Bangers-Regular'" font-size="102.4946px">NIGHT</tspan><tspan x="0" y="200.8" fill="#FF9F12" font-family="'Bangers-Regular'" font-size="102.4946px" letter-spacing="-0.7">P</tspan><tspan x="37.6" y="200.8" fill="#FF9F12" font-family="'Bangers-Regular'" font-size="102.4946px">A</tspan><tspan x="82" y="200.8" fill="#FF9F12" font-family="'Bangers-Regular'" font-size="102.4946px" letter-spacing="-0.7">R</tspan><tspan x="126.5" y="200.8" fill="#FF9F12" font-family="'Bangers-Regular'" font-size="102.4946px">TY</tspan></text>
				</g>
				<g id="XMLID_60_">
					
						<text id="XMLID_237_" transform="matrix(1 0 0 1 88.8965 215.6249)" fill="#F5F6E6" font-family="'Bangers-Regular'" font-size="53.7407px">free pop corn</text>
				</g>
				<g id="XMLID_66_">
					
						<text id="XMLID_240_" transform="matrix(1 0 0 1 46.593 594.9532)" fill="#F5F6E6" font-family="'Boogaloo-Regular'" font-size="29.6398px">at your local cinema - friday 17.00</text>
				</g>
				<g id="XMLID_130_">
					<text id="XMLID_242_" transform="matrix(1 0 0 1 50.7029 652.3765)"><tspan x="0" y="0" fill="#FF9F12" font-family="'Boogaloo-Regular'" font-size="29.6398px">FE</tspan><tspan x="25.8" y="0" fill="#FF9F12" font-family="'Boogaloo-Regular'" font-size="29.6398px">A</tspan><tspan x="40.3" y="0" fill="#FF9F12" font-family="'Boogaloo-Regular'" font-size="29.6398px">TURING</tspan><tspan x="7.5" y="29.1" fill="#FF9F12" font-family="'Boogaloo-Regular'" font-size="29.6398px">Local band</tspan><tspan x="17.5" y="58.3" fill="#FF9F12" font-family="'Boogaloo-Regular'" font-size="29.6398px">Rand</tspan><tspan x="69.3" y="58.3" fill="#FF9F12" font-family="'Boogaloo-Regular'" font-size="29.6398px" letter-spacing="1">y</tspan><tspan x="81.6" y="58.3" fill="#FF9F12" font-family="'Boogaloo-Regular'" font-size="29.6398px">’s </tspan><tspan x="3.7" y="87.4" fill="#FF9F12" font-family="'Boogaloo-Regular'" font-size="29.6398px">Community</tspan></text>
				</g>
			</g>
		</g>
		<path id="XMLID_136_" fill="#EDE8D1" d="M576.3,19v803.9H19V19H576.3 M595.3,0H0v841.9h595.3V0L595.3,0z"/>
	</g>
</g>
</svg>
