<?xml version="1.0" encoding="utf-8"?>
<!-- Generator: Adobe Illustrator 19.0.0, SVG Export Plug-In . SVG Version: 6.00 Build 0)  -->
<svg version="1.1" id="Layer_1" xmlns="http://www.w3.org/2000/svg" xmlns:xlink="http://www.w3.org/1999/xlink" x="0px" y="0px"
	 width="1400px" height="1400px" viewBox="0 0 1400 1400" enable-background="new 0 0 1400 1400" xml:space="preserve">
<rect id="XMLID_2_" x="0" fill="#243256" width="1400" height="1400"/>
<rect id="XMLID_178_" x="277.3" y="126.5" fill="#B84000" width="845.4" height="1147"/>
<path id="XMLID_186_" fill="#F6F1D4" d="M1112.7,136.5v1127H287.3v-1127H1112.7 M1132.7,116.5h-20H287.3h-20v20v1127v20h20h825.4h20
	v-20v-1127V116.5z"/>
<g id="XMLID_182_">
	<defs>
		<rect id="XMLID_181_" x="287.3" y="136.5" width="825.4" height="1127"/>
	</defs>
	<clipPath id="XMLID_169_">
		<use xlink:href="#XMLID_181_"  overflow="visible"/>
	</clipPath>
	<path id="XMLID_233_" clip-path="url(#XMLID_169_)" fill="#3F4B88" d="M39.9,136.5L-7.2,571.9l1392.8,150.6l47.1-435.4L39.9,136.5z
		 M57.4,546.5c-0.6,5.4-5.4,9.2-10.7,8.6L27.3,553c-5.4-0.6-9.2-5.4-8.6-10.7l2.6-23.9c0.6-5.3,5.4-9.2,10.7-8.6l19.4,2.1
		c5.3,0.6,9.2,5.4,8.6,10.7L57.4,546.5z M95.3,196.1c-0.6,5.4-5.4,9.2-10.7,8.6l-19.4-2.1c-5.4-0.6-9.2-5.4-8.6-10.7l2.6-23.9
		c0.6-5.3,5.4-9.2,10.7-8.6l19.4,2.1c5.3,0.6,9.2,5.4,8.6,10.7L95.3,196.1z M120.1,553.3c-0.6,5.4-5.4,9.2-10.7,8.6l-19.4-2.1
		c-5.3-0.6-9.2-5.4-8.6-10.7l2.6-23.9c0.6-5.3,5.4-9.2,10.7-8.6l19.4,2.1c5.4,0.6,9.2,5.4,8.6,10.7L120.1,553.3z M158,202.8
		c-0.6,5.4-5.4,9.2-10.7,8.6l-19.4-2.1c-5.3-0.6-9.2-5.4-8.6-10.7l2.6-23.9c0.6-5.3,5.4-9.2,10.7-8.6l19.4,2.1
		c5.4,0.6,9.2,5.4,8.6,10.7L158,202.8z M182.7,560c-0.6,5.4-5.4,9.2-10.7,8.6l-19.4-2.1c-5.3-0.6-9.2-5.4-8.6-10.7l2.6-23.9
		c0.6-5.3,5.4-9.2,10.7-8.6l19.4,2.1c5.3,0.6,9.2,5.4,8.6,10.7L182.7,560z M220.6,209.6c-0.6,5.4-5.4,9.2-10.7,8.6l-19.4-2.1
		c-5.3-0.6-9.2-5.4-8.6-10.7l2.6-23.9c0.6-5.3,5.4-9.2,10.7-8.6l19.4,2.1c5.3,0.6,9.2,5.4,8.6,10.7L220.6,209.6z M245.3,566.8
		c-0.6,5.4-5.4,9.2-10.7,8.6l-19.4-2.1c-5.4-0.6-9.2-5.4-8.6-10.7l2.6-23.9c0.6-5.3,5.4-9.2,10.7-8.6l19.4,2.1
		c5.3,0.6,9.2,5.4,8.6,10.7L245.3,566.8z M283.2,216.4c-0.6,5.4-5.4,9.2-10.7,8.6l-19.4-2.1c-5.4-0.6-9.2-5.4-8.6-10.7l2.6-23.9
		c0.6-5.3,5.4-9.2,10.7-8.6l19.4,2.1c5.3,0.6,9.2,5.4,8.6,10.7L283.2,216.4z M308,573.6c-0.6,5.4-5.4,9.2-10.7,8.6l-19.4-2.1
		c-5.4-0.6-9.2-5.4-8.6-10.7l2.6-23.9c0.6-5.3,5.4-9.2,10.7-8.6l19.4,2.1c5.4,0.6,9.2,5.4,8.6,10.7L308,573.6z M345.9,223.2
		c-0.6,5.4-5.4,9.2-10.7,8.6l-19.4-2.1c-5.4-0.6-9.2-5.4-8.6-10.7l2.6-23.9c0.6-5.3,5.4-9.2,10.7-8.6l19.4,2.1
		c5.4,0.6,9.2,5.4,8.6,10.7L345.9,223.2z M370.6,580.4c-0.6,5.4-5.4,9.2-10.7,8.6l-19.4-2.1c-5.3-0.6-9.2-5.4-8.6-10.7l2.6-23.9
		c0.6-5.3,5.4-9.2,10.7-8.6l19.4,2.1c5.4,0.6,9.2,5.4,8.6,10.7L370.6,580.4z M408.5,229.9c-0.6,5.4-5.4,9.2-10.7,8.6l-19.4-2.1
		c-5.3-0.6-9.2-5.4-8.6-10.7l2.6-23.9c0.6-5.3,5.4-9.2,10.7-8.6l19.4,2.1c5.4,0.6,9.2,5.4,8.6,10.7L408.5,229.9z M433.2,587.1
		c-0.6,5.4-5.4,9.2-10.7,8.6l-19.4-2.1c-5.4-0.6-9.2-5.4-8.6-10.7l2.6-23.9c0.6-5.3,5.4-9.2,10.7-8.6l19.4,2.1
		c5.3,0.6,9.2,5.4,8.6,10.7L433.2,587.1z M471.1,236.7c-0.6,5.4-5.4,9.2-10.7,8.6l-19.4-2.1c-5.4-0.6-9.2-5.4-8.6-10.7l2.6-23.9
		c0.6-5.3,5.4-9.2,10.7-8.6l19.4,2.1c5.3,0.6,9.2,5.4,8.6,10.7L471.1,236.7z M495.9,593.9c-0.6,5.4-5.4,9.2-10.7,8.6l-19.4-2.1
		c-5.4-0.6-9.2-5.4-8.6-10.7l2.6-23.9c0.6-5.3,5.4-9.2,10.7-8.6l19.4,2.1c5.4,0.6,9.2,5.4,8.6,10.7L495.9,593.9z M533.8,243.5
		c-0.6,5.4-5.4,9.2-10.7,8.6l-19.4-2.1c-5.4-0.6-9.2-5.4-8.6-10.7l2.6-23.9c0.6-5.3,5.4-9.2,10.7-8.6l19.4,2.1
		c5.4,0.6,9.2,5.4,8.6,10.7L533.8,243.5z M558.5,600.7c-0.6,5.4-5.4,9.2-10.7,8.6l-19.4-2.1c-5.3-0.6-9.2-5.4-8.6-10.7l2.6-23.9
		c0.6-5.3,5.4-9.2,10.7-8.6l19.4,2.1c5.4,0.6,9.2,5.4,8.6,10.7L558.5,600.7z M596.4,250.2c-0.6,5.4-5.4,9.2-10.7,8.6l-19.4-2.1
		c-5.3-0.6-9.2-5.4-8.6-10.7l2.6-23.9c0.6-5.3,5.4-9.2,10.7-8.6l19.4,2.1c5.4,0.6,9.2,5.4,8.6,10.7L596.4,250.2z M621.1,607.5
		c-0.6,5.4-5.4,9.2-10.7,8.6L591,614c-5.4-0.6-9.2-5.4-8.6-10.7l2.6-23.9c0.6-5.3,5.4-9.2,10.7-8.6l19.4,2.1
		c5.3,0.6,9.2,5.4,8.6,10.7L621.1,607.5z M659,257c-0.6,5.4-5.4,9.2-10.7,8.6l-19.4-2.1c-5.4-0.6-9.2-5.4-8.6-10.7l2.6-23.9
		c0.6-5.3,5.4-9.2,10.7-8.6l19.4,2.1c5.3,0.6,9.2,5.4,8.6,10.7L659,257z M683.8,614.2c-0.6,5.4-5.4,9.2-10.7,8.6l-19.4-2.1
		c-5.4-0.6-9.2-5.4-8.6-10.7l2.6-23.9c0.6-5.3,5.4-9.2,10.7-8.6l19.4,2.1c5.3,0.6,9.2,5.4,8.6,10.7L683.8,614.2z M721.7,263.8
		c-0.6,5.4-5.4,9.2-10.7,8.6l-19.4-2.1c-5.4-0.6-9.2-5.4-8.6-10.7l2.6-23.9c0.6-5.3,5.4-9.2,10.7-8.6l19.4,2.1
		c5.3,0.6,9.2,5.4,8.6,10.7L721.7,263.8z M746.4,621c-0.6,5.4-5.4,9.2-10.7,8.6l-19.4-2.1c-5.3-0.6-9.2-5.4-8.6-10.7l2.6-23.9
		c0.6-5.3,5.4-9.2,10.7-8.6l19.4,2.1c5.4,0.6,9.2,5.4,8.6,10.7L746.4,621z M784.3,270.6c-0.6,5.4-5.4,9.2-10.7,8.6l-19.4-2.1
		c-5.3-0.6-9.2-5.4-8.6-10.7l2.6-23.9c0.6-5.3,5.4-9.2,10.7-8.6l19.4,2.1c5.4,0.6,9.2,5.4,8.6,10.7L784.3,270.6z M809,627.8
		c-0.6,5.4-5.4,9.2-10.7,8.6l-19.4-2.1c-5.3-0.6-9.2-5.4-8.6-10.7l2.6-23.9c0.6-5.3,5.4-9.2,10.7-8.6l19.4,2.1
		c5.3,0.6,9.2,5.4,8.6,10.7L809,627.8z M846.9,277.3c-0.6,5.4-5.4,9.2-10.7,8.6l-19.4-2.1c-5.3-0.6-9.2-5.4-8.6-10.7l2.6-23.9
		c0.6-5.3,5.4-9.2,10.7-8.6l19.4,2.1c5.3,0.6,9.2,5.4,8.6,10.7L846.9,277.3z M871.7,634.5c-0.6,5.4-5.4,9.2-10.7,8.6l-19.4-2.1
		c-5.4-0.6-9.2-5.4-8.6-10.7l2.6-23.9c0.6-5.3,5.4-9.2,10.7-8.6l19.4,2.1c5.3,0.6,9.2,5.4,8.6,10.7L871.7,634.5z M909.6,284.1
		c-0.6,5.4-5.4,9.2-10.7,8.6l-19.4-2.1c-5.4-0.6-9.2-5.4-8.6-10.7l2.6-23.9c0.6-5.3,5.4-9.2,10.7-8.6l19.4,2.1
		c5.3,0.6,9.2,5.4,8.6,10.7L909.6,284.1z M934.3,641.3c-0.6,5.4-5.4,9.2-10.7,8.6l-19.4-2.1c-5.3-0.6-9.2-5.4-8.6-10.7l2.6-23.9
		c0.6-5.3,5.4-9.2,10.7-8.6l19.4,2.1c5.4,0.6,9.2,5.4,8.6,10.7L934.3,641.3z M972.2,290.9c-0.6,5.4-5.4,9.2-10.7,8.6l-19.4-2.1
		c-5.3-0.6-9.2-5.4-8.6-10.7l2.6-23.9c0.6-5.3,5.4-9.2,10.7-8.6l19.4,2.1c5.4,0.6,9.2,5.4,8.6,10.7L972.2,290.9z M996.9,648.1
		c-0.6,5.4-5.4,9.2-10.7,8.6l-19.4-2.1c-5.3-0.6-9.2-5.4-8.6-10.7l2.6-23.9c0.6-5.3,5.4-9.2,10.7-8.6l19.4,2.1
		c5.3,0.6,9.2,5.4,8.6,10.7L996.9,648.1z M1034.8,297.7c-0.6,5.4-5.4,9.2-10.7,8.6l-19.4-2.1c-5.3-0.6-9.2-5.4-8.6-10.7l2.6-23.9
		c0.6-5.3,5.4-9.2,10.7-8.6l19.4,2.1c5.3,0.6,9.2,5.4,8.6,10.7L1034.8,297.7z M1059.6,654.9c-0.6,5.4-5.4,9.2-10.7,8.6l-19.4-2.1
		c-5.4-0.6-9.2-5.4-8.6-10.7l2.6-23.9c0.6-5.3,5.4-9.2,10.7-8.6l19.4,2.1c5.3,0.6,9.2,5.4,8.6,10.7L1059.6,654.9z M1097.4,304.4
		c-0.6,5.4-5.4,9.2-10.7,8.6l-19.4-2.1c-5.4-0.6-9.2-5.4-8.6-10.7l2.6-23.9c0.6-5.3,5.4-9.2,10.7-8.6l19.4,2.1
		c5.3,0.6,9.2,5.4,8.6,10.7L1097.4,304.4z M1122.2,661.6c-0.6,5.4-5.4,9.2-10.7,8.6l-19.4-2.1c-5.3-0.6-9.2-5.4-8.6-10.7l2.6-23.9
		c0.6-5.3,5.4-9.2,10.7-8.6l19.4,2.1c5.4,0.6,9.2,5.4,8.6,10.7L1122.2,661.6z M1160.1,311.2c-0.6,5.4-5.4,9.2-10.7,8.6l-19.4-2.1
		c-5.3-0.6-9.2-5.4-8.6-10.7l2.6-23.9c0.6-5.3,5.4-9.2,10.7-8.6l19.4,2.1c5.4,0.6,9.2,5.4,8.6,10.7L1160.1,311.2z M1184.8,668.4
		c-0.6,5.4-5.4,9.2-10.7,8.6l-19.4-2.1c-5.3-0.6-9.2-5.4-8.6-10.7l2.6-23.9c0.6-5.3,5.4-9.2,10.7-8.6l19.4,2.1
		c5.3,0.6,9.2,5.4,8.6,10.7L1184.8,668.4z M1222.7,318c-0.6,5.4-5.4,9.2-10.7,8.6l-19.4-2.1c-5.3-0.6-9.2-5.4-8.6-10.7l2.6-23.9
		c0.6-5.3,5.4-9.2,10.7-8.6l19.4,2.1c5.3,0.6,9.2,5.4,8.6,10.7L1222.7,318z M1247.4,675.2c-0.6,5.4-5.4,9.2-10.7,8.6l-19.4-2.1
		c-5.4-0.6-9.2-5.4-8.6-10.7l2.6-23.9c0.6-5.3,5.4-9.2,10.7-8.6l19.4,2.1c5.3,0.6,9.2,5.4,8.6,10.7L1247.4,675.2z M1285.3,324.7
		c-0.6,5.4-5.4,9.2-10.7,8.6l-19.4-2.1c-5.4-0.6-9.2-5.4-8.6-10.7l2.6-23.9c0.6-5.3,5.4-9.2,10.7-8.6l19.4,2.1
		c5.3,0.6,9.2,5.4,8.6,10.7L1285.3,324.7z M1310.1,682c-0.6,5.4-5.4,9.2-10.7,8.6l-19.4-2.1c-5.3-0.6-9.2-5.4-8.6-10.7l2.6-23.9
		c0.6-5.3,5.4-9.2,10.7-8.6l19.4,2.1c5.4,0.6,9.2,5.4,8.6,10.7L1310.1,682z M1348,331.5c-0.6,5.4-5.4,9.2-10.7,8.6l-19.4-2.1
		c-5.3-0.6-9.2-5.4-8.6-10.7l2.6-23.9c0.6-5.3,5.4-9.2,10.7-8.6l19.4,2.1c5.4,0.6,9.2,5.4,8.6,10.7L1348,331.5z M1372.7,688.7
		c-0.6,5.4-5.4,9.2-10.7,8.6l-19.4-2.1c-5.3-0.6-9.2-5.4-8.6-10.7l2.6-23.9c0.6-5.3,5.4-9.2,10.7-8.6l19.4,2.1
		c5.4,0.6,9.2,5.4,8.6,10.7L1372.7,688.7z M1410.6,338.3c-0.6,5.4-5.4,9.2-10.7,8.6l-19.4-2.1c-5.3-0.6-9.2-5.4-8.6-10.7l2.6-23.9
		c0.6-5.3,5.4-9.2,10.7-8.6l19.4,2.1c5.4,0.6,9.2,5.4,8.6,10.7L1410.6,338.3z"/>
</g>
<polygon id="XMLID_3_" fill="#FFD148" points="287.3,992.2 1112.7,955.8 1112.7,1263.5 287.3,1263.5 "/>
<g id="XMLID_4_">
	<path id="XMLID_168_" fill-rule="evenodd" clip-rule="evenodd" fill="#FFBA48" d="M723.2,1044.6c194.9,0,352.9,14.6,352.9,32.6
		c0,18-158,32.6-352.9,32.6s-352.9-14.6-352.9-32.6C370.2,1059.2,528.2,1044.6,723.2,1044.6"/>
	<polygon id="XMLID_167_" fill-rule="evenodd" clip-rule="evenodd" fill="#3D3D3D" points="733.7,827.4 1053.9,777.1 1044.5,769.4 	
		"/>
	<polygon id="XMLID_166_" fill-rule="evenodd" clip-rule="evenodd" fill="#474747" points="1046.8,735 1053.9,737.3 1053.9,777.1 
		1046.7,774.9 1039.3,755.9 	"/>
	<rect id="XMLID_165_" x="1039.8" y="834.7" fill-rule="evenodd" clip-rule="evenodd" fill="#474747" width="14" height="39.8"/>
	<polyline id="XMLID_164_" fill-rule="evenodd" clip-rule="evenodd" fill="#474747" points="1024.2,1073.8 1034.5,1068.7 
		1039,874.4 1011.2,863.3 1024.2,1073.8 	"/>
	<polygon id="XMLID_163_" fill-rule="evenodd" clip-rule="evenodd" fill="#353F80" points="1030.1,856.8 733.7,867.2 733.7,1036.2 
		1024.2,1073.8 	"/>
	<polygon id="XMLID_162_" fill-rule="evenodd" clip-rule="evenodd" fill="#3F4B88" points="1030.1,856.8 733.7,1036.2 
		1024.2,1073.8 	"/>
	<polygon id="XMLID_161_" fill-rule="evenodd" clip-rule="evenodd" fill="#F6F1D4" points="1000.9,907.4 762.9,888.7 762.9,892.8 
		1000.9,911.5 	"/>
	<polygon id="XMLID_160_" fill-rule="evenodd" clip-rule="evenodd" fill="#F6F1D4" points="1000.9,934.7 762.9,916.1 762.9,920.2 
		1000.9,938.9 	"/>
	<polygon id="XMLID_159_" fill-rule="evenodd" clip-rule="evenodd" fill="#F6F1D4" points="1000.9,962.1 762.9,943.5 762.9,947.6 
		1000.9,966.2 	"/>
	<polygon id="XMLID_158_" fill-rule="evenodd" clip-rule="evenodd" fill="#F6F1D4" points="1000.9,1029.4 762.9,999.6 762.9,1003.7 
		1000.9,1033.6 	"/>
	<polygon id="XMLID_157_" fill-rule="evenodd" clip-rule="evenodd" fill="#3F4B88" points="733.7,787.5 1046.7,735 1046.7,774.9 
		733.7,827.4 	"/>
	<path id="XMLID_152_" fill-rule="evenodd" clip-rule="evenodd" fill="#F6F1D4" d="M959,749.7l38.9-6.5l26.3,35.5l-38.9,6.5
		L959,749.7z M887.7,761.7l35.1-5.9l26.3,35.5l-35.1,5.9L887.7,761.7z M826.1,772l30.6-5.1l26.3,35.5l-30.6,5.1L826.1,772z
		 M790.4,778l26.3,35.5l-25.9,4.3l-26.3-35.5L790.4,778z"/>
	<polygon id="XMLID_151_" fill-rule="evenodd" clip-rule="evenodd" fill="#3F4B88" points="1046.7,834.7 733.7,827.4 733.7,867.2 
		1046.7,874.6 	"/>
	<path id="XMLID_146_" fill-rule="evenodd" clip-rule="evenodd" fill="#F6F1D4" d="M821.4,829.4l-38.9-0.9l-26.3,39.3l38.9,0.9
		L821.4,829.4z M892.7,831.1l-35.1-0.8l-26.3,39.3l35.1,0.8L892.7,831.1z M954.3,832.5l-30.6-0.7l-26.3,39.3l30.6,0.7L954.3,832.5z
		 M990,833.4l-26.3,39.3l25.9,0.6L1016,834L990,833.4z"/>
	<path id="XMLID_145_" fill-rule="evenodd" clip-rule="evenodd" fill="#3F4B88" d="M550.9,720.5c84.3,0,152.7,68.4,152.7,152.7
		S635.3,1026,550.9,1026c-84.3,0-152.7-68.4-152.7-152.7S466.6,720.5,550.9,720.5"/>
	<path id="XMLID_144_" fill-rule="evenodd" clip-rule="evenodd" fill="#3F4B88" d="M702.7,856c0.6,5.7,1,11.4,1,17.2
		c0,84.3-68.4,152.7-152.7,152.7c-45.5,0-86.3-19.9-114.3-51.4C532,943.7,626.3,901.6,702.7,856"/>
	<path id="XMLID_136_" fill-rule="evenodd" clip-rule="evenodd" fill="#FFC935" d="M650.1,892.9c-6,20.8-16.2,38.8-29.2,54.9
		c-3.5,4.3-0.4,10.5,4.2,13.7l33.6,23.4c4.6,3.2,10.8,0.5,13.7-4.2c13.4-21.3,25-43.4,35.1-66.5c2.2-5.1,1.2-12.1-4.2-13.7
		l-39.4-11.8C658.4,887.1,651.6,887.5,650.1,892.9 M650.1,850.7c-6-20.8-16.2-38.8-29.2-54.9c-3.5-4.3-0.4-10.5,4.2-13.7l33.6-23.4
		c4.6-3.2,10.8-0.5,13.7,4.2c13.4,21.3,25,43.4,35.1,66.5c2.2,5.1,1.2,12.1-4.2,13.7l-39.4,11.8
		C658.4,856.5,651.6,856.1,650.1,850.7z M451.1,892.9c6,20.8,16.2,38.8,29.2,54.9c3.5,4.3,0.4,10.5-4.2,13.7l-33.6,23.4
		c-4.6,3.2-10.8,0.5-13.7-4.2c-13.4-21.3-25-43.4-35.1-66.5c-2.2-5.1-1.2-12.1,4.2-13.7l39.4-11.8
		C442.7,887.1,449.5,887.5,451.1,892.9z M451.1,850.7c6-20.8,16.2-38.8,29.2-54.9c3.5-4.3,0.4-10.5-4.2-13.7l-33.6-23.4
		c-4.6-3.2-10.8-0.5-13.7,4.2c-13.4,21.3-25,43.4-35.1,66.5c-2.2,5.1-1.2,12.1,4.2,13.7l39.4,11.8
		C442.7,856.5,449.5,856.1,451.1,850.7z M523.2,970.7c21.2,4.5,41.8,3.9,62.2,0c5.5-1.1,9.5,4.6,10.1,10.1l4.8,40.6
		c0.7,5.5-4.6,9.7-10.1,10.1c-25.1,1.8-50.1,1.7-75.2-0.3c-5.6-0.4-11.2-4.7-10.1-10.1l8.1-40.3
		C514.2,975.3,517.8,969.5,523.2,970.7z M523.2,775c21.2-4.5,41.8-3.9,62.2,0c5.5,1.1,9.5-4.6,10.1-10.1l4.8-40.6
		c0.7-5.5-4.6-9.7-10.1-10.1c-25.1-1.8-50.1-1.7-75.2,0.3c-5.6,0.4-11.2,4.7-10.1,10.1l8.1,40.3C514.2,770.3,517.8,776.2,523.2,775z
		 M550.9,689c101.8,0,184.3,82.5,184.3,184.3s-82.5,184.3-184.3,184.3c-101.8,0-184.3-82.5-184.3-184.3S449.1,689,550.9,689z"/>
	<path id="XMLID_132_" fill-rule="evenodd" clip-rule="evenodd" fill="#FFA935" d="M650.1,892.9c-6,20.8-16.2,38.8-29.2,54.9
		c-3.5,4.3-0.4,10.5,4.2,13.7l33.6,23.4c4.6,3.2,10.8,0.5,13.7-4.2c13.4-21.3,25-43.4,35.1-66.5c2.2-5.1,1.2-12.1-4.2-13.7
		l-39.4-11.8C658.4,887.1,651.6,887.5,650.1,892.9 M523.2,970.7c21.2,4.5,41.8,3.9,62.2,0c5.5-1.1,9.5,4.6,10.1,10.1l4.8,40.6
		c0.7,5.5-4.6,9.7-10.1,10.1c-25.1,1.8-50.1,1.7-75.2-0.3c-5.6-0.4-11.2-4.7-10.1-10.1l8.1-40.3
		C514.2,975.3,517.8,969.5,523.2,970.7z M731.8,837.9c2.2,11.4,3.4,23.3,3.4,35.4c0,101.8-82.5,184.3-184.3,184.3
		c-59.9,0-113.2-28.6-146.8-72.9c7.6-2.2,15.3-4.6,22.9-7c0.6,1,1.3,2,1.9,3c3,4.7,9.1,7.4,13.7,4.2l33.6-23.4
		c0.3-0.2,0.6-0.5,1-0.7C570.8,927.3,661.2,883.8,731.8,837.9z"/>
	<path id="XMLID_129_" fill-rule="evenodd" clip-rule="evenodd" fill="#F6F1D4" d="M550.9,689.7c101.4,0,183.5,82.2,183.5,183.5
		s-82.2,183.5-183.5,183.5c-101.4,0-183.5-82.2-183.5-183.5S449.5,689.7,550.9,689.7 M550.9,683.7c104.7,0,189.5,84.9,189.5,189.5
		s-84.9,189.5-189.5,189.5s-189.5-84.9-189.5-189.5S446.2,683.7,550.9,683.7z"/>
	<path id="XMLID_128_" fill-rule="evenodd" clip-rule="evenodd" fill="#F6F1D4" d="M736.5,834.8c2.6,12.4,3.9,25.3,3.9,38.4
		c0,104.7-84.9,189.5-189.5,189.5c-62.4,0-117.7-30.1-152.2-76.6c2-0.6,4.1-1.2,6.1-1.8c33.5,44,86.5,72.4,146.1,72.4
		c101.4,0,183.5-82.2,183.5-183.5c0-11.9-1.2-23.6-3.3-34.9C732.9,837.2,734.7,836,736.5,834.8"/>
	<path id="XMLID_127_" fill-rule="evenodd" clip-rule="evenodd" fill="#3F4B88" d="M499.8,807.5c7.8,0,14.1,6.3,14.1,14.1
		c0,7.8-6.3,14.1-14.1,14.1c-7.8,0-14.1-6.3-14.1-14.1C485.7,813.8,492,807.5,499.8,807.5"/>
	<path id="XMLID_126_" fill-rule="evenodd" clip-rule="evenodd" fill="#3F4B88" d="M601.9,807.5c7.8,0,14.1,6.3,14.1,14.1
		c0,7.8-6.3,14.1-14.1,14.1c-7.8,0-14.1-6.3-14.1-14.1C587.8,813.8,594.1,807.5,601.9,807.5"/>
	<path id="XMLID_125_" fill-rule="evenodd" clip-rule="evenodd" fill="#3F4B88" d="M499.8,909.6c7.8,0,14.1,6.3,14.1,14.1
		c0,7.8-6.3,14.1-14.1,14.1c-7.8,0-14.1-6.3-14.1-14.1C485.7,915.9,492,909.6,499.8,909.6"/>
	<path id="XMLID_124_" fill-rule="evenodd" clip-rule="evenodd" fill="#3F4B88" d="M601.9,909.6c7.8,0,14.1,6.3,14.1,14.1
		c0,7.8-6.3,14.1-14.1,14.1c-7.8,0-14.1-6.3-14.1-14.1C587.8,915.9,594.1,909.6,601.9,909.6"/>
	<path id="XMLID_123_" fill-rule="evenodd" clip-rule="evenodd" fill="#F6F1D4" d="M550.9,827.5c25.3,0,45.8,20.5,45.8,45.8
		c0,25.3-20.5,45.8-45.8,45.8c-25.3,0-45.8-20.5-45.8-45.8C505.1,848,525.6,827.5,550.9,827.5"/>
	<path id="XMLID_122_" fill-rule="evenodd" clip-rule="evenodd" fill="#3F4B88" d="M550.6,859.3c8.9,0,16.1,7.2,16.1,16.1
		c0,8.9-7.2,16.1-16.1,16.1c-8.9,0-16.1-7.2-16.1-16.1C534.5,866.5,541.7,859.3,550.6,859.3"/>
	<path id="XMLID_121_" fill-rule="evenodd" clip-rule="evenodd" fill="#3F4B88" d="M550.6,837.1c3.5,0,6.3,2.8,6.3,6.3
		c0,3.5-2.8,6.3-6.3,6.3c-3.5,0-6.3-2.8-6.3-6.3C544.3,839.9,547.1,837.1,550.6,837.1"/>
	<path id="XMLID_120_" fill-rule="evenodd" clip-rule="evenodd" fill="#3F4B88" d="M550.6,896.9c3.5,0,6.3,2.8,6.3,6.3
		s-2.8,6.3-6.3,6.3c-3.5,0-6.3-2.8-6.3-6.3S547.1,896.9,550.6,896.9"/>
	<path id="XMLID_119_" fill-rule="evenodd" clip-rule="evenodd" fill="#3F4B88" d="M520.9,869.1c3.5,0,6.3,2.8,6.3,6.3
		s-2.8,6.3-6.3,6.3s-6.3-2.8-6.3-6.3S517.5,869.1,520.9,869.1"/>
	<path id="XMLID_118_" fill-rule="evenodd" clip-rule="evenodd" fill="#3F4B88" d="M580.9,869.1c3.5,0,6.3,2.8,6.3,6.3
		s-2.8,6.3-6.3,6.3c-3.5,0-6.3-2.8-6.3-6.3S577.4,869.1,580.9,869.1"/>
	<path id="XMLID_117_" fill-rule="evenodd" clip-rule="evenodd" fill="#3F4B88" d="M571.5,847.2c3.5,0,6.3,2.8,6.3,6.3
		s-2.8,6.3-6.3,6.3s-6.3-2.8-6.3-6.3S568.1,847.2,571.5,847.2"/>
	<path id="XMLID_116_" fill-rule="evenodd" clip-rule="evenodd" fill="#3F4B88" d="M530.3,888.2c3.5,0,6.3,2.8,6.3,6.3
		s-2.8,6.3-6.3,6.3s-6.3-2.8-6.3-6.3S526.9,888.2,530.3,888.2"/>
	<path id="XMLID_115_" fill-rule="evenodd" clip-rule="evenodd" fill="#3F4B88" d="M572,888.7c3.5,0,6.3,2.8,6.3,6.3
		s-2.8,6.3-6.3,6.3s-6.3-2.8-6.3-6.3S568.5,888.7,572,888.7"/>
	<path id="XMLID_114_" fill-rule="evenodd" clip-rule="evenodd" fill="#3F4B88" d="M529.4,846.3c3.5,0,6.3,2.8,6.3,6.3
		s-2.8,6.3-6.3,6.3s-6.3-2.8-6.3-6.3S525.9,846.3,529.4,846.3"/>
	<line id="XMLID_113_" fill-rule="evenodd" clip-rule="evenodd" fill="#3AB5D5" x1="616.7" y1="862" x2="616.7" y2="862"/>
	<path id="XMLID_112_" fill-rule="evenodd" clip-rule="evenodd" fill="#F5E7B4" d="M685.8,786.3c0,0,0,0-0.1-0.1
		C685.8,786.3,685.8,786.3,685.8,786.3"/>
	<path id="XMLID_111_" fill-rule="evenodd" clip-rule="evenodd" fill="#EED9A0" d="M683.3,776.6c-1.8,3.2,1.8,8.7,2.5,9.6
		c-0.3-0.4-1.2-1.3-3.4-1.1c-2.7,0.2-8.2,4.4-10.9,8.2c-1.4,2,0.2,4.5,2,6.5c-1.4-0.4-2.5-1.3-3.3-2.4c-2.1-3.3-0.4-8.2,3.9-10.9
		c2.4-1.6,3.8-3.3,6.4-4.1c-2.6-5.2,2.7-10.8,3.5-11.3c3.8-2.4,8.9-1.3,12.6,2.4C691.5,771.6,684.9,773.7,683.3,776.6"/>
	<path id="XMLID_110_" fill-rule="evenodd" clip-rule="evenodd" fill="#E6D6A2" d="M671.5,793.4c2.6-3.8,8.2-8,10.9-8.2
		c2.2-0.2,3.1,0.7,3.4,1.1c0.1,0.1,0.1,0.1,0.1,0.1c0,0,0-0.1-0.1-0.1c-0.6-0.9-4.2-6.4-2.5-9.6c1.6-2.9,8.2-5,13.3-3.2
		c0.7,0.7,1.3,1.5,1.9,2.4c3.5,5.5,4,8.8,0.3,13.4c-0.8,0.9-1,1.4-2.2,1.6c0.1,0.2,0.3,0.4,0.4,0.6c3.1,4.8,0.3,11.7-2.6,13.5
		c-2.9,1.9-7.4,0.8-10.5-4.1c-0.4-0.6-0.4-0.6-0.7-1.1c-0.3,0.2-0.8-0.2-1.1,0c-2.7,1.7-6.1,0.8-8.6,0.1
		C671.6,797.9,670.1,795.3,671.5,793.4"/>
	<path id="XMLID_109_" fill-rule="evenodd" clip-rule="evenodd" fill="#F5E7B4" d="M618.1,787.2c0,0,0,0.1,0,0.2
		C618.1,787.3,618.1,787.2,618.1,787.2"/>
	<path id="XMLID_108_" fill-rule="evenodd" clip-rule="evenodd" fill="#EED9A0" d="M617.3,797.2c2.7-2.4,1.1-8.8,0.8-9.9
		c0.1,0.4,0.7,1.6,2.9,2.1c2.6,0.6,9.2-1.5,13-4.2c2-1.4,1.3-4.3,0.2-6.8c1.2,0.9,2,2,2.3,3.4c0.9,3.8-2.3,7.9-7.2,9
		c-2.8,0.7-4.7,1.9-7.4,1.8c0.8,5.8-6.1,9.3-7,9.5c-4.3,1-8.9-1.7-11.1-6.4C607.9,799.3,614.8,799.5,617.3,797.2"/>
	<path id="XMLID_107_" fill-rule="evenodd" clip-rule="evenodd" fill="#F5E7B4" d="M634,785.3c-3.7,2.7-10.4,4.9-13,4.2
		c-2.1-0.5-2.7-1.7-2.9-2.1c0-0.1,0-0.2,0-0.2c0,0,0,0.1,0,0.2c0.3,1.1,1.9,7.4-0.8,9.9c-2.5,2.2-9.4,2-13.6-1.4
		c-0.4-0.9-0.8-1.8-1-2.8c-1.5-6.4-0.9-9.6,4.1-12.7c1-0.6,1.5-1,2.6-0.8c-0.1-0.2-0.1-0.5-0.2-0.7c-1.4-5.6,3.6-11.1,6.9-11.9
		c3.3-0.8,7.2,1.7,8.6,7.3c0.2,0.7,0.2,0.7,0.3,1.3c0.3-0.1,0.7,0.4,1,0.4c3.1-0.8,6.1,1.2,8.1,2.7C635.3,781,635.9,783.9,634,785.3
		"/>
	<path id="XMLID_106_" fill-rule="evenodd" clip-rule="evenodd" fill="#EED9A0" d="M673.9,767.1c2.3,0.6,4.3,2.2,5.3,4.6
		c1.7,4.2-0.5,9-4.9,10.9c-0.1,0-0.2,0.1-0.3,0.1c0.5,0.6,0.9,1.3,1.2,2.1c2,4.9-0.5,10.6-5.7,12.8c-5.2,2.2-11-0.1-13.1-5
		c-1-2.3-0.9-4.8-0.1-7c-4.4,0.9-8.5-0.6-9.8-3.8c-1.6-3.8,1.3-8.7,6.5-10.8c0.8-0.3,1.5-0.6,2.3-0.7c-0.1-0.1-0.1-0.2-0.1-0.3
		c-1.4-3.4,1.9-8,7.3-10.2c5.5-2.3,11-1.4,12.4,2C675.6,763.3,675.2,765.3,673.9,767.1"/>
	<path id="XMLID_105_" fill-rule="evenodd" clip-rule="evenodd" fill="#F6F0DA" d="M669.6,785.2c-1.3-3.1-5.1-4.6-8.4-3.2
		c-3.3,1.4-4.9,5.1-3.6,8.2c1.3,3.1,5.1,4.6,8.4,3.2C669.3,792,670.9,788.4,669.6,785.2"/>
	<path id="XMLID_104_" fill-rule="evenodd" clip-rule="evenodd" fill="#F5E7B4" d="M660.3,777.2c-1-2.5-4.5-3.3-7.9-1.9
		c-3.3,1.4-5.2,4.5-4.1,7c1,2.5,4.5,3.3,7.9,1.9C659.5,782.8,661.3,779.7,660.3,777.2"/>
	<path id="XMLID_103_" fill-rule="evenodd" clip-rule="evenodd" fill="#F6F0DA" d="M674.3,775.1c-1.1-2.7-4.3-3.9-7.2-2.7
		c-2.8,1.2-4.3,4.3-3.1,7c1.1,2.7,4.3,3.9,7.2,2.7C674,780.9,675.4,777.8,674.3,775.1"/>
	<path id="XMLID_102_" fill-rule="evenodd" clip-rule="evenodd" fill="#F5E7B4" d="M669.7,764.2c-0.9-2.2-4.5-2.7-8-1.3
		c-3.5,1.5-5.6,4.4-4.7,6.6c0.9,2.2,4.5,2.7,8,1.3C668.5,769.3,670.6,766.3,669.7,764.2"/>
	<path id="XMLID_101_" fill-rule="evenodd" clip-rule="evenodd" fill="#E6D6A2" d="M613.6,775c2.3,0.6,4.3,2.2,5.3,4.6
		c1.7,4.2-0.5,9-4.9,10.9c-0.1,0-0.2,0.1-0.3,0.1c0.5,0.6,0.9,1.3,1.2,2.1c2,4.9-0.5,10.6-5.7,12.8c-5.2,2.2-11-0.1-13.1-5
		c-1-2.3-0.9-4.8-0.1-7c-4.4,0.9-8.5-0.6-9.8-3.8c-1.6-3.8,1.3-8.7,6.5-10.8c0.8-0.3,1.5-0.6,2.3-0.7c-0.1-0.1-0.1-0.2-0.1-0.3
		c-1.4-3.4,1.9-8,7.3-10.2c5.5-2.3,11-1.4,12.4,2C615.4,771.2,614.9,773.2,613.6,775"/>
	<path id="XMLID_100_" fill-rule="evenodd" clip-rule="evenodd" fill="#F6F0DA" d="M609.4,793.1c-1.3-3.1-5.1-4.6-8.4-3.2
		c-3.3,1.4-4.9,5.1-3.6,8.2c1.3,3.1,5.1,4.6,8.4,3.2C609.1,800,610.7,796.3,609.4,793.1"/>
	<path id="XMLID_99_" fill-rule="evenodd" clip-rule="evenodd" fill="#F5E7B4" d="M600,785.1c-1-2.5-4.5-3.3-7.9-1.9
		c-3.3,1.4-5.2,4.5-4.1,7c1,2.5,4.5,3.3,7.9,1.9C599.2,790.7,601.1,787.6,600,785.1"/>
	<path id="XMLID_98_" fill-rule="evenodd" clip-rule="evenodd" fill="#F6F0DA" d="M614,783c-1.1-2.7-4.3-3.9-7.2-2.7
		c-2.8,1.2-4.3,4.3-3.1,7c1.1,2.7,4.3,3.9,7.2,2.7C613.7,788.8,615.1,785.7,614,783"/>
	<path id="XMLID_97_" fill-rule="evenodd" clip-rule="evenodd" fill="#F5E7B4" d="M609.5,772.1c-0.9-2.2-4.5-2.7-8-1.3
		c-3.5,1.5-5.6,4.4-4.7,6.6c0.9,2.2,4.5,2.7,8,1.3C608.3,777.2,610.4,774.2,609.5,772.1"/>
	<path id="XMLID_96_" fill-rule="evenodd" clip-rule="evenodd" fill="#F5E7B4" d="M623.4,803.4c3.7,4.4,9.1,8.9,14,5
		c1.1-0.9,2.1-2.8,2.8-4.8c1.2,3,2.7,6.4,5.4,7.1c2.7,0.7,4.4,0.7,7.3-0.5c6.7-2.8,11.1-11.6,8.7-17.4c-0.9-2.2-4.9-2.6-8.1-3.1
		c2.3-1.6,4.3-3.4,4.4-5.3c0.1-2.8-0.1-4.4-1.9-7.1c-4-6.1-11.2-7.2-16.4-3.7c-2.6,1.7-3.4,6.7-3.9,9.8c-0.4,3.1,1.6,5.6-0.9,5.3
		c-3-0.4-4.5,1.4-7.2,3.6c-2.7,2.2-5.8,2.5-5.9,5.5C621.5,800.1,621.8,801.5,623.4,803.4"/>
	<path id="XMLID_95_" fill-rule="evenodd" clip-rule="evenodd" fill="#C6810D" d="M647.9,802.1c0,0-0.8-1.2-1.7-1.5
		c0.4,1.7,0.7,3.3,1.1,4.2c0.9,1.9,6.3-3.2,6.7-6.5c0.5-3.4-4.2-6.8-4.2-6.8c0,0-0.9,0.7-1.6,1.7
		C647.3,794.5,645.5,796.8,647.9,802.1"/>
	<path id="XMLID_94_" fill-rule="evenodd" clip-rule="evenodd" fill="#F6F0DA" d="M651.2,770.2c-1.6,5.5-4.8,11.8-10.8,10.1
		c-1.4-0.4-3-1.7-4.5-3.3c0.1,3.2,0.1,7-2.1,8.6c-2.3,1.7-3.7,2.4-6.9,2.4c-7.2,0.1-14.8-6.2-14.9-12.5c0-2.3,3.4-4.3,6.2-6.1
		c-2.8-0.5-5.3-1.4-6.2-3.1c-1.3-2.5-1.7-4.1-1.1-7.3c1.2-7.1,7.4-11.1,13.6-10c3.1,0.5,5.8,4.7,7.5,7.4c1.6,2.7,0.8,5.8,2.9,4.5
		c2.6-1.6,4.7-0.6,8,0.4c3.3,0.9,6.3-0.1,7.6,2.7C651.5,766.4,651.9,767.7,651.2,770.2"/>
	<path id="XMLID_93_" fill-rule="evenodd" clip-rule="evenodd" fill="#F5E7B4" d="M590.7,778.7c0,0,0-0.1,0-0.2
		C590.7,778.6,590.7,778.7,590.7,778.7"/>
	<path id="XMLID_92_" fill-rule="evenodd" clip-rule="evenodd" fill="#EED9A0" d="M591.9,768.7c-2.8,2.3-1.5,8.7-1.3,9.8
		c-0.1-0.4-0.7-1.6-2.8-2.3c-2.6-0.8-9.3,1.1-13.1,3.6c-2,1.3-1.5,4.3-0.6,6.7c-1.1-0.9-1.9-2.1-2.2-3.5c-0.7-3.8,2.7-7.7,7.6-8.7
		c2.9-0.6,4.8-1.6,7.5-1.5c-0.5-5.8,6.5-9,7.4-9.2c4.4-0.9,8.8,2.1,10.8,6.9C601.4,767.1,594.5,766.6,591.9,768.7"/>
	<path id="XMLID_91_" fill-rule="evenodd" clip-rule="evenodd" fill="#F6F0DA" d="M574.7,779.9c3.8-2.5,10.6-4.4,13.1-3.6
		c2.1,0.6,2.6,1.8,2.8,2.3c0,0.1,0,0.2,0,0.2c0,0,0-0.1,0-0.2c-0.2-1.1-1.6-7.5,1.3-9.8c2.6-2.1,9.5-1.6,13.5,2
		c0.4,0.9,0.7,1.9,0.9,2.9c1.3,6.4,0.4,9.6-4.7,12.5c-1,0.6-1.5,1-2.6,0.7c0.1,0.2,0.1,0.5,0.2,0.8c1.1,5.7-4.1,10.9-7.5,11.6
		c-3.4,0.7-7.2-2-8.3-7.7c-0.1-0.7-0.2-0.7-0.2-1.3c-0.3,0.1-0.7-0.5-1-0.4c-3.2,0.6-6-1.5-8-3.1
		C573.2,784.1,572.7,781.2,574.7,779.9"/>
	<path id="XMLID_90_" fill-rule="evenodd" clip-rule="evenodd" fill="#F6F0DA" d="M711.3,781.7c-5.8,0.2-12.7,1.8-12.4,8.1
		c0,1.5,1,3.3,2.1,5.1c-3.1-0.9-6.7-1.8-8.9,0c-2.2,1.8-3.2,3-4,6.1c-1.9,7,2.4,15.9,8.5,17.5c2.3,0.6,5-2.3,7.4-4.5
		c-0.1,2.8,0.1,5.5,1.5,6.7c2.1,1.8,3.6,2.6,6.8,2.8c7.2,0.5,12.5-4.5,13-10.8c0.2-3.1-3.2-6.8-5.4-9c-2.2-2.2-5.4-2.2-3.7-3.9
		c2.2-2.2,1.7-4.4,1.6-7.9c-0.1-3.5,1.6-6.1-0.8-8.1C715,782.2,713.8,781.6,711.3,781.7"/>
	<path id="XMLID_89_" fill-rule="evenodd" clip-rule="evenodd" fill="#F5E7B4" d="M576.9,805.6c0,0,0,0,0.1,0.1
		C576.9,805.7,576.9,805.6,576.9,805.6"/>
	<path id="XMLID_88_" fill-rule="evenodd" clip-rule="evenodd" fill="#EED9A0" d="M579.3,815.4c1.8-3.1-1.7-8.7-2.3-9.6
		c0.3,0.4,1.2,1.3,3.4,1.1c2.7-0.2,8.3-4.3,11-8.1c1.4-2-0.1-4.5-1.9-6.5c1.4,0.5,2.5,1.3,3.3,2.5c2.1,3.3,0.3,8.2-4,10.9
		c-2.5,1.5-3.9,3.2-6.5,4c2.5,5.3-2.9,10.7-3.7,11.2c-3.8,2.4-9,1.1-12.6-2.6C571,820.3,577.6,818.3,579.3,815.4"/>
	<path id="XMLID_87_" fill-rule="evenodd" clip-rule="evenodd" fill="#F6F0DA" d="M591.4,798.8c-2.7,3.7-8.3,7.8-11,8.1
		c-2.2,0.2-3.1-0.8-3.4-1.1c-0.1-0.1-0.1-0.1-0.1-0.1s0,0.1,0.1,0.1c0.6,0.9,4.1,6.5,2.3,9.6c-1.7,2.9-8.3,4.9-13.3,3
		c-0.7-0.7-1.3-1.5-1.8-2.4c-3.5-5.6-3.8-8.9-0.1-13.4c0.8-0.9,1.1-1.4,2.2-1.6c-0.1-0.2-0.3-0.4-0.4-0.6c-3-4.9-0.1-11.7,2.9-13.5
		c2.9-1.8,7.4-0.7,10.5,4.2c0.4,0.6,0.4,0.6,0.7,1.1c0.3-0.2,0.8,0.2,1.1,0c2.7-1.7,6.2-0.7,8.6,0.1
		C591.3,794.3,592.8,796.9,591.4,798.8"/>
	<path id="XMLID_86_" fill-rule="evenodd" clip-rule="evenodd" fill="#F5E7B4" d="M645.3,801.9c0,0,0-0.1,0-0.2
		C645.3,801.8,645.3,801.9,645.3,801.9"/>
	<path id="XMLID_85_" fill-rule="evenodd" clip-rule="evenodd" fill="#EED9A0" d="M646.2,791.9c-2.8,2.4-1.3,8.8-1,9.8
		c-0.1-0.4-0.7-1.6-2.8-2.2c-2.6-0.7-9.3,1.3-13,4c-2,1.4-1.4,4.3-0.4,6.8c-1.1-0.9-2-2.1-2.3-3.4c-0.9-3.8,2.4-7.8,7.4-8.9
		c2.8-0.6,4.7-1.8,7.5-1.7c-0.7-5.8,6.2-9.2,7.2-9.4c4.4-1,8.8,1.9,11,6.6C655.7,790,648.8,789.7,646.2,791.9"/>
	<path id="XMLID_84_" fill-rule="evenodd" clip-rule="evenodd" fill="#F5E7B4" d="M629.4,803.5c3.8-2.7,10.4-4.7,13-4
		c2.1,0.6,2.7,1.7,2.8,2.2c0,0.1,0,0.2,0,0.2c0,0,0-0.1,0-0.2c-0.3-1.1-1.8-7.5,1-9.8c2.5-2.2,9.4-1.9,13.6,1.6
		c0.4,0.9,0.7,1.8,1,2.9c1.4,6.4,0.7,9.6-4.3,12.7c-1,0.6-1.5,1-2.6,0.7c0.1,0.2,0.1,0.5,0.2,0.8c1.3,5.6-3.8,11.1-7.1,11.8
		c-3.3,0.8-7.2-1.8-8.5-7.4c-0.1-0.7-0.2-0.7-0.3-1.3c-0.3,0.1-0.7-0.4-1-0.4c-3.2,0.7-6.1-1.3-8.1-2.9
		C628,807.9,627.4,804.9,629.4,803.5"/>
	<path id="XMLID_83_" fill-rule="evenodd" clip-rule="evenodd" fill="#EED9A0" d="M589.2,821.1c-2.3-0.7-4.3-2.3-5.2-4.6
		c-1.7-4.2,0.6-9,5.1-10.8c0.1,0,0.2-0.1,0.3-0.1c-0.5-0.6-0.9-1.3-1.2-2.1c-2-4.9,0.7-10.6,5.9-12.7c5.2-2.1,11,0.2,13,5.2
		c0.9,2.3,0.8,4.8-0.1,7c4.4-0.8,8.5,0.7,9.7,3.9c1.5,3.9-1.4,8.7-6.6,10.7c-0.8,0.3-1.5,0.5-2.3,0.7c0,0.1,0.1,0.2,0.1,0.3
		c1.4,3.4-2,7.9-7.5,10.1c-5.5,2.2-11.1,1.2-12.4-2.2C587.3,824.9,587.8,822.9,589.2,821.1"/>
	<path id="XMLID_82_" fill-rule="evenodd" clip-rule="evenodd" fill="#F6F0DA" d="M593.7,803c1.3,3.2,5,4.7,8.3,3.3
		c3.3-1.3,5-5,3.8-8.1c-1.3-3.2-5-4.7-8.3-3.3C594.2,796.2,592.5,799.9,593.7,803"/>
	<path id="XMLID_81_" fill-rule="evenodd" clip-rule="evenodd" fill="#F5E7B4" d="M602.9,811.2c1,2.5,4.5,3.4,7.8,2.1
		c3.3-1.3,5.2-4.4,4.3-6.9c-1-2.5-4.5-3.4-7.8-2.1C603.8,805.7,601.9,808.7,602.9,811.2"/>
	<path id="XMLID_80_" fill-rule="evenodd" clip-rule="evenodd" fill="#F6F0DA" d="M588.9,813.1c1.1,2.7,4.3,3.9,7.1,2.8
		c2.9-1.1,4.3-4.2,3.3-6.9c-1.1-2.7-4.3-3.9-7.1-2.8C589.3,807.3,587.8,810.4,588.9,813.1"/>
	<path id="XMLID_79_" fill-rule="evenodd" clip-rule="evenodd" fill="#F5E7B4" d="M593.3,824.1c0.9,2.2,4.4,2.8,8,1.4
		c3.5-1.4,5.7-4.3,4.8-6.5c-0.9-2.2-4.4-2.8-8-1.4C594.6,819,592.4,821.9,593.3,824.1"/>
	<path id="XMLID_78_" fill-rule="evenodd" clip-rule="evenodd" fill="#E6D6A2" d="M649.6,814.2c-2.3-0.7-4.3-2.3-5.2-4.6
		c-1.7-4.2,0.6-9,5.1-10.8c0.1,0,0.2-0.1,0.3-0.1c-0.5-0.6-0.9-1.3-1.2-2.1c-2-4.9,0.7-10.6,5.9-12.7c5.2-2.1,11,0.2,13,5.2
		c0.9,2.3,0.8,4.8-0.1,7c4.4-0.8,8.5,0.7,9.7,3.9c1.5,3.9-1.4,8.7-6.6,10.7c-0.8,0.3-1.5,0.5-2.3,0.7c0,0.1,0.1,0.2,0.1,0.3
		c1.4,3.4-2,7.9-7.5,10.1c-5.5,2.2-11.1,1.2-12.4-2.2C647.7,818,648.2,816,649.6,814.2"/>
	<path id="XMLID_77_" fill-rule="evenodd" clip-rule="evenodd" fill="#F6F0DA" d="M654.1,796.1c1.3,3.2,5,4.7,8.3,3.3
		c3.3-1.3,5-5,3.8-8.1c-1.3-3.2-5-4.7-8.3-3.3C654.5,789.3,652.8,793,654.1,796.1"/>
	<path id="XMLID_76_" fill-rule="evenodd" clip-rule="evenodd" fill="#F5E7B4" d="M663.3,804.3c1,2.5,4.5,3.4,7.8,2.1
		c3.3-1.3,5.2-4.4,4.3-6.9c-1-2.5-4.5-3.4-7.8-2.1C664.2,798.7,662.3,801.8,663.3,804.3"/>
	<path id="XMLID_75_" fill-rule="evenodd" clip-rule="evenodd" fill="#F6F0DA" d="M649.3,806.2c1.1,2.7,4.3,3.9,7.1,2.8
		c2.9-1.1,4.3-4.2,3.3-6.9c-1.1-2.7-4.3-3.9-7.1-2.8C649.7,800.4,648.2,803.5,649.3,806.2"/>
	<path id="XMLID_74_" fill-rule="evenodd" clip-rule="evenodd" fill="#F5E7B4" d="M653.7,817.2c0.9,2.2,4.4,2.8,8,1.4
		c3.5-1.4,5.7-4.3,4.8-6.5c-0.9-2.2-4.4-2.8-8-1.4C655,812.1,652.8,815,653.7,817.2"/>
	<path id="XMLID_73_" fill-rule="evenodd" clip-rule="evenodd" fill="#E6D6A2" d="M545.1,830.3c0.8-1.5,2.2-2.6,3.9-2.8
		c3.1-0.5,6,1.7,6.6,5.1c0,0.1,0,0.1,0,0.2c0.5-0.2,1-0.4,1.6-0.5c3.6-0.6,7.1,2,7.8,5.9c0.6,3.8-1.8,7.5-5.4,8.1
		c-1.7,0.3-3.4-0.1-4.7-1.1c-0.1,3.1-1.7,5.6-4.1,6c-2.8,0.5-5.7-2.3-6.3-6.1c-0.1-0.6-0.1-1.1-0.1-1.6c-0.1,0-0.2,0-0.2,0
		c-2.5,0.4-5.1-2.5-5.8-6.6c-0.7-4.1,0.8-7.7,3.3-8.1C542.8,828.5,544,829.1,545.1,830.3"/>
	<path id="XMLID_72_" fill-rule="evenodd" clip-rule="evenodd" fill="#F5E7B4" d="M532.9,826.6c-0.5-5.7,0.3-12.8,6.5-13.3
		c1.5-0.1,3.4,0.6,5.4,1.5c-1.3-3-2.6-6.5-1.1-8.8c1.5-2.4,2.6-3.5,5.6-4.7c6.7-2.7,16.1,0.5,18.4,6.3c0.9,2.2-1.7,5.3-3.6,7.9
		c2.8-0.5,5.5-0.6,6.8,0.7c2.1,1.9,3,3.2,3.6,6.4c1.4,7.1-3,13-9.1,14.2c-3.1,0.6-7.1-2.4-9.6-4.3c-2.5-1.9-2.8-5.1-4.3-3.2
		c-1.9,2.4-4.2,2.2-7.7,2.5c-3.5,0.3-5.8,2.3-8.1,0.2C533.8,830.2,533.1,829.1,532.9,826.6"/>
	<path id="XMLID_71_" fill-rule="evenodd" clip-rule="evenodd" fill="#F7EBC3" d="M640.2,785.6c-3.6-4.5-9-9.1-13.9-5.2
		c-1.1,0.9-2.1,2.8-2.9,4.8c-1.1-3-2.6-6.5-5.3-7.1c-2.7-0.7-4.3-0.8-7.3,0.4c-6.7,2.7-11.3,11.4-9,17.2c0.9,2.2,4.9,2.7,8,3.2
		c-2.3,1.6-4.4,3.4-4.5,5.2c-0.2,2.8,0,4.4,1.8,7.1c3.9,6.1,11.1,7.3,16.4,4c2.6-1.7,3.5-6.6,4-9.7c0.5-3.1-1.5-5.7,1-5.3
		c3,0.5,4.6-1.3,7.3-3.5c2.7-2.2,5.8-2.4,6-5.4C642,788.9,641.8,787.6,640.2,785.6"/>
	<path id="XMLID_70_" fill-rule="evenodd" clip-rule="evenodd" fill="#F6F0DA" d="M565.3,848.3c4.8,3.1,11.4,5.8,14.8,0.5
		c0.8-1.2,1.1-3.3,1.2-5.4c2,2.5,4.5,5.3,7.3,5.1c2.8-0.2,4.4-0.6,6.8-2.7c5.5-4.7,7.1-14.4,3-19.2c-1.5-1.8-5.5-1-8.7-0.5
		c1.7-2.2,3.1-4.6,2.6-6.4c-0.7-2.7-1.4-4.2-3.9-6.2c-5.6-4.6-12.8-3.5-16.8,1.4c-2,2.4-1.3,7.4-0.7,10.5c0.5,3.1,3.2,4.9,0.8,5.3
		c-3,0.5-3.9,2.7-5.8,5.6c-1.9,2.9-4.8,4.1-4,7.1C562.5,845.7,563.1,846.9,565.3,848.3"/>
	<path id="XMLID_69_" fill-rule="evenodd" clip-rule="evenodd" fill="#E6D6A2" d="M668.8,835.2c-1.9-1.5-3.1-3.7-3.1-6.2
		c0-4.5,3.9-8.1,8.7-8.1c0.1,0,0.2,0,0.3,0c-0.2-0.8-0.3-1.6-0.3-2.4c0-5.3,4.5-9.6,10.1-9.6c5.6,0,10.1,4.3,10.1,9.6
		c0,2.5-1,4.8-2.6,6.5c4.4,0.8,7.6,3.8,7.6,7.3c0,4.2-4.5,7.5-10.1,7.5c-0.8,0-1.6-0.1-2.4-0.2c0,0.1,0,0.2,0,0.3
		c0,3.7-4.8,6.6-10.7,6.6c-5.9,0-10.7-3-10.7-6.6C665.7,838.1,666.9,836.4,668.8,835.2"/>
	<path id="XMLID_68_" fill-rule="evenodd" clip-rule="evenodd" fill="#F6F0DA" d="M679.7,820.1c0,3.4,2.9,6.2,6.5,6.2
		c3.6,0,6.5-2.8,6.5-6.2c0-3.4-2.9-6.2-6.5-6.2C682.7,813.9,679.7,816.7,679.7,820.1"/>
	<path id="XMLID_67_" fill-rule="evenodd" clip-rule="evenodd" fill="#F6F0DA" d="M685.3,831.1c0,2.7,2.9,4.8,6.5,4.8
		c3.6,0,6.5-2.2,6.5-4.8c0-2.7-2.9-4.8-6.5-4.8C688.2,826.3,685.3,828.5,685.3,831.1"/>
	<path id="XMLID_66_" fill-rule="evenodd" clip-rule="evenodd" fill="#F6F0DA" d="M671.5,827.7c0,2.9,2.5,5.2,5.6,5.2
		c3.1,0,5.6-2.3,5.6-5.2c0-2.9-2.5-5.2-5.6-5.2C674,822.4,671.5,824.8,671.5,827.7"/>
	<path id="XMLID_65_" fill-rule="evenodd" clip-rule="evenodd" fill="#F6F0DA" d="M671.5,839.5c0,2.3,3.1,4.2,6.9,4.2
		c3.8,0,6.9-1.9,6.9-4.2c0-2.3-3.1-4.2-6.9-4.2C674.6,835.3,671.5,837.2,671.5,839.5"/>
	<path id="XMLID_64_" fill-rule="evenodd" clip-rule="evenodd" fill="#E6D6A2" d="M621.9,826.4c1.3-1.1,3-1.6,4.7-1.2
		c3.1,0.7,5,3.9,4.2,7.1c0,0.1,0,0.1,0,0.2c0.5,0,1.1,0,1.7,0.1c3.6,0.8,5.9,4.5,5,8.3c-0.8,3.8-4.4,6.3-8,5.5
		c-1.7-0.4-3.1-1.4-4-2.8c-1.2,2.8-3.7,4.6-6.1,4.1c-2.8-0.6-4.4-4.2-3.6-8c0.1-0.6,0.3-1.1,0.5-1.6c-0.1,0-0.2,0-0.2,0
		c-2.5-0.5-3.8-4.2-2.9-8.3c0.9-4,3.6-6.8,6.1-6.3C620.4,823.9,621.4,824.9,621.9,826.4"/>
	<path id="XMLID_63_" fill-rule="evenodd" clip-rule="evenodd" fill="#F6F0DA" d="M630.5,836.1c-2.3-0.5-4.6,1.1-5.2,3.5
		c-0.5,2.4,0.9,4.8,3.2,5.3c2.3,0.5,4.6-1.1,5.2-3.5C634.3,839,632.8,836.6,630.5,836.1"/>
	<path id="XMLID_62_" fill-rule="evenodd" clip-rule="evenodd" fill="#F5E7B4" d="M622.2,838.2c-1.8-0.4-3.7,1.3-4.2,3.7
		c-0.5,2.4,0.5,4.7,2.3,5.1c1.8,0.4,3.7-1.3,4.2-3.7C625.1,840.9,624.1,838.6,622.2,838.2"/>
	<path id="XMLID_61_" fill-rule="evenodd" clip-rule="evenodd" fill="#F6F0DA" d="M626.6,829.4c-2-0.4-3.9,0.9-4.4,3
		c-0.5,2.1,0.8,4.1,2.7,4.6c2,0.4,3.9-0.9,4.4-3C629.8,831.9,628.6,829.8,626.6,829.4"/>
	<path id="XMLID_60_" fill-rule="evenodd" clip-rule="evenodd" fill="#F5E7B4" d="M618.6,827.6c-1.6-0.3-3.3,1.5-3.9,4
		c-0.6,2.6,0.3,5,1.9,5.3c1.6,0.3,3.3-1.5,3.9-4C621,830.4,620.2,828,618.6,827.6"/>
	<path id="XMLID_59_" fill-rule="evenodd" clip-rule="evenodd" fill="#F6F0DA" d="M611.9,818.4c1.7-5.5,5-11.8,11-10
		c1.4,0.4,3,1.8,4.4,3.4c-0.1-3.2,0-7,2.2-8.6c2.3-1.7,3.8-2.3,7-2.3c7.2,0,14.7,6.4,14.7,12.7c0,2.3-3.5,4.3-6.3,6
		c2.7,0.6,5.3,1.5,6.1,3.2c1.2,2.5,1.6,4.1,1,7.3c-1.3,7.1-7.6,10.9-13.7,9.8c-3.1-0.6-5.7-4.8-7.3-7.5c-1.6-2.7-0.7-5.8-2.8-4.6
		c-2.6,1.6-4.7,0.5-8-0.5c-3.3-1-6.3,0-7.6-2.8C611.5,822.2,611.2,820.9,611.9,818.4"/>
	<path id="XMLID_58_" fill-rule="evenodd" clip-rule="evenodd" fill="#F5E7B4" d="M733.9,830.4c-1.7-5.5-5-11.8-11-10
		c-1.4,0.4-3,1.8-4.4,3.4c0.1-3.2,0-7-2.2-8.6c-2.3-1.7-3.8-2.3-7-2.3c-7.2,0-14.7,6.4-14.7,12.7c0,2.3,3.5,4.3,6.3,6
		c-2.7,0.6-5.3,1.5-6.1,3.2c-1.2,2.5-1.6,4.1-1,7.3c1.3,7.1,7.6,10.9,13.7,9.8c3.1-0.6,5.7-4.8,7.3-7.5c1.6-2.7,0.7-5.8,2.8-4.6
		c2.6,1.6,4.7,0.5,8-0.5c3.3-1,6.3,0,7.6-2.8C734.3,834.2,734.6,832.9,733.9,830.4"/>
	<path id="XMLID_57_" fill-rule="evenodd" clip-rule="evenodd" fill="#F5E7B4" d="M634,850.6c3.3,4.7,8.5,9.6,13.6,6
		c1.2-0.8,2.3-2.6,3.1-4.6c1,3.1,2.2,6.6,4.8,7.4c2.7,0.9,4.3,1,7.3,0c6.9-2.3,11.9-10.8,9.9-16.7c-0.7-2.2-4.7-2.9-7.9-3.7
		c2.4-1.4,4.6-3.1,4.8-4.9c0.4-2.8,0.2-4.4-1.3-7.2c-3.5-6.3-10.7-8-16.1-4.9c-2.7,1.5-3.9,6.4-4.6,9.5c-0.6,3.1,1.2,5.7-1.3,5.2
		c-3-0.6-4.6,1-7.5,3c-2.8,2-5.9,2-6.3,5.1C632.4,847.2,632.5,848.5,634,850.6"/>
	<path id="XMLID_56_" fill-rule="evenodd" clip-rule="evenodd" fill="#F5E7B4" d="M603.7,834.9c0,0,0,0-0.1-0.1
		C603.6,834.8,603.7,834.9,603.7,834.9"/>
	<path id="XMLID_55_" fill-rule="evenodd" clip-rule="evenodd" fill="#E6D6A2" d="M598.9,826c-1,3.5,3.8,8,4.6,8.8
		c-0.4-0.3-1.5-1-3.6-0.3c-2.6,0.9-7,6.2-8.7,10.5c-0.9,2.3,1.2,4.4,3.4,5.8c-1.4-0.1-2.8-0.6-3.8-1.6c-2.8-2.7-2.3-7.9,1.2-11.5
		c2-2.1,3-4.1,5.3-5.5c-3.7-4.5,0.2-11.1,0.8-11.8c3.1-3.2,8.4-3.3,12.8-0.6C605.8,819.2,599.9,822.8,598.9,826"/>
	<path id="XMLID_54_" fill-rule="evenodd" clip-rule="evenodd" fill="#EED9A0" d="M591.3,845c1.7-4.3,6.1-9.7,8.7-10.5
		c2.1-0.7,3.2,0,3.6,0.3c0.1,0.1,0.1,0.1,0.1,0.1c0,0,0,0-0.1-0.1c-0.8-0.8-5.6-5.3-4.6-8.8c0.9-3.2,6.8-6.8,12.2-6.1
		c0.8,0.5,1.6,1.1,2.4,1.9c4.7,4.5,5.9,7.6,3.4,12.9c-0.5,1.1-0.7,1.6-1.8,2.1c0.2,0.2,0.4,0.3,0.6,0.5c4.2,4,2.9,11.3,0.6,13.8
		c-2.4,2.5-7,2.5-11.2-1.5c-0.5-0.5-0.5-0.5-0.9-0.9c-0.2,0.3-0.8,0-1.1,0.3c-2.2,2.3-5.8,2.2-8.3,2.1
		C592.5,849.4,590.4,847.3,591.3,845"/>
	<path id="XMLID_53_" fill-rule="evenodd" clip-rule="evenodd" fill="#F5E7B4" d="M672.6,810.9c0,0,0,0.1,0,0.2
		C672.6,811,672.6,810.9,672.6,810.9"/>
	<path id="XMLID_52_" fill-rule="evenodd" clip-rule="evenodd" fill="#EED9A0" d="M671.2,820.8c2.9-2.2,1.7-8.7,1.4-9.8
		c0.1,0.4,0.6,1.6,2.7,2.3c2.6,0.8,9.3-0.9,13.2-3.4c2-1.3,1.6-4.2,0.7-6.7c1.1,0.9,1.9,2.1,2.1,3.5c0.7,3.9-2.8,7.7-7.8,8.6
		c-2.9,0.5-4.8,1.6-7.5,1.3c0.4,5.8-6.6,8.9-7.6,9.1c-4.4,0.8-8.8-2.3-10.7-7.1C661.7,822.3,668.5,822.9,671.2,820.8"/>
	<path id="XMLID_51_" fill-rule="evenodd" clip-rule="evenodd" fill="#F6F0DA" d="M688.5,810c-3.9,2.5-10.6,4.2-13.2,3.4
		c-2.1-0.7-2.6-1.9-2.7-2.3c0-0.1,0-0.2,0-0.2c0,0,0,0.1,0,0.2c0.2,1.1,1.4,7.5-1.4,9.8c-2.6,2.1-9.5,1.5-13.5-2.2
		c-0.4-0.9-0.6-1.9-0.8-2.9c-1.1-6.4-0.3-9.6,4.9-12.4c1.1-0.6,1.5-0.9,2.7-0.6c-0.1-0.2-0.1-0.5-0.2-0.8c-1-5.7,4.3-10.9,7.6-11.5
		c3.4-0.6,7.1,2.1,8.1,7.8c0.1,0.7,0.2,0.7,0.2,1.3c0.3-0.1,0.7,0.5,1,0.4c3.2-0.6,6,1.6,7.9,3.2C690.1,805.7,690.6,808.7,688.5,810
		"/>
	<path id="XMLID_50_" fill-rule="evenodd" clip-rule="evenodd" fill="#E8504A" d="M556.6,845.7c0.1,0.7,0.2,1.4,0.3,2.1
		c0,0.1,0,0.3,0,0.4L556.6,845.7z"/>
	<path id="XMLID_49_" fill-rule="evenodd" clip-rule="evenodd" fill="#F6F1D4" d="M703.5,842.2c0,0.2,0,0.4,0,0.5
		C703.5,842.5,703.5,842.4,703.5,842.2c0,0.2,0,0.4,0,0.5C703.5,842.5,703.5,842.4,703.5,842.2c0.3-7.4,6.4-13.4,13.9-13.4
		c5.7,0,9.9,3.4,12.1,8.3l-34,230.1c-1,6.9-1.2,11.6-4.9,11.6l-11.1,0l24.1-237.1C703.5,841.8,703.5,842,703.5,842.2"/>
	<path id="XMLID_48_" fill-rule="evenodd" clip-rule="evenodd" fill="#F6F1D4" d="M675.7,842.2c0,0.2,0,0.4,0,0.5
		C675.7,842.5,675.7,842.4,675.7,842.2c0,0.2,0,0.4,0,0.5C675.7,842.5,675.7,842.4,675.7,842.2c0.3-7.4,6.4-13.4,13.9-13.4
		c7.3,0,13.3,5.7,13.9,12.9l-24.1,237.1l-17.5,0l13.7-237.3C675.7,841.7,675.7,841.9,675.7,842.2"/>
	<path id="XMLID_47_" fill-rule="evenodd" clip-rule="evenodd" fill="#E8504A" d="M661.8,828.8c7.3,0,13.2,5.6,13.9,12.7
		l-13.7,237.3l-19,0l5.2-238.7C649.4,833.6,655,828.8,661.8,828.8"/>
	<path id="XMLID_46_" fill-rule="evenodd" clip-rule="evenodd" fill="#F6F1D4" d="M620,842.2c0,0.2,0,0.4,0,0.5
		C620,842.5,620,842.4,620,842.2c0,0.2,0,0.4,0,0.5C620.1,842.5,620.1,842.4,620,842.2c0.3-7.4,6.4-13.4,13.9-13.4
		c7.5,0,13.6,5.9,13.9,13.4c0,0.2,0,0.4,0,0.5c0-0.2,0-0.4,0-0.5c0,0.2,0,0.4,0,0.5c0-0.2,0-0.4,0-0.5c0-0.7,0.1-1.4,0.2-2.1
		l-5.2,238.7l-19.3,0l-3.9-239.3C619.9,840.3,620,841.2,620,842.2"/>
	<path id="XMLID_45_" fill-rule="evenodd" clip-rule="evenodd" fill="#E8504A" d="M606.1,828.8c6.6,0,12.1,4.5,13.5,10.7l3.9,239.3
		l-18.2,0l-13.1-237.4C592.9,834.3,598.9,828.8,606.1,828.8"/>
	<path id="XMLID_44_" fill-rule="evenodd" clip-rule="evenodd" fill="#E8504A" d="M550.5,828.8c6.7,0,12.3,4.7,13.6,11l0.3,2.9
		c0,0,0,0,0,0.1c0,0,0,0,0-0.1l23.6,236.1l-5.4,0c-6.3,0-11.4-5.1-11.4-11.4l-33.7-229.7C539.5,832.5,544.6,828.8,550.5,828.8"/>
	<path id="XMLID_43_" fill-rule="evenodd" clip-rule="evenodd" fill="#F6F1D4" d="M564.4,842.2c0,0.2,0,0.4,0,0.5
		C564.4,842.5,564.4,842.4,564.4,842.2c0.3-7.4,6.4-13.4,13.9-13.4c7.5,0,13.6,5.9,13.9,13.4c0,0.2,0,0.4,0,0.5c0-0.2,0-0.4,0-0.5
		c0,0.2,0,0.4,0,0.5c0-0.2,0-0.4,0-0.5c0-0.3,0-0.5,0-0.8l13.1,237.4l-17.3,0l-23.6-236.1C564.4,842.5,564.4,842.3,564.4,842.2"/>
	<rect id="XMLID_42_" x="750.1" y="818" fill-rule="evenodd" clip-rule="evenodd" fill="#F6F1D4" width="7.2" height="154.5"/>
	<path id="XMLID_41_" fill-rule="evenodd" clip-rule="evenodd" fill="#F6F1D4" d="M697.2,907.1c0-28.2,25.2-51,56.4-51
		c31.1,0,56.4,22.8,56.4,51H697.2z"/>
	<path id="XMLID_40_" fill-rule="evenodd" clip-rule="evenodd" fill="#EED9A0" d="M697.2,907.1c0-22.9,16.7-42.3,39.6-48.7
		c23,6.4,39.6,25.8,39.6,48.7H697.2z"/>
	<polygon id="XMLID_39_" fill-rule="evenodd" clip-rule="evenodd" fill="#EED9A0" points="790.9,1083.4 716.4,1083.4 698,929.7 
		809.3,929.7 	"/>
	<polygon id="XMLID_38_" fill-rule="evenodd" clip-rule="evenodd" fill="#DC5F50" points="786,1072.2 721.2,1072.2 705.2,931.6 
		802,931.6 	"/>
	<polygon id="XMLID_37_" fill-rule="evenodd" clip-rule="evenodd" fill="#EED9A0" points="733.1,1083.4 716.4,1083.4 698,929.7 
		714.7,929.7 714.9,931.6 705.2,931.6 721.2,1072.2 731.8,1072.2 	"/>
	<polygon id="XMLID_36_" fill-rule="evenodd" clip-rule="evenodd" fill="#EF6A5B" points="731.8,1072.2 721.2,1072.2 705.2,931.6 
		714.9,931.6 	"/>
	<rect id="XMLID_35_" x="694.2" y="905.6" fill-rule="evenodd" clip-rule="evenodd" fill="#D7D8D7" width="119" height="12.4"/>
	<rect id="XMLID_34_" x="785.3" y="905.6" fill-rule="evenodd" clip-rule="evenodd" fill="#C4C5C3" width="27.9" height="12.4"/>
	<rect id="XMLID_33_" x="691.1" y="916.4" fill-rule="evenodd" clip-rule="evenodd" fill="#C4C5C3" width="125.1" height="17"/>
	<rect id="XMLID_32_" x="785.3" y="916.4" fill-rule="evenodd" clip-rule="evenodd" fill="#B1B2AF" width="31" height="17"/>
	<path id="XMLID_31_" opacity="0.5" fill-rule="evenodd" clip-rule="evenodd" fill="#FFFFFF" d="M725.6,949.3c-5,0-5-7.7,0-7.7
		C730.6,941.5,730.6,949.3,725.6,949.3"/>
	<path id="XMLID_30_" opacity="0.5" fill-rule="evenodd" clip-rule="evenodd" fill="#FFFFFF" d="M784.1,976.6c-5,0-5-7.7,0-7.7
		C789.1,968.8,789.1,976.6,784.1,976.6"/>
	<path id="XMLID_29_" opacity="0.5" fill-rule="evenodd" clip-rule="evenodd" fill="#FFFFFF" d="M734.2,1037.4c-5,0-5-7.7,0-7.7
		C739.1,1029.6,739.1,1037.4,734.2,1037.4"/>
	<path id="XMLID_28_" fill-rule="evenodd" clip-rule="evenodd" fill="#F3ADAF" d="M774.7,1068.6c-5,0-5-7.7,0-7.7
		C779.7,1060.9,779.7,1068.6,774.7,1068.6"/>
	<path id="XMLID_27_" opacity="0.5" fill-rule="evenodd" clip-rule="evenodd" fill="#FFFFFF" d="M775.5,1024.8c-3.7,0-3.7-5.8,0-5.8
		C779.3,1019,779.3,1024.8,775.5,1024.8"/>
	<path id="XMLID_26_" opacity="0.5" fill-rule="evenodd" clip-rule="evenodd" fill="#FFFFFF" d="M763.8,951.4c-3.7,0-3.7-5.8,0-5.8
		C767.5,945.6,767.5,951.4,763.8,951.4"/>
	<path id="XMLID_25_" fill-rule="evenodd" clip-rule="evenodd" fill="#F3ADAF" d="M739.6,1062.2c-3.7,0-3.7-5.8,0-5.8
		C743.4,1056.4,743.4,1062.2,739.6,1062.2"/>
	<path id="XMLID_24_" fill-rule="evenodd" clip-rule="evenodd" fill="#F3ADAF" d="M766.1,1039.5c-2.5,0-2.5-3.9,0-3.9
		C768.6,1035.6,768.6,1039.5,766.1,1039.5"/>
	<path id="XMLID_23_" opacity="0.5" fill-rule="evenodd" clip-rule="evenodd" fill="#FFFFFF" d="M727.9,966.8c-2.5,0-2.5-3.9,0-3.9
		C730.4,963,730.4,966.8,727.9,966.8"/>
	<path id="XMLID_22_" opacity="0.5" fill-rule="evenodd" clip-rule="evenodd" fill="#FFFFFF" d="M745.1,955.1c-2.5,0-2.5-3.9,0-3.9
		C747.6,951.3,747.6,955.1,745.1,955.1"/>
	<path id="XMLID_21_" opacity="0.5" fill-rule="evenodd" clip-rule="evenodd" fill="#FFFFFF" d="M785.7,954.3c-2.5,0-2.5-3.9,0-3.9
		S788.2,954.3,785.7,954.3"/>
	<path id="XMLID_20_" opacity="0.5" fill-rule="evenodd" clip-rule="evenodd" fill="#FFFFFF" d="M784.9,1007.4c-2.5,0-2.5-3.9,0-3.9
		C787.4,1003.5,787.4,1007.4,784.9,1007.4"/>
	<path id="XMLID_19_" fill-rule="evenodd" clip-rule="evenodd" fill="#F3ADAF" d="M752.1,1056.6c-2.5,0-2.5-3.9,0-3.9
		C754.6,1052.7,754.6,1056.6,752.1,1056.6"/>
	<path id="XMLID_18_" opacity="0.5" fill-rule="evenodd" clip-rule="evenodd" fill="#FFFFFF" d="M732.6,1022.2c-2.5,0-2.5-3.9,0-3.9
		C735.1,1018.4,735.1,1022.2,732.6,1022.2"/>
	<path id="XMLID_17_" opacity="0.5" fill-rule="evenodd" clip-rule="evenodd" fill="#FFFFFF" d="M753.6,985.6c-5,0-5-7.7,0-7.7
		C758.6,977.9,758.6,985.6,753.6,985.6"/>
	<path id="XMLID_16_" opacity="0.5" fill-rule="evenodd" clip-rule="evenodd" fill="#FFFFFF" d="M737.6,998.6c-5,0-5-7.7,0-7.7
		C742.6,990.8,742.6,998.6,737.6,998.6"/>
	<path id="XMLID_15_" opacity="0.5" fill-rule="evenodd" clip-rule="evenodd" fill="#FFFFFF" d="M763.2,1004.2c-5,0-5-7.7,0-7.7
		C768.2,996.5,768.2,1004.2,763.2,1004.2"/>
	<path id="XMLID_14_" opacity="0.5" fill-rule="evenodd" clip-rule="evenodd" fill="#FFFFFF" d="M751.5,1022.1c-5,0-5-7.7,0-7.7
		C756.5,1014.3,756.5,1022.1,751.5,1022.1"/>
	<path id="XMLID_13_" opacity="0.5" fill-rule="evenodd" clip-rule="evenodd" fill="#FFFFFF" d="M755.1,1037.6c-2.5,0-2.5-3.9,0-3.9
		C757.6,1033.8,757.6,1037.6,755.1,1037.6"/>
	<path id="XMLID_12_" fill-rule="evenodd" clip-rule="evenodd" fill="#F3ADAF" d="M773.3,1052.7c-2.5,0-2.5-3.9,0-3.9
		C775.8,1048.8,775.8,1052.7,773.3,1052.7"/>
	<path id="XMLID_11_" opacity="0.5" fill-rule="evenodd" clip-rule="evenodd" fill="#FFFFFF" d="M777.8,990.4c-2.5,0-2.5-3.9,0-3.9
		C780.3,986.6,780.3,990.4,777.8,990.4"/>
	<path id="XMLID_10_" fill-rule="evenodd" clip-rule="evenodd" fill="#EBEBEB" d="M664.9,1036h192.8c3.4,0,6.2,2.5,6.2,5.5v49.4
		c0,3-2.8,5.5-6.2,5.5c-25.2,0-40.4-0.5-65.7,0c-22.5,0.5-19.1-31.8-30.4-31.6c-11.9,0.2-7.8,31.6-26.9,31.6h-69.8
		c-3.4,0-6.2-2.5-6.2-5.5v-49.4C658.7,1038.4,661.5,1036,664.9,1036"/>
	<path id="XMLID_9_" fill-rule="evenodd" clip-rule="evenodd" fill="#FFC935" d="M676,1046h53.5c3,0,5.5,2.5,5.5,5.5v25.6
		c0,3-2.5,5.5-5.5,5.5H676c-3,0-5.5-2.5-5.5-5.5v-25.6C670.5,1048.5,673,1046,676,1046"/>
	<path id="XMLID_8_" fill-rule="evenodd" clip-rule="evenodd" fill="#FFC935" d="M676,1046h53.5c3,0,5.5,2.5,5.5,5.5v25.6
		c0,1.3-0.5,2.5-1.3,3.5l-61.4-33.1C673.2,1046.6,674.6,1046,676,1046"/>
	<path id="XMLID_7_" fill-rule="evenodd" clip-rule="evenodd" fill="#DC5F50" d="M793.2,1046h53.5c3,0,5.5,2.5,5.5,5.5v25.6
		c0,3-2.5,5.5-5.5,5.5h-53.5c-3,0-5.5-2.5-5.5-5.5v-25.6C787.7,1048.5,790.2,1046,793.2,1046"/>
	<path id="XMLID_6_" fill-rule="evenodd" clip-rule="evenodd" fill="#DC5F50" d="M793.2,1046h53.5c3,0,5.5,2.5,5.5,5.5v25.6
		c0,3-2.5,5.5-5.5,5.5h-53.5c-3,0-5.5-2.5-5.5-5.5v-25.6C787.7,1048.5,790.2,1046,793.2,1046"/>
	<path id="XMLID_5_" fill-rule="evenodd" clip-rule="evenodd" fill="#EF6A5B" d="M793.2,1046h53.5c3,0,5.5,2.5,5.5,5.5v25.6
		c0,1.3-0.5,2.5-1.3,3.5l-61.4-33.1C790.5,1046.6,791.8,1046,793.2,1046"/>
</g>
<text id="XMLID_171_" transform="matrix(0.9944 0.1061 -0.1061 0.9944 509.0774 525.7885)"><tspan x="0" y="0" fill="#F6F1D4" font-family="'JosefinSans-SemiBold'" font-size="151.7175px">NIGH</tspan><tspan x="386.3" y="0" fill="#F6F1D4" font-family="'JosefinSans-SemiBold'" font-size="151.7175px" letter-spacing="-4">T</tspan></text>
<text id="XMLID_173_" transform="matrix(0.9944 0.1061 -0.1061 0.9944 392.6823 381.5953)"><tspan x="0" y="0" fill="#F6F1D4" font-family="'JosefinSans-SemiBold'" font-size="151.7175px">M</tspan><tspan x="137.2" y="0" fill="#F6F1D4" font-family="'JosefinSans-SemiBold'" font-size="151.7175px" letter-spacing="-4">O</tspan><tspan x="256.9" y="0" fill="#F6F1D4" font-family="'JosefinSans-SemiBold'" font-size="151.7175px">VIE</tspan></text>
<polygon id="XMLID_172_" fill="#FFC935" points="439.2,399.5 451.4,447.2 500.7,449.9 459,476.3 471.7,523.9 433.7,492.5 
	392.3,519.2 410.5,473.4 372.3,442.3 421.5,445.4 "/>
<circle id="XMLID_174_" fill="#FFC935" cx="982.8" cy="342.1" r="95.1"/>
<text id="XMLID_175_" transform="matrix(0.996 8.917399e-002 -8.917399e-002 0.996 916.381 362.1687)"><tspan x="0" y="0" fill="#B84000" font-family="'JosefinSans-SemiBold'" font-size="87.4913px">f</tspan><tspan x="28.2" y="0" fill="#B84000" font-family="'JosefinSans-SemiBold'" font-size="87.4913px">r</tspan><tspan x="54.7" y="0" fill="#B84000" font-family="'JosefinSans-SemiBold'" font-size="87.4913px">ee</tspan></text>
<rect id="XMLID_240_" x="402.7" y="1144.1" fill="none" width="602.3" height="103.5"/>
<text id="XMLID_177_" transform="matrix(1 0 0 1 413.0166 1158.7686)"><tspan x="0" y="0" fill="#3F4B88" font-family="'BarlowCondensed-Light'" font-size="21px">L</tspan><tspan x="8.1" y="0" fill="#3F4B88" font-family="'BarlowCondensed-Light'" font-size="21px">OREM IPSUM DO</tspan><tspan x="117.2" y="0" fill="#3F4B88" font-family="'BarlowCondensed-Light'" font-size="21px">L</tspan><tspan x="125.4" y="0" fill="#3F4B88" font-family="'BarlowCondensed-Light'" font-size="21px">OR SIT </tspan><tspan x="174.3" y="0" fill="#3F4B88" font-family="'BarlowCondensed-Light'" font-size="21px">A</tspan><tspan x="183.7" y="0" fill="#3F4B88" font-family="'BarlowCondensed-Light'" font-size="21px">M</tspan><tspan x="194.3" y="0" fill="#3F4B88" font-family="'BarlowCondensed-Light'" font-size="21px">E</tspan><tspan x="203.3" y="0" fill="#3F4B88" font-family="'BarlowCondensed-Light'" font-size="21px" letter-spacing="-1">T</tspan><tspan x="210.9" y="0" fill="#3F4B88" font-family="'BarlowCondensed-Light'" font-size="21px">, CON</tspan><tspan x="247.7" y="0" fill="#3F4B88" font-family="'BarlowCondensed-Light'" font-size="21px">S</tspan><tspan x="256.3" y="0" fill="#3F4B88" font-family="'BarlowCondensed-Light'" font-size="21px">ECTETUR ADIPISCING ELI</tspan><tspan x="428.9" y="0" fill="#3F4B88" font-family="'BarlowCondensed-Light'" font-size="21px" letter-spacing="-1">T</tspan><tspan x="436.5" y="0" fill="#3F4B88" font-family="'BarlowCondensed-Light'" font-size="21px">. </tspan><tspan x="444.8" y="0" fill="#3F4B88" font-family="'BarlowCondensed-Light'" font-size="21px">M</tspan><tspan x="455.9" y="0" fill="#3F4B88" font-family="'BarlowCondensed-Light'" font-size="21px">AURIS VULPU</tspan><tspan x="548" y="0" fill="#3F4B88" font-family="'BarlowCondensed-Light'" font-size="21px">T</tspan><tspan x="556" y="0" fill="#3F4B88" font-family="'BarlowCondensed-Light'" font-size="21px" letter-spacing="-1">A</tspan><tspan x="564" y="0" fill="#3F4B88" font-family="'BarlowCondensed-Light'" font-size="21px">TE </tspan><tspan x="-3.6" y="25.2" fill="#3F4B88" font-family="'BarlowCondensed-Light'" font-size="21px">QUIS DO</tspan><tspan x="52.3" y="25.2" fill="#3F4B88" font-family="'BarlowCondensed-Light'" font-size="21px">L</tspan><tspan x="60.4" y="25.2" fill="#3F4B88" font-family="'BarlowCondensed-Light'" font-size="21px">OR SIT </tspan><tspan x="109.3" y="25.2" fill="#3F4B88" font-family="'BarlowCondensed-Light'" font-size="21px">A</tspan><tspan x="118.8" y="25.2" fill="#3F4B88" font-family="'BarlowCondensed-Light'" font-size="21px">M</tspan><tspan x="129.4" y="25.2" fill="#3F4B88" font-family="'BarlowCondensed-Light'" font-size="21px">ET CONDI</tspan><tspan x="194.3" y="25.2" fill="#3F4B88" font-family="'BarlowCondensed-Light'" font-size="21px">M</tspan><tspan x="204.9" y="25.2" fill="#3F4B88" font-family="'BarlowCondensed-Light'" font-size="21px">ENTUM. NUL</tspan><tspan x="290.1" y="25.2" fill="#3F4B88" font-family="'BarlowCondensed-Light'" font-size="21px" letter-spacing="1">L</tspan><tspan x="299.3" y="25.2" fill="#3F4B88" font-family="'BarlowCondensed-Light'" font-size="21px">A</tspan><tspan x="308.8" y="25.2" fill="#3F4B88" font-family="'BarlowCondensed-Light'" font-size="21px">M NUL</tspan><tspan x="352.1" y="25.2" fill="#3F4B88" font-family="'BarlowCondensed-Light'" font-size="21px" letter-spacing="1">L</tspan><tspan x="361.3" y="25.2" fill="#3F4B88" font-family="'BarlowCondensed-Light'" font-size="21px">A ODIO, TE</tspan><tspan x="433.3" y="25.2" fill="#3F4B88" font-family="'BarlowCondensed-Light'" font-size="21px">M</tspan><tspan x="443.9" y="25.2" fill="#3F4B88" font-family="'BarlowCondensed-Light'" font-size="21px">PUS EGET ENIM </tspan><tspan x="554.7" y="25.2" fill="#3F4B88" font-family="'BarlowCondensed-Light'" font-size="21px">S</tspan><tspan x="563.3" y="25.2" fill="#3F4B88" font-family="'BarlowCondensed-Light'" font-size="21px">E</tspan><tspan x="572.3" y="25.2" fill="#3F4B88" font-family="'BarlowCondensed-Light'" font-size="21px">D</tspan><tspan x="581.7" y="25.2" fill="#3F4B88" font-family="'BarlowCondensed-Light'" font-size="21px">, </tspan><tspan x="-9.8" y="50.4" fill="#3F4B88" font-family="'BarlowCondensed-Light'" font-size="21px">A</tspan><tspan x="-0.6" y="50.4" fill="#3F4B88" font-family="'BarlowCondensed-Light'" font-size="21px">CCUMSAN PELLENTESQ</tspan><tspan x="160.5" y="50.4" fill="#3F4B88" font-family="'BarlowCondensed-Light'" font-size="21px">U</tspan><tspan x="170.1" y="50.4" fill="#3F4B88" font-family="'BarlowCondensed-Light'" font-size="21px">E </tspan><tspan x="183.3" y="50.4" fill="#3F4B88" font-family="'BarlowCondensed-Light'" font-size="21px">L</tspan><tspan x="191.4" y="50.4" fill="#3F4B88" font-family="'BarlowCondensed-Light'" font-size="21px">OREM. SU</tspan><tspan x="256.8" y="50.4" fill="#3F4B88" font-family="'BarlowCondensed-Light'" font-size="21px">S</tspan><tspan x="265.5" y="50.4" fill="#3F4B88" font-family="'BarlowCondensed-Light'" font-size="21px">PENDIS</tspan><tspan x="316.8" y="50.4" fill="#3F4B88" font-family="'BarlowCondensed-Light'" font-size="21px">S</tspan><tspan x="325.5" y="50.4" fill="#3F4B88" font-family="'BarlowCondensed-Light'" font-size="21px">E ID POS</tspan><tspan x="384.4" y="50.4" fill="#3F4B88" font-family="'BarlowCondensed-Light'" font-size="21px">U</tspan><tspan x="394.1" y="50.4" fill="#3F4B88" font-family="'BarlowCondensed-Light'" font-size="21px">ERE </tspan><tspan x="425.4" y="50.4" fill="#3F4B88" font-family="'BarlowCondensed-Light'" font-size="21px">M</tspan><tspan x="436.5" y="50.4" fill="#3F4B88" font-family="'BarlowCondensed-Light'" font-size="21px">AURI</tspan><tspan x="469.3" y="50.4" fill="#3F4B88" font-family="'BarlowCondensed-Light'" font-size="21px">S</tspan><tspan x="478" y="50.4" fill="#3F4B88" font-family="'BarlowCondensed-Light'" font-size="21px">. NUL</tspan><tspan x="514.6" y="50.4" fill="#3F4B88" font-family="'BarlowCondensed-Light'" font-size="21px" letter-spacing="1">L</tspan><tspan x="523.8" y="50.4" fill="#3F4B88" font-family="'BarlowCondensed-Light'" font-size="21px">A</tspan><tspan x="533.3" y="50.4" fill="#3F4B88" font-family="'BarlowCondensed-Light'" font-size="21px">M IPSUM </tspan><tspan x="75.9" y="75.6" fill="#3F4B88" font-family="'BarlowCondensed-Light'" font-size="21px">M</tspan><tspan x="87" y="75.6" fill="#3F4B88" font-family="'BarlowCondensed-Light'" font-size="21px">A</tspan><tspan x="96.1" y="75.6" fill="#3F4B88" font-family="'BarlowCondensed-Light'" font-size="21px">GNA, FE</tspan><tspan x="150" y="75.6" fill="#3F4B88" font-family="'BarlowCondensed-Light'" font-size="21px">U</tspan><tspan x="159.8" y="75.6" fill="#3F4B88" font-family="'BarlowCondensed-Light'" font-size="21px">GI</tspan><tspan x="173.5" y="75.6" fill="#3F4B88" font-family="'BarlowCondensed-Light'" font-size="21px" letter-spacing="-1">A</tspan><tspan x="181.5" y="75.6" fill="#3F4B88" font-family="'BarlowCondensed-Light'" font-size="21px">T VEL </tspan><tspan x="224.6" y="75.6" fill="#3F4B88" font-family="'BarlowCondensed-Light'" font-size="21px">L</tspan><tspan x="232.8" y="75.6" fill="#3F4B88" font-family="'BarlowCondensed-Light'" font-size="21px">OREM QUI</tspan><tspan x="299" y="75.6" fill="#3F4B88" font-family="'BarlowCondensed-Light'" font-size="21px">S</tspan><tspan x="307.6" y="75.6" fill="#3F4B88" font-family="'BarlowCondensed-Light'" font-size="21px">, PORTTI</tspan><tspan x="364.8" y="75.6" fill="#3F4B88" font-family="'BarlowCondensed-Light'" font-size="21px">T</tspan><tspan x="372.7" y="75.6" fill="#3F4B88" font-family="'BarlowCondensed-Light'" font-size="21px">OR A</tspan><tspan x="404.9" y="75.6" fill="#3F4B88" font-family="'BarlowCondensed-Light'" font-size="21px">U</tspan><tspan x="414.7" y="75.6" fill="#3F4B88" font-family="'BarlowCondensed-Light'" font-size="21px">C</tspan><tspan x="423.9" y="75.6" fill="#3F4B88" font-family="'BarlowCondensed-Light'" font-size="21px">T</tspan><tspan x="431.8" y="75.6" fill="#3F4B88" font-family="'BarlowCondensed-Light'" font-size="21px">OR NEQ</tspan><tspan x="483.1" y="75.6" fill="#3F4B88" font-family="'BarlowCondensed-Light'" font-size="21px">U</tspan><tspan x="492.7" y="75.6" fill="#3F4B88" font-family="'BarlowCondensed-Light'" font-size="21px">E.</tspan></text>
</svg>
