<svg id="svg" version="1.1" width="400" height="400" xmlns="http://www.w3.org/2000/svg" xmlns:xlink="http://www.w3.org/1999/xlink" style="display: block;"><g id="svgg"><path id="path0" d="M299.707 69.737 C 299.196 110.215,298.628 115.150,293.118 127.000 C 289.148 135.537,280.228 147.059,274.152 151.500 C 268.761 155.440,268.653 155.275,278.750 158.508 C 283.563 160.049,290.719 162.815,294.654 164.655 C 298.589 166.495,302.301 168.000,302.904 168.000 C 303.507 168.000,304.000 168.420,304.000 168.933 C 304.000 169.446,304.925 170.159,306.054 170.517 C 308.842 171.402,321.363 179.787,327.487 184.870 C 330.230 187.146,332.767 188.894,333.126 188.754 C 334.277 188.306,343.000 177.171,343.000 176.151 C 343.000 175.610,343.337 175.017,343.750 174.833 C 346.412 173.650,358.709 149.291,361.367 139.936 C 366.902 120.455,367.405 114.874,367.454 72.500 L 367.500 32.500 333.842 32.237 L 300.183 31.974 299.707 69.737 M144.500 119.443 C 138.572 123.548,123.541 134.302,116.500 139.476 C 113.750 141.497,106.775 146.487,101.000 150.565 C 87.788 159.894,86.555 160.781,81.292 164.750 C 78.922 166.537,76.574 168.000,76.075 168.000 C 75.575 168.000,75.017 168.366,74.833 168.813 C 74.650 169.260,71.350 171.810,67.500 174.480 C 63.650 177.149,59.150 180.271,57.500 181.417 C 55.850 182.562,54.275 183.725,54.000 184.000 C 53.725 184.275,51.250 186.057,48.500 187.960 C 45.750 189.863,43.350 191.775,43.167 192.210 C 42.983 192.644,42.402 193.000,41.875 193.000 C 40.793 193.000,32.078 199.227,32.078 200.000 C 32.078 200.773,40.793 207.000,41.875 207.000 C 42.402 207.000,42.983 207.356,43.167 207.790 C 43.350 208.225,45.750 210.137,48.500 212.040 C 51.250 213.943,53.725 215.725,54.000 216.000 C 54.275 216.275,55.850 217.438,57.500 218.583 C 59.150 219.729,63.650 222.851,67.500 225.520 C 71.350 228.190,74.650 230.740,74.833 231.187 C 75.017 231.634,75.575 232.000,76.075 232.000 C 76.574 232.000,78.922 233.463,81.292 235.250 C 86.555 239.219,87.788 240.106,101.000 249.435 C 106.775 253.513,113.750 258.503,116.500 260.524 C 123.541 265.698,138.572 276.452,144.500 280.557 L 149.500 284.019 149.767 259.010 L 150.034 234.000 193.267 234.001 C 245.807 234.003,250.890 234.629,265.500 242.894 C 281.669 252.042,292.060 265.821,297.253 285.000 C 299.078 291.743,299.328 296.310,299.733 330.263 L 300.183 368.026 333.842 367.763 L 367.500 367.500 367.440 327.500 C 367.370 280.512,366.429 273.018,357.645 249.500 C 355.288 243.191,349.121 231.345,347.486 229.989 C 346.669 229.310,346.000 228.382,346.000 227.925 C 346.000 219.876,313.230 189.724,295.000 180.999 C 292.525 179.815,289.375 178.248,288.000 177.517 C 270.492 168.213,252.652 166.000,195.154 166.000 L 150.034 166.000 149.767 140.990 L 149.500 115.981 144.500 119.443 " stroke="none" fill="#000000" fill-rule="evenodd"></path></g></svg>