<?xml version="1.0" encoding="utf-8"?>
<!-- Generator: Adobe Illustrator 22.1.0, SVG Export Plug-In . SVG Version: 6.00 Build 0)  -->
<svg version="1.1" xmlns="http://www.w3.org/2000/svg" xmlns:xlink="http://www.w3.org/1999/xlink" x="0px" y="0px"
	 viewBox="0 0 1400 1400" style="enable-background:new 0 0 1400 1400;" xml:space="preserve">
<style type="text/css">
	.st0{fill:#F9EBDC;}
	.st1{fill:#EDD4BE;}
	.st2{fill:#E54823;}
	.st3{fill:#B72C11;}
	.st4{fill:#CB4030;}
	.st5{fill:#FFA022;}
	.st6{fill:#4C0C03;}
	.st7{font-family:'Roboto-Bold';}
	.st8{font-size:25.9622px;}
	.st9{letter-spacing:2;}
	.st10{fill:#FFFFFF;}
	.st11{font-family:'Bungee-Regular';}
	.st12{font-size:86.1204px;}
	.st13{font-size:36.5776px;}
	.st14{letter-spacing:3;}
	.st15{font-size:63.2091px;}
</style>
<g id="BACKGROUND">
	<rect class="st0" width="1400" height="1400"/>
</g>
<g id="OBJECT">
	<g>
		<polygon class="st1" points="312.6,135.8 312.6,236.2 312.6,309.5 312.6,328.1 312.6,328.1 312.6,566.6 312.6,566.6 312.6,588.3 
			312.6,588.3 312.6,830.2 312.6,830.2 312.6,1230 312.6,1286.2 312.6,1324.2 902.2,1324.2 925.6,1324.2 970.7,1324.2 992,1324.2 
			1147.4,1324.2 1147.4,1091.4 1147.4,1043.7 1147.4,887 1147.4,873.6 1147.4,867.5 1147.4,847 1147.4,811.9 1147.4,801.8 
			1147.4,608.4 1147.4,602.3 1147.4,589 1147.4,409.4 1147.4,399.5 1147.4,364.9 1147.4,171 1147.4,135.8 		"/>
		<g>
			<g>
				<rect x="282.6" y="105.8" class="st2" width="834.8" height="1188.5"/>
				<path class="st3" d="M1117.4,781.9v-10.1L282.6,558.3v241.9l834.8,213.5V817l-32.3-8.3l8.4-32.9L1117.4,781.9z M316.3,798.7
					l-32.9-8.4l8.4-32.9l32.9,8.4L316.3,798.7z M336.6,582.2l32.9,8.4l-8.4,32.9l-32.9-8.4L336.6,582.2z M385.2,816.3l-32.9-8.4
					l8.4-32.9l32.9,8.4L385.2,816.3z M405.4,599.8l32.9,8.4l-8.4,32.9l-32.9-8.4L405.4,599.8z M454,833.9l-32.9-8.4l8.4-32.9
					l32.9,8.4L454,833.9z M474.2,617.4l32.9,8.4l-8.4,32.9l-32.9-8.4L474.2,617.4z M522.8,851.5l-32.9-8.4l8.4-32.9l32.9,8.4
					L522.8,851.5z M543.1,635l32.9,8.4l-8.4,32.9l-32.9-8.4L543.1,635z M591.6,869.1l-32.9-8.4l8.4-32.9l32.9,8.4L591.6,869.1z
					 M611.9,652.6l32.9,8.4l-8.4,32.9l-32.9-8.4L611.9,652.6z M660.4,886.7l-32.9-8.4l8.4-32.9l32.9,8.4L660.4,886.7z M680.7,670.2
					l32.9,8.4l-8.4,32.9l-32.9-8.4L680.7,670.2z M729.2,904.3l-32.9-8.4l8.4-32.9l32.9,8.4L729.2,904.3z M749.5,687.8l32.9,8.4
					l-8.4,32.9l-32.9-8.4L749.5,687.8z M798,921.9l-32.9-8.4l8.4-32.9l32.9,8.4L798,921.9z M818.3,705.4l32.9,8.4l-8.4,32.9
					l-32.9-8.4L818.3,705.4z M866.8,939.5l-32.9-8.4l8.4-32.9l32.9,8.4L866.8,939.5z M887.1,723l32.9,8.4l-8.4,32.9l-32.9-8.4
					L887.1,723z M935.6,957.1l-32.9-8.4l8.4-32.9l32.9,8.4L935.6,957.1z M955.9,740.6l32.9,8.4l-8.4,32.9l-32.9-8.4L955.9,740.6z
					 M1004.4,974.7l-32.9-8.4l8.4-32.9l32.9,8.4L1004.4,974.7z M1024.7,758.2l32.9,8.4l-8.4,32.9l-32.9-8.4L1024.7,758.2z
					 M1073.2,992.3l-32.9-8.4l8.4-32.9l32.9,8.4L1073.2,992.3z"/>
				<g>
					<polygon class="st3" points="1117.4,1294.2 1117.4,1061.4 282.6,1256.2 282.6,1294.2 					"/>
					<g>
						
							<rect x="315.4" y="1255.1" transform="matrix(0.9739 -0.2272 0.2272 0.9739 -280.2858 108.7731)" class="st4" width="34" height="34"/>
						
							<rect x="384.6" y="1238.9" transform="matrix(0.9739 -0.2272 0.2272 0.9739 -274.812 124.0641)" class="st4" width="34" height="34"/>
						
							<rect x="453.7" y="1222.8" transform="matrix(0.9739 -0.2272 0.2272 0.9739 -269.3381 139.355)" class="st4" width="34" height="34"/>
						
							<rect x="522.9" y="1206.6" transform="matrix(0.9739 -0.2272 0.2272 0.9739 -263.8735 154.6529)" class="st4" width="34" height="34"/>
						
							<rect x="592.1" y="1190.5" transform="matrix(0.9739 -0.2272 0.2272 0.9739 -258.3918 169.9381)" class="st4" width="34" height="34"/>
						
							<rect x="661.2" y="1174.4" transform="matrix(0.9739 -0.2272 0.2272 0.9739 -252.9166 185.2279)" class="st4" width="34" height="34"/>
						
							<rect x="730.4" y="1158.2" transform="matrix(0.9739 -0.2272 0.2272 0.9739 -247.4441 200.5202)" class="st4" width="34" height="34"/>
						
							<rect x="799.6" y="1142.1" transform="matrix(0.9739 -0.2272 0.2272 0.9739 -241.9718 215.8129)" class="st4" width="34" height="34"/>
						
							<rect x="868.7" y="1126" transform="matrix(0.9739 -0.2272 0.2272 0.9739 -236.497 231.103)" class="st4" width="34" height="34"/>
						
							<rect x="937.9" y="1109.8" transform="matrix(0.9739 -0.2272 0.2272 0.9739 -231.0214 246.3917)" class="st4" width="34" height="34"/>
						
							<rect x="1007.1" y="1093.7" transform="matrix(0.9739 -0.2272 0.2272 0.9739 -225.5524 261.6898)" class="st4" width="34" height="34"/>
						
							<rect x="1076.2" y="1077.6" transform="matrix(0.9739 -0.2272 0.2272 0.9739 -220.0748 276.9753)" class="st4" width="34" height="34"/>
					</g>
				</g>
				<g>
					<polygon class="st5" points="733.3,194.7 765.4,151.9 720,123.8 602.8,145.9 282.6,206.2 282.6,279.5 616.1,216.7 					"/>
					<g>
						<text transform="matrix(0.9827 -0.185 0.185 0.9827 311.1996 246.3381)"><tspan x="0" y="0" class="st6 st7 st8 st9">Y</tspan><tspan x="18.3" y="0" class="st6 st7 st8 st9">OUR COMMUN</tspan><tspan x="218.1" y="0" class="st6 st7 st8 st9">I</tspan><tspan x="227.9" y="0" class="st6 st7 st8 st9">T</tspan><tspan x="246.8" y="0" class="st6 st7 st8 st9">Y PRESE</tspan><tspan x="365.9" y="0" class="st6 st7 st8 st9">N</tspan><tspan x="386.5" y="0" class="st6 st7 st8 st9">T</tspan><tspan x="404.9" y="0" class="st6 st7 st8 st9">S</tspan></text>
					</g>
				</g>
				<g>
					<path class="st6" d="M1117.4,141L282.6,298.1v238.5l834.8-157.2v-10l-26.5,5l-6.3-33.4l32.8-6.2V141z M283.4,307.9l33.4-6.3
						l6.3,33.4l-33.4,6.3L283.4,307.9z M323.1,519l-6.3-33.4l33.4-6.3l6.3,33.4L323.1,519z M353.2,294.8l33.4-6.3l6.3,33.4
						l-33.4,6.3L353.2,294.8z M392.9,505.9l-6.3-33.4l33.4-6.3l6.3,33.4L392.9,505.9z M423,281.7l33.4-6.3l6.3,33.4l-33.4,6.3
						L423,281.7z M462.7,492.7l-6.3-33.4l33.4-6.3l6.3,33.4L462.7,492.7z M492.7,268.5l33.4-6.3l6.3,33.4l-33.4,6.3L492.7,268.5z
						 M532.5,479.6l-6.3-33.4l33.4-6.3l6.3,33.4L532.5,479.6z M562.5,255.4l33.4-6.3l6.3,33.4l-33.4,6.3L562.5,255.4z M602.3,466.5
						L596,433l33.4-6.3l6.3,33.4L602.3,466.5z M632.3,242.2l33.4-6.3l6.3,33.4l-33.4,6.3L632.3,242.2z M672.1,453.3l-6.3-33.4
						l33.4-6.3l6.3,33.4L672.1,453.3z M702.1,229.1l33.4-6.3l6.3,33.4l-33.4,6.3L702.1,229.1z M741.9,440.2l-6.3-33.4l33.4-6.3
						l6.3,33.4L741.9,440.2z M771.9,216l33.4-6.3l6.3,33.4l-33.4,6.3L771.9,216z M811.7,427l-6.3-33.4l33.4-6.3l6.3,33.4L811.7,427z
						 M841.7,202.8l33.4-6.3l6.3,33.4l-33.4,6.3L841.7,202.8z M881.5,413.9l-6.3-33.4l33.4-6.3l6.3,33.4L881.5,413.9z M911.5,189.7
						l33.4-6.3l6.3,33.4l-33.4,6.3L911.5,189.7z M951.3,400.8l-6.3-33.4l33.4-6.3l6.3,33.4L951.3,400.8z M981.3,176.5l33.4-6.3
						l6.3,33.4l-33.4,6.3L981.3,176.5z M1021.1,387.6l-6.3-33.4l33.4-6.3l6.3,33.4L1021.1,387.6z M1057.4,196.8l-6.3-33.4l33.4-6.3
						l6.3,33.4L1057.4,196.8z"/>
					<text transform="matrix(0.9827 -0.185 0.185 0.9827 401.8956 426.5933)"><tspan x="0" y="0" class="st10 st11 st12">MOVIE </tspan><tspan x="327.3" y="0" class="st5 st11 st12">NIGH</tspan><tspan x="570.5" y="0" class="st5 st11 st12">T</tspan></text>
					<polygon class="st10" points="340.3,389.5 347.6,399.3 359.9,398.8 352.8,408.8 357.1,420.4 345.4,416.8 335.8,424.4 
						335.6,412.1 325.3,405.3 337,401.3 					"/>
					<polygon class="st10" points="1054.1,255.1 1061.4,264.9 1073.7,264.4 1066.6,274.5 1070.9,286 1059.2,282.4 1049.6,290 
						1049.4,277.7 1039.1,270.9 1050.8,266.9 					"/>
				</g>
				<g>
					<g>
						<path class="st6" d="M661.5,559L661.5,559c0,41.5-33.7,75.2-75.2,75.2l0,0v147.6l0,0c41.5,0,75.2,33.7,75.2,75.2v0h455.9V559
							H661.5z"/>
						<path class="st4" d="M678.9,837.5c-7.7-36.5-36.6-65.5-73.2-73.2V651.6c36.5-7.7,65.5-36.6,73.2-73.2h438.5v-6.1H673.9
							l-0.5,2.5c-6.5,36.1-35.2,64.7-71.2,71.2l-2.5,0.5v122.9l2.5,0.5c36.1,6.5,64.7,35.2,71.2,71.2l0.5,2.5h443.6v-6.1H678.9z"/>
					</g>
					<text transform="matrix(1 0 0 1 680.0298 688.0225)"><tspan x="0" y="0" class="st10 st7 st13 st14">FRI</tspan><tspan x="65" y="0" class="st10 st7 st13 st14">D</tspan><tspan x="92.1" y="0" class="st10 st7 st13">A</tspan><tspan x="117.7" y="0" class="st10 st7 st13">Y</tspan><tspan x="139.8" y="0" class="st10 st7 st13 st14">, O</tspan><tspan x="194.1" y="0" class="st10 st7 st13 st14">C</tspan><tspan x="221.1" y="0" class="st10 st7 st13 st14">T</tspan><tspan x="246.9" y="0" class="st10 st7 st13 st14">OBER 19</tspan></text>
					<text transform="matrix(1 0 0 1 655.4956 759.1074)"><tspan x="0" y="0" class="st5 st7 st13 st9">L</tspan><tspan x="22.3" y="0" class="st5 st7 st13 st14">OREM </tspan><tspan x="150.9" y="0" class="st5 st7 st13 st9">A</tspan><tspan x="177.8" y="0" class="st5 st7 st13 st14">VENUE | 6PM</tspan></text>
					<rect x="657" y="707.8" class="st10" width="433" height="3"/>
				</g>
				<g>
					<polygon class="st5" points="282.6,741.5 282.6,1200 803.4,1097.9 					"/>
					<g>
						<polygon class="st6" points="925.4,1181.8 872.2,1294.2 895.6,1294.2 944.5,1190.9 						"/>
						<polygon class="st6" points="950.8,1192.7 940.7,1294.2 962,1294.2 971.9,1194.7 						"/>
						<g>
							<g>
								<g>
									<polygon class="st6" points="799.8,1047.2 770.1,1154.2 901.5,1133 									"/>
								</g>
							</g>
							<g>
								<g>
									<polygon class="st4" points="819.8,1064 813,1058.3 787.1,1151.5 795.9,1150.1 									"/>
								</g>
							</g>
						</g>
						<g>
							<g>
								<g>
									
										<rect x="887" y="1043.6" transform="matrix(0.2673 -0.9636 0.9636 0.2673 -406.6766 1760.5334)" class="st6" width="134.6" height="208.2"/>
								</g>
							</g>
							<g>
								<g>
									<path class="st4" d="M1025.7,1221l-170.3-47.2l27.6-99.4l170.3,47.2L1025.7,1221z M860.9,1170.6l161.7,44.9l25.2-90.8
										l-161.7-44.9L860.9,1170.6z"/>
								</g>
							</g>
						</g>
						<g>
							<g>
								<g>
									
										<ellipse transform="matrix(0.4434 -0.8963 0.8963 0.4434 -365.6032 1539.8435)" class="st6" cx="1057" cy="1064.3" rx="47.8" ry="47.8"/>
								</g>
							</g>
							<g>
								<path class="st4" d="M1074.5,1037.6c-1.4,5.2-6.8,8.2-12,6.8c-5.2-1.4-8.2-6.8-6.8-12c1.4-5.2,6.8-8.2,12-6.8
									C1072.9,1027.1,1075.9,1032.4,1074.5,1037.6z"/>
							</g>
							<g>
								<path class="st4" d="M1042.7,1035.8c3.8,3.8,3.7,10-0.1,13.8c-3.8,3.8-10,3.7-13.8-0.1s-3.7-10,0.1-13.8
									C1032.7,1031.9,1038.9,1032,1042.7,1035.8z"/>
							</g>
							<g>
								
									<ellipse transform="matrix(0.7414 -0.671 0.671 0.7414 -453.5583 966.6708)" class="st4" cx="1027.6" cy="1071.9" rx="9.7" ry="9.7"/>
							</g>
							<g>
								<path class="st4" d="M1039.5,1090.9c1.4-5.2,6.8-8.2,12-6.8c5.2,1.4,8.2,6.8,6.8,12c-1.4,5.2-6.8,8.2-12,6.8
									C1041.1,1101.5,1038.1,1096.1,1039.5,1090.9z"/>
							</g>
							<g>
								<path class="st4" d="M1071.3,1092.8c-3.8-3.8-3.7-10,0.1-13.8c3.8-3.8,10-3.7,13.8,0.1c3.8,3.8,3.7,10-0.1,13.8
									C1081.3,1096.7,1075.1,1096.6,1071.3,1092.8z"/>
							</g>
							<g>
								<path class="st4" d="M1088.8,1066.1c-5.2,1.3-10.5-1.8-11.9-7c-1.3-5.2,1.8-10.5,7-11.9c5.2-1.3,10.5,1.8,11.9,7
									C1097.2,1059.5,1094,1064.8,1088.8,1066.1z"/>
							</g>
						</g>
						<g>
							<g>
								<g>
									
										<ellipse transform="matrix(0.8741 -0.4857 0.4857 0.8741 -377.2281 591.9376)" class="st6" cx="953.4" cy="1023.7" rx="64.6" ry="64.6"/>
								</g>
							</g>
							<g>
								<path class="st4" d="M977,987.7c-1.9,7-9.2,11.1-16.2,9.2c-7-1.9-11.1-9.2-9.2-16.2c1.9-7,9.2-11.1,16.2-9.2
									C974.8,973.4,978.9,980.7,977,987.7z"/>
							</g>
							<g>
								<path class="st4" d="M934,985.2c5.1,5.2,5,13.5-0.2,18.6c-5.2,5.1-13.5,5-18.6-0.2c-5.1-5.2-5-13.5,0.2-18.6
									C920.6,980,928.9,980,934,985.2z"/>
							</g>
							<g>
								<path class="st4" d="M910.3,1021.3c7-1.8,14.2,2.4,16,9.4s-2.4,14.2-9.4,16c-7,1.8-14.2-2.4-16-9.4
									C899.1,1030.3,903.3,1023.1,910.3,1021.3z"/>
							</g>
							<g>
								<path class="st4" d="M929.7,1059.8c1.9-7,9.2-11.1,16.2-9.2c7,1.9,11.1,9.2,9.2,16.2c-1.9,7-9.2,11.1-16.2,9.2
									C931.9,1074,927.8,1066.8,929.7,1059.8z"/>
							</g>
							<g>
								<path class="st4" d="M972.7,1062.2c-5.1-5.2-5-13.5,0.2-18.6c5.2-5.1,13.5-5,18.6,0.2c5.1,5.2,5,13.5-0.2,18.6
									S977.8,1067.4,972.7,1062.2z"/>
							</g>
							<g>
								<path class="st4" d="M996.4,1026.2c-7,1.8-14.2-2.4-16-9.4c-1.8-7,2.4-14.2,9.4-16c7-1.8,14.2,2.4,16,9.4
									C1007.7,1017.2,1003.4,1024.4,996.4,1026.2z"/>
							</g>
						</g>
					</g>
				</g>
			</g>
			<g>
				<g>
					<g>
						<text transform="matrix(0.9814 -0.1921 0.1921 0.9814 319.5216 1046.9763)" class="st6 st11 st15">MOVIE</text>
					</g>
				</g>
			</g>
			<g>
				<g>
					<g>
						<text transform="matrix(0.9814 -0.1921 0.1921 0.9814 335.3706 1111.6967)" class="st6 st11 st15">TITLE</text>
					</g>
				</g>
			</g>
		</g>
	</g>
</g>
</svg>
